<svg width="500" height="500" viewBox="0 0 500 500" fill="none" xmlns="http://www.w3.org/2000/svg">
<g clip-path="url(#clip0_6_72670)">
<path fill-rule="evenodd" clip-rule="evenodd" d="M363.361 73.7314C334.635 28.4276 294.779 0.309187 250.13 0C160.831 0.456714 90.5479 112.703 90.5479 250.071C90.5479 318.67 108.152 381.125 136.891 426.408C165.626 471.693 205.48 499.833 250.129 500C294.778 499.833 334.635 471.693 363.361 426.408C392.103 381.125 409.712 318.67 409.712 250.071C409.712 181.45 392.103 119.014 363.361 73.7314Z" fill="#1F211D"/>
<path fill-rule="evenodd" clip-rule="evenodd" d="M392.338 154.46C384.454 124.964 373.022 98.4788 358.96 76.3772C344.752 54.2421 328.067 36.3445 309.685 24C291.301 11.8295 271.298 5.05654 250.13 5.05654C228.963 5.05654 208.96 11.8295 190.575 24C172.194 36.3445 155.508 54.2421 141.301 76.3772C127.239 98.4788 115.807 124.964 107.923 154.46C100.046 183.795 95.7168 216.147 95.7168 250.151C95.7168 317.86 113.188 379.395 141.301 423.633C155.508 445.758 172.194 463.647 190.575 475.992C208.96 488.186 228.963 494.943 250.13 494.943C271.298 494.943 291.301 488.186 309.685 475.992C328.067 463.647 344.752 445.758 358.96 423.633C387.073 379.395 404.544 317.86 404.544 250.151C404.544 216.147 400.214 183.795 392.338 154.46Z" fill="#E21C2A"/>
<path fill-rule="evenodd" clip-rule="evenodd" d="M250.13 480.961C171.189 480.494 109.473 376.692 109.473 250.151C109.473 123.464 171.189 19.6413 250.13 19.1961C329.071 19.6413 390.788 123.464 390.788 250.151C390.788 376.692 329.071 480.494 250.13 480.961Z" fill="#1F211D"/>
<path fill-rule="evenodd" clip-rule="evenodd" d="M250.13 114.286C303.121 114.286 349.067 143.026 372.711 185.298C366.373 150.862 355.409 119.999 340.723 95.023C317.408 55.4496 285.356 31.4019 250.13 31.2403C214.904 31.4019 182.853 55.4496 159.538 95.023C144.852 119.999 133.887 150.862 127.551 185.298C151.194 143.026 197.14 114.286 250.13 114.286Z" fill="white"/>
<path fill-rule="evenodd" clip-rule="evenodd" d="M250.13 385.864C197.14 385.864 151.345 357.138 127.709 314.854C133.887 349.301 144.852 380.142 159.538 404.988C171.273 424.685 185.021 440.792 200.469 451.769C215.761 462.9 232.523 468.923 250.13 468.923C267.739 468.923 284.5 462.9 299.792 451.769C315.24 440.792 328.988 424.685 340.723 404.988C355.409 380.142 366.373 349.301 372.552 314.854C348.916 357.138 303.121 385.864 250.13 385.864Z" fill="white"/>
<path fill-rule="evenodd" clip-rule="evenodd" d="M296.41 387.027C287.783 389.915 282.951 396.483 286.346 406.09C288.634 412.619 295.503 416.625 303.958 413.822C306.907 412.802 310.124 411.027 311.154 407.693L311.326 407.781C314.159 416.025 311.326 419.398 307.914 421.106C304.542 422.693 301.436 421.881 299.421 419.515L299.398 419.475L293.716 423.304C297.011 428.108 303.184 429.578 309.991 427.29C317.96 424.625 324.284 417.033 318.968 401.95C317.048 396.433 311.677 381.923 296.41 387.027ZM303.646 407.064C300.351 408.148 295.926 408.166 293.872 402.322C291.913 396.746 296.337 394.106 298.548 393.428C303.044 391.942 306.15 393.933 307.742 398.337C309.367 403 306.673 406.035 303.646 407.064Z" fill="#1F211D"/>
<path fill-rule="evenodd" clip-rule="evenodd" d="M252.596 104.187C261.618 104.187 269.761 100.424 275.388 94.4046L268.714 88.4576C264.719 92.6908 258.98 95.3701 252.596 95.3701C240.496 95.3701 230.677 85.833 230.677 74.0424C230.677 62.1811 240.496 52.6272 252.596 52.6272C258.98 52.6272 264.719 55.3189 268.714 59.5486L275.372 53.568C269.705 47.5769 261.618 43.8083 252.596 43.8083C235.506 43.8083 221.645 57.3366 221.645 74.0424C221.645 90.6731 235.506 104.187 252.596 104.187Z" fill="#1F211D"/>
<path fill-rule="evenodd" clip-rule="evenodd" d="M295.191 79.7668L301.803 113.443C303.378 114.096 304.909 114.712 306.478 115.421L315.846 92.9938L325.658 125.449C329.499 127.864 333.266 130.521 336.851 133.313L319.826 77.2456L314.509 73.1546L306.829 91.6466L300.445 62.053L293.059 57.2526L277.636 106.527C280.524 107.087 283.38 107.71 286.229 108.447L295.191 79.7668Z" fill="#1F211D"/>
<path fill-rule="evenodd" clip-rule="evenodd" d="M183.885 107.793L210.776 97.3746L214.193 108.439C216.982 107.701 219.842 107.087 222.704 106.527L207.489 57.2526L196.36 64.227L161.293 135.03C165.701 131.476 170.39 128.17 175.224 125.128L183.885 107.793ZM202.427 70.4823L208.216 89.1396L189.568 96.3613L202.427 70.4823Z" fill="#1F211D"/>
<path fill-rule="evenodd" clip-rule="evenodd" d="M261.674 393.678C252.596 394.445 246.274 399.633 247.13 409.758C247.743 416.565 253.392 422.154 262.296 421.396C265.436 421.162 268.948 420.193 270.813 417.272L270.947 417.36C271.609 426.032 267.98 428.648 264.274 429.388C260.611 430.201 257.817 428.698 256.47 425.914V425.849L250.002 428.242C251.95 433.573 257.611 436.469 264.758 435.906C273.118 435.227 281.166 429.388 279.813 413.51C279.362 407.681 277.776 392.398 261.674 393.678ZM263.711 414.761C260.221 415.072 255.913 414.082 255.373 407.898C254.906 401.959 259.831 400.524 262.197 400.369C266.872 399.984 269.433 402.612 269.839 407.314C270.267 412.239 266.872 414.549 263.711 414.761Z" fill="#1F211D"/>
<path fill-rule="evenodd" clip-rule="evenodd" d="M226.954 392.187C218.933 390.777 211.912 393.933 210.679 400.952C209.98 404.725 211.444 407.643 214.781 409.913C207.289 411.544 206.329 416.993 205.95 419.048C204.929 424.663 207.779 432.238 219.607 434.331C231.743 436.39 236.917 428.943 237.876 423.772C238.812 418.468 236.825 415.467 232.776 412.714C236.777 411.689 238.92 408.906 239.563 405.377C240.554 399.711 236.427 393.833 226.954 392.187ZM228.91 422.599C228.4 425.432 225.537 428.698 220.829 427.847C216.707 427.145 213.946 424.011 214.67 420.011C215.455 415.612 219.634 414.355 222.943 414.984C227.974 415.769 229.458 419.698 228.91 422.599ZM231.084 404.805C230.549 407.71 227.791 409.486 224.223 408.878C220.328 408.166 218.463 405.12 218.877 402.745C219.426 399.689 222.298 398.041 226.369 398.721C229.26 399.244 231.639 401.67 231.084 404.805Z" fill="#1F211D"/>
<path fill-rule="evenodd" clip-rule="evenodd" d="M183.322 388.179L182.09 387.762L180.34 392.655L180.398 392.67L179.535 395.035L181.222 395.648C185.675 397.201 188.714 397.201 190.745 396.378L181.572 422.599L190.319 425.487L203.819 386.972L195.871 384.271C195.256 386.058 189.946 390.345 183.322 388.179Z" fill="#1F211D"/>
<path fill-rule="evenodd" clip-rule="evenodd" d="M337.18 269.414V344.792C359.121 325.681 374.421 299.203 379.057 269.414H337.18Z" fill="white"/>
<path fill-rule="evenodd" clip-rule="evenodd" d="M257.321 376.847C268.135 376.239 278.627 374.286 288.517 371.426V269.414H257.321V376.847Z" fill="white"/>
<path fill-rule="evenodd" clip-rule="evenodd" d="M378.434 226.53C373.037 198.453 358.277 173.687 337.18 155.496V226.53H378.434Z" fill="white"/>
<path fill-rule="evenodd" clip-rule="evenodd" d="M257.321 226.53H288.517V128.732C278.471 125.88 268.135 123.926 257.321 123.319V226.53Z" fill="white"/>
<path fill-rule="evenodd" clip-rule="evenodd" d="M337.179 155.365H337.029C337.081 155.408 337.129 155.453 337.179 155.496V155.365Z" fill="white"/>
<path fill-rule="evenodd" clip-rule="evenodd" d="M135.579 311.08V189.055C125.538 207.277 119.672 228.035 119.672 250.151C119.672 272.12 125.538 292.88 135.579 311.08Z" fill="#E21C2A"/>
<path fill-rule="evenodd" clip-rule="evenodd" d="M295.325 130.987V233.298H257.311V262.64L295.325 262.798V369.165C307.971 364.664 319.726 358.173 330.24 350.214V262.798H380.126C380.589 258.572 380.743 254.371 380.743 250.151C380.743 244.441 380.276 238.719 379.503 233.298H330.24V149.941C319.726 141.968 307.971 135.5 295.325 130.987Z" fill="#E21C2A"/>
<path fill-rule="evenodd" clip-rule="evenodd" d="M208.647 370.519C216.532 373.079 224.565 374.887 233.056 376.089V124.063C224.565 125.115 216.532 127.082 208.647 129.642V370.519Z" fill="#E21C2A"/>
<path fill-rule="evenodd" clip-rule="evenodd" d="M159.988 341.776C167.407 348.701 175.441 354.562 184.238 359.698V140.466C175.441 145.43 167.407 151.438 159.988 158.374V341.776Z" fill="#E21C2A"/>
</g>
<defs>
<clipPath id="clip0_6_72670">
<rect width="318.905" height="500" fill="white" transform="translate(90.5479)"/>
</clipPath>
</defs>
</svg>
