<svg width="500" height="500" viewBox="0 0 500 500" fill="none" xmlns="http://www.w3.org/2000/svg">
<g clip-path="url(#clip0_6_72710)">
<path d="M436.524 105.75L435.211 98.5952L428.056 97.0855C427.596 96.9542 380.333 87.1078 338.322 63.6077C278.39 30.0643 258.238 8.9274 258.041 8.73047L250.033 1.90735e-06L242.024 8.66483C241.827 8.86176 221.61 30.13 161.809 63.6077C119.798 87.0421 72.5351 96.9542 72.0099 97.0855L64.8549 98.5952L63.542 105.75C55.2054 150.584 55.0741 195.681 63.2138 239.99L66.8242 257.647L67.8088 261.717C79.2306 308.192 99.4486 351.648 127.937 390.836C158.79 433.307 197.978 468.951 244.453 496.718L250.033 500L255.612 496.718C302.087 468.951 341.276 433.307 372.194 390.836C400.617 351.648 420.769 308.258 432.257 261.717L436.852 239.99C444.991 195.681 444.86 150.584 436.524 105.75Z" fill="#17191D"/>
<path d="M425.824 107.72C425.824 107.72 376.92 97.6106 333.005 73.0603C269.857 37.7445 250.033 16.0168 250.033 16.0168C250.033 16.0168 230.209 37.7445 167.06 73.0603C123.146 97.6106 74.2418 107.72 74.2418 107.72C65.1831 156.164 66.2334 204.674 76.4736 250.821H423.592C433.767 204.674 434.817 156.164 425.824 107.72Z" fill="#FBBA00"/>
<path d="M250.033 487.331C341.932 432.454 402.455 346.593 423.592 250.886H76.4736C97.6106 346.593 158.133 432.454 250.033 487.331Z" fill="#970A2C"/>
<path d="M218.721 420.901C216.752 420.901 214.98 420.835 213.667 420.835C212.879 420.835 212.288 420.769 211.829 420.769C211.435 420.769 210.778 420.769 209.859 420.835C208.415 420.901 206.38 420.901 204.739 420.901C204.345 420.901 203.952 420.835 203.952 420.441C203.952 420.179 204.149 419.982 204.345 419.982C204.871 419.982 206.906 419.85 207.693 419.653C209.006 419.391 209.137 418.8 209.269 417.553C209.4 415.912 209.531 412.498 209.466 408.166L209.4 401.536V396.088C209.4 394.972 209.334 394.644 208.809 394.644C208.218 394.644 206.315 395.563 205.068 396.153C204.674 396.35 204.28 396.547 204.083 396.613C204.017 396.613 203.952 396.678 203.886 396.678C203.755 396.744 203.623 396.81 203.492 396.81C203.361 396.81 203.098 396.482 203.098 396.219C203.098 395.956 203.361 395.76 203.492 395.628C203.558 395.628 203.82 395.366 204.345 395.037C206.38 393.659 211.894 390.049 213.076 389.195C213.404 388.933 213.798 388.67 214.126 388.67C214.52 388.67 214.717 389.13 214.717 389.589C214.717 389.655 214.454 393.659 214.454 400.42V408.166C214.454 412.039 214.454 415.715 214.586 417.553C214.717 418.866 214.914 419.391 216.161 419.719C216.818 419.85 218.59 419.982 218.918 419.982C219.115 419.982 219.378 420.179 219.378 420.441C219.378 420.835 219.181 420.901 218.721 420.901Z" fill="#100F0D"/>
<path d="M230.34 421.754C230.143 421.754 229.88 421.491 229.88 421.229C229.946 420.901 230.34 420.572 230.406 420.507C231.653 419.719 234.738 417.553 237.364 413.549C239.858 409.741 241.105 405.606 241.105 401.208C241.105 395.956 239.136 390.639 234.869 390.639C231.981 390.639 229.946 393.265 229.946 396.81C229.946 403.308 234.278 404.621 235.394 404.621C236.576 404.621 237.495 404.424 238.217 404.096C238.414 404.03 238.611 403.899 238.742 403.834C238.873 403.768 239.005 403.702 239.07 403.702C239.267 403.702 239.464 403.834 239.464 404.096C239.53 404.227 239.399 404.49 239.267 404.621C238.151 405.868 236.182 406.525 233.819 406.525C227.649 406.525 225.351 401.733 225.351 398.451C225.351 395.694 226.401 393.199 228.239 391.427C230.143 389.655 232.834 388.67 235.92 388.67C239.136 388.67 241.827 389.786 243.731 391.952C245.503 393.987 246.422 396.81 246.422 399.961V400.026C246.422 405.146 244.519 409.938 240.711 414.205C236.904 418.537 232.44 420.901 231.193 421.491C230.931 421.688 230.668 421.754 230.34 421.754Z" fill="#100F0D"/>
<path d="M266.772 420.769H250.624C250.295 420.769 250.033 420.441 250.033 420.113C250.033 419.85 250.295 419.456 250.82 418.997C251.214 418.669 251.608 418.275 252.002 417.947C257.713 412.958 264.868 406.722 264.868 398.582C264.868 395.694 264.146 393.528 262.833 392.215C261.455 390.836 259.879 390.705 259.223 390.705C257.319 390.705 256.072 391.164 254.956 392.215C253.971 393.199 253.184 395.169 253.184 396.153C253.184 396.547 253.118 396.744 252.987 396.875C252.921 397.007 252.79 397.007 252.593 397.007C252.396 397.007 252.199 396.678 252.133 396.088C252.133 395.956 252.133 395.628 252.068 395.169C252.002 393.987 251.936 391.952 251.936 391.099C251.936 390.705 252.002 390.508 252.396 390.18C254.431 389.13 256.86 388.604 259.879 388.604C266.378 388.604 270.316 391.952 270.316 397.532C270.316 405.606 261.455 412.695 256.203 416.962L256.137 417.028C256.072 417.093 256.006 417.093 256.006 417.159C256.006 417.159 256.072 417.225 256.137 417.225H258.96C260.667 417.225 264.671 417.225 266.05 417.028C268.61 416.699 270.119 415.518 270.71 413.352C270.841 412.892 270.907 412.63 271.235 412.63C271.629 412.63 271.629 413.155 271.629 413.483C271.629 414.139 270.841 418.012 270.448 419.456C270.119 420.638 269.397 420.769 266.772 420.769Z" fill="#100F0D"/>
<path d="M280.951 421.491C280.491 421.491 280.294 421.36 280.294 420.966C280.294 420.441 280.36 419.85 280.557 419.26C281.804 414.927 287.121 402.718 292.635 393.331H282.066C281.082 393.331 279.244 393.462 278.194 394.118C277.471 394.578 276.946 395.956 276.815 396.613C276.815 397.007 276.618 397.204 276.356 397.204C276.027 397.204 275.962 396.941 275.962 396.482C275.962 395.497 276.224 393.199 276.356 391.493C276.421 390.574 276.552 389.852 276.552 389.655C276.552 389.261 276.749 389.064 277.078 389.064C277.143 389.064 277.209 389.064 277.275 389.13C277.734 389.195 279.047 389.458 282.657 389.458H295.851C296.573 389.458 296.902 389.589 296.902 389.852C296.902 390.114 296.77 390.442 296.639 390.639C293.226 395.497 286.727 412.039 286.136 417.487C286.071 417.947 286.071 418.209 286.136 418.537V419.063C286.136 419.85 282.723 421.491 280.951 421.491Z" fill="#100F0D"/>
<path d="M218.721 419.391C216.752 419.391 214.98 419.325 213.667 419.325C212.879 419.325 212.288 419.26 211.829 419.26C211.435 419.26 210.778 419.26 209.859 419.325C208.415 419.391 206.38 419.391 204.739 419.391C204.345 419.391 203.952 419.391 203.952 418.997C203.952 418.669 204.149 418.472 204.345 418.472C204.871 418.472 206.906 418.341 207.693 418.144C209.006 417.881 209.137 417.29 209.269 415.977C209.4 414.271 209.531 410.726 209.466 406.656L209.4 400.026V394.578C209.4 393.462 209.334 393.134 208.809 393.134C208.218 393.134 206.315 394.053 205.068 394.644C204.674 394.841 204.28 395.037 204.083 395.103C204.017 395.103 203.952 395.169 203.886 395.169C203.755 395.234 203.623 395.3 203.492 395.3C203.361 395.3 203.098 395.103 203.098 394.775C203.098 394.512 203.23 394.315 203.492 394.118C203.558 394.118 203.82 393.856 204.345 393.528C206.38 392.149 211.894 388.539 213.076 387.685C213.404 387.423 213.798 387.16 214.126 387.16C214.52 387.16 214.717 387.62 214.717 388.079C214.717 388.145 214.454 392.149 214.454 398.91V406.656C214.454 410.529 214.454 414.205 214.586 415.977C214.717 417.356 214.914 417.947 216.161 418.209C216.818 418.341 218.59 418.472 218.918 418.472C219.115 418.472 219.378 418.603 219.378 418.997C219.378 419.391 219.115 419.391 218.721 419.391Z" fill="#BCB9B7"/>
<path d="M230.34 420.31C230.143 420.31 229.88 420.047 229.88 419.785C229.88 419.522 230.143 419.26 230.34 419.128L230.406 419.063C231.653 418.341 234.738 416.174 237.364 412.104C239.858 408.297 241.105 404.162 241.105 399.764C241.105 394.512 239.136 389.195 234.869 389.195C231.981 389.195 229.946 391.821 229.946 395.366C229.946 401.864 234.278 403.177 235.394 403.177C236.773 403.177 237.626 402.915 238.217 402.718C238.348 402.652 238.414 402.586 238.545 402.521C238.808 402.324 238.939 402.192 239.07 402.192C239.333 402.192 239.464 402.455 239.464 402.652C239.53 402.783 239.399 403.046 239.267 403.177C238.151 404.424 236.182 405.081 233.819 405.081C227.649 405.081 225.351 400.289 225.351 397.007C225.351 394.25 226.401 391.755 228.239 389.983C230.143 388.211 232.834 387.226 235.92 387.226C239.136 387.226 241.827 388.342 243.731 390.508C245.503 392.543 246.422 395.366 246.422 398.582V398.648C246.422 403.768 244.519 408.56 240.711 412.827C236.904 417.159 232.44 419.522 231.193 420.113C230.931 420.179 230.734 420.31 230.34 420.31Z" fill="#BCB9B7"/>
<path d="M266.772 419.325H250.624C250.295 419.325 250.033 418.997 250.033 418.669C250.033 418.406 250.295 418.012 250.82 417.553C251.28 417.159 251.739 416.699 252.265 416.306C257.91 411.382 264.868 405.212 264.868 397.138C264.868 394.25 264.146 392.083 262.833 390.771C261.455 389.392 259.879 389.261 259.223 389.261C257.319 389.261 256.072 389.72 254.956 390.771C253.971 391.755 253.184 393.725 253.184 394.709C253.184 395.037 253.118 395.3 253.052 395.431C252.987 395.563 252.79 395.563 252.658 395.563C252.461 395.563 252.265 395.3 252.199 394.709V394.25C252.133 393.199 252.002 390.705 252.002 389.655C252.002 389.326 252.068 389.13 252.462 388.801C254.496 387.751 256.925 387.226 259.945 387.226C266.443 387.226 270.382 390.574 270.382 396.153C270.382 404.227 261.52 411.317 256.203 415.584L256.137 415.649L256.006 415.781C256.006 415.846 256.072 415.846 256.137 415.846H258.96C259.813 415.846 264.605 415.78 266.05 415.584C268.61 415.255 270.119 414.074 270.71 411.908C270.776 411.448 270.973 411.186 271.235 411.186C271.629 411.186 271.629 411.711 271.629 412.039C271.629 412.695 270.841 416.568 270.448 418.012C270.119 419.194 269.397 419.325 266.772 419.325Z" fill="#BCB9B7"/>
<path d="M280.95 419.982C280.425 419.982 280.294 419.916 280.294 419.456C280.294 418.931 280.36 418.341 280.557 417.75C281.213 415.584 282.92 411.317 284.955 406.853C287.449 401.405 290.14 396.088 292.7 391.821H282.132C281.147 391.821 279.309 391.952 278.259 392.609C277.537 393.068 277.012 394.447 276.881 395.103C276.881 395.497 276.684 395.694 276.421 395.694C276.093 395.694 276.027 395.431 276.027 395.037C276.027 393.987 276.29 391.493 276.487 389.786C276.552 388.998 276.618 388.342 276.618 388.211C276.618 387.751 276.815 387.554 277.143 387.554C277.209 387.554 277.274 387.554 277.34 387.62C277.8 387.685 279.112 387.948 282.723 387.948H295.917C296.639 387.948 296.967 388.079 296.967 388.342C296.967 388.604 296.836 388.933 296.705 389.13C293.291 394.118 286.793 410.66 286.202 415.977C286.136 416.437 286.136 416.699 286.202 417.028V417.553C286.136 418.341 282.723 419.982 280.95 419.982Z" fill="#BCB9B7"/>
<path d="M136.34 322.043C136.34 322.896 136.471 323.224 136.996 323.421C138.637 324.012 141 324.275 142.904 324.275C145.989 324.275 146.974 323.946 148.418 322.896C150.715 321.255 153.013 317.645 153.013 311.277C153.013 300.315 145.727 297.099 141.132 297.099C139.162 297.099 137.784 297.164 136.996 297.427C136.471 297.558 136.34 297.886 136.34 298.477V322.043ZM127.215 315.938C127.215 304.188 127.215 302.022 127.084 299.527C126.953 296.902 126.296 295.654 123.736 295.064C123.146 294.932 121.833 294.867 120.717 294.867C119.863 294.867 119.404 294.735 119.404 294.145C119.404 293.62 119.929 293.488 121.111 293.488C125.18 293.488 130.104 293.751 131.745 293.751C134.37 293.751 140.278 293.488 142.641 293.488C147.565 293.488 152.75 293.948 156.886 296.77C159.118 298.28 162.203 302.219 162.203 307.404C162.203 313.181 159.774 318.432 151.963 324.8C158.855 333.465 164.238 340.357 168.767 345.149C173.1 349.678 176.316 350.204 177.498 350.466C178.285 350.597 179.007 350.663 179.598 350.663C180.255 350.663 180.583 350.926 180.583 351.254C180.583 351.91 180.058 352.041 179.073 352.041H171.721C167.389 352.041 165.485 351.713 163.45 350.597C160.102 348.825 157.148 345.149 152.816 339.176C149.731 334.909 146.12 329.657 145.136 328.541C144.742 328.016 144.282 327.951 143.757 327.951L136.996 327.819C136.602 327.819 136.405 327.951 136.405 328.41V329.526C136.405 336.747 136.405 342.852 136.734 346.068C136.996 348.365 137.456 350.072 139.819 350.335C140.935 350.532 142.641 350.663 143.626 350.663C144.217 350.663 144.545 350.926 144.545 351.254C144.545 351.845 143.954 352.041 142.97 352.041C138.44 352.041 132.729 351.845 131.613 351.845C130.104 351.845 125.18 352.041 122.095 352.041C121.111 352.041 120.585 351.845 120.585 351.254C120.585 350.926 120.848 350.663 121.833 350.663C122.949 350.663 123.868 350.532 124.59 350.335C126.165 350.072 126.559 348.365 126.822 346.068C127.215 342.852 127.215 336.747 127.215 329.592V315.938Z" fill="#110F0D"/>
<path d="M229.749 324.275C229.749 306.879 219.772 296.114 207.103 296.114C198.109 296.114 188.001 301.103 188.001 320.402C188.001 336.55 196.928 349.284 211.763 349.284C217.212 349.284 229.815 346.724 229.749 324.275ZM177.301 322.83C177.301 309.571 186.031 292.438 209.334 292.438C228.633 292.438 240.646 303.663 240.646 321.386C240.646 339.176 228.239 353.157 208.547 353.157C186.228 353.157 177.301 336.55 177.301 322.83Z" fill="#110F0D"/>
<path d="M252.724 294.473C252.921 293.094 253.381 292.438 254.037 292.438C254.628 292.438 255.087 292.766 256.138 294.801L277.274 337.928L298.346 294.276C298.937 293.029 299.33 292.438 300.052 292.438C300.775 292.438 301.234 293.16 301.431 294.801L308.52 342.261C309.242 347.118 309.965 349.416 312.328 350.072C314.56 350.794 316.135 350.86 317.12 350.86C317.842 350.86 318.367 350.926 318.367 351.385C318.367 352.041 317.448 352.238 316.332 352.238C314.428 352.238 303.728 352.107 300.643 351.845C298.805 351.713 298.346 351.451 298.346 351.057C298.346 350.663 298.674 350.4 299.199 350.138C299.659 350.007 299.921 349.022 299.593 346.856L294.932 313.115H294.604L277.734 347.709C275.962 351.319 275.568 352.041 274.846 352.041C274.189 352.041 273.402 350.466 272.154 348.169C270.316 344.624 264.212 332.743 263.227 330.576C262.571 328.935 257.91 319.811 255.219 313.969H254.89L250.886 344.164C250.755 345.608 250.689 346.593 250.689 347.84C250.689 349.285 251.674 350.007 252.987 350.335C254.431 350.663 255.481 350.729 256.269 350.729C256.86 350.729 257.45 350.86 257.45 351.254C257.45 351.976 256.728 352.107 255.547 352.107C252.33 352.107 248.786 351.845 247.407 351.845C245.963 351.845 242.221 352.107 239.727 352.107C239.005 352.107 238.348 351.976 238.348 351.254C238.348 350.86 238.808 350.729 239.596 350.729C240.186 350.729 240.777 350.729 241.893 350.466C244.059 350.007 244.716 346.987 245.11 344.361L252.724 294.473Z" fill="#110F0D"/>
<path d="M353.486 328.41C353.879 328.41 353.945 328.213 353.879 327.951L346.921 308.914C346.856 308.586 346.79 308.192 346.527 308.192C346.265 308.192 346.134 308.586 346.068 308.914L338.978 327.885C338.913 328.213 338.913 328.41 339.241 328.41H353.486ZM337.666 332.283C337.272 332.283 337.075 332.48 336.944 332.939L332.742 343.574C331.955 345.477 331.561 347.315 331.561 348.3C331.561 349.678 332.283 350.663 334.646 350.663H335.828C336.747 350.663 337.009 350.86 337.009 351.319C337.009 351.91 336.55 352.041 335.696 352.041C333.202 352.041 329.92 351.845 327.491 351.845C326.638 351.845 322.371 352.041 318.301 352.041C317.316 352.041 316.857 351.91 316.857 351.319C316.857 350.86 317.185 350.663 317.776 350.663C318.498 350.663 319.548 350.597 320.205 350.532C323.749 350.072 325.194 347.447 326.769 343.574L346.199 295.458C347.118 293.226 347.643 292.438 348.365 292.438C349.087 292.438 349.613 293.094 350.335 294.867C352.238 299.134 364.579 330.117 369.568 341.933C372.522 348.891 374.754 349.941 376.395 350.335C377.576 350.597 378.692 350.663 379.677 350.663C380.268 350.663 380.662 350.729 380.662 351.319C380.662 351.91 379.94 352.041 377.117 352.041C374.294 352.041 368.649 352.041 362.479 351.91C361.034 351.845 360.115 351.845 360.115 351.319C360.115 350.86 360.378 350.663 361.166 350.597C361.757 350.466 362.282 349.744 361.888 348.825L355.717 332.874C355.52 332.48 355.324 332.283 354.93 332.283H337.666Z" fill="#110F0D"/>
<path d="M136.34 320.336C136.34 321.255 136.471 321.518 136.996 321.78C138.637 322.305 141 322.568 142.904 322.568C145.989 322.568 146.974 322.24 148.418 321.255C150.715 319.483 153.013 315.938 153.013 309.571C153.013 298.608 145.727 295.392 141.132 295.392C139.162 295.392 137.784 295.458 136.996 295.72C136.471 295.851 136.34 296.18 136.34 296.77V320.336ZM127.215 314.231C127.215 302.481 127.215 300.315 127.084 297.821C126.953 295.195 126.296 293.948 123.736 293.357C123.146 293.226 121.833 293.16 120.717 293.16C119.863 293.16 119.404 293.029 119.404 292.438C119.404 291.913 119.929 291.782 121.111 291.782C125.18 291.782 130.104 291.978 131.745 291.978C134.37 291.978 140.278 291.782 142.641 291.782C147.565 291.782 152.75 292.241 156.886 295.064C159.118 296.573 162.203 300.512 162.203 305.698C162.203 311.474 159.774 316.726 151.963 323.093C158.855 331.758 164.238 338.65 168.767 343.442C173.1 347.972 176.316 348.497 177.498 348.759C178.285 348.891 179.007 348.956 179.598 348.956C180.255 348.956 180.583 349.219 180.583 349.547C180.583 350.204 180.058 350.335 179.073 350.335H171.721C167.389 350.335 165.485 349.941 163.45 348.891C160.102 347.118 157.148 343.442 152.816 337.469C149.731 333.268 146.12 327.951 145.136 326.835C144.742 326.31 144.282 326.244 143.757 326.244L136.996 326.113C136.602 326.113 136.405 326.244 136.405 326.703V327.819C136.405 335.04 136.405 341.145 136.734 344.361C136.996 346.659 137.456 348.365 139.819 348.628C140.935 348.825 142.641 348.956 143.626 348.956C144.217 348.956 144.545 349.219 144.545 349.547C144.545 350.138 143.954 350.335 142.97 350.335C138.44 350.335 132.729 350.138 131.613 350.138C130.104 350.138 125.18 350.335 122.095 350.335C121.111 350.335 120.585 350.138 120.585 349.547C120.585 349.219 120.848 348.956 121.833 348.956C122.949 348.956 123.868 348.825 124.59 348.628C126.165 348.365 126.559 346.659 126.822 344.361C127.215 341.145 127.215 335.04 127.215 327.885V314.231Z" fill="#FBBA00"/>
<path d="M229.749 322.568C229.749 305.173 219.772 294.407 207.103 294.407C198.109 294.407 188.001 299.396 188.001 318.695C188.001 334.843 196.928 347.578 211.763 347.578C217.212 347.578 229.815 344.952 229.749 322.568ZM177.301 321.124C177.301 307.864 186.031 290.731 209.334 290.731C228.633 290.731 240.646 301.956 240.646 319.68C240.646 337.469 228.239 351.451 208.547 351.451C186.228 351.451 177.301 334.843 177.301 321.124Z" fill="#FBBA00"/>
<path d="M252.724 292.635C252.921 291.322 253.381 290.666 254.037 290.666C254.628 290.666 255.087 291.059 256.138 293.029L277.274 336.156L298.346 292.504C298.937 291.256 299.33 290.666 300.052 290.666C300.775 290.666 301.234 291.453 301.431 293.029L308.52 340.488C309.242 345.346 309.965 347.643 312.328 348.366C314.56 349.022 316.135 349.088 317.12 349.088C317.842 349.088 318.367 349.153 318.367 349.613C318.367 350.269 317.448 350.466 316.332 350.466C314.363 350.466 303.728 350.335 300.643 350.138C298.805 349.941 298.346 349.744 298.346 349.284C298.346 348.891 298.674 348.628 299.199 348.431C299.659 348.234 299.921 347.25 299.593 345.083L294.932 311.343H294.604L277.734 345.937C275.962 349.547 275.568 350.269 274.846 350.269C274.189 350.269 273.402 348.694 272.154 346.396C270.316 342.852 264.212 330.97 263.227 328.804C262.571 327.163 257.91 318.039 255.219 312.196H254.89L250.886 342.458C250.755 343.836 250.689 344.821 250.689 346.068C250.689 347.512 251.674 348.234 252.987 348.562C254.431 348.891 255.481 348.956 256.269 348.956C256.86 348.956 257.45 349.088 257.45 349.481C257.45 350.204 256.728 350.335 255.547 350.335C252.33 350.335 248.786 350.138 247.407 350.138C245.963 350.138 242.221 350.335 239.727 350.335C239.005 350.335 238.348 350.204 238.348 349.481C238.348 349.088 238.808 348.956 239.596 348.956C240.186 348.956 240.777 348.956 241.893 348.694C244.059 348.234 244.716 345.215 245.11 342.589L252.724 292.635Z" fill="#FBBA00"/>
<path d="M353.486 326.703C353.879 326.703 353.945 326.507 353.879 326.244L346.921 307.208C346.856 306.879 346.79 306.485 346.527 306.485C346.265 306.485 346.134 306.879 346.068 307.208L338.978 326.178C338.913 326.507 338.913 326.703 339.241 326.703H353.486ZM337.666 330.576C337.272 330.576 337.075 330.773 336.944 331.167L332.742 341.867C331.955 343.771 331.561 345.609 331.561 346.593C331.561 347.972 332.283 348.956 334.646 348.956H335.828C336.747 348.956 337.009 349.153 337.009 349.613C337.009 350.203 336.55 350.335 335.696 350.335C333.202 350.335 329.92 350.138 327.491 350.138C326.638 350.138 322.371 350.335 318.301 350.335C317.316 350.335 316.857 350.203 316.857 349.613C316.857 349.153 317.185 348.956 317.776 348.956C318.498 348.956 319.548 348.891 320.205 348.825C323.749 348.366 325.194 345.74 326.769 341.867L346.199 293.751C347.118 291.519 347.643 290.666 348.365 290.666C349.087 290.666 349.613 291.388 350.335 293.16C352.238 297.427 364.579 328.41 369.568 340.226C372.522 347.184 374.754 348.234 376.395 348.628C377.576 348.891 378.692 348.956 379.677 348.956C380.268 348.956 380.662 349.022 380.662 349.613C380.662 350.203 379.94 350.335 377.117 350.335C374.294 350.335 368.649 350.335 362.479 350.203C361.034 350.138 360.115 350.138 360.115 349.613C360.115 349.153 360.378 348.956 361.166 348.891C361.757 348.759 362.282 348.037 361.888 347.118L355.717 331.167C355.52 330.773 355.324 330.576 354.93 330.576H337.666Z" fill="#FBBA00"/>
<path d="M426.349 253.446H73.7166C72.2725 253.446 71.0909 252.265 71.0909 250.821C71.0909 249.376 72.2725 248.195 73.7166 248.195H426.349C427.793 248.195 428.975 249.376 428.975 250.821C428.975 252.265 427.793 253.446 426.349 253.446Z" fill="#17191D"/>
<path d="M113.299 156.623C111.789 157.608 111.199 154.917 111.199 154.917C110.739 153.866 110.739 152.75 111.33 152.357C112.511 153.013 113.824 153.013 114.284 153.669C114.743 154.457 114.087 156.164 113.299 156.623ZM393.265 220.559C392.28 219.312 391.23 218.065 390.114 216.686C385.125 210.647 374.032 195.746 374.032 195.746C374.032 147.368 365.367 138.375 356.439 130.76C348.628 124.065 336.09 120.651 322.634 118.551C318.958 117.96 314.953 117.763 310.293 117.763C305.829 117.763 301.3 117.96 296.967 118.222C293.357 118.419 230.274 121.045 209.991 117.632C201.195 116.187 188.919 117.894 181.699 118.748C178.351 119.141 160.102 122.03 158.002 118.616C157.542 117.96 157.608 116.516 157.805 114.94C158.002 112.38 159.052 109.295 157.083 106.538C154.326 102.731 151.372 98.6609 149.731 98.6609C149.206 98.6609 144.742 102.337 143.626 103.453C141.788 105.291 141.197 108.31 141.263 111.855C141.329 114.021 141.197 113.627 141 113.759C140.738 114.021 129.119 114.021 126.231 114.284C126.231 113.693 126.099 110.673 124.13 107.785C122.883 105.947 121.767 99.8425 121.767 99.8425C121.767 99.8425 117.566 107.129 116.187 109.032C114.612 111.199 112.971 113.43 111.986 115.991C111.658 116.975 111.592 118.157 111.461 119.273C111.461 120.126 111.33 121.833 111.002 122.095C108.77 123.736 107.523 125.968 107.326 128.791C107.26 129.579 107.523 130.694 107.72 131.942C107.916 132.795 108.179 134.042 108.179 134.633C107.916 134.83 107.72 134.961 107.523 135.093C105.488 136.34 102.796 138.178 102.993 141.263C103.256 145.989 104.306 147.827 105.816 150.387C106.21 151.109 106.669 151.831 107.129 152.75C107.785 153.998 108.113 155.836 108.376 157.608C108.77 160.037 106.472 162.728 108.048 164.238C110.083 166.273 115.4 166.404 117.763 166.404C118.354 166.404 120.782 166.338 121.373 166.338C122.227 166.338 122.949 166.404 123.539 166.47C128.003 167.389 132.401 167.717 136.734 168.111C142.641 168.505 148.221 168.964 153.866 170.671C164.238 173.69 174.478 177.957 185.112 183.668C185.703 183.931 186.228 184.259 186.753 184.521C190.692 186.556 191.545 186.294 193.383 191.677C195.287 197.125 191.873 239.596 191.086 243.994C189.904 251.083 187.607 255.35 183.931 256.728C179.007 258.501 176.973 262.374 175.069 266.115C174.412 267.297 174.544 268.741 173.756 269.988C173.756 269.988 172.181 271.761 172.706 272.154C173.231 272.614 178.22 271.432 178.22 271.432C179.926 271.564 178.088 272.417 179.795 272.417C183.996 272.417 189.116 272.417 194.302 269.463C196.468 269.463 195.024 272.22 196.994 271.826C203.23 270.71 203.755 265.918 204.542 261.389C205.79 253.709 205.593 252.396 206.446 251.674C207.299 250.952 210.056 252.133 210.778 251.346C211.369 250.689 210.778 245.11 211.041 240.055C211.501 232.834 213.47 224.432 215.636 217.474L215.767 217.08C216.227 215.57 216.949 213.732 217.671 211.763C219.706 206.446 222.135 200.013 221.872 194.827C224.104 195.221 224.432 195.352 225.679 197.125C225.876 197.387 226.204 197.913 226.598 198.503C229.027 202.508 230.274 203.623 231.915 203.623C232.047 203.623 232.244 203.623 232.375 203.558C235.001 202.901 236.445 200.67 237.889 197.716C239.399 194.827 240.908 191.873 243.403 191.283H243.731C245.7 191.283 249.245 193.055 251.28 196.206C255.678 203.033 259.485 198.241 259.814 197.65C260.339 196.862 263.883 191.02 264.802 189.642C265.853 188.001 266.509 187.869 266.772 187.869H266.837C269.003 188.197 278.456 199.488 281.804 198.766C285.02 198.372 288.631 185.966 290.666 185.966C290.731 185.966 290.862 185.966 290.928 186.031C291.453 186.425 292.569 188.132 293.291 189.248C295.786 193.055 296.376 195.549 298.346 195.549C299.002 195.549 300.052 195.024 300.709 193.383C300.906 192.924 301.694 191.086 301.759 190.823C301.89 191.02 303.597 196.665 307.667 191.611C307.601 191.545 307.601 191.48 307.536 191.414V191.48V191.414V191.348V191.414C308.126 190.101 315.675 197.584 319.286 200.473C322.568 203.492 325.325 206.184 325.522 206.38C333.333 213.273 342.983 221.938 344.821 231.259C345.937 236.642 345.674 242.878 344.164 248.786C343.836 250.033 343.508 250.755 343.18 250.952C342.917 251.149 342.064 251.214 340.948 251.214C340.488 251.214 339.963 251.28 339.372 251.346C336.681 251.477 334.909 254.3 333.268 256.794C332.546 257.976 331.561 258.96 331.101 259.748C330.576 260.667 331.364 262.045 331.889 262.374C332.349 262.636 337.141 263.752 338.585 263.752C338.979 263.752 339.438 263.752 339.701 263.621C340.751 264.015 341.998 264.212 343.377 264.212C347.578 264.212 352.829 262.505 354.273 259.617C356.833 254.693 358.54 249.311 360.181 244.125C360.378 243.534 360.575 242.943 360.706 242.353C361.1 241.237 361.625 239.924 362.15 238.611C363.923 233.885 367.008 228.765 365.629 224.104C364.907 221.61 362.413 219.246 360.838 217.08C359.459 215.242 354.142 208.284 352.501 205.921C357.49 210.713 371.209 217.802 374.688 226.073C375.935 229.027 374.688 241.237 374.491 244.453C374.36 246.029 374.294 247.604 374.229 249.179C374.097 254.168 372.653 255.087 367.599 255.612C363.266 256.006 361.231 262.439 360.181 265.918C360.115 266.115 360.05 266.312 360.05 266.443L359.525 268.085L361.231 268.347C361.888 268.478 362.544 268.61 363.332 268.741C366.483 269.332 371.734 271.301 375.476 271.301C379.808 271.301 382.893 270.251 384.863 268.085C387.423 265.393 388.342 260.404 389.195 256.072C389.523 254.497 391.361 248.654 392.018 246.554C396.153 233.294 400.223 228.174 393.265 220.559Z" fill="#17191D"/>
<path d="M372.85 259.026C372.391 259.945 370.618 260.142 370.027 260.339C368.846 260.864 367.664 261.586 367.73 262.505C367.73 262.833 367.533 266.837 367.73 267.231C367.993 267.691 369.634 268.216 370.027 267.691C370.224 267.297 369.962 264.474 370.29 262.505C370.356 262.242 370.553 261.061 371.143 260.798C371.34 260.733 373.31 259.879 372.85 259.026Z" fill="#BCB9B7"/>
<path d="M231.784 188.329C233.294 188.197 235.394 187.804 236.117 188.329C236.773 188.854 237.823 190.692 237.758 191.808C237.692 192.924 234.016 198.897 233.753 199.16C233.556 199.488 233.163 200.276 232.506 199.422C231.85 198.503 230.668 189.379 230.668 189.379C230.668 189.379 230.471 188.46 231.784 188.329Z" fill="#BCB9B7"/>
<path d="M391.69 223.579C389.655 220.691 384.6 215.505 382.565 213.01C379.874 209.728 367.533 195.221 367.533 195.221C367.533 195.221 363.988 173.362 362.479 168.373C361.56 165.223 358.868 142.116 341.013 129.644C341.998 128.003 353.551 137.062 357.687 144.151C365.301 156.952 368.518 190.429 368.518 190.429C368.518 190.429 373.375 139.294 346.33 128.528C326.9 120.389 317.251 121.701 317.251 121.701C317.251 121.701 303.794 129.776 311.868 145.07C313.444 148.09 331.101 175.135 332.283 177.301C342.326 196.14 374.229 218.065 380.071 224.038C380.399 224.367 385.847 227.977 386.241 231.981C386.307 232.703 378.758 227.649 378.889 228.568C379.939 238.02 378.824 256.138 378.627 258.238C378.495 260.601 378.364 260.995 376.854 261.52C375.41 261.98 373.9 260.601 373.047 263.096C372.062 265.853 372.391 267.888 374.951 267.888C377.511 267.888 381.318 269.2 383.747 259.945C386.241 250.492 391.558 233.819 393.134 227.649C393.593 226.205 392.412 224.629 391.69 223.579Z" fill="#BCB9B7"/>
<path d="M121.504 108.113C121.504 108.113 123.605 114.349 123.605 116.056C123.539 117.894 123.014 118.025 123.014 118.025L116.713 120.717C116.713 120.717 118.091 119.141 118.813 117.172C119.535 115.137 121.57 109.951 121.504 108.113Z" fill="#BCB9B7"/>
<path d="M196.731 265.459C196.6 265.524 196.468 265.524 196.403 265.459L196.009 264.934C195.943 264.868 196.009 264.737 196.14 264.605L196.468 264.409C196.6 264.277 196.797 264.277 196.797 264.343L197.19 264.934C197.256 264.999 197.19 265.131 197.059 265.262L196.731 265.459Z" fill="#BCB9B7"/>
<path d="M342.326 255.416C342.326 255.416 341.539 255.153 341.079 255.744C340.488 256.531 340.226 259.551 340.226 259.551C340.226 259.551 340.948 260.47 342.326 259.945C343.639 259.42 346.396 257.385 345.543 256.728C344.624 256.072 342.326 255.416 342.326 255.416Z" fill="#BCB9B7"/>
<path d="M339.898 253.906C339.898 253.906 338.716 253.906 338.125 254.562C337.534 255.219 336.484 256.991 336.55 257.713C336.615 258.435 337.666 259.617 338.191 258.895C338.782 258.172 341.276 253.84 339.898 253.906Z" fill="#BCB9B7"/>
<path d="M108.639 140.278C107.194 142.51 111.264 144.414 112.315 143.232C113.102 140.213 110.017 139.097 108.639 140.278Z" fill="#BCB9B7"/>
<path d="M141.526 144.217C139.491 141.722 137.915 137.653 139.294 136.865C140.672 136.143 141.985 137.193 142.773 137.653C144.02 138.309 144.611 137.915 144.545 136.274C144.479 134.961 144.348 133.78 144.217 132.598C143.823 129.119 141.985 125.246 140.541 123.736C138.112 121.176 131.351 118.222 127.084 121.111C125.837 121.964 124.918 123.277 124.13 124.918C123.802 125.509 124.655 126.296 124.393 126.953C122.817 130.76 120.454 135.158 117.697 137.981C117.566 138.178 127.15 138.965 140.672 148.878C141.854 149.731 139.556 154.588 138.769 154.326C138.375 154.26 140.147 150.256 138.834 149.534C132.598 146.055 128.922 145.595 124.261 143.889C123.146 143.56 119.929 145.595 119.076 144.808C117.894 143.298 114.349 141.591 114.021 141.394C114.153 141.46 114.612 141.788 114.743 143.298C115.203 147.105 108.048 143.298 114.087 149.403C115.794 151.109 117.435 152.422 118.682 151.897C120.651 151.831 119.732 152.094 119.929 152.553L120.979 155.048C121.176 155.507 121.373 155.442 121.504 154.982L121.964 152.357C122.03 151.897 122.555 151.503 123.014 151.503C123.014 151.503 132.204 151.7 134.042 151.897C135.88 152.094 136.012 152.75 136.012 152.75C136.077 153.276 136.799 154.326 135.289 155.573C134.174 156.492 131.417 154.588 129.25 156.361C127.084 158.067 122.752 158.855 122.752 158.855C122.227 158.986 121.701 158.724 121.504 158.199L120.389 155.77C120.192 155.31 119.995 155.31 119.995 155.836L119.732 159.052C119.667 159.512 119.47 159.971 119.404 159.971C119.273 159.971 118.944 159.643 118.748 159.183L118.682 158.986C118.485 158.527 118.025 158.527 117.697 158.855L117.106 159.512C116.778 159.905 116.319 159.84 116.056 159.38L115.859 159.052C115.597 158.658 115.203 158.658 114.875 159.052L114.546 159.643C114.284 160.037 113.956 159.971 113.824 159.512L113.693 159.183C113.562 158.724 113.234 158.724 113.037 159.118C112.905 159.446 112.643 159.512 112.511 159.315L111.855 159.971C111.592 160.234 111.002 160.759 110.936 161.284C110.936 161.809 111.592 162.137 114.743 162.794C117.894 163.385 132.598 157.411 137.193 158.396C142.576 159.512 144.611 155.114 145.005 149.403C145.005 149.271 144.939 148.943 144.873 148.484C143.954 146.974 142.576 145.464 141.526 144.151V144.217Z" fill="#BCB9B7"/>
<path d="M127.15 126.953C127.15 126.953 128.988 123.736 131.22 123.08C132.926 122.62 134.633 123.605 137.259 125.312C139.819 127.018 141.197 129.775 143.757 129.053C144.611 128.791 141.788 131.942 139.294 131.088C138.703 130.826 134.961 124.655 131.351 124.721C131.285 124.721 128.988 125.181 127.15 126.953Z" fill="#17191D"/>
<path d="M134.436 130.563C133.911 130.563 133.451 129.972 133.451 129.316C133.451 128.66 133.911 128.069 134.436 128.069C135.027 128.069 135.749 128.66 135.749 129.382C135.683 130.038 135.027 130.563 134.436 130.563ZM133.78 123.933C130.76 123.08 128.988 125.181 128.988 125.181C129.776 123.146 133.386 124.393 134.961 125.049C135.88 125.443 137.062 127.478 137.981 129.119C136.996 128.134 135.618 127.084 134.436 126.953C132.139 126.756 131.942 129.841 131.942 129.841L130.76 131.285C130.76 131.285 130.957 131.613 132.729 131.613C134.502 131.613 140.672 131.548 141.46 130.826C142.313 130.104 137.127 124.918 133.78 123.933Z" fill="#17191D"/>
<path d="M181.239 262.571C181.239 262.571 178.942 267.297 178.876 267.822C178.81 268.281 178.942 268.61 179.204 268.61C179.467 268.61 180.32 268.807 180.911 268.413C181.502 268.019 183.734 263.358 183.996 262.702C184.062 262.505 182.224 261.455 181.239 262.571Z" fill="#BCB9B7"/>
<path d="M363.595 227.977C364.776 223.776 360.838 223.316 359.525 228.699C359.065 230.603 353.617 250.23 353.092 255.35C353.026 255.612 353.223 255.875 353.486 255.547C353.551 257.319 363.069 229.815 363.595 227.977Z" fill="#BCB9B7"/>
<path d="M332.939 162.203C332.939 162.334 332.677 162.334 332.414 162.334L330.445 162.006C330.182 161.94 329.985 161.809 329.985 161.678L330.051 161.415C330.051 161.284 330.314 161.284 330.576 161.284L332.546 161.612C332.808 161.678 333.071 161.809 332.939 161.94V162.203Z" fill="#BCB9B7"/>
<path d="M332.217 162.991C332.217 163.056 332.086 163.122 331.889 163.122L330.576 162.925C330.379 162.859 330.248 162.728 330.314 162.662V162.4C330.314 162.269 330.511 162.203 330.708 162.203L331.955 162.466C332.152 162.466 332.283 162.597 332.283 162.728L332.217 162.991Z" fill="#BCB9B7"/>
<path d="M188.788 121.242C179.336 123.08 166.01 123.868 158.79 122.883C153.079 122.095 152.816 118.551 153.866 115.465C148.549 120.651 145.727 118.616 145.595 118.025C145.398 117.172 147.565 118.025 148.943 116.581C150.387 115.268 151.175 110.28 150.125 107.916C148.943 105.553 150.19 105.947 150.19 105.947C150.19 105.947 153.144 106.275 154.457 109.754C155.245 106.275 150.387 101.877 148.812 102.862C147.236 103.847 144.02 106.472 144.479 110.345C145.005 115.072 144.676 117.435 143.167 117.369C132.795 116.91 121.176 115.531 114.743 122.227C114.743 122.227 122.555 117.041 128.594 117.632C134.567 118.157 146.843 119.404 147.565 133.78C147.565 133.78 147.433 137.062 147.696 140.803C147.827 142.838 145.989 141.526 145.989 142.445C146.055 146.449 148.877 145.792 148.681 149.271C147.696 163.45 141.132 163.122 141.132 163.122C141.132 163.122 149.009 164.238 152.947 150.978C152.947 158.593 152.16 160.496 149.074 163.45C155.114 163.844 159.84 158.133 159.971 157.28C160.89 158.724 162.597 163.385 167.06 165.288C164.894 161.612 165.419 157.148 165.879 153.21C167.257 162.072 169.489 165.354 174.019 167.257C172.181 165.419 168.439 161.415 169.555 154.26C170.474 160.365 177.629 165.813 177.629 165.813C177.629 165.813 175.331 162.137 174.741 155.639C177.826 162.269 181.108 162.794 181.108 162.794C181.108 162.794 175.988 157.477 175.135 150.453C175.003 150.387 178.745 155.245 181.699 155.245C179.401 152.422 175.791 148.484 175.331 143.56C177.695 146.514 179.336 148.484 181.961 148.746C179.73 146.186 177.892 142.051 177.235 137.127C179.795 140.344 179.336 141.394 184.128 142.707C182.29 140.869 180.977 135.88 181.896 133.451C182.749 135.158 185.966 136.865 189.773 137.39C188.526 136.602 186.556 131.81 186.819 129.972C188.526 130.826 192.267 132.073 195.221 131.679C193.843 130.826 192.858 126.69 193.252 125.706C194.04 126.165 199.685 126.1 200.866 125.706C199.028 124.59 197.453 122.883 197.913 123.014C199.225 123.474 201.457 122.358 204.345 121.898C207.431 121.373 207.956 121.373 209.925 121.373C208.021 120.454 196.206 119.404 188.788 121.242Z" fill="#BCB9B7"/>
<path d="M284.364 180.452C284.364 180.452 278.325 180.058 277.865 181.896C277.406 183.734 280.622 193.646 281.082 194.827C281.869 196.665 283.904 192.333 283.904 192.333C284.561 191.217 287.055 185.375 287.055 184.587C286.99 183.602 287.055 180.452 284.364 180.452Z" fill="#BCB9B7"/>
<path d="M313.575 192.267C313.181 192.464 312.787 192.53 312.525 192.596C312.787 192.727 313.115 192.792 313.378 192.792C313.312 192.661 313.444 192.464 313.575 192.267Z" fill="#BCB9B7"/>
<path d="M260.601 181.371C260.601 181.371 254.496 180.977 254.037 182.815C253.577 184.718 256.203 193.383 256.597 194.565C257.188 196.337 258.501 193.646 258.501 193.646C259.157 192.464 263.949 186.294 264.015 185.506C264.015 184.587 263.358 181.371 260.601 181.371Z" fill="#BCB9B7"/>
<path d="M303.138 121.439C301.234 121.505 285.414 123.343 274.911 123.343C266.443 123.408 257.582 122.949 252.79 123.146C252.396 123.08 251.805 123.146 251.28 123.211C244.191 122.883 221.609 122.555 221.609 122.555C219.903 122.227 196.928 128.134 193.58 153.669C191.545 169.424 192.53 174.412 196.074 181.896C198.241 186.359 202.507 194.565 202.311 200.998C202.245 203.623 197.519 189.773 197.584 191.348C198.306 207.496 195.484 243.862 193.843 251.608C191.939 260.798 190.101 256.138 187.935 260.01C187.607 260.601 182.88 269.2 183.012 269.266C183.077 269.332 185.375 269.004 187.738 268.807C190.56 268.675 192.858 261.126 194.762 261.126C195.024 261.126 192.661 267.231 192.989 267.1C194.959 266.64 198.175 265.787 197.978 267.362C198.7 267.625 199.291 267.231 199.685 266.706C200.276 265.984 202.901 254.234 204.542 248.129C204.871 247.145 207.496 247.67 208.218 247.998C209.663 245.11 207.365 235.46 211.501 222.135C215.57 209.006 219.837 197.584 217.933 194.237C217.737 193.843 210.778 203.033 210.582 202.704C210.122 201.654 233.294 162.794 228.83 142.707C228.699 141.985 228.371 141.132 228.371 140.541C228.371 140.41 231.062 141.526 234.41 142.445C238.742 143.757 242.549 144.479 243.862 149.468C245.438 159.118 249.901 172.837 259.026 173.69C254.89 169.883 249.573 150.584 250.23 142.707C252.79 155.639 260.667 174.347 267.165 173.493C265.853 171.393 260.404 159.577 260.404 152.225C262.767 158.33 268.347 171.852 272.548 171.918C283.576 172.115 286.399 167.126 294.538 165.288C312.853 161.153 317.645 168.176 320.402 169.621C318.17 167.454 310.555 154.129 305.501 143.757C301.497 135.552 308.258 127.347 319.877 122.227C322.108 121.176 306.682 121.308 303.138 121.439Z" fill="#BCB9B7"/>
<path d="M311.015 192.464C311.015 192.464 310.424 191.939 309.899 191.873C309.702 191.808 309.636 191.808 309.505 191.808C309.308 191.808 309.177 191.873 309.177 191.873L308.914 191.939L308.98 191.742C309.045 191.545 309.242 191.217 309.702 191.217C309.899 191.217 310.096 191.283 310.227 191.348C310.949 191.611 311.212 192.333 311.212 192.333L311.343 192.727L311.015 192.464Z" fill="#17191D"/>
<path d="M305.763 191.48C305.829 191.283 306.026 190.954 306.485 190.954C306.682 190.954 306.879 191.02 307.076 191.086C307.142 191.151 307.404 191.217 307.404 191.217L307.536 191.348L307.011 191.677H306.945C306.945 191.677 306.748 191.611 306.682 191.611C306.551 191.545 306.42 191.545 306.289 191.545C306.026 191.545 305.96 191.611 305.96 191.611L305.698 191.677L305.763 191.48Z" fill="#17191D"/>
<path d="M307.011 191.217C307.076 191.217 307.339 191.348 307.339 191.348L307.011 191.545C307.011 191.545 306.814 191.48 306.682 191.48C306.157 191.348 305.895 191.48 305.895 191.48C305.895 191.48 306.092 190.889 307.011 191.217Z" fill="#17191D"/>
<path d="M316.988 261.52C310.49 261.52 309.702 251.017 309.571 249.179C307.995 249.048 306.289 247.932 305.173 247.013C305.107 247.013 304.976 246.948 304.844 246.882C304.844 247.67 304.91 248.457 304.91 249.179C304.976 250.427 305.238 253.578 305.304 254.431L305.37 254.497C305.501 255.678 305.829 258.435 303.072 259.945C302.284 260.404 301.365 260.667 300.381 260.667C299.593 260.667 298.871 260.47 298.346 260.339H298.018L297.558 260.273C296.836 260.142 295.917 260.076 295.195 260.01H294.998C293.62 260.01 289.812 260.273 289.156 260.339H288.762C286.596 260.339 284.823 258.632 284.823 258.566C283.707 257.516 283.642 255.809 284.561 254.431L284.823 254.103L285.217 253.774C285.414 253.643 286.071 253.184 287.055 253.052C287.843 252.527 289.09 251.805 290.994 250.755C289.353 247.473 282.001 236.182 288.368 232.638C290.797 231.39 294.407 230.077 297.886 229.224C297.886 229.027 297.952 228.83 298.018 228.633C298.083 228.371 298.149 227.452 298.018 226.795C297.033 227.32 296.048 227.583 295.195 227.583C294.932 227.583 294.67 227.583 294.407 227.517C292.175 227.058 289.353 223.841 289.025 223.382C288.565 222.725 286.727 219.378 284.955 216.161C280.294 215.899 279.9 215.767 279.572 215.702C279.047 215.505 278.522 215.374 275.502 212.813C274.518 211.96 273.992 210.779 274.124 209.663C274.255 208.744 274.846 207.89 275.699 207.496C275.765 207.431 275.83 207.431 275.962 207.365C276.355 206.84 276.946 206.315 278.062 206.052L278.39 205.987H278.784C279.506 205.987 280.163 206.249 280.754 206.577C280.754 206.249 280.885 205.855 281.016 205.527C281.607 204.411 282.788 203.755 284.101 203.755C284.889 203.755 285.677 203.952 286.596 204.411L286.727 204.477L286.858 204.542L287.187 204.739C287.777 204.871 289.09 205.265 289.55 205.461C290.337 205.79 290.928 206.184 292.372 208.744L294.67 211.107C295.72 208.612 297.033 207.496 297.492 207.103C298.149 206.512 299.002 206.249 299.856 205.987C299.987 205.921 300.249 205.855 300.446 205.855C300.775 205.527 301.168 205.265 301.628 205.002C301.628 204.871 301.694 204.739 301.694 204.608C301.365 204.149 300.971 203.492 300.643 202.967C299.659 201.392 299.79 199.947 299.856 199.028V198.766C299.987 196.337 303.138 194.237 303.138 194.171C303.466 193.974 303.86 193.777 304.188 193.646C304.844 192.924 305.895 191.677 306.682 191.02C307.273 190.429 308.127 190.035 308.914 189.773C309.571 188.394 311.015 187.672 313.181 187.672C313.837 187.672 316.069 187.869 316.791 187.935C318.432 188.197 319.483 189.248 320.008 190.429C321.386 190.889 322.305 192.136 322.437 193.843L322.962 194.368C323.29 194.696 324.078 195.615 324.34 196.994C325.194 198.635 324.997 200.538 324.931 201.392C324.865 204.017 324.209 205.593 323.487 206.512C323.356 206.774 323.29 207.037 323.224 207.234C325.719 208.809 326.506 212.354 326.703 213.732C326.966 214.52 327.951 217.934 328.476 220.165C329.132 223.382 328.016 226.336 327.951 226.73L327.819 227.058L327.622 227.32C327.425 227.649 326.375 229.027 325.916 229.618C325.062 230.603 324.143 231.062 323.356 231.193C323.618 232.309 323.881 233.491 324.078 234.541C326.113 237.036 327.163 240.58 327.163 241.762C327.163 242.615 326.9 243.469 326.703 244.125C326.9 244.716 326.966 245.503 326.9 247.21C327.754 248.195 328.541 249.508 329.329 251.017C329.395 251.214 329.46 251.346 329.46 251.411C333.333 259.814 323.684 260.404 323.093 260.207C321.78 261.389 317.71 261.52 316.988 261.52Z" fill="#17191D"/>
<path d="M316.397 190.626C315.807 190.495 313.706 190.364 313.115 190.364C310.293 190.364 311.802 191.808 311.802 191.808C311.802 191.808 309.505 192.136 308.52 192.989C307.601 193.843 305.895 195.878 305.895 195.878C305.895 195.878 305.107 196.14 304.647 196.468C304.188 196.731 302.875 197.781 302.678 198.832C302.481 199.619 302.416 200.538 303.006 201.523C303.597 202.508 304.582 203.82 304.582 203.82C304.582 203.82 304.844 204.28 304.582 204.805C304.319 205.396 303.925 206.774 303.925 206.774C303.925 206.774 302.547 207.496 302.153 207.956C301.759 208.415 299.79 208.678 299.33 209.072C298.871 209.466 297.624 210.582 296.77 213.536C295.786 214.389 295.261 215.505 295.261 215.505L290.14 210.319C290.14 210.319 289.484 208.284 288.499 207.956C288.171 207.825 285.939 207.037 285.414 206.84C283.51 206.118 283.182 206.643 283.51 207.234C283.904 207.693 285.086 208.284 285.414 208.415C285.677 208.612 285.808 210.647 281.016 209.86C280.753 209.794 279.506 209.006 278.653 208.678C276.618 208.022 277.012 209.991 277.406 210.385C277.865 210.713 279.9 212.879 280.425 213.01C280.885 213.142 286.727 213.404 286.727 213.404C286.727 213.404 290.731 220.953 291.256 221.675C291.847 222.463 294.079 224.563 294.998 224.76C295.917 224.957 298.608 223.973 299.921 221.544L300.446 231.456C300.446 231.456 291.256 233.491 289.55 234.869C286.136 237.626 292.241 247.998 294.276 250.821C294.932 251.674 294.473 251.936 294.473 251.936C294.473 251.936 288.04 255.416 287.974 255.744C287.383 255.547 286.858 255.941 286.858 255.941C286.858 255.941 286.53 256.335 286.727 256.597C286.99 256.794 288.04 257.582 288.893 257.516C289.681 257.45 294.21 257.188 295.326 257.188C296.376 257.254 297.689 257.45 298.411 257.516C299.068 257.582 300.512 258.173 301.693 257.516C302.875 256.86 302.678 255.744 302.547 254.628C302.416 253.578 302.153 249.311 302.153 249.311C302.153 249.311 302.022 244.322 301.89 243.731C303.138 243.862 305.173 244.322 305.566 244.125C306.223 243.731 306.879 244.847 306.879 244.847C306.879 244.847 308.98 246.488 309.964 246.357C310.883 246.16 311.08 246.094 311.54 244.65C311.868 244.191 312.196 244.322 312.196 245.635C312.196 246.948 311.54 258.96 317.251 258.763C320.796 258.632 323.29 256.925 323.29 256.925C323.29 256.925 324.34 258.304 325.653 257.779C329.329 256.466 327.294 253.184 327.032 252.724C326.703 252.199 325.062 248.589 324.012 248.523C324.078 246.948 323.815 244.65 323.552 244.059C323.749 243.731 324.34 242.353 324.34 241.762C324.34 241.105 323.29 237.692 321.386 235.657C320.927 232.506 319.351 227.649 319.351 227.649C319.351 227.649 321.452 228.436 322.108 228.502C322.765 228.568 323.29 228.305 323.684 227.78C324.143 227.255 325.325 225.679 325.325 225.679C325.325 225.679 326.309 223.185 325.719 220.691C325.194 218.262 324.012 214.192 324.012 214.192C324.012 214.192 323.421 210.319 321.518 209.4C319.548 208.547 319.154 208.612 319.154 208.612C319.154 208.612 318.564 207.759 319.023 207.562C319.483 207.431 320.205 206.84 320.402 206.643C320.664 206.38 320.992 205.002 320.992 205.002C320.992 205.002 322.108 204.411 322.108 201.129C322.174 201.129 322.502 198.897 321.649 197.781C321.649 196.797 320.927 196.206 320.927 196.206L319.68 194.827C319.68 194.827 319.876 193.186 319.089 192.989C318.301 192.792 317.776 192.596 317.776 192.596C317.776 192.596 317.71 190.823 316.397 190.626Z" fill="#BCB9B7"/>
<path d="M306.026 196.665C306.617 196.6 307.076 197.65 307.076 197.847C307.142 198.044 307.011 198.044 306.682 197.978C306.354 197.978 306.092 197.322 305.435 197.322C304.779 197.387 304.779 197.847 304.582 197.781C304.385 197.781 305.435 196.665 306.026 196.665Z" fill="#17191D"/>
<path d="M310.884 195.024C311.54 195.221 311.803 195.878 311.803 195.878C311.803 195.878 311.146 195.352 310.555 195.287C310.03 195.156 309.768 195.287 309.768 195.287C309.768 195.287 309.965 194.63 310.884 195.024Z" fill="#17191D"/>
<path d="M317.382 200.21C317.317 200.013 317.185 199.882 317.054 199.882H316.923L316.857 199.947C316.594 200.276 316.266 200.407 315.938 200.407C315.479 200.407 315.15 200.144 315.15 200.144C315.15 200.144 315.085 201.063 316.069 201.063C316.857 201.063 317.317 200.407 317.317 200.407L317.382 200.21Z" fill="#17191D"/>
<path d="M311.999 214.98C312.262 214.651 313.115 215.439 313.312 215.242C313.575 215.045 311.671 212.879 312.262 212.42C312.984 211.96 313.772 213.601 314.166 213.339C314.559 213.01 314.428 212.879 314.297 212.617C314.231 212.485 313.444 210.975 313.444 210.975C313.378 210.91 312.525 209.531 313.05 209.269C313.64 209.072 314.297 210.056 314.428 210.188C314.428 210.253 315.544 212.223 316.004 212.026C316.463 211.763 315.216 208.809 315.216 208.809C315.15 208.481 314.559 207.759 314.822 207.496C315.15 207.299 315.413 207.365 316.201 208.415C316.266 208.481 318.301 212.223 318.564 212.091C318.564 212.091 318.629 211.304 318.301 210.779C318.695 211.107 319.483 211.304 319.417 211.829C319.417 212.091 319.351 213.667 319.089 214.061C318.17 215.111 313.969 216.555 312.59 216.358C312.525 216.227 311.671 215.373 311.999 214.98ZM320.402 231.259L319.811 228.568L319.548 227.583L314.625 218.393L314.428 218.065C314.231 217.934 314.1 217.737 313.706 217.343C313.575 217.211 313.64 217.08 313.837 217.08C315.544 217.343 318.564 216.489 319.22 216.227C319.417 216.489 324.209 222.069 324.537 221.872C324.931 221.61 319.745 214.783 319.745 214.717C319.745 214.717 320.205 211.894 320.073 211.566C319.877 210.91 318.498 209.925 317.907 209.925H317.842C317.776 209.728 317.645 209.597 317.579 209.531L317.513 209.4C317.12 208.744 316.857 208.284 316.66 207.956C317.579 208.284 318.564 208.547 318.629 208.612L319.154 208.678L319.745 207.89L315.741 206.512C315.413 206.446 315.019 205.658 314.953 205.002C314.953 204.542 317.776 201.785 317.251 201.654C316.135 201.26 313.575 204.017 313.509 204.871C313.444 205.396 313.772 206.577 314.231 207.037C314.034 207.234 313.969 207.496 313.969 207.825C308.98 208.153 307.142 209.925 306.945 210.844C306.945 210.844 310.949 209.269 312.328 209.072C311.409 209.925 312.918 211.632 312.918 211.632C312.722 211.566 312.262 211.238 311.737 211.566C310.818 212.354 311.737 213.864 311.934 214.192C311.54 214.192 311.277 214.323 311.146 214.455C310.687 215.045 311.606 216.161 312.262 216.949C312.59 217.277 311.146 217.211 306.945 214.061C307.076 217.08 312.131 218.918 313.706 218.918C313.706 218.984 320.139 230.865 320.402 231.259Z" fill="#17191D"/>
<path d="M300.249 230.865L299.527 231.325L298.477 231.915C298.674 232.375 302.809 242.418 307.011 245.569L307.142 245.241C301.562 237.626 300.315 230.865 300.249 230.865Z" fill="#17191D"/>
<path d="M315.807 235.985C313.312 236.379 311.474 244.716 311.474 244.716C312.065 243.928 312.131 245.241 312.131 245.241C312.131 245.241 314.166 238.152 315.872 237.429C317.71 236.707 320.336 237.036 320.336 237.036C320.336 237.036 318.301 235.591 315.807 235.985Z" fill="#17191D"/>
<path d="M296.376 222.857C296.639 222.66 295.654 214.717 295.654 214.717L295.261 215.111L294.67 214.717C294.342 215.439 296.048 222.988 296.376 222.857Z" fill="#17191D"/>
<path d="M298.214 216.489L298.805 222.922L299.921 222.332L299.593 217.605C299.593 217.605 300.184 217.868 300.381 217.671C300.578 217.474 299.462 216.555 299.396 215.308C299.396 214.455 300.381 213.339 300.184 213.273C299.987 213.142 299.659 213.47 299.659 213.47C299.724 212.682 299.79 211.829 299.856 211.304C299.921 210.516 300.971 208.941 300.971 208.941C298.674 209.728 298.214 212.354 298.214 212.354L298.083 214.389C298.083 214.455 297.886 215.045 297.886 215.505C297.886 215.964 298.214 216.489 298.214 216.489Z" fill="#17191D"/>
<path d="M324.078 247.735C324.078 247.735 324.012 255.547 322.371 257.516H323.29C323.618 257.253 324.275 254.759 324.537 253.774C324.8 252.724 324.734 248.392 324.734 248.392L324.078 247.735Z" fill="#17191D"/>
<path d="M295.458 236.97C295.129 238.611 301.956 244.913 301.956 244.913L303.794 244.059C303.86 244.059 297.427 239.333 295.458 236.97Z" fill="#17191D"/>
<path d="M314.1 193.514C314.166 193.646 314.166 194.171 314.1 194.565C314.1 194.63 313.903 195.418 314.953 195.943C315.61 196.271 316.004 196.862 316.332 197.256C316.332 197.322 316.397 197.453 316.463 197.519C316.66 197.716 316.726 197.913 316.594 198.372C316.529 198.635 316.397 198.766 316.332 198.897C316.201 198.963 316.069 199.094 316.201 199.291V199.357C316.266 199.619 316.397 200.144 316.923 200.341C317.054 200.407 317.316 200.801 316.988 201.654L316.923 201.917C316.594 202.836 316.857 205.002 317.382 204.871C317.973 204.739 317.842 202.836 317.973 202.573C318.301 202.179 318.564 200.998 318.432 200.341C318.367 200.144 318.301 199.947 318.17 199.882C317.645 199.554 317.513 199.291 317.513 199.225C317.513 199.225 317.579 199.094 317.645 199.028C317.776 198.897 317.907 198.7 317.973 198.503C318.17 198.109 318.039 197.519 317.842 197.125C317.71 196.731 316.726 195.549 316.135 195.352C315.675 195.156 315.413 194.893 315.413 194.63V194.105C315.478 193.711 315.544 193.252 315.347 193.055C313.706 190.758 311.277 191.02 311.277 191.02L310.227 192.202C310.227 192.202 312.065 191.217 314.1 193.514Z" fill="#17191D"/>
<path d="M301.037 208.35C301.365 208.547 302.941 208.809 305.829 210.582C306.223 209.86 303.203 208.218 301.825 207.759C300.971 207.759 300.906 207.89 300.84 207.956C300.906 208.087 300.906 208.218 301.037 208.35Z" fill="#17191D"/>
<path d="M292.372 252.987C289.812 249.508 284.298 249.376 282.46 251.083C282.329 251.017 282.263 250.952 282.198 250.886C281.41 250.295 279.178 248.917 278.128 248.326C276.421 246.554 275.699 246.094 275.371 245.897C273.992 245.11 271.301 244.125 269.069 243.6C268.61 238.808 268.216 237.626 267.953 237.167C268.019 237.036 268.544 232.769 268.413 230.077C269.857 230.34 271.76 230.668 273.27 230.668C274.124 230.668 274.846 230.537 275.371 230.34C276.881 229.946 279.309 229.093 280.294 227.452L280.557 227.124L280.688 226.73C280.754 226.401 281.476 223.251 279.572 220.231C278.259 218.196 274.649 214.455 272.679 212.485L272.811 210.253C272.876 209.334 272.614 208.415 271.564 207.299C271.235 206.971 268.807 204.214 268.15 203.82C267.494 203.427 266.443 203.098 265.524 203.098C265.262 203.098 264.934 203.164 264.671 203.23C262.308 203.755 262.505 207.365 262.636 207.693C262.308 207.496 261.98 207.365 261.652 207.234C260.864 206.315 259.682 205.79 258.501 205.593C257.844 205.133 256.991 204.674 255.809 204.674H255.547C254.037 204.739 253.971 204.936 253.249 205.527C252.133 205.79 251.083 206.446 250.295 207.431C249.639 207.759 248.851 208.415 248.195 209.531C247.538 210.122 246.751 211.041 246.16 212.682L245.963 213.273C245.438 214.651 244.781 216.227 245.241 217.934V218.065C243.928 218.393 242.09 219.181 241.04 221.216C240.58 222.135 240.121 223.316 239.727 224.367C239.136 224.432 232.506 225.22 232.637 228.371C232.703 229.355 233.163 230.34 234.082 230.931C233.425 231.981 233.425 233.097 233.95 234.016C234.475 234.869 235.066 235.46 235.854 235.788C236.117 236.576 236.445 237.364 237.036 238.086C237.692 238.939 238.414 239.53 239.005 239.989C237.758 240.383 236.445 240.974 235.198 241.893C233.36 243.14 230.603 245.832 232.966 250.098C233.36 250.755 234.541 252.068 240.318 257.779C240.121 257.976 235.526 266.378 243.009 266.772C244.716 269.594 250.558 265.524 250.755 265.393C251.214 265.459 259.026 265.524 256.925 259.485C257.516 259.42 260.207 258.632 260.339 258.632C261.192 259.026 263.161 259.814 264.277 259.879C264.802 259.945 265.656 260.01 266.247 260.01C267.034 260.01 269.003 259.945 269.922 259.748C270.185 259.748 270.448 259.617 270.776 259.617C271.564 260.929 272.876 262.571 274.517 263.49C276.487 264.605 280.95 266.64 282.46 267.297C282.788 267.559 285.939 270.185 288.04 270.185C294.67 270.185 292.635 264.146 292.7 263.818C293.226 262.242 294.21 255.481 292.372 252.987Z" fill="#17191D"/>
<path d="M269.069 221.019C268.807 220.691 266.181 220.034 265.131 219.903C264.802 219.575 263.621 219.181 263.621 219.181C263.555 219.181 265.196 217.999 265.196 217.146C264.015 211.369 262.111 210.975 262.111 210.975C262.111 210.975 261.52 209.663 259.814 209.466C259.551 208.218 257.188 208.022 257.188 208.022C257.188 208.022 256.531 207.234 255.612 207.234C254.89 207.299 254.693 207.628 254.3 208.022C254.3 208.022 252.855 207.825 251.936 209.466C251.936 209.466 250.755 209.728 250.098 211.369C250.098 211.369 249.245 211.566 248.457 213.535C247.932 214.914 247.341 216.292 247.604 217.277C247.867 218.262 248.72 219.312 248.72 219.312C248.72 219.312 247.932 219.968 247.079 220.231C246.226 220.494 244.125 220.691 243.272 222.397C242.418 224.104 241.302 227.386 241.302 227.386C241.302 227.386 240.777 227.058 240.186 226.992C239.596 226.927 237.101 227.058 236.51 227.452C236.182 227.649 235.132 227.78 235.132 228.239C235.198 229.421 237.167 229.027 237.167 229.027L236.707 231.653C236.707 231.653 235.854 232.441 236.117 232.769C236.313 233.163 236.707 233.294 236.97 233.228C237.298 233.163 237.823 232.572 237.823 232.572C237.823 232.572 237.823 235.066 238.939 236.51C240.055 237.955 241.368 238.48 241.368 238.48C241.368 238.48 242.221 238.808 242.943 238.48C243.731 238.151 245.11 237.036 245.241 236.642C245.372 236.182 245.7 234.738 245.7 234.738C245.7 234.738 246.291 232.441 246.619 232.441C246.882 232.375 247.145 232.703 247.145 232.703V237.364C247.145 237.364 245.307 240.843 245.307 241.762C244.322 241.827 240.121 241.368 236.51 243.994C233.556 246.029 234.607 247.867 235.132 248.851C235.657 249.836 244.716 258.566 244.978 258.895C244.847 259.157 245.11 259.551 244.716 259.551H243.731C243.731 259.551 242.353 259.026 242.09 259.551C241.565 260.864 243.009 260.733 243.075 260.995C243.075 261.192 241.893 260.798 241.696 261.52C241.434 262.308 241.696 263.161 242.287 263.818C242.681 264.343 243.6 264.08 243.862 264.212C244.125 264.277 244.256 264.737 244.978 264.934C246.554 265.524 250.033 262.702 250.492 262.767C252.199 263.621 254.234 262.045 254.3 261.061C254.431 260.142 254.3 259.617 253.971 258.895C253.643 258.172 252.527 256.991 252.527 256.991C252.527 256.991 253.84 256.597 254.168 256.466C254.168 256.466 254.365 256.334 254.825 256.531C255.284 256.728 257.253 257.122 257.844 257.057C258.435 257.057 260.733 256.006 261.061 256.203C261.389 256.334 263.621 257.319 264.409 257.385C265.262 257.45 268.413 257.45 269.332 257.254C270.185 257.122 271.957 256.597 271.957 256.597C271.957 256.597 273.402 260.01 275.633 261.258C277.865 262.571 283.904 265.196 283.904 265.196C283.904 265.196 286.333 267.625 287.909 267.625C289.484 267.625 289.878 266.312 289.878 265.984C289.878 265.656 289.812 263.949 290.14 263.03C290.469 262.111 290.731 259.42 290.797 258.107C290.928 256.86 291.322 253.315 287.974 252.79C287.383 252.724 286.202 252.527 286.005 252.527C285.545 252.527 285.742 253.709 285.611 253.249C285.414 252.724 284.823 252.593 284.626 252.659C283.97 252.987 283.707 253.512 283.707 253.774C283.773 254.3 283.97 255.744 283.97 255.744C284.036 255.744 281.213 253.512 280.491 252.855C279.703 252.265 276.421 250.361 276.421 250.361C276.421 250.361 274.649 248.457 274.058 248.26C273.795 247.867 269.069 245.766 266.575 245.766C266.509 243.862 266.378 239.333 265.328 237.167C265.328 236.576 265.984 230.274 265.59 228.633C265.459 227.846 266.509 227.32 267.1 227.32C267.691 227.32 273.073 228.502 274.517 227.911C274.517 227.911 277.406 227.189 278.062 226.139C278.062 226.139 278.587 223.776 277.209 221.675C275.83 219.509 271.038 214.586 269.791 213.535C269.988 212.288 270.054 210.056 270.054 210.056C270.054 210.056 270.054 209.597 269.791 209.269C269.397 208.941 267.231 206.446 266.903 206.184C266.706 205.921 265.721 205.593 265.262 205.724C264.868 205.855 264.999 206.709 265.262 206.971C265.524 207.234 266.115 207.759 266.115 207.759L266.509 208.744C266.509 208.744 266.05 208.941 265.984 209.137C265.918 209.334 265.918 210.45 266.05 210.713C266.181 210.975 266.706 211.041 266.706 211.041C266.706 211.041 266.247 212.157 265.787 212.157C265.328 211.566 264.671 209.794 264.08 210.385C263.818 210.713 263.621 211.172 263.818 211.632C263.949 212.091 264.737 214.389 265.131 214.848C265.524 215.242 265.853 215.439 265.853 215.439C265.918 215.439 268.938 220.165 269.069 221.019Z" fill="#BCB9B7"/>
<path d="M240.121 243.797C244.453 243.337 252.33 256.794 252.593 257.057C252.921 257.319 253.381 256.728 253.381 256.728C253.052 256.138 246.16 241.893 240.121 243.797Z" fill="#17191D"/>
<path d="M239.596 229.618C240.383 229.487 241.631 227.977 241.434 227.911C241.237 227.846 240.58 228.83 239.399 228.83C239.07 228.83 238.611 228.765 238.086 228.633H238.02C237.889 228.896 236.839 229.027 236.839 229.027L236.97 229.684L237.955 229.421C238.086 229.487 238.808 229.684 239.596 229.618Z" fill="#17191D"/>
<path d="M246.094 221.478C245.175 221.61 246.226 233.885 246.226 233.885L247.145 232.703C247.013 231.981 246.948 228.371 246.948 227.846C247.276 228.108 251.477 227.189 252.396 225.614C252.396 225.614 249.442 226.139 248.72 226.008C247.407 225.811 247.079 225.22 246.948 224.826C247.013 224.695 246.488 221.478 246.094 221.478Z" fill="#17191D"/>
<path d="M245.569 240.908L244.716 241.499C250.689 244.65 254.3 256.335 254.365 256.4V256.531L256.269 257.188C256.269 257.188 251.739 243.665 245.569 240.908Z" fill="#17191D"/>
<path d="M259.617 256.531C259.879 256.925 261.258 256.203 261.258 256.203V256.072C261.258 256.072 261.061 250.427 265.59 246.16C265.656 246.16 260.667 247.145 259.617 256.531Z" fill="#17191D"/>
<path d="M284.036 255.547L282.92 254.759C282.92 254.759 283.51 257.319 283.445 258.435C283.445 258.566 283.379 258.632 283.314 258.698L283.182 258.829C282.788 259.288 283.051 260.995 283.051 260.995C283.051 260.995 283.576 260.011 284.101 259.42L284.233 259.288C284.429 259.092 284.495 258.895 284.364 257.91C284.364 257.582 284.101 255.547 284.036 255.547Z" fill="#17191D"/>
<path d="M266.246 221.347C266.05 221.413 265.656 224.367 265.656 224.76C265.656 224.826 265.524 226.73 263.358 226.401C261.258 226.073 260.339 225.614 260.339 225.614C261.126 227.189 264.671 227.911 265.59 229.158C265.721 229.421 265.918 230.8 265.918 230.931H266.64V228.502L267.362 228.305C267.034 223.119 266.443 221.347 266.246 221.347Z" fill="#17191D"/>
<path d="M251.674 219.181C250.361 219.181 248.457 219.378 248.392 219.378L246.225 219.837L246.882 220.297C246.948 220.297 249.705 219.706 251.608 219.706C251.871 219.706 252.133 219.772 252.33 219.837C253.971 220.165 255.875 220.822 255.941 220.559C255.941 220.297 253.643 219.443 252.527 219.246C252.33 219.181 252.002 219.181 251.674 219.181Z" fill="#17191D"/>
<path d="M265.656 219.968L265.787 219.837L265.853 219.772L265.918 219.64L265.853 219.509L264.999 218.984H260.798C259.748 219.049 256.531 220.297 256.728 220.559C256.925 220.756 259.288 219.837 260.864 219.575C262.571 219.378 265.525 219.968 265.656 219.968Z" fill="#17191D"/>
<path d="M262.308 212.026C263.161 211.172 261.52 210.188 261.52 210.056C261.52 210.056 262.636 211.501 261.717 211.107C260.93 209.86 257.91 209.006 257.844 208.875C257.647 208.678 258.238 208.153 259.879 209.4C259.945 209.203 258.96 208.218 257.516 208.35C257.516 208.153 257.385 207.89 257.254 207.825H257.188H257.057C257.188 207.956 257.385 208.35 257.188 208.35C256.86 208.415 256.728 207.89 256.663 207.825C256.531 207.562 255.809 207.89 256.203 208.218C256.335 208.35 256.531 208.415 256.663 208.481C256.86 208.612 256.794 208.744 256.597 208.612C256.4 208.547 256.138 208.481 255.809 208.481C255.481 208.481 255.219 208.612 254.956 208.744C254.825 208.744 254.693 208.678 254.825 208.547C254.956 208.481 255.153 208.415 255.284 208.35C255.809 207.89 254.89 207.234 254.693 208.218C254.562 208.415 254.497 208.481 254.365 208.547C253.971 208.547 254.431 207.89 254.365 207.89C254.365 207.89 254.365 207.956 254.3 207.956C254.168 208.087 254.037 208.218 253.971 208.415C253.84 208.415 252.199 208.481 251.936 209.4C253.184 208.481 253.84 208.547 253.774 208.941C253.709 209.072 252.265 209.925 251.674 210.516C251.149 210.844 250.492 211.698 250.361 211.698C250.098 211.763 250.098 211.304 250.361 210.647C249.639 211.435 249.77 212.026 249.967 212.354C249.573 213.273 249.639 214.455 250.164 215.373C250.624 216.161 253.315 218.459 253.578 218.327C253.774 218.196 250.755 215.505 250.492 214.323C250.033 211.632 253.709 209.203 254.956 209.072C255.022 209.072 255.153 209.4 255.809 209.334C256.663 209.334 256.794 209.072 256.794 209.072C257.713 208.941 262.242 210.647 261.783 213.995C261.586 215.045 261.192 216.292 261.389 216.424C261.586 216.555 261.783 215.964 262.177 215.045C262.767 214.126 262.767 212.945 262.308 212.026Z" fill="#17191D"/>
<path d="M274.124 226.992C273.533 226.336 268.675 220.494 268.675 220.494C268.675 220.428 268.544 220.231 268.347 220.231C268.281 220.231 267.625 220.297 267.625 220.428C268.675 222.135 270.973 224.826 272.548 226.139C273.336 226.795 273.927 227.124 274.124 226.992Z" fill="#17191D"/>
<path d="M244.322 258.501C244.584 258.829 244.978 259.42 244.978 259.42C244.978 259.42 245.569 257.976 246.619 257.385C247.604 256.86 249.376 256.072 250.164 256.006C247.21 255.284 244.453 257.45 244.322 258.501Z" fill="#17191D"/>
<path d="M242.878 234.804C243.403 234.869 243.534 234.344 243.6 233.753L243.665 233.622C243.665 233.622 244.191 233.163 244.519 232.112C244.781 233.491 245.503 236.313 244.978 237.036L244.191 237.823L245.044 237.364C245.372 237.232 245.897 236.642 245.7 235.657C245.635 235.132 244.781 230.734 244.781 230.734V230.537C244.716 229.946 244.519 229.421 244.191 228.962C243.665 228.239 242.812 227.846 242.221 227.78C242.221 227.78 244.519 229.355 244.256 230.931C243.994 232.506 243.665 232.638 243.665 232.638L243.337 232.309V233.163C243.272 233.622 243.14 233.819 242.812 233.819C241.959 233.819 241.302 235.001 240.383 234.738C239.464 234.476 239.005 233.753 238.48 233.294C237.954 232.9 238.742 232.112 238.742 232.112C238.742 232.112 238.677 231.85 238.48 231.653C238.217 231.522 237.823 232.506 237.823 232.506C237.823 232.506 237.298 233.885 238.02 234.344C239.333 235.198 238.939 235.198 240.383 235.657C241.827 236.051 241.696 234.804 242.878 234.804Z" fill="#17191D"/>
<path d="M305.238 192.267C304.254 192.267 303.072 191.677 302.744 189.97C302.678 189.642 301.825 187.672 301.037 185.966C296.902 176.185 297.23 179.795 297.624 178.22C298.346 175.397 302.153 175.069 304.976 175.069C305.632 175.069 306.157 175.135 306.354 175.135C307.733 175.135 308.914 175.66 309.833 176.579C311.409 178.088 311.803 180.386 311.803 181.436C311.803 181.502 309.702 187.804 308.652 189.707L308.586 189.773C307.011 192.267 305.632 192.267 305.238 192.267Z" fill="#17191D"/>
<path d="M306.223 177.301C306.223 177.301 300.118 176.907 299.659 178.745C299.199 180.583 303.532 187.672 304.844 189.642C305.763 191.02 306.748 188.723 306.748 188.723C307.404 187.541 309.571 182.224 309.571 181.436C309.571 180.452 308.98 177.235 306.223 177.301Z" fill="#BCB9B7"/>
<path d="M133.648 116.91C133.648 116.91 150.584 117.96 153.538 137.062C154.523 133.583 150.65 121.964 145.792 119.207C145.267 118.879 143.166 117.829 144.742 114.415C139.031 113.562 133.648 116.91 133.648 116.91Z" fill="#17191D"/>
<path d="M214.454 124.655C214.454 124.655 224.826 120.717 227.255 137.324C228.371 131.285 226.992 124.065 222.791 121.833C218.59 119.667 214.454 124.655 214.454 124.655Z" fill="#17191D"/>
<path d="M165.748 142.445C165.748 142.445 166.798 145.924 167.848 146.646C168.964 147.302 171.852 143.035 171.852 143.035C171.852 143.035 169.817 148.155 168.111 149.468C166.667 148.418 166.076 147.105 165.748 142.445Z" fill="#17191D"/>
<path d="M169.949 146.383C169.949 146.383 171.59 149.797 172.706 150.519C173.822 151.175 176.382 147.04 176.382 147.04C176.316 147.04 174.084 152.357 172.903 153.341C171.852 152.422 169.817 151.175 169.949 146.383Z" fill="#17191D"/>
<path d="M160.299 152.225C160.299 152.225 162.334 155.967 163.516 156.492C165.616 157.28 165.748 151.831 165.748 151.831C165.748 151.831 166.601 157.871 164.369 159.84C162.466 158.79 161.415 158.067 160.299 152.225Z" fill="#17191D"/>
<path d="M165.485 150.059C165.485 150.059 166.601 153.341 167.586 154.129C168.636 154.917 170.802 149.009 170.802 149.009C170.802 149.009 170.08 154.785 168.439 157.674C167.389 156.492 165.616 154.654 165.485 150.059Z" fill="#17191D"/>
<path d="M169.686 152.75C169.686 152.882 171.655 155.836 172.903 156.361C174.15 156.886 174.938 151.897 174.938 151.897C174.938 151.897 175.266 157.608 173.822 159.249C172.903 158.658 170.08 157.214 169.686 152.75Z" fill="#17191D"/>
<path d="M170.802 138.834C170.802 138.834 172.771 143.232 174.019 143.889C175.331 144.545 177.235 139.884 177.235 139.884C177.235 139.884 176.25 145.005 173.953 146.58C172.378 145.267 171.918 144.348 170.802 138.834Z" fill="#17191D"/>
<path d="M167.52 135.027C167.52 135.027 168.767 138.309 169.818 138.834C170.933 139.425 172.837 135.027 172.837 135.027C172.837 135.027 171.721 140.672 169.949 142.379C168.767 141.46 168.242 139.884 167.52 135.027Z" fill="#17191D"/>
<path d="M174.216 133.911C174.216 133.911 175.266 136.734 176.185 137.324C177.104 137.915 178.614 135.421 178.614 135.421C178.548 135.421 178.023 139.359 176.25 139.884C175.528 139.294 174.741 137.981 174.216 133.911Z" fill="#17191D"/>
<path d="M179.401 130.498C179.401 130.498 179.992 133.189 180.78 133.78C181.567 134.305 183.012 131.876 183.012 131.876C183.012 131.876 182.815 134.83 180.714 136.143C179.926 135.224 179.007 134.108 179.401 130.498Z" fill="#17191D"/>
<path d="M184.193 126.625C184.193 126.625 184.718 129.316 185.506 129.841C186.294 130.432 187.738 128.003 187.738 128.003C187.738 128.003 187.475 131.613 185.506 132.007C185.769 132.336 183.865 129.841 184.193 126.625Z" fill="#17191D"/>
<path d="M161.415 145.792C161.415 145.792 163.188 148.943 163.975 149.009C164.829 149.074 166.404 145.792 166.404 145.792C166.404 145.792 165.682 150.256 163.975 151.109C163.253 150.256 161.809 148.812 161.415 145.792Z" fill="#17191D"/>
<path d="M171.918 130.957C171.918 130.957 172.64 133.583 173.428 134.108C174.281 134.633 175.528 132.073 175.528 132.073C175.528 132.073 175.134 135.815 173.69 136.865C172.771 136.077 171.721 134.699 171.918 130.957Z" fill="#17191D"/>
<path d="M247.801 172.115C244.913 171.196 241.434 165.223 240.383 162.662C239.267 160.102 237.364 152.619 238.545 149.862C239.136 152.554 240.777 158.396 242.024 160.956C243.928 164.894 246.291 170.014 247.801 172.115Z" fill="#BCB9B7"/>
<path d="M309.571 248.851C309.046 247.801 306.289 246.685 305.107 246.554C303.991 246.357 303.794 246.357 303.663 247.473C303.597 248.392 303.532 249.311 303.728 250.295C303.991 251.936 304.122 251.477 305.632 251.543C306.748 251.674 307.798 251.805 308.914 251.74C309.899 251.674 310.161 251.674 310.161 250.689C310.161 249.967 310.424 249.048 309.571 248.851Z" fill="#17191D"/>
<path d="M284.233 497.112V487.725H280.885V485.821H289.878V487.725H286.53V497.112H284.233Z" fill="black"/>
<path d="M291.256 497.112V485.821H294.67L296.705 493.501L298.74 485.821H302.153V497.112H300.052V488.25L297.821 497.112H295.654L293.423 488.25V497.112H291.256Z" fill="black"/>
</g>
<defs>
<clipPath id="clip0_6_72710">
<rect width="385.651" height="500" fill="white" transform="translate(57.1747)"/>
</clipPath>
</defs>
</svg>
