<svg width="500" height="500" viewBox="0 0 500 500" fill="none" xmlns="http://www.w3.org/2000/svg">
<g clip-path="url(#clip0_6_72677)">
<path d="M250 0C388.071 0 500 111.929 500 250C500 388.071 388.071 500 250 500C111.929 500 0 388.071 0 250C0 111.929 111.929 0 250 0Z" fill="black"/>
<path d="M250 35.7143C368.347 35.7143 464.286 131.653 464.286 250C464.286 368.347 368.347 464.286 250 464.286C131.653 464.286 35.7144 368.347 35.7144 250C35.7144 131.653 131.653 35.7143 250 35.7143Z" fill="#011EA0"/>
<path d="M384.048 132.024L367.143 168.214C383.334 191.429 392.857 219.583 392.857 250C392.857 275.476 386.191 299.345 374.524 320.06L379.167 373.333C409.762 341.31 428.572 297.857 428.572 250.06C428.572 204.762 411.786 163.512 384.048 132.024Z" fill="white"/>
<path d="M268.095 391.726V108.274C283.095 110.179 297.381 114.405 310.536 120.595L325.655 88.2143C302.679 77.4405 277.024 71.4286 250 71.4286C222.976 71.4286 197.321 77.4405 174.345 88.2143L189.464 120.595C202.798 114.345 217.262 110.119 232.44 108.214V391.786C218.274 390.06 204.702 386.19 192.143 380.655L188.869 417.857C207.917 424.762 228.512 428.571 250 428.571C271.548 428.571 292.262 424.762 311.369 417.738L308.095 380.536C295.655 386.131 282.202 389.94 268.095 391.726Z" fill="white"/>
<path d="M115.953 132.024C88.2144 163.512 71.4287 204.762 71.4287 250C71.4287 297.917 90.2978 341.429 121.012 373.452L125.655 320.298C113.869 299.583 107.143 275.595 107.143 250C107.143 219.583 116.667 191.429 132.857 168.274L115.953 132.024Z" fill="white"/>
<path d="M343.869 175.298L370.476 118.214C361.488 110 351.726 102.738 341.19 96.4881L286.071 214.821V299.345L313.69 240.119L328.571 410.417C340.714 404.464 352.083 397.143 362.5 388.69L343.869 175.298Z" fill="white"/>
<path d="M214.643 216.786L158.631 96.6071C148.155 102.857 138.333 110.179 129.405 118.393L156.131 175.714L156.071 176.726L137.56 388.69C147.976 397.143 159.345 404.464 171.488 410.417L186.369 240.417L214.762 301.31V216.786H214.643Z" fill="white"/>
</g>
<defs>
<clipPath id="clip0_6_72677">
<rect width="500" height="500" fill="white"/>
</clipPath>
</defs>
</svg>
