<svg width="500" height="500" viewBox="0 0 500 500" fill="none" xmlns="http://www.w3.org/2000/svg">
<g clip-path="url(#clip0_6_72682)">
<path d="M250 500C388.071 500 500 388.071 500 250C500 111.929 388.071 0 250 0C111.929 0 0 111.929 0 250C0 388.071 111.929 500 250 500Z" fill="#003E81"/>
<path d="M65.9844 250C65.9879 148.37 148.37 65.9876 250 65.9841C351.629 65.9876 434.013 148.37 434.015 250C434.013 351.629 351.629 434.012 250 434.015C148.37 434.012 65.9879 351.629 65.9844 250Z" fill="white"/>
<path d="M125.14 125.14C93.1779 157.104 73.4217 201.226 73.4199 250C73.4217 298.773 93.1779 342.894 125.14 374.86C157.105 406.822 201.226 426.578 250 426.58C298.773 426.578 342.894 406.822 374.861 374.86C406.822 342.894 426.578 298.773 426.58 250C426.578 201.227 406.822 157.106 374.861 125.14C342.894 93.1776 298.773 73.4214 250 73.4196C201.226 73.4214 157.105 93.1776 125.14 125.14Z" fill="#199FD6"/>
<path d="M146.551 341.821C164.674 339.706 173.13 337.592 173.13 317.657V174.489C156.216 153.648 151.384 152.742 147.456 152.742V145.191H211.187L315.996 274.163H316.6V182.644C316.6 164.521 312.976 154.555 288.51 152.742V145.191H353.449V152.742C331.702 155.46 329.89 162.407 329.89 176.905V354.808H321.432L187.024 191.102H186.42V311.918C186.42 333.665 192.764 339.404 215.114 341.821V349.372H146.551V341.821Z" fill="white"/>
</g>
<defs>
<clipPath id="clip0_6_72682">
<rect width="500" height="500" fill="white"/>
</clipPath>
</defs>
</svg>
