<svg width="80" height="80" viewBox="0 0 80 80" fill="none" xmlns="http://www.w3.org/2000/svg">
<g clip-path="url(#clip0_52_2144)">
<path d="M43.8336 76.0066C43.521 76.9259 42.5249 79.1802 40.1138 79.1802C37.3713 79.1802 36.4202 76.2129 36.3741 76.0878L36.293 75.807C36.293 75.807 38.6548 76.0034 39.9558 76.0034C41.2535 76.0034 43.4771 75.875 43.8369 75.807L43.8336 76.0066Z" fill="black"/>
<path d="M51.0302 74.5438L51.5929 74.6151C50.9216 76.3692 49.716 78.335 47.3531 78.335C45.0483 78.335 43.9119 77.001 43.4358 76.1092L43.0332 75.8635C43.0332 75.8635 47.0032 75.7351 51.0302 74.5438Z" fill="black"/>
<path d="M29.2815 74.5438L28.7188 74.6151C29.3868 76.3692 30.5979 78.335 32.9684 78.335C35.26 78.335 36.4952 76.9308 37.0042 76.1092L37.2774 75.8635C37.2774 75.8635 33.314 75.7351 29.2815 74.5438Z" fill="black"/>
<path d="M42.0379 76.194C41.6639 76.7293 41.4127 76.7019 40.9706 76.7019C40.7413 76.7019 40.4122 76.8862 40.4155 77.2263C40.4254 77.4939 40.6437 77.7111 41.0024 77.7111C41.8185 77.7111 42.4427 76.5802 42.6084 76.0986C42.6084 76.0986 43.0867 76.0788 43.226 76.0646C43.226 76.0646 42.3703 78.6227 40.1435 78.6227C37.9133 78.6227 37.0039 76.0953 37.0039 76.0953C37.0039 76.0953 38.8841 76.2094 39.9559 76.2094C41.0309 76.2094 41.7154 76.1995 42.0379 76.194Z" fill="url(#paint0_radial_52_2144)"/>
<path d="M29.584 75.0665C31.0331 75.4505 32.0686 75.7752 34.5094 76.0714C34.5094 76.0714 34.4315 76.3182 33.9006 76.2984C33.6977 76.2853 33.6702 76.2348 33.6 76.2227C33.4432 76.1942 33.2161 76.3533 33.2391 76.6177C33.2633 76.8041 33.419 77.0356 33.9609 77.0356C34.5028 77.0356 35.1336 76.5946 35.4528 76.1822C35.4528 76.1822 35.7764 76.2579 36.1132 76.2743C36.1132 76.2743 35.07 77.7311 33.0208 77.7311C30.7709 77.7311 29.9328 75.7116 29.584 75.0665Z" fill="url(#paint1_radial_52_2144)"/>
<path d="M39.9287 63.0765C47.6997 63.0765 56.3088 58.3068 62.3531 51.431C63.0113 50.6872 64.1138 49.2743 66.7388 49.2743C69.3683 49.2743 72.8633 51.6712 72.4541 56.0328C72.1491 59.2096 67.6087 66.3773 59.8344 70.7861C52.0623 75.2124 44.9024 76.159 39.9287 76.159C34.9506 76.159 27.7972 75.2124 20.0207 70.7861C12.2475 66.3773 7.7082 59.2096 7.40543 56.0328C6.99626 51.6712 10.4923 49.2743 13.1163 49.2743C15.748 49.2743 16.8548 50.6872 17.5108 51.431C23.5464 58.3068 32.1599 63.0765 39.9287 63.0765Z" fill="#FFE500" stroke="black" stroke-width="0.559459" stroke-miterlimit="3.863"/>
<path d="M39.8628 64.1338C32.0435 64.1338 23.1459 59.5199 16.5926 52.0561C15.9256 51.2981 15.0765 50.3229 13.0559 50.3229C11.8755 50.3229 10.5372 50.9547 9.64977 51.9321C8.98171 52.6583 8.23247 53.9385 8.41238 55.901C8.67236 58.582 12.921 65.5204 20.4934 69.8293C26.597 73.3013 33.1141 75.0554 39.8628 75.0554C46.618 75.0554 53.1351 73.3013 59.2387 69.8293C66.8089 65.5204 71.0641 58.582 71.3142 55.901C71.5018 53.9385 70.7471 52.6583 70.0878 51.9321C69.196 50.9547 67.8544 50.3229 66.6795 50.3229C64.6501 50.3229 63.8021 51.2981 63.1412 52.0561C56.5917 59.5199 47.6831 64.1338 39.8628 64.1338Z" fill="#DA020E"/>
<path d="M73.4992 25.2104L73.5266 23.3982C74.0849 23.8249 75.1348 23.8315 75.7491 23.1766C76.0288 22.8782 76.1879 22.4164 76.1648 21.9414C76.1385 21.405 75.8949 20.8477 75.4946 20.455C73.226 18.238 71.2109 16.0243 71.2109 16.0243C71.0024 15.6952 70.6766 15.4571 70.4879 15.376C70.2104 15.2432 69.2231 14.7924 68.4706 15.9354C67.7916 16.971 67.8925 18.4311 68.023 18.9642L70.1501 21.8635C70.8785 22.7871 72.9309 24.7518 73.4992 25.2104Z" fill="black"/>
<path d="M28.0349 6.41777C30.7127 5.51825 33.1611 4.7745 36.4608 4.48271L36.961 4.20188C35.1192 2.74838 33.2895 1.75671 31.4674 1.75671C30.3232 1.75671 27.9954 2.53447 27.4766 6.64156L28.0349 6.41777Z" fill="black"/>
<path d="M51.8272 6.41777C49.1484 5.51825 46.7022 4.7745 43.4057 4.48271L42.8989 4.20188C44.7484 2.74838 46.5738 1.75671 48.3981 1.75671C49.5433 1.75671 51.8612 2.53447 52.3911 6.64156L51.8272 6.41777Z" fill="black"/>
<path d="M36.9033 4.34674C38.2504 1.75677 39.4823 0.819946 40.1712 0.819946C41.0225 0.819946 42.0251 2.17362 42.8127 3.9255L42.9784 4.3226L42.2862 4.26885C41.832 4.18328 40.5387 4.16683 40.0451 4.16683C39.5383 4.16683 38.4457 4.16683 37.7875 4.22826L36.9033 4.34674Z" fill="black"/>
<path d="M26.2809 62.7139L24.3305 66.2396C23.7414 67.2993 23.1348 67.9717 22.1398 67.4013C21.1602 66.8473 21.3873 66.0443 21.9884 64.9495L23.9444 61.4194L22.3669 60.5441L20.3002 64.2749C19.1626 66.3284 20.5942 67.602 21.7153 68.2196C22.9121 68.8822 24.6541 69.3747 25.7818 67.3366L27.8628 63.5893L26.2809 62.7139ZM51.3623 69.9776L50.7052 67.9548L52.6622 67.323L52.3912 66.4816L50.432 67.1167L49.8747 65.3879L51.8778 64.7308L51.608 63.8982L47.9408 65.0906L49.979 71.3566L54.0213 70.0457L53.7547 69.2098L51.3623 69.9776ZM55.5516 61.8688L53.3193 63.1555L56.6245 68.8872L58.848 67.6016C61.1462 66.2764 61.3645 64.269 60.4595 62.6586C59.3702 60.7477 57.5722 60.7038 55.5516 61.8688ZM58.9248 63.613C59.7618 65.0796 59.5918 66.1492 58.3028 66.8875L57.6885 67.2451L55.262 63.0524L55.9224 62.6696C57.4702 61.7799 58.3489 62.5719 58.9248 63.613ZM41.0671 66.2987L41.1867 67.1576L43.0318 66.8966L43.8293 72.5614L45.545 72.3233L44.7497 66.6618L46.5674 66.4095L46.4423 65.5385L41.0671 66.2987ZM39.505 66.3524L37.7773 66.258L37.4317 72.8399L39.1606 72.932L39.505 66.3524ZM34.2592 65.5477L33.0559 70.0453L30.8038 64.6208L29.4029 64.2445L27.696 70.6125L29.2219 71.0172L30.4352 66.4823L32.7213 71.953L34.0914 72.3226L35.7917 65.9525L34.2592 65.5477Z" fill="#FFE500"/>
<path d="M25.168 23.9914V54.8625L39.9289 64.347L54.6888 54.8625L54.7107 24.0385C54.2379 23.6217 53.2561 22.7079 52.4871 22.2296H27.3027C26.6653 22.6772 25.3885 23.7544 25.168 23.9914Z" fill="#FFE500"/>
<mask id="mask0_52_2144" style="mask-type:luminance" maskUnits="userSpaceOnUse" x="25" y="22" width="30" height="43">
<path d="M25.168 23.9914V54.8625L39.9289 64.347L54.6888 54.8625L54.7107 24.0385C54.2379 23.6217 53.2561 22.7079 52.4871 22.2296H27.3027C26.6653 22.6772 25.3885 23.7544 25.168 23.9914Z" fill="white"/>
</mask>
<g mask="url(#mask0_52_2144)">
<g filter="url(#filter0_f_52_2144)">
<path d="M25.168 11.452L25.168 23.9914V54.8626L39.9289 64.347L54.6888 54.8626L54.7107 11.4992" stroke="#B54005" stroke-width="2.66667" stroke-miterlimit="3.863"/>
</g>
</g>
<path d="M45.828 46.1409V44.9935C45.828 44.9935 45.5231 44.5218 44.7673 44.5218C44.0136 44.5218 43.5628 44.7489 43.5628 44.9386C43.5628 45.2491 44.2374 46.1409 45.828 46.1409ZM39.8758 35.984L41.0167 33.9919L41.9107 35.984H43.3916C42.5009 36.8199 42.1367 38.0847 42.1367 38.9283V39.8476C42.1367 40.2381 41.9403 40.8842 41.9403 40.8842C41.9403 40.8842 43.226 41.8638 43.4235 42.0338C43.5057 42.0986 43.5957 42.138 43.5364 42.3081C43.4344 42.5944 42.5612 42.9882 42.4724 43.0628C42.2749 43.2383 42.2234 43.3436 42.2749 43.5169C42.3375 43.6837 42.5009 43.7144 42.8355 43.5959C43.1733 43.4873 43.8732 43.1198 44.4601 42.8686C45.0448 42.6141 45.828 42.6789 45.828 42.6789V41.5545H43.6165V37.9816L43.226 37.3519L44.2012 35.6143L45.1819 37.3629L44.7958 37.9816V39.8476H45.9224V37.9816L45.534 37.3629L46.5126 35.6275L47.4867 37.3629L47.1016 37.9816V39.8476H48.2359V37.9816L47.8344 37.3629L48.8162 35.6275L49.7947 37.3629L49.4042 37.9816L49.4228 41.549H47.1938V43.1988C47.6995 43.6738 48.1767 44.7488 48.1767 45.3818C48.1767 46.0301 47.7543 46.3044 47.7543 46.3044C47.8958 46.8134 47.8684 47.0251 47.8081 47.4858C47.7543 47.9542 47.1696 48.6848 47.1696 48.6848V57.2116C47.1696 57.7908 45.828 57.7338 45.828 57.239V48.8768C45.0689 48.0464 43.0022 47.3937 43.0022 47.3937C42.2442 48.1517 41.778 49.4681 41.778 49.4681C42.1071 49.6984 42.6194 49.4681 42.8124 49.2443C43.0022 49.0205 43.3916 48.9623 43.6165 49.1039C43.837 49.2443 43.8919 49.298 43.8162 49.6271C43.7295 49.9738 43.5913 50.5277 43.5913 50.915C43.5913 51.3121 44.0378 51.2232 44.3712 51.2528C45.0448 51.3121 45.1556 52.0646 45.0996 52.4847C45.0448 52.9071 44.8473 53.8033 44.8473 54.3606C44.8473 54.9124 44.8769 55.4696 44.9318 55.7856C44.9899 56.0905 45.0996 56.4273 45.0689 56.8211C45.0349 57.3509 44.7091 57.4354 44.3712 57.0953C44.0378 56.7608 39.3679 51.7827 39.3679 51.7827C39.0575 52.7952 40.3497 54.5218 40.7666 55.055C41.1867 55.5881 41.1593 55.9797 40.7918 56.345C40.432 56.7059 39.731 56.899 39.5939 57.239C39.4513 57.5681 39.9285 58.5818 40.9103 59.8389C41.8888 61.0938 39.787 61.9363 38.5331 62.1875C37.2705 62.4354 37.2705 61.5688 37.3583 61.0938C37.4416 60.6232 37.4416 60.3369 37.4109 59.9234C37.3835 59.5021 36.9974 58.9185 36.4609 58.2198C35.9311 57.5177 35.9311 56.8792 36.1516 55.2524C36.3743 53.63 36.3216 52.5944 36.3216 52.5944C36.3216 52.5944 35.7622 52.6175 34.9504 52.5944C34.143 52.5637 33.4728 52.0953 33.4157 50.1361C33.3598 48.1824 33.3137 43.5169 33.181 43.0277C33.0515 42.5439 32.5283 42.4551 32.3078 42.3903C32.0785 42.3333 32.0675 42.0031 32.2891 41.8846C32.8727 41.6005 33.5726 40.8842 33.3137 40.4388C33.0515 39.9923 32.0237 40.0845 31.3359 40.4213C30.6459 40.7548 29.9186 41.4875 29.731 41.6872C29.55 41.8846 29.3931 41.8846 29.4128 41.6718C29.4359 41.4437 29.2856 40.3763 29.1967 40.0066C29.098 39.6336 28.7645 38.9283 28.6515 38.7418C28.5407 38.5542 28.6515 38.4818 28.8402 38.5542C29.0212 38.6288 29.4359 38.801 29.8253 38.9042C30.218 39.0226 30.5921 38.8296 30.7709 38.4632C30.9574 38.0847 31.3216 37.2872 31.5081 36.9307C31.6913 36.5786 31.9875 36.6575 32.231 36.7113C32.4723 36.7683 32.6961 36.9175 32.9188 37.0064C33.1404 37.0985 33.3258 37.081 33.4048 36.968C33.4804 36.8605 33.5726 36.8199 33.7064 36.5413C33.837 36.2626 33.9993 36.3954 34.0202 36.5062C34.6871 40.5167 36.4247 40.701 36.4247 40.701C36.1637 41.3691 35.5515 42.4342 35.4067 42.703C35.2499 42.9542 35.1917 43.3118 35.1533 43.5893C35.1237 43.8658 35.2499 46.515 35.4353 47.4858C35.6239 48.4577 36.2174 48.0793 36.4105 47.782C36.5893 47.4858 37.1718 46.2528 37.1718 46.2528C37.1718 46.2528 37.3155 45.9171 37.3155 45.6385C37.3155 45.3577 36.8328 44.7489 36.722 44.5591C36.6068 44.366 36.1999 43.9963 36.1999 43.0628C36.1999 42.1326 37.0379 41.4875 37.3396 41.2429C37.638 40.9983 37.638 40.6593 37.5974 40.4553C37.4669 39.7357 36.7023 38.2218 36.3348 37.6415C35.9585 37.0634 35.2323 35.9653 35.2323 35.9653H36.7418L37.7137 33.9469L38.7712 35.9741L39.8758 35.984ZM39.6312 42.0986C40.1238 41.2846 40.33 40.4388 40.33 40.4388H38.9061C38.9061 40.4388 39.1343 41.3043 39.6312 42.0986ZM38.1481 37.9948C38.2051 38.4116 38.5156 38.5707 38.7514 38.4489C38.9862 38.3195 38.9456 37.9816 38.7712 37.7117C38.6044 37.4474 38.2578 37.1523 38.1514 37.1962C38.0428 37.2411 38.1108 37.749 38.1481 37.9948ZM40.9706 37.1962C40.8686 37.1523 40.5033 37.4474 40.33 37.7117C40.1632 37.9816 40.1205 38.3195 40.3574 38.4489C40.5889 38.5707 40.8872 38.4083 40.9618 37.9948C41.0024 37.749 41.0825 37.2411 40.9706 37.1962Z" fill="url(#paint2_linear_52_2144)"/>
<path d="M26.3257 31.6876V33.546H53.559V31.6876H51.5507V31.9876H28.334V31.6876H26.3257Z" fill="#DA020E"/>
<path d="M26.3271 23.3365H53.5553V30.7412H26.3271V23.3365Z" fill="#DA020E"/>
<path d="M31.0059 28.5913L33.0913 29.1036L34.2168 25.9674V25.1732L31.0059 28.5913ZM48.1923 30.4401V29.4742H46.2243V28.6624H47.8325V25.0819H46.3505L45.8437 24.0968L45.3489 25.0819H43.8625V28.6624H45.4773V29.4742H41.6061V28.6624H43.2164V25.0819H41.7322L41.2309 24.0968L40.7241 25.0819H39.2443V28.6624H40.8623V29.4742H36.911V28.6624H38.5246V25.0819H37.0382L36.5413 24.0968L36.0312 25.0819H34.5503V28.6624H36.1694V29.4742L33.043 29.4841L29.9331 28.7579L30.5562 30.4401L48.1923 30.4401Z" fill="#FFE500"/>
<path d="M28.1899 6.12604C30.8183 5.24627 32.8049 4.56065 36.0421 4.27324C34.5502 3.2377 33.2262 2.36121 31.7036 2.36121C30.9028 2.36121 30.2183 2.66727 30.0603 3.22673C29.9133 3.73572 30.3148 3.95731 30.4574 3.92331C30.6066 3.88491 30.713 3.84104 30.6768 3.70282C30.6384 3.55692 30.7514 3.18613 31.2604 3.18613C31.7782 3.18613 31.9734 3.66552 31.9734 3.99461C31.9734 4.32371 31.4513 4.87329 30.4914 4.87329C29.5502 4.87329 29.0675 4.24582 29.1037 3.66552C28.6496 4.33029 28.3852 5.00273 28.1899 6.12604Z" fill="url(#paint3_radial_52_2144)"/>
<path d="M9.8748 21.863L12.0095 18.9637C12.1324 18.4306 12.23 16.9716 11.5477 15.9361C10.8017 14.7919 9.81885 15.2439 9.53035 15.3766C9.34825 15.4578 9.01696 15.6947 8.81292 16.0249C8.81292 16.0249 6.76047 18.2847 4.50179 20.5083C4.18257 20.8253 3.83154 21.4045 3.80192 21.9409C3.7745 22.417 3.96646 22.8953 4.2429 23.1937C4.8605 23.8519 5.93994 23.8255 6.49172 23.3977L6.5301 25.2099C7.09834 24.7525 9.1475 22.7867 9.8748 21.863Z" fill="black"/>
<path d="M39.9284 17.6437C52.0829 17.6437 58.9982 29.0523 60.5077 31.0554C63.1887 34.6337 66.4709 37.5385 70.2741 36.5786C75.861 35.1493 75.5703 26.8737 75.5703 26.8737C74.2221 25.9029 71.925 24.6808 67.7368 18.744C63.6352 12.9245 54.3536 4.30334 39.9284 4.30334C25.4998 4.30334 16.2205 12.9245 12.1287 18.744C7.9361 24.6808 5.63134 25.9029 4.29632 26.8737C4.29632 26.8737 3.99465 35.1493 9.58595 36.5786C13.387 37.5385 16.667 34.6337 19.3524 31.0554C20.8563 29.0523 27.776 17.6437 39.9284 17.6437Z" fill="#FFE500" stroke="black" stroke-width="0.559459" stroke-miterlimit="3.863"/>
<path d="M39.9288 16.5604C51.6467 16.5604 58.6158 26.5001 61.1361 30.0867C64.4715 34.5388 67.2951 36.2194 70.0079 35.5294C73.9285 34.5311 74.4156 29.1351 74.4682 27.5017V27.4369L74.4244 27.4029C73.0422 26.4453 70.7297 24.858 66.8552 19.3654C64.5439 16.0854 55.7691 5.37561 39.9288 5.37561C24.0939 5.37561 15.3115 16.0854 13.0012 19.3654C9.15851 24.8228 6.74186 26.487 5.44743 27.3755L5.39258 27.4205L5.39917 27.4775C5.45183 29.1142 5.93998 34.5388 9.85071 35.5294C12.5668 36.2194 15.3959 34.5388 18.7225 30.0867C21.2406 26.5001 28.2163 16.5604 39.9288 16.5604Z" fill="#DA020E"/>
<path d="M33.5629 8.25726C31.4129 8.7125 29.9967 10.2976 30.4607 12.4466C30.7305 13.6072 31.7661 15.743 35.0417 15.0465C35.9511 14.8731 36.4425 14.5111 36.9186 14.0559L36.3218 13.3703C36.097 13.6204 35.7613 13.9846 35.0077 14.1414C33.4225 14.476 32.4802 13.1937 32.2455 12.0868C31.8966 10.4468 32.8521 9.31693 33.9315 9.08328C34.7027 8.91324 35.17 9.12277 35.4662 9.23796H35.4761L35.6768 8.39767C35.1569 8.18925 34.5327 8.05103 33.5629 8.25726ZM51.5446 17.7115C52.7743 18.4519 54.1159 18.3258 54.7434 17.2869C55.1997 16.5607 55.2041 15.9574 54.6557 14.8769C54.5141 14.5708 54.3288 14.3514 54.2048 14.0728C53.9624 13.6208 53.7386 13.2511 53.947 12.9012C54.1774 12.5216 54.7105 12.4909 55.1932 12.786C55.6989 13.0921 55.9084 13.5978 56.0148 13.9433L56.8079 13.6011C56.5644 12.9495 56.2035 12.3648 55.3786 11.8766C53.9689 11.0276 52.8226 11.2513 52.3454 12.0467C51.8617 12.8464 51.9988 13.5122 52.363 14.1945C52.363 14.1945 52.5889 14.5818 52.7195 14.8462C53.0387 15.3793 53.4106 16.0517 53.1495 16.4719C52.8336 17.0017 52.2895 17.1169 51.7596 16.7878C51.0806 16.36 50.9215 15.862 50.78 15.376L49.9079 15.749C50.0999 16.4181 50.5508 17.1114 51.5446 17.7115ZM42.1567 7.91138L42.1073 10.5968L39.525 10.5595L39.5634 7.86421L37.8324 7.8324L37.7172 14.4219L39.4515 14.4592L39.5064 11.4382L42.0931 11.4853L42.0437 14.5009L43.7758 14.5273L43.8888 7.9377L42.1567 7.91138ZM66.9561 28.8359C66.9682 28.8524 67.9719 29.3482 69.0875 28.3467C70.0199 27.5086 69.7073 26.36 68.7332 25.2817L66.9374 23.2863L62.0416 27.6983L63.1989 28.9818L65.1483 27.2332L65.711 27.8684L64.4769 30.6525L65.9545 31.8329L66.9561 28.8359ZM67.8304 25.59C68.2889 26.099 68.2966 26.7034 67.7635 27.1729C67.2446 27.6512 66.582 27.5415 66.0785 26.9886L65.7856 26.6606L67.4431 25.1632L67.8304 25.59ZM60.1899 23.9065L61.8299 22.5452L63.1452 24.1106L63.8253 23.5434L62.5023 21.9715L63.89 20.8032L65.2448 22.4168L65.9172 21.8563L63.4424 18.9065L58.3974 23.143L61.1223 26.3956L61.8025 25.8306L60.1899 23.9065ZM58.2987 14.0047L57.7107 14.6497L59.0929 15.8991L55.2623 20.1488L56.5545 21.3105L60.3797 17.0597L61.7443 18.2884L62.3301 17.6433L58.2987 14.0047ZM47.0185 14.4224L47.7162 12.4127L49.6567 13.0819L49.9452 12.246L48.0014 11.5779L48.5927 9.85676L50.5924 10.5424L50.8733 9.71086L47.2302 8.45701L45.0889 14.6977L49.1039 16.0722L49.3891 15.2407L47.0185 14.4224ZM26.1551 11.1939L28.6298 15.1386L23.1197 13.0818L21.8933 13.8518L25.3872 19.4497L26.7178 18.6116L24.2266 14.6263L29.7937 16.693L30.996 15.9394L27.4956 10.3448L26.1551 11.1939ZM18.4477 17.1547L17.3211 18.3636L20.4793 24.6438L21.2505 23.8189L20.3926 22.1482L21.9174 20.5082L23.6463 21.241L24.9166 19.8807L18.4477 17.1547ZM21.1111 20.1451L19.967 21.3737L18.791 19.1139L21.1111 20.1451ZM14.7256 21.1399L13.4992 22.6L15.7908 27.339L10.8763 25.7297L9.81885 26.9825L14.8682 31.2223L15.635 30.3118L12.0666 27.3083L16.8494 28.866L17.3529 28.2692L15.0723 23.6992L18.6561 26.7038L19.775 25.3798L14.7256 21.1399Z" fill="#FFE500"/>
<path d="M7.01135 24.4977L7.00586 23.0442C9.48613 20.7668 10.6555 18.4785 10.6555 18.4785C10.6555 18.4785 9.74392 18.1352 9.33585 17.6163C9.134 17.3278 9.05611 16.934 9.09012 16.6696C9.1691 16.1738 9.55524 15.9226 9.68687 15.8655C9.97209 15.7427 10.5019 15.464 11.0921 16.2758C11.7207 17.1545 11.555 18.8219 11.4684 19.2058C11.4684 19.2058 10.3122 21.2188 7.01135 24.4977Z" fill="url(#paint4_radial_52_2144)"/>
<path d="M9.756 18.7438C9.42142 19.3274 8.57784 20.7359 6.44422 22.7357C6.08989 23.0681 5.20574 23.35 4.70442 22.7873C4.51683 22.569 4.39287 22.2629 4.41152 21.9075C4.43565 21.4961 4.68247 21.0178 4.93039 20.8072C5.3604 20.4441 7.19346 18.5935 8.49667 17.1378C8.53287 17.4033 8.76104 17.8476 8.76104 17.8476C8.94094 18.0955 9.16034 18.452 9.756 18.7438Z" fill="url(#paint5_linear_52_2144)"/>
<path d="M39.8628 64.1338C32.0435 64.1338 23.1459 59.5199 16.5926 52.0561C15.9256 51.2981 15.0765 50.3229 13.0559 50.3229C11.8755 50.3229 10.5372 50.9547 9.64977 51.9321C8.98171 52.6583 8.23247 53.9385 8.41238 55.901C8.67236 58.582 12.921 65.5204 20.4934 69.8293C26.597 73.3013 33.1141 75.0554 39.8628 75.0554" fill="url(#paint6_linear_52_2144)"/>
<path d="M39.8628 64.1338C47.6821 64.1338 56.5796 59.5199 63.133 52.0561C63.8 51.2981 64.649 50.3229 66.6697 50.3229C67.85 50.3229 69.1883 50.9547 70.0758 51.9321C70.7438 52.6583 71.4931 53.9385 71.3132 55.901C71.0532 58.582 66.8046 65.5204 59.2321 69.8293C53.1285 73.3013 46.6114 75.0554 39.8628 75.0554" fill="url(#paint7_linear_52_2144)"/>
<path d="M61.1357 30.0867C64.4711 34.5388 67.2947 36.2193 70.0076 35.5293C73.9282 34.5311 74.4152 29.135 74.4679 27.5016V27.4369L74.424 27.4029C73.0418 26.4453 70.7294 24.8579 66.8548 19.3654" fill="url(#paint8_linear_52_2144)"/>
<path d="M18.732 30.0867C15.3967 34.5388 12.573 36.2193 9.86021 35.5293C5.93961 34.5311 5.45256 29.135 5.3999 27.5016V27.4369L5.44377 27.4029C6.82597 26.4453 9.1384 24.8579 13.0129 19.3654" fill="url(#paint9_linear_52_2144)"/>
<path d="M51.6783 6.12604C49.05 5.24627 47.0634 4.56065 43.8262 4.27324C45.3181 3.2377 46.6421 2.36121 48.1647 2.36121C48.9655 2.36121 49.65 2.66727 49.808 3.22673C49.955 3.73572 49.5535 3.95731 49.4109 3.92331C49.2617 3.88491 49.1553 3.84104 49.1915 3.70282C49.2299 3.55692 49.1169 3.18613 48.6079 3.18613C48.0901 3.18613 47.8949 3.66552 47.8949 3.99461C47.8949 4.32371 48.417 4.87329 49.3769 4.87329C50.3181 4.87329 50.8008 4.24582 50.7646 3.66552C51.2187 4.33029 51.4831 5.00273 51.6783 6.12604Z" fill="url(#paint10_radial_52_2144)"/>
<path d="M40.0519 2.67602C39.9696 3.17843 39.3915 3.66001 38.8068 3.66001C38.221 3.66001 38.0455 3.56567 38.0455 3.56567C37.9567 3.70389 37.8788 3.8103 37.7866 3.95949C38.3176 3.93864 39.5495 3.90464 40.0431 3.90464C40.5357 3.90464 41.9014 3.97594 42.1954 3.99679C41.7204 2.88335 40.8044 1.3421 40.1715 1.3421C40.1495 1.3421 40.1221 1.33997 40.0881 1.33997C39.94 1.33997 39.427 1.78474 39.1522 2.17528C38.7911 2.68836 40.0519 2.67602 40.0519 2.67602Z" fill="url(#paint11_radial_52_2144)"/>
<path d="M72.8563 24.4977L72.8618 23.0442C70.3815 20.7668 69.2121 18.4785 69.2121 18.4785C69.2121 18.4785 70.1237 18.1352 70.5318 17.6163C70.7337 17.3278 70.8115 16.934 70.7775 16.6696C70.6986 16.1738 70.3124 15.9226 70.1808 15.8655C69.8956 15.7427 69.3657 15.464 68.7756 16.2758C68.147 17.1545 68.3126 18.8219 68.3993 19.2058C68.3993 19.2058 69.5555 21.2188 72.8563 24.4977Z" fill="url(#paint12_radial_52_2144)"/>
<path d="M70.1118 18.7438C70.4464 19.3274 71.29 20.7359 73.4236 22.7357C73.7779 23.0681 74.6621 23.35 75.1634 22.7873C75.351 22.569 75.4749 22.2629 75.4563 21.9075C75.4322 21.4961 75.1854 21.0178 74.9374 20.8072C74.5074 20.4441 72.6744 18.5935 71.3712 17.1378C71.335 17.4033 71.1068 17.8476 71.1068 17.8476C70.9269 18.0955 70.7075 18.452 70.1118 18.7438Z" fill="url(#paint13_linear_52_2144)"/>
<path d="M25.168 23.9914V54.8625L39.9289 64.347L54.6888 54.8625L54.7107 24.0385C54.2379 23.6217 53.2561 22.7079 52.4871 22.2296H27.3027C26.6653 22.6772 25.3885 23.7544 25.168 23.9914Z" stroke="black" stroke-width="0.559459" stroke-miterlimit="3.863"/>
<path d="M50.7504 75.0665C49.3013 75.4505 48.2658 75.7752 45.825 76.0714C45.825 76.0714 45.9029 76.3182 46.4338 76.2984C46.6367 76.2853 46.6642 76.2348 46.7344 76.2227C46.8912 76.1942 47.1183 76.3533 47.0953 76.6177C47.0711 76.8041 46.9154 77.0356 46.3735 77.0356C45.8316 77.0356 45.2008 76.5946 44.8816 76.1822C44.8816 76.1822 44.558 76.2579 44.2212 76.2743C44.2212 76.2743 45.2644 77.7311 47.3136 77.7311C49.5635 77.7311 50.4016 75.7116 50.7504 75.0665Z" fill="url(#paint14_radial_52_2144)"/>
<path d="M1.6001 43.3781C1.6001 39.6539 4.62227 36.6251 8.3509 36.6251C12.0806 36.6251 15.1006 39.6539 15.1006 43.3781C15.1006 47.1089 12.0806 50.1311 8.3509 50.1311C4.62227 50.1311 1.6001 47.1089 1.6001 43.3781Z" fill="#FFE500" stroke="black" stroke-width="0.559459" stroke-miterlimit="3.863"/>
<path d="M3.14551 43.1269C3.14551 40.3033 5.47579 38.007 8.35079 38.007C11.2266 38.007 13.5552 40.3033 13.5552 43.1269C13.5552 45.9556 11.2266 48.2469 8.35079 48.2469C5.47579 48.2469 3.14551 45.9556 3.14551 43.1269Z" fill="url(#paint15_radial_52_2144)"/>
<path d="M9.78474 48.0192C9.48856 48.1136 9.36021 47.9062 9.22528 47.757C8.69983 47.1526 8.5649 45.5433 8.5649 45.3305C8.5649 45.1166 8.64388 44.8819 8.79417 44.8764C10.0612 44.8522 10.9662 44.4848 11.7966 43.7948C12.6259 43.1168 12.9857 42.3391 13.0592 42.2008C13.1316 42.0473 13.3038 42.0747 13.3357 42.2875C13.3708 42.4652 13.4377 42.7844 13.4377 43.13C13.4377 45.449 11.8745 47.3435 9.78474 48.0192ZM8.44753 48.2287C8.41133 48.2287 8.37074 48.2331 8.33673 48.2331C7.4032 48.2331 6.37533 47.8766 5.76651 47.53C5.13575 47.1866 4.8988 45.5675 4.8988 44.7491C4.8988 42.0846 5.99139 40.4983 6.1691 40.1868C6.34242 39.8709 6.73295 39.838 7.01926 39.9148C7.31545 40.0003 7.42075 40.0519 7.76191 40.1528C7.93963 40.2109 8.30053 40.2844 8.57148 40.3327C8.84244 40.3974 9.13424 40.4545 8.95872 40.9602C8.7854 41.467 8.19522 42.6846 8.13599 44.1282C8.07894 45.4347 8.25227 46.7325 8.54735 47.53C8.74152 48.0456 8.74152 48.2386 8.44753 48.2287ZM4.59055 42.146C4.34154 42.0144 4.04206 41.3715 3.94114 41.184C3.87312 41.049 3.87313 40.6629 3.97076 40.4983C4.38761 39.7689 4.97888 39.0931 5.74019 38.741C5.83343 38.7004 5.96396 38.6927 5.96396 38.9165C5.96396 39.0361 6.02869 39.2226 6.03088 39.341C6.03088 39.4606 6.08135 39.7052 5.92996 39.8983C5.7709 40.0925 5.08968 41.3002 4.91526 41.9771C4.88674 42.1285 4.84066 42.2875 4.59055 42.146ZM4.45014 46.422C3.74369 45.7243 3.24017 44.4606 3.24017 43.13C3.24017 42.6133 3.31695 42.1186 3.45408 41.6491C3.45408 41.6491 3.58023 41.4385 3.68993 41.6173C3.7744 41.7489 3.89068 41.8816 3.98502 42.0572C4.09033 42.2327 4.63663 42.6484 4.59055 42.9874C4.39968 44.2325 4.57081 45.8867 4.63004 46.1653C4.68269 46.4407 4.607 46.5581 4.45014 46.422ZM6.68029 38.3066C7.20355 38.1333 7.76192 38.0356 8.33673 38.0356C9.21103 38.0356 10.0601 38.1947 10.7687 38.6466C10.9508 38.7651 11.0024 38.9033 11.0024 39.1085C11.0024 39.7765 9.95806 40.0003 9.26697 40.0003C8.57148 40.0003 7.71584 39.725 7.11031 39.533C6.50697 39.3443 6.37533 38.9955 6.37533 38.8364C6.37533 38.6839 6.49271 38.368 6.68029 38.3066ZM11.3951 39.0492C11.4884 39.1249 11.7352 39.3246 11.7352 39.3246C12.2222 39.7689 12.6621 40.2757 12.9177 40.8834C13.2369 41.6491 12.2464 42.8086 11.9557 43.0762C10.6437 44.3082 9.82204 44.2851 9.35693 44.352C8.89181 44.42 8.59013 44.1282 8.6022 43.7783C8.63182 42.7537 9.36131 40.9876 9.57083 40.6552C9.70466 40.4413 9.93722 40.3086 9.93722 40.3086C10.4243 40.1736 10.8971 39.9707 11.1417 39.6921C11.3808 39.409 11.3951 39.0492 11.3951 39.0492ZM8.38719 37.7032C5.25093 37.7032 2.71143 40.2438 2.71143 43.3779C2.71143 46.5142 5.25093 49.0537 8.38719 49.0537C11.5213 49.0537 14.0663 46.5142 14.0663 43.3779C14.0663 40.2438 11.5213 37.7032 8.38719 37.7032Z" fill="#DA020E"/>
<path d="M64.8979 43.365C64.8979 39.6407 67.9201 36.6229 71.6488 36.6229C75.3796 36.6229 78.3996 39.6407 78.3996 43.365C78.3996 47.0958 75.3796 50.1191 71.6488 50.1191C67.9201 50.1191 64.8979 47.0958 64.8979 43.365Z" fill="#FFE500" stroke="black" stroke-width="0.559459" stroke-miterlimit="3.863"/>
<path d="M75.6026 46.3988C75.4545 46.5447 75.3711 46.4175 75.4336 46.1443C75.4852 45.8734 75.6574 44.2137 75.4655 42.9686C75.4183 42.6307 75.9679 42.2161 76.0688 42.0384C76.1697 41.8639 76.2849 41.7279 76.3661 41.6007C76.4791 41.4164 76.5986 41.6226 76.5986 41.6226C76.7434 42.0976 76.8136 42.5945 76.8136 43.109C76.8136 44.444 76.3035 45.7034 75.6026 46.3988ZM75.1451 41.9594C74.9696 41.2847 74.284 40.0715 74.1293 39.8784C73.9736 39.6919 74.0229 39.444 74.0251 39.3244C74.0251 39.206 74.0931 39.0162 74.0931 38.8933C74.0931 38.6794 74.2226 38.6838 74.3147 38.7244C75.0804 39.0765 75.6684 39.7424 76.0896 40.4785C76.1829 40.6463 76.1851 41.0302 76.1159 41.1608C76.0172 41.3495 75.7199 41.9923 75.4654 42.1283C75.2109 42.2676 75.1737 42.1053 75.1451 41.9594ZM74.2928 47.5112C73.6829 47.8524 72.655 48.2122 71.7171 48.2122H71.6085C71.32 48.2198 71.3134 48.0191 71.5108 47.5057C71.7972 46.7148 71.976 45.4116 71.9167 44.1084C71.8575 42.6582 71.275 41.4537 71.094 40.9436C70.9185 40.4379 71.2114 40.3764 71.4856 40.3194C71.7577 40.2656 72.1175 40.1867 72.2963 40.1296C72.6319 40.0276 72.7405 39.976 73.0367 39.8916C73.3252 39.817 73.7136 39.8543 73.8902 40.1625C74.0635 40.4785 75.1583 42.0746 75.1583 44.7325C75.1583 45.5465 74.9191 47.1634 74.2928 47.5112ZM70.2745 47.9982C68.1793 47.3192 66.6194 45.4258 66.6194 43.109C66.6194 42.7678 66.6863 42.4519 66.7138 42.2676C66.7543 42.0548 66.9145 42.0197 66.9946 42.1766C67.0681 42.3192 67.4323 43.0958 68.2572 43.776C69.0931 44.4605 69.9893 44.8346 71.264 44.8609C71.4187 44.8686 71.4911 45.0956 71.4911 45.3139C71.4911 45.53 71.3605 47.136 70.8373 47.7361C70.698 47.8896 70.5641 48.1003 70.2745 47.9982ZM67.1438 40.8657C67.3928 40.258 67.8349 39.7424 68.3219 39.308C68.3219 39.308 68.5633 39.1039 68.6565 39.0326C68.6565 39.0326 68.6763 39.3957 68.9187 39.6678C69.16 39.942 69.6284 40.157 70.1155 40.2854C70.1155 40.2854 70.3447 40.4247 70.4819 40.6386C70.698 40.9611 71.422 42.7251 71.4538 43.7573C71.4626 44.1084 71.1642 44.4002 70.698 44.3332C70.2307 44.2707 69.4112 44.285 68.1003 43.0596C67.8107 42.7909 66.8202 41.6336 67.1438 40.8657ZM69.2851 38.6279C70.0036 38.1737 70.8417 38.0146 71.7171 38.0146C72.2963 38.0146 72.847 38.1134 73.3746 38.2867C73.5688 38.347 73.6829 38.6597 73.6829 38.8165C73.6829 38.9712 73.5545 39.3244 72.9468 39.5142C72.3412 39.7007 71.4889 39.9793 70.7945 39.9793C70.0957 39.9793 69.0547 39.7523 69.0547 39.0875C69.0547 38.8867 69.1052 38.7408 69.2851 38.6279ZM71.6633 37.6888C68.5303 37.6888 65.9897 40.2305 65.9897 43.3569C65.9897 46.5009 68.5303 49.0327 71.6633 49.0327C74.8018 49.0327 77.3424 46.5009 77.3424 43.3569C77.3424 40.2305 74.8018 37.6888 71.6633 37.6888Z" fill="#DA020E"/>
<path d="M66.5205 43.102C66.5205 40.2784 68.8508 37.9821 71.7258 37.9821C74.6016 37.9821 76.9302 40.2784 76.9302 43.102C76.9302 45.9307 74.6016 48.222 71.7258 48.222C68.8508 48.222 66.5205 45.9307 66.5205 43.102Z" fill="url(#paint16_radial_52_2144)"/>
</g>
<defs>
<filter id="filter0_f_52_2144" x="22.1857" y="9.80327" width="35.507" height="57.7774" filterUnits="userSpaceOnUse" color-interpolation-filters="sRGB">
<feFlood flood-opacity="0" result="BackgroundImageFix"/>
<feBlend mode="normal" in="SourceGraphic" in2="BackgroundImageFix" result="shape"/>
<feGaussianBlur stdDeviation="0.824378" result="effect1_foregroundBlur_52_2144"/>
</filter>
<radialGradient id="paint0_radial_52_2144" cx="0" cy="0" r="1" gradientUnits="userSpaceOnUse" gradientTransform="translate(40.1149 77.3103) scale(2.6452 1.96637)">
<stop stop-color="#FFE500"/>
<stop offset="0.5" stop-color="#FFE500"/>
<stop offset="1" stop-color="#E15007"/>
</radialGradient>
<radialGradient id="paint1_radial_52_2144" cx="0" cy="0" r="1" gradientUnits="userSpaceOnUse" gradientTransform="translate(32.8486 76.3988) scale(2.79708 2.51495)">
<stop stop-color="#FFE500"/>
<stop offset="0.5" stop-color="#FFE500"/>
<stop offset="1" stop-color="#E15007"/>
</radialGradient>
<linearGradient id="paint2_linear_52_2144" x1="39.1669" y1="33.8526" x2="39.1669" y2="48.537" gradientUnits="userSpaceOnUse">
<stop stop-color="#8F0904"/>
<stop offset="0.249601" stop-color="#B40509"/>
<stop offset="1" stop-color="#DA020E"/>
</linearGradient>
<radialGradient id="paint3_radial_52_2144" cx="0" cy="0" r="1" gradientUnits="userSpaceOnUse" gradientTransform="translate(31.5268 4.40861) scale(3.1979 3.04486)">
<stop stop-color="#FFE500"/>
<stop offset="0.5" stop-color="#FFE500"/>
<stop offset="1" stop-color="#E15007"/>
</radialGradient>
<radialGradient id="paint4_radial_52_2144" cx="0" cy="0" r="1" gradientUnits="userSpaceOnUse" gradientTransform="translate(8.28027 20.6414) rotate(-60.273) scale(4.99004 4.38963)">
<stop stop-color="#FFE500"/>
<stop offset="0.5" stop-color="#FFE500"/>
<stop offset="1" stop-color="#E15007"/>
</radialGradient>
<linearGradient id="paint5_linear_52_2144" x1="7.60967" y1="18.6564" x2="8.82267" y2="19.9897" gradientUnits="userSpaceOnUse">
<stop stop-color="#FFE500"/>
<stop offset="0.5" stop-color="#FFE500"/>
<stop offset="1" stop-color="#E15007"/>
</linearGradient>
<linearGradient id="paint6_linear_52_2144" x1="10.3652" y1="51.7525" x2="18.7438" y2="61.3692" gradientUnits="userSpaceOnUse">
<stop stop-color="#740703"/>
<stop offset="1" stop-color="#DA020E" stop-opacity="0"/>
</linearGradient>
<linearGradient id="paint7_linear_52_2144" x1="69.3604" y1="51.7525" x2="60.9817" y2="61.3692" gradientUnits="userSpaceOnUse">
<stop stop-color="#740703"/>
<stop offset="1" stop-color="#DA020E" stop-opacity="0"/>
</linearGradient>
<linearGradient id="paint8_linear_52_2144" x1="72.4691" y1="34.0554" x2="67.9346" y2="29.7887" gradientUnits="userSpaceOnUse">
<stop stop-color="#740703"/>
<stop offset="1" stop-color="#DA020E" stop-opacity="0"/>
</linearGradient>
<linearGradient id="paint9_linear_52_2144" x1="7.39871" y1="34.0554" x2="12.1999" y2="28.9887" gradientUnits="userSpaceOnUse">
<stop stop-color="#740703"/>
<stop offset="1" stop-color="#DA020E" stop-opacity="0"/>
</linearGradient>
<radialGradient id="paint10_radial_52_2144" cx="0" cy="0" r="1" gradientUnits="userSpaceOnUse" gradientTransform="translate(48.3415 4.40861) rotate(180) scale(3.1979 3.04486)">
<stop stop-color="#FFE500"/>
<stop offset="0.5" stop-color="#FFE500"/>
<stop offset="1" stop-color="#E15007"/>
</radialGradient>
<radialGradient id="paint11_radial_52_2144" cx="0" cy="0" r="1" gradientUnits="userSpaceOnUse" gradientTransform="translate(39.934 2.92765) scale(2.41597 2.30924)">
<stop stop-color="#FFE500"/>
<stop offset="0.5" stop-color="#FFE500"/>
<stop offset="1" stop-color="#E15007"/>
</radialGradient>
<radialGradient id="paint12_radial_52_2144" cx="0" cy="0" r="1" gradientUnits="userSpaceOnUse" gradientTransform="translate(71.5874 20.6414) rotate(-119.727) scale(4.99003 4.38963)">
<stop stop-color="#FFE500"/>
<stop offset="0.5" stop-color="#FFE500"/>
<stop offset="1" stop-color="#E15007"/>
</radialGradient>
<linearGradient id="paint13_linear_52_2144" x1="72.2582" y1="18.6564" x2="71.0451" y2="19.9897" gradientUnits="userSpaceOnUse">
<stop stop-color="#FFE500"/>
<stop offset="0.5" stop-color="#FFE500"/>
<stop offset="1" stop-color="#E15007"/>
</linearGradient>
<radialGradient id="paint14_radial_52_2144" cx="0" cy="0" r="1" gradientUnits="userSpaceOnUse" gradientTransform="translate(47.4858 76.3988) rotate(180) scale(2.79708 2.51495)">
<stop stop-color="#FFE500"/>
<stop offset="0.5" stop-color="#FFE500"/>
<stop offset="1" stop-color="#E15007"/>
</radialGradient>
<radialGradient id="paint15_radial_52_2144" cx="0" cy="0" r="1" gradientUnits="userSpaceOnUse" gradientTransform="translate(8.35037 43.1269) scale(5.20486 5.11998)">
<stop stop-color="#DA030E" stop-opacity="0"/>
<stop offset="0.875" stop-color="#DA020E" stop-opacity="0"/>
<stop offset="1" stop-color="#DA020E"/>
</radialGradient>
<radialGradient id="paint16_radial_52_2144" cx="0" cy="0" r="1" gradientUnits="userSpaceOnUse" gradientTransform="translate(71.7254 43.102) scale(5.20486 5.11998)">
<stop stop-color="#DA030E" stop-opacity="0"/>
<stop offset="0.875" stop-color="#DA020E" stop-opacity="0"/>
<stop offset="1" stop-color="#DA020E"/>
</radialGradient>
<clipPath id="clip0_52_2144">
<rect width="76.7995" height="78.3604" fill="white" transform="translate(1.6001 0.819824)"/>
</clipPath>
</defs>
</svg>
