<svg width="80" height="80" viewBox="0 0 80 80" fill="none" xmlns="http://www.w3.org/2000/svg">
<g clip-path="url(#clip0_52_2145)">
<g clip-path="url(#clip1_52_2145)">
<path d="M40 -0.00976562C17.9438 -0.00976562 -0.00976562 17.9438 -0.00976562 40C-0.00976562 62.0562 17.9438 80.0098 40 80.0098C62.0562 80.0098 80.0098 62.0562 80.0098 40C79.9902 17.9438 62.0562 -0.00976562 40 -0.00976562Z" fill="#00285E"/>
<path d="M75.829 40C75.829 20.21 59.79 4.1709 39.9804 4.1709C20.1904 4.1709 4.13184 20.21 4.13184 40C4.13184 59.7899 20.1904 75.8486 39.9804 75.8486C59.79 75.829 75.829 59.7899 75.829 40Z" fill="white"/>
<path d="M62.8183 40C62.8183 27.3992 52.6009 17.1819 40.0002 17.1819C27.3995 17.1819 17.1821 27.3992 17.1821 40C17.1821 52.6007 27.3995 62.818 40.0002 62.818C52.6009 62.818 62.8183 52.6007 62.8183 40Z" fill="#6CADDF"/>
<path d="M40.0001 64.6153C26.4226 64.6153 15.3848 53.5579 15.3848 39.9804C15.3848 26.4028 26.4226 15.365 40.0001 15.365C53.5777 15.365 64.6351 26.4028 64.6351 39.9804C64.6155 53.5774 53.5777 64.6153 40.0001 64.6153ZM40.0001 16.752C27.1845 16.752 16.7523 27.1843 16.7523 39.9999C16.7523 52.8155 27.1845 63.2478 40.0001 63.2478C52.8158 63.2478 63.248 52.8155 63.248 39.9999C63.248 27.1843 52.8158 16.752 40.0001 16.752Z" fill="#00285E"/>
<path d="M40.0001 78.3688C18.8426 78.3688 1.63135 61.1576 1.63135 40.0001C1.63135 18.8426 18.8426 1.63135 40.0001 1.63135C61.1576 1.63135 78.3688 18.8426 78.3688 40.0001C78.3493 61.1576 61.1576 78.3688 40.0001 78.3688ZM40.0001 2.45186C19.2919 2.45186 2.4714 19.2919 2.4714 40.0001C2.4714 60.6887 19.3114 77.5288 40.0001 77.5288C60.6887 77.5288 77.5288 60.6887 77.5288 40.0001C77.5288 19.2919 60.6887 2.45186 40.0001 2.45186Z" fill="#6CADDF"/>
<path d="M7.98067 39.1207L7.33598 39.277L7.16016 38.6127L8.23464 38.3002H8.78165V42.0511H7.98067V39.1207Z" fill="#6CADDF"/>
<path d="M9.71973 41.0157C9.71973 40.5468 9.93462 40.2929 10.3253 40.117C10.0323 39.9412 9.85648 39.7068 9.85648 39.2965V39.277C9.85648 38.7104 10.384 38.2611 11.1654 38.2611C11.9468 38.2611 12.4743 38.7104 12.4743 39.277V39.2965C12.4743 39.6872 12.2985 39.9412 12.0054 40.117C12.3766 40.3124 12.6111 40.5468 12.6111 40.9962V41.0157C12.6111 41.6994 12.0054 42.1097 11.1849 42.1097C10.3644 42.1097 9.71973 41.6604 9.71973 41.0157ZM11.7905 40.9571C11.7905 40.664 11.517 40.4882 11.1459 40.4882C10.7747 40.4882 10.5012 40.664 10.5012 40.9375C10.5012 41.1915 10.7356 41.4064 11.1459 41.4064C11.5561 41.4064 11.7905 41.211 11.7905 40.9571ZM11.6929 39.3942C11.6929 39.1598 11.4975 38.9449 11.1654 38.9449C10.8333 38.9449 10.6379 39.1402 10.6379 39.3747V39.3942C10.6379 39.6482 10.8528 39.8435 11.1654 39.8435C11.478 39.8435 11.6929 39.6482 11.6929 39.3942Z" fill="#6CADDF"/>
<path d="M68.6988 40.5079C68.5034 40.6642 68.269 40.7618 67.9368 40.7618C67.1359 40.7618 66.6084 40.3125 66.6084 39.5701V39.5506C66.6084 38.8082 67.1945 38.2417 68.0345 38.2417C68.5425 38.2417 68.816 38.3589 69.109 38.652C69.3825 38.9255 69.5388 39.3162 69.5388 40.0585V40.0781C69.5388 41.2893 68.9723 42.1098 67.9173 42.1098C67.3703 42.1098 67.0187 41.934 66.6865 41.6605L67.1163 41.0354C67.3898 41.2502 67.6243 41.3479 67.9368 41.3479C68.5034 41.3479 68.6597 40.8205 68.6988 40.5079ZM68.7183 39.5311C68.7183 39.199 68.4839 38.945 68.0736 38.945C67.6633 38.945 67.4484 39.1794 67.4484 39.5115V39.5311C67.4484 39.8632 67.7024 40.0976 68.0931 40.0976C68.4839 40.0781 68.7183 39.8437 68.7183 39.5311Z" fill="#6CADDF"/>
<path d="M72.1567 41.2306H70.3399L70.2031 40.6445L72.2349 38.2806H72.9186V40.5664H73.4266V41.2306H72.9186V42.0316H72.1372V41.2306H72.1567ZM72.1567 40.5664V39.4137L71.1604 40.5664H72.1567Z" fill="#6CADDF"/>
<path d="M40.0003 63.2479C27.1847 63.2479 16.7524 52.8157 16.7524 40.0001C16.7524 27.1844 27.1847 16.7522 40.0003 16.7522C52.8159 16.7522 63.2482 27.1844 63.2482 40.0001C63.2482 52.8157 52.8159 63.2479 40.0003 63.2479ZM40.0003 17.6118C27.6535 17.6118 17.612 27.6533 17.612 40.0001C17.612 52.3468 27.6535 62.3883 40.0003 62.3883C52.3471 62.3883 62.3886 52.3468 62.3886 40.0001C62.3886 27.6533 52.3471 17.6118 40.0003 17.6118Z" fill="white"/>
<path fill-rule="evenodd" clip-rule="evenodd" d="M39.5704 19.9756C28.1028 19.9756 21.4801 21.4799 21.4801 21.4799C21.4801 21.4799 18.8427 31.5409 20.347 44.4151C20.9721 49.8266 25.3677 61.4506 39.9416 65.4359C54.5155 61.4701 58.9111 49.8266 59.5362 44.4151C61.0405 31.5214 58.4031 21.4799 58.4031 21.4799C58.4031 21.4799 51.7804 19.9756 40.3128 19.9756H39.5704Z" fill="#00285E"/>
<path fill-rule="evenodd" clip-rule="evenodd" d="M57.5237 41.426C57.387 45.3332 56.7814 57.0158 39.9218 63.4431C23.1989 57.1916 22.3198 45.0988 22.3198 41.426H57.5237Z" fill="#97C1E7"/>
<path fill-rule="evenodd" clip-rule="evenodd" d="M57.0159 40.7814C57.4652 31.0916 55.8242 23.2381 55.8242 23.2381C55.8242 23.2381 49.5336 22.0269 39.9414 22.0269C30.3297 22.0269 23.9414 23.3553 23.9414 23.3553C23.9414 23.3553 22.2027 31.2479 22.6716 40.7619H57.0159V40.7814Z" fill="white"/>
<path d="M40.4496 63.0914L22.6522 41.5823C22.0076 46.017 25.6022 59.0865 40.4496 63.0914Z" fill="#6CADDF"/>
<path d="M27.9663 41.4456L44.4352 61.3137C46.0957 60.5127 47.3265 59.7313 48.4987 58.7935L34.1202 41.4456H27.9663Z" fill="#6CADDF"/>
<path d="M39.3945 41.4651L51.5655 56.1366C52.7572 54.7887 53.773 53.5579 54.4959 52.2685L45.5484 41.4651H39.3945Z" fill="#6CADDF"/>
<path d="M57.231 41.4651L51.1553 41.4456L56.2542 47.5994C57.1333 45.7044 57.231 42.52 57.231 41.4651Z" fill="#6CADDF"/>
<path d="M47.1114 49.514C47.0724 49.3772 46.9551 49.26 46.8184 49.2014L45.8025 48.8498C45.7048 48.8107 45.6267 48.8302 45.529 48.8498C45.4509 48.4981 45.2555 48.1855 44.9625 47.9706C44.9234 47.9511 44.8843 47.912 44.8453 47.8925C44.7866 47.8534 44.7085 47.8143 44.6304 47.7753C44.4936 47.7167 44.3569 47.6776 44.2396 47.6385C43.9466 47.5408 43.6536 47.4432 43.2824 47.1892C42.9307 46.9352 42.7744 46.7008 42.6181 46.4859C42.5791 46.4273 42.54 46.3882 42.5009 46.3296C42.4032 46.1733 42.2665 46.0366 42.1297 45.9194C41.8758 45.7435 41.5632 45.6458 41.2506 45.6458C41.1725 45.6458 41.1139 45.6654 41.0357 45.6654C41.0357 45.6654 41.0357 45.6654 41.0357 45.6458C41.0553 45.5286 41.0162 45.3919 40.9576 45.2942L40.3324 44.4541C40.2348 44.3369 40.098 44.2588 39.9417 44.2588C39.7854 44.2588 39.6487 44.3174 39.5705 44.4346L38.9063 45.2747C38.8282 45.3723 38.7891 45.5091 38.8086 45.6458C38.75 45.6458 38.7109 45.6263 38.6523 45.6263C38.3398 45.6263 38.0272 45.724 37.7732 45.8998C37.7341 45.9193 37.6951 45.9584 37.6755 45.978C37.6169 46.0366 37.5583 46.0756 37.4997 46.1538C37.402 46.271 37.3239 46.3687 37.2457 46.4859C37.0504 46.7399 36.8941 46.9743 36.5034 47.2478C36.1517 47.5018 35.8782 47.5799 35.6242 47.6581C35.5656 47.6776 35.507 47.6971 35.4484 47.7167C35.2726 47.7557 35.0968 47.8339 34.9405 47.9511C34.6279 48.166 34.4326 48.4981 34.3544 48.8693C34.2567 48.8302 34.1395 48.8302 34.0223 48.8498L33.026 49.1819C32.8892 49.2209 32.772 49.3382 32.7134 49.4749C32.6743 49.6117 32.6938 49.7679 32.772 49.8852L33.3776 50.7643C33.4558 50.862 33.5534 50.9206 33.6706 50.9596C33.5144 51.2918 33.4753 51.702 33.5925 52.0537C33.612 52.0927 33.6316 52.1318 33.6316 52.1709C33.6511 52.249 33.6902 52.3272 33.7488 52.4053C33.8269 52.5225 33.9051 52.6397 33.9832 52.7374C34.1786 52.9914 34.3544 53.2258 34.4912 53.6751C34.6279 54.0854 34.6084 54.3589 34.6084 54.6324C34.6084 54.691 34.6084 54.7692 34.6084 54.8278C34.5888 55.0231 34.6084 55.199 34.6865 55.3748C34.8037 55.7264 35.0577 56.0195 35.3507 56.1953C35.3117 56.2734 35.2726 56.3516 35.2921 56.4297V57.4847C35.2921 57.641 35.3703 57.7777 35.4875 57.8559C35.6047 57.934 35.761 57.9731 35.8978 57.934L36.9332 57.641C37.0308 57.6214 37.0895 57.5433 37.1481 57.4847C37.4606 57.7777 37.8904 57.9145 38.3007 57.8949C38.3788 57.8949 38.457 57.8754 38.5547 57.8559C38.6914 57.8168 38.8282 57.7777 38.9454 57.7386C39.2384 57.641 39.5315 57.5433 40.0003 57.5433C40.4301 57.5433 40.6841 57.641 40.9576 57.7191C41.0162 57.7386 41.0748 57.7582 41.1334 57.7777C41.3092 57.8559 41.5046 57.8754 41.6804 57.8754C42.0516 57.8754 42.4228 57.7191 42.6963 57.4651C42.7549 57.5433 42.8135 57.5824 42.9112 57.6214L43.9271 57.934C44.0638 57.9731 44.2201 57.9535 44.3569 57.8754C44.4741 57.7972 44.5522 57.6605 44.5522 57.5042L44.5717 56.4493C44.5717 56.3711 44.5522 56.293 44.5131 56.2148C44.8257 56.039 45.0797 55.746 45.1774 55.3943C45.1969 55.3552 45.1969 55.3162 45.2164 55.2576C45.236 55.1794 45.2555 55.1013 45.2555 55.0036C45.275 54.8668 45.275 54.7301 45.275 54.5933C45.275 54.2808 45.275 53.9877 45.4118 53.5384C45.5485 53.1281 45.7048 52.9132 45.8807 52.6983C45.9197 52.6397 45.9588 52.6007 45.9979 52.5421C46.1151 52.4053 46.2128 52.2295 46.2714 52.0537C46.3886 51.6825 46.3495 51.2722 46.1737 50.9206C46.2714 50.8815 46.3495 50.8424 46.4081 50.7643L47.0333 49.9047C47.131 49.807 47.17 49.6703 47.1114 49.514Z" fill="#00285E"/>
<path d="M39.375 51.7997C39.375 51.4676 39.6485 51.2136 39.9806 51.2136C40.3127 51.2136 40.5862 51.4871 40.5862 51.7997C40.5862 52.1318 40.3127 52.3858 39.9806 52.3858C39.6485 52.3858 39.375 52.1123 39.375 51.7997Z" fill="#FFC758"/>
<path d="M39.961 46.7594C39.8633 46.3883 39.6289 46.0757 39.3359 45.8999L39.961 45.0989L40.5471 45.8999C40.2541 46.0952 40.0587 46.3883 39.961 46.7594ZM35.1747 50.2369C34.8621 50.022 34.6472 49.7485 34.53 49.4163L33.5923 49.7289L34.1588 50.5494C34.4323 50.3541 34.8035 50.2369 35.1747 50.2369ZM37.0306 55.7655C36.7376 56 36.4055 56.1172 36.0343 56.1172V57.1135L37.0111 56.8205C36.8939 56.5079 36.8939 56.1367 37.0306 55.7655ZM42.8914 55.7851C43.0282 56.1367 43.0282 56.4884 42.911 56.8205L43.8682 57.1135L43.8878 56.1172C43.5557 56.1367 43.204 56.0195 42.8914 55.7851ZM44.7083 50.2564C45.099 50.2368 45.4311 50.3345 45.7046 50.5494L46.2907 49.7484L45.3334 49.4163C45.2553 49.7289 45.0209 50.0415 44.7083 50.2564ZM38.7498 55.8046C38.3005 55.8046 37.9488 55.453 37.9488 55.0036C37.9488 54.945 37.8902 54.9255 37.8511 54.9646C37.5581 55.3162 37.3432 55.6288 37.3237 56C37.3041 56.547 37.773 56.9963 38.3395 56.9963C38.3786 56.9963 38.4177 56.9963 38.4372 56.9963C38.4958 56.9963 38.5349 56.9963 38.613 56.9768C39.0038 56.8791 39.3554 56.6837 40.0196 56.6837C40.5862 56.6837 40.8792 56.84 41.1723 56.9182C41.2895 56.9572 41.4262 56.9963 41.563 56.9963C42.1295 56.9963 42.5789 56.547 42.5789 56C42.5789 55.6093 42.3444 55.3162 42.0514 54.9646C42.0318 54.9255 41.9732 54.9646 41.9732 55.0036C41.9732 55.4334 41.6021 55.8046 41.1723 55.8046C40.8401 55.8046 40.4104 55.5116 39.9806 55.5116C39.6094 55.5116 39.0819 55.8046 38.7498 55.8046ZM38.2223 54.7106C38.2223 55.0818 38.5154 55.3748 38.8865 55.3748C38.9256 55.3748 38.9647 55.3748 39.0233 55.3553C39.0428 55.3553 39.0624 55.3553 39.0819 55.3357H39.1014C39.3359 55.2576 39.5508 55.1599 39.961 55.1599C40.3713 55.1599 40.5666 55.2771 40.8011 55.3357C40.8792 55.3553 40.9574 55.3748 41.0355 55.3748C41.4067 55.3748 41.6997 55.0818 41.6997 54.7106C41.6997 54.6129 41.6802 54.5152 41.6411 54.4371C41.6216 54.398 41.6021 54.359 41.5825 54.3394C41.5825 54.3394 40.4494 52.7961 40.4104 52.757C40.3517 52.6789 40.2736 52.7179 40.2345 52.7375C40.1759 52.757 40.0392 52.7961 39.9415 52.7961C39.8438 52.7961 39.7266 52.7765 39.668 52.7375C39.5898 52.6984 39.5312 52.6789 39.4922 52.757C39.4531 52.8156 38.6326 53.9292 38.3786 54.2808C38.2809 54.398 38.2223 54.5348 38.2223 54.7106ZM43.4384 54.2027C43.3017 54.6325 42.8524 54.8474 42.4226 54.7106C42.364 54.6911 42.3249 54.7301 42.364 54.7887C42.6179 55.1599 42.8328 55.4725 43.204 55.6093C43.7315 55.7851 44.3176 55.492 44.4738 54.9646C44.4934 54.9255 44.4934 54.906 44.4934 54.8669C44.5129 54.8278 44.5129 54.7692 44.5325 54.7106C44.5715 54.3003 44.4738 53.9292 44.6887 53.2845C44.8646 52.757 45.099 52.5226 45.2748 52.2686C45.353 52.1709 45.4311 52.0537 45.4702 51.9365C45.646 51.409 45.353 50.8229 44.8255 50.6666C44.4543 50.5494 44.0831 50.6862 43.6533 50.8425C43.6143 50.862 43.6143 50.9011 43.6729 50.9206C44.1027 51.0574 44.3371 51.5067 44.2003 51.9365C44.1027 52.2491 43.6924 52.5616 43.5557 52.9719C43.4384 53.304 43.5557 53.8706 43.4384 54.2027ZM42.2272 54.3589C42.5789 54.4762 42.9696 54.2808 43.0868 53.9292C43.1063 53.8901 43.1063 53.851 43.1063 53.7924C43.1063 53.7729 43.1063 53.7533 43.1063 53.7338V53.7143C43.1063 53.4798 43.0673 53.2259 43.1845 52.8547C43.3212 52.464 43.4775 52.3077 43.6143 52.1123C43.6533 52.0537 43.6924 51.9756 43.7315 51.8974C43.8487 51.5458 43.6533 51.1746 43.3017 51.0574C43.204 51.0378 43.1063 51.0183 43.0282 51.0378C42.9891 51.0378 42.95 51.0378 42.911 51.0574C42.911 51.0574 41.0746 51.6434 41.016 51.663C40.9378 51.7021 40.9378 51.7802 40.9378 51.8193C40.9378 51.8779 40.9183 52.0146 40.8988 52.1123C40.8792 52.1905 40.8206 52.3077 40.762 52.3663C40.7034 52.4249 40.6643 52.4835 40.7229 52.5421C40.7815 52.6007 41.563 53.7143 41.8365 54.0659C41.9342 54.2027 42.0709 54.3003 42.2272 54.3589ZM43.3212 49.2405C43.6924 49.4945 43.7705 50.0024 43.497 50.3541C43.458 50.3931 43.497 50.4517 43.5557 50.4322C44.005 50.315 44.3566 50.1978 44.5911 49.8852C44.9232 49.4359 44.8255 48.8107 44.3762 48.4786C44.3566 48.4591 44.3176 48.4395 44.2785 48.42C44.2394 48.3809 44.2003 48.3614 44.1222 48.3419C43.751 48.1856 43.3603 48.1465 42.8133 47.7558C42.364 47.4237 42.2077 47.1306 42.0123 46.8767C41.9537 46.779 41.856 46.6813 41.7388 46.5836C41.2895 46.2515 40.6448 46.3492 40.3322 46.7985C40.1173 47.1111 40.1173 47.5018 40.1369 47.9511C40.1369 47.9902 40.1955 48.0097 40.215 47.9511C40.469 47.5995 40.9769 47.5213 41.3481 47.7753C41.6216 47.9707 41.7974 48.4591 42.1491 48.6935C42.4616 48.9865 43.0477 49.0452 43.3212 49.2405ZM43.1063 50.4517C43.3212 50.1587 43.2626 49.7289 42.95 49.514C42.9305 49.4945 42.8914 49.4554 42.8328 49.4359C42.8133 49.4359 42.7937 49.4163 42.7742 49.4163H42.7547C42.5202 49.3382 42.2858 49.2991 41.9537 49.0647C41.6216 48.8303 41.5239 48.6154 41.3872 48.4395C41.3481 48.3809 41.2895 48.3223 41.2309 48.2637C40.9378 48.0488 40.508 48.1074 40.2931 48.42C40.2345 48.4981 40.1955 48.5763 40.1759 48.674C40.1759 48.713 40.1564 48.7521 40.1564 48.7912C40.1564 48.7912 40.1564 50.7057 40.1564 50.7643C40.1564 50.862 40.2345 50.862 40.2931 50.8815C40.3517 50.9011 40.4885 50.9597 40.5471 50.9988C40.6253 51.0574 40.7034 51.1355 40.7425 51.1941C40.7815 51.2527 40.8206 51.3113 40.8988 51.2723C40.9769 51.2332 42.2858 50.8229 42.6961 50.6862C42.8719 50.6666 43.0086 50.569 43.1063 50.4517ZM38.5544 47.8339C38.9061 47.58 39.414 47.6581 39.6875 48.0097C39.7266 48.0488 39.7852 48.0488 39.7852 47.9902C39.8047 47.5409 39.8047 47.1502 39.5898 46.8376C39.2773 46.3883 38.6326 46.2906 38.1832 46.6227C38.1442 46.6422 38.1246 46.6618 38.1051 46.6813C38.066 46.7008 38.027 46.7399 37.9879 46.7985C37.7144 47.1111 37.5581 47.4627 37.0111 47.8535C36.5618 48.1856 36.2296 48.2442 35.9366 48.3223C35.8194 48.3614 35.6826 48.4005 35.585 48.4786C35.1356 48.8107 35.0184 49.4359 35.3701 49.8852C35.6045 50.1978 35.9757 50.315 36.4055 50.4322C36.4445 50.4517 36.4641 50.3931 36.4445 50.3541C36.1906 50.0024 36.2687 49.4945 36.6204 49.2405C36.8939 49.0452 37.4018 49.0256 37.7535 48.7716C38.027 48.5763 38.2809 48.0293 38.5544 47.8339ZM39.6485 48.42C39.4336 48.127 39.0038 48.0488 38.7107 48.2637C38.6716 48.2833 38.6521 48.3028 38.613 48.3419C38.5935 48.3614 38.5935 48.3614 38.574 48.3809L38.5544 48.4005C38.4177 48.5958 38.3005 48.8107 37.9684 49.0452C37.6362 49.2796 37.4018 49.2991 37.1869 49.3968C37.1088 49.4163 37.0306 49.4554 36.972 49.4945C36.679 49.7094 36.6008 50.1196 36.8157 50.4322C36.8743 50.5104 36.9525 50.569 37.0306 50.608C37.0697 50.6276 37.0892 50.6471 37.1283 50.6471C37.1283 50.6471 38.9647 51.2332 39.0233 51.2527C39.121 51.2723 39.1601 51.2137 39.1796 51.1746C39.2187 51.1355 39.2968 51.0183 39.3749 50.9597C39.4531 50.9011 39.5508 50.862 39.6289 50.8425C39.7071 50.8229 39.7657 50.8034 39.7657 50.7253C39.7657 50.6471 39.7657 49.2796 39.7657 48.8498C39.7852 48.713 39.7461 48.5568 39.6485 48.42ZM35.7412 51.9169C35.6045 51.4872 35.8389 51.0378 36.2492 50.9011C36.3078 50.8815 36.3078 50.8229 36.2687 50.8034C35.8389 50.6471 35.4677 50.5104 35.1161 50.6276C34.5886 50.7839 34.2956 51.3699 34.4714 51.8974C34.4714 51.9365 34.4909 51.956 34.5105 51.9951C34.53 52.0342 34.5496 52.0928 34.5886 52.1514C34.8035 52.503 35.0966 52.757 35.3115 53.4017C35.4873 53.9292 35.4287 54.2613 35.4287 54.5738C35.4091 54.6911 35.4287 54.8278 35.4677 54.9646C35.6436 55.492 36.2101 55.7851 36.7376 55.6093C37.1088 55.492 37.3237 55.1795 37.5776 54.7887C37.5972 54.7497 37.5581 54.7106 37.519 54.7301C37.0892 54.8669 36.6399 54.6325 36.5032 54.2222C36.4055 53.9096 36.5422 53.4212 36.4055 53.011C36.2883 52.6398 35.8389 52.2295 35.7412 51.9169ZM36.6204 51.0769C36.2687 51.1941 36.0734 51.5653 36.1906 51.9169C36.1906 51.956 36.2101 51.9951 36.2492 52.0342C36.2687 52.0537 36.2687 52.0732 36.2883 52.0732C36.2883 52.0732 36.2883 52.0928 36.3078 52.0928C36.4445 52.2881 36.6204 52.464 36.7571 52.8351C36.8939 53.2259 36.8353 53.4408 36.8548 53.6752C36.8548 53.7533 36.8548 53.8315 36.8939 53.9096C37.0111 54.2613 37.3823 54.4566 37.7339 54.3394C37.8316 54.3199 37.9097 54.2613 37.9684 54.2027C37.9879 54.1831 38.027 54.1441 38.0465 54.1245C38.0465 54.1245 39.1796 52.5812 39.1991 52.5226C39.2577 52.4444 39.1991 52.3858 39.1601 52.3467C39.121 52.3077 39.0428 52.1905 39.0233 52.0928C39.0038 52.0146 38.9842 51.8974 38.9842 51.8193C38.9842 51.7411 38.9842 51.6825 38.9061 51.663C38.8279 51.6434 37.519 51.2137 37.1088 51.0769C36.9525 51.0378 36.7962 51.0183 36.6204 51.0769Z" fill="#EE3124"/>
<path d="M45.5874 31.1307L49.7095 29.7046C49.7095 29.7046 49.3579 31.4238 49.4556 32.7522C49.5728 34.4714 50.5691 35.7803 50.5691 35.7803L45.4897 37.5385L45.5874 31.1307Z" fill="#FFC758"/>
<path d="M50.5693 35.7796C50.5693 35.7796 49.6707 34.4902 49.5144 32.9859C49.3972 31.8528 49.5144 30.876 49.7098 29.7039C49.5339 30.4853 48.8697 32.6929 47.0138 34.7442C46.2714 35.5647 45.9393 36.2875 45.8026 36.7955L45.7244 27.0861C45.7244 27.0861 44.7476 27.4377 44.6499 27.4572C44.5327 27.4963 44.4741 27.5745 44.4741 27.594C44.4741 27.6526 44.435 27.6917 44.3569 27.7112C44.2787 27.7307 43.7122 27.9456 43.3215 28.0629C43.2433 28.0824 43.2824 28.1605 43.3215 28.1605C43.7903 28.141 44.4546 28.0824 44.5132 28.0824C44.6109 28.0629 44.6499 28.0238 44.6499 27.9652C44.6499 27.9652 44.6499 27.9652 44.6499 27.9456C44.6695 27.8675 44.7281 27.8089 44.8062 27.8089C44.8648 27.8089 45.2165 27.7698 45.4314 27.7307L45.3337 38.1825H45.8026V37.4402L50.5693 35.7796Z" fill="#D4A11E"/>
<path d="M32.3027 37.812C32.3027 37.812 31.5408 37.2455 31.3259 36.171C31.111 35.077 31.658 34.4518 31.658 34.4518L36.6592 32.7327C36.6592 32.7327 36.3467 33.729 36.6397 34.8621C37.0109 36.2882 37.7728 37.2455 37.7728 37.2455C37.7728 37.2455 35.9364 36.8938 34.1586 37.1283C32.4785 37.3432 32.3027 37.812 32.3027 37.812Z" fill="#FFC758"/>
<path d="M26.5591 36.5616C26.5591 36.5616 27.1842 34.862 29.0011 33.0061C30.3881 31.5995 31.2868 31.1892 31.2868 31.1892C31.2868 31.1892 30.4858 32.3418 30.1537 34.2368C29.9388 35.409 30.1732 36.8937 30.1732 36.8937C30.1732 36.8937 29.2355 36.6984 28.161 36.5812C27.2624 36.4835 26.5591 36.5616 26.5591 36.5616Z" fill="#FFC758"/>
<path d="M31.2869 31.1892C31.2869 31.1892 30.5055 32.3418 30.1734 34.2368C29.9585 35.409 30.1929 36.8937 30.1929 36.8937C30.1929 36.8937 29.9585 36.8351 29.4114 36.7179C27.1843 36.21 31.2869 31.1892 31.2869 31.1892Z" fill="#D4A11E"/>
<path d="M34.2176 32.5568L34.1785 28.0635C34.0808 28.1025 33.2017 28.3956 33.104 28.4347C32.9868 28.4737 32.9282 28.5519 32.9282 28.5909C32.9282 28.6496 32.8891 28.6886 32.811 28.7082C32.7329 28.7277 32.1663 28.9231 31.7756 29.0598C31.6974 29.0794 31.7365 29.1575 31.7756 29.1575C32.2249 29.138 32.9087 29.0793 32.9673 29.0793C33.065 29.0598 33.104 29.0207 33.1236 28.9621C33.1236 28.9621 33.1236 28.9621 33.1236 28.9426C33.1431 28.8645 33.2017 28.8058 33.2799 28.8058C33.3385 28.8058 33.6706 28.7668 33.905 28.7472L33.8659 32.5763H34.2176V32.5568Z" fill="#D4A11E"/>
<path d="M40.0393 28.4932H40.3909V24.1758C40.3909 24.1758 39.4141 24.5274 39.3164 24.547C39.1992 24.586 39.1406 24.6642 39.1406 24.6837C39.1406 24.7423 39.1015 24.7814 39.0234 24.8009C38.9453 24.8205 38.3787 25.0158 37.988 25.1526C37.9098 25.1721 37.9489 25.2503 37.988 25.2503C38.4569 25.2307 39.1211 25.1721 39.1797 25.1721C39.2774 25.1526 39.3164 25.1135 39.336 25.0549C39.3555 24.9768 39.4141 24.9181 39.4923 24.9181C39.5509 24.9181 39.8634 24.8791 40.0979 24.8595L40.0393 28.4932Z" fill="#D4A11E"/>
<path d="M39.1602 25.1918H39.1797C39.2774 25.1723 39.3165 25.1332 39.3165 25.0746C39.3165 25.016 39.3555 24.9769 39.4142 24.9574L39.2969 24.5862C39.1797 24.6253 39.1406 24.7034 39.1406 24.7229C39.1406 24.7815 39.1016 24.8011 39.043 24.8206L39.1602 25.1918Z" fill="#FFC758"/>
<path d="M32.9478 29.0597H32.9673C33.065 29.0402 33.1041 29.0011 33.1041 28.9425C33.1236 28.8839 33.1431 28.8448 33.2017 28.8253L33.0845 28.4541C32.9673 28.4932 32.9282 28.5713 32.9282 28.5909C32.9282 28.6495 32.8892 28.669 32.8306 28.6885L32.9478 29.0597Z" fill="#FFC758"/>
<path d="M44.4737 28.0829H44.4932C44.5909 28.0634 44.6299 28.0243 44.6299 27.9657C44.6495 27.9071 44.669 27.868 44.7276 27.8485L44.6104 27.4773C44.4932 27.5164 44.4541 27.5945 44.4541 27.614C44.4541 27.6727 44.4151 27.6922 44.3564 27.7117L44.4737 28.0829Z" fill="#FFC758"/>
<path d="M37.7727 37.2455C37.7727 37.2455 36.9718 36.0733 36.6592 34.823C36.3857 33.7485 36.6592 32.7327 36.6592 32.7327C36.6592 32.7327 36.1317 34.5691 34.8619 35.5654C33.9828 36.2687 31.8143 36.9134 32.3222 37.812C32.4003 37.6948 32.6152 37.4604 33.4944 37.2455C33.592 37.2259 33.7093 37.2064 33.8265 37.1869V38.6716H34.2953V37.1283C35.9168 36.9524 37.7727 37.2455 37.7727 37.2455Z" fill="#D4A11E"/>
<path d="M31.7754 34.1393C31.7754 34.1393 31.1893 33.7876 31.2674 32.6546C31.3456 31.4824 31.9317 30.9745 31.9317 30.9354L35.8193 29.6069C35.8193 29.6069 35.5263 30.193 35.7412 31.0721C35.9756 32.1271 36.6594 32.7327 36.6594 32.7327C36.6594 32.7327 34.7058 32.7522 32.9475 33.3578C32.0879 33.6509 31.7754 34.1393 31.7754 34.1393Z" fill="#FFC758"/>
<path d="M34.0808 31.6973C35.1943 30.7791 35.8 29.6069 35.8 29.6069C35.8 29.6069 35.6437 30.3493 35.7609 31.0135C35.9758 32.1466 36.64 32.7327 36.64 32.7327C36.64 32.7327 35.0576 32.7522 33.358 33.2406C32.2249 33.5532 31.8732 34.0025 31.7755 34.1588C31.4044 33.2992 32.9477 32.635 34.0808 31.6973Z" fill="#D4A11E"/>
<path d="M38.516 38.1051C38.516 38.1051 37.4415 37.3041 37.1875 35.7998C36.9726 34.6081 37.7736 33.7486 37.7736 33.7486L43.8493 31.6582C43.8493 31.6582 43.5172 33.0062 43.8297 34.2956C44.1814 35.7412 45.5098 37.5385 45.5098 37.5385C45.5098 37.5385 42.9897 36.8157 40.8017 37.0892C38.7113 37.3627 38.516 38.1051 38.516 38.1051Z" fill="#FFC758"/>
<path d="M37.2844 28.4737C37.2453 27.5555 37.89 26.8131 37.9096 26.7741L42.2661 25.2502C42.2661 25.2502 41.9731 25.934 42.0512 26.5201C42.188 27.6336 42.8131 28.2197 42.8131 28.2197C42.8131 28.2197 41.0939 28.122 39.0817 28.8253C37.9682 29.2161 37.851 29.7435 37.851 29.7435C37.851 29.7435 37.3235 29.6068 37.2844 28.4737Z" fill="#FFC758"/>
<path d="M40.7236 27.3015C41.5051 26.6178 42.267 25.2698 42.267 25.2698C42.267 25.2698 41.9739 25.9535 42.0521 26.5396C42.1888 27.6532 42.814 28.2393 42.814 28.2393C42.814 28.2393 40.9581 28.2197 39.1803 28.8449C38.4184 29.1184 37.93 29.5286 37.8714 29.7631C37.6174 28.9035 39.6491 28.2393 40.7236 27.3015Z" fill="#D4A11E"/>
<path d="M37.9106 33.4945C37.9106 33.4945 37.2855 32.7716 37.1683 31.6385C37.0511 30.4664 37.7348 29.9975 37.7934 29.9584L42.8337 28.2197C42.8337 28.2197 42.697 28.5909 42.8142 29.6068C42.9314 30.4664 43.7714 31.6385 43.7714 31.6385C43.7714 31.6385 41.0755 31.7167 39.4149 32.3614C38.36 32.7716 37.9106 33.4945 37.9106 33.4945Z" fill="#FFC758"/>
<path d="M41.2504 30.5836C42.3444 29.6459 42.8328 28.2393 42.8328 28.2393C42.8328 28.2393 42.696 29.0402 42.8328 29.6654C43.0868 30.7594 43.8682 31.6776 43.8682 31.6776C43.8682 31.6776 41.5239 31.7167 39.8242 32.2832C38.7107 32.6544 38.0269 33.3186 37.9293 33.514C37.6753 32.5567 40.1564 31.5213 41.2504 30.5836Z" fill="#D4A11E"/>
<path d="M45.6076 37.6362C45.6076 37.6362 44.24 35.8584 43.8298 34.2956C43.5758 33.2602 43.7712 32.088 43.8493 31.6777C43.693 32.2247 43.146 34.0025 41.798 35.2528C40.5087 36.4445 37.969 37.0111 38.516 38.1246C38.6137 37.9488 38.9067 37.519 39.9421 37.265L39.9226 38.6912H40.411V37.1674C42.6576 36.8157 45.6076 37.6362 45.6076 37.6362Z" fill="#D4A11E"/>
<path fill-rule="evenodd" clip-rule="evenodd" d="M47.9514 40.9767C48.2639 40.9181 48.5765 40.84 49.0454 40.7227C49.0258 40.7032 48.9868 40.6837 48.9672 40.6641C48.4593 40.0976 48.5374 39.492 48.85 39.1989C49.9831 38.144 49.9636 37.3625 49.9636 37.3625C49.9636 37.3625 47.209 37.9291 43.5753 38.1244C43.3409 38.144 42.5008 38.5152 42.2468 38.5152C41.7389 38.5347 41.231 38.5542 40.7035 38.5542C33.8464 38.6128 31.9318 38.1245 29.6852 37.7142C27.3995 37.2844 26.4031 36.8351 26.4031 36.8351L26.325 37.0695C26.325 37.0695 28.1223 37.7728 29.4117 38.398C29.6852 38.5347 30.7597 40.1367 31.1113 40.6837H22.9648C22.5155 31.3455 24.3128 23.7069 24.3128 23.7069C24.3128 23.7069 30.5448 22.3784 39.9221 22.3784V21.3821C29.9782 21.3821 23.3555 22.7887 23.3555 22.7887C23.3555 22.7887 20.4642 32.9865 21.988 45.1379C22.6327 50.1977 26.8134 59.6727 39.883 64.0683L40.4495 63.2673L39.883 62.4663C27.5753 58.3442 23.9807 50.0023 23.3555 45.2551C23.2188 44.2002 23.1211 43.1452 23.0429 42.1293H39.9416V40.7032H31.2676C31.463 40.0781 32.0686 39.9218 32.8305 40.0976C33.6119 40.2929 34.3934 40.4883 35.1357 40.4492C36.9917 40.3516 36.7182 39.8632 36.894 39.8632C38.8085 39.9804 39.5313 40.4492 41.1919 40.4102C42.7157 40.3906 43.2432 39.9804 43.3799 39.9804C45.2359 39.9608 45.9392 40.8204 47.7951 40.9767C47.8537 40.9767 47.9123 40.9767 47.9514 40.9767Z" fill="#FFC758"/>
<path fill-rule="evenodd" clip-rule="evenodd" d="M56.469 22.7887C56.469 22.7887 49.8658 21.3821 39.922 21.3821V22.3784C49.2993 22.3784 55.5118 23.7069 55.5118 23.7069C55.5118 23.7069 57.3286 31.3455 56.8597 40.6837H48.6937C48.049 40.0585 48.4202 39.238 48.6351 39.0426C49.5923 38.1831 49.5923 37.597 49.5923 37.597C49.5923 37.597 47.3848 38.144 43.7511 38.3003C43.5166 38.3003 42.5008 38.7691 42.2468 38.7691C41.7389 38.7887 41.0356 38.8082 40.5081 38.8082C35.7804 38.8082 33.4556 38.7105 29.353 37.8314C29.4312 37.9291 29.4702 37.9682 29.5484 38.0854C29.5679 38.1244 31.3457 38.5738 31.3652 38.6128C31.6387 38.984 31.9904 39.238 32.4202 39.4724C33.0844 39.8241 34.0612 40.1171 34.8622 40.1757C36.7181 40.2929 36.3665 39.5896 36.5423 39.5896C38.4373 39.5506 39.668 40.2343 41.3286 40.2148C42.8524 40.1953 42.8915 39.7069 43.0478 39.7069C44.552 39.6287 46.0759 40.2734 47.3848 40.7032H39.922V42.1293H56.7621C56.6839 43.1647 56.5862 44.2002 56.4495 45.2551C55.8243 50.0219 52.2297 58.3442 39.922 62.4663V64.0683C52.9916 59.6727 57.1919 50.2172 57.817 45.1379C59.3604 32.9865 56.469 22.7887 56.469 22.7887Z" fill="#D4A11E"/>
<path d="M9.40674 27.1846L10.0905 25.8757L13.1772 25.6608L11.6143 22.9843L12.2981 21.6949L17.7877 24.5863L17.1625 25.778L13.5679 23.9025L15.1113 26.6766L15.0917 26.6962L11.966 27.0087L15.5215 28.8842L14.8964 30.0759L9.40674 27.1846Z" fill="#00285E"/>
<path d="M15.6777 17.4166L16.5373 16.4984L22.9061 18.8427L21.9293 19.8781L20.5227 19.3311L18.7254 21.2457L19.3505 22.6132L18.3932 23.6291L15.6777 17.4166ZM19.331 18.8818L17.2992 18.1004L18.1979 20.0735L19.331 18.8818Z" fill="#00285E"/>
<path d="M20.6006 12.9037L21.6751 12.259L26.1488 14.0172L24.1757 10.7547L25.3283 10.0514L28.5322 15.3457L27.5359 15.9513L22.9254 14.1344L24.9767 17.5142L23.824 18.2174L20.6006 12.9037Z" fill="#00285E"/>
<path d="M28.9426 11.8293C28.4542 10.1101 29.3138 8.35191 31.1502 7.82443C32.2638 7.49232 33.0647 7.68768 33.768 8.05887L33.2015 9.2701C32.6154 8.97706 32.0879 8.85984 31.4823 9.03567C30.486 9.32871 29.9976 10.3641 30.2906 11.3995V11.4191C30.5837 12.4349 31.5409 13.0796 32.5568 12.7866C33.2406 12.5912 33.5727 12.2005 33.9243 11.634L34.9988 12.2396C34.569 13.0796 34.0025 13.6852 32.8694 14.0174C31.1307 14.5253 29.431 13.5485 28.9426 11.8293Z" fill="#00285E"/>
<path d="M36.3857 6.84757L37.7337 6.8085L37.8119 9.27003L40.3125 9.21143L40.2539 6.74989L41.6214 6.71082L41.7777 12.9233L40.4102 12.9623L40.3516 10.4617L37.8314 10.5399L37.9096 13.0209L36.542 13.06L36.3857 6.84757Z" fill="#00285E"/>
<path d="M49.6509 13.7634L50.784 13.2164C51.0965 13.861 51.5068 14.3885 52.1515 14.6816C52.6594 14.916 53.0501 14.8574 53.2064 14.5253V14.5057C53.3627 14.1932 53.226 13.9392 52.4055 13.275C51.4091 12.4544 50.823 11.8098 51.331 10.6962V10.6767C51.7998 9.6608 52.9329 9.36776 54.0856 9.89523C54.9061 10.2664 55.4921 10.8525 55.8438 11.5753L54.7693 12.22C54.4372 11.6339 54.027 11.2041 53.5581 10.9892C53.0892 10.7744 52.7376 10.872 52.6008 11.1455V11.1651C52.425 11.5363 52.6204 11.7707 53.4799 12.474C54.4763 13.2945 54.9451 14.0173 54.4763 14.9941V15.0137C53.9683 16.1272 52.8157 16.3617 51.6045 15.8146C50.784 15.3849 50.0611 14.6816 49.6509 13.7634Z" fill="#00285E"/>
<path d="M58.7156 14.1344L57.2113 12.9818L57.9732 11.9855L62.0562 15.0917L61.2943 16.1076L59.7901 14.9549L56.801 18.8817L55.707 18.0612L58.7156 14.1344Z" fill="#00285E"/>
<path d="M68.5228 22.9452L69.7927 25.4849C70.1443 26.1882 70.2225 26.8329 70.0467 27.3799C69.8904 27.8487 69.5387 28.2199 69.0112 28.4934H68.9917C68.0931 28.9427 67.2921 28.7474 66.6669 28.1613L65.358 30.5056L64.6352 29.0795L65.8073 26.9891L65.3189 26.0319L63.5412 26.9305L62.9355 25.7193L68.5228 22.9452ZM67.0576 26.7547C67.3507 27.3408 67.8391 27.5362 68.308 27.3017H68.3275C68.855 27.0478 68.9331 26.5398 68.6401 25.9537L68.0344 24.7425L66.452 25.5435L67.0576 26.7547Z" fill="#00285E"/>
<path d="M45.5092 11.0086L47.795 11.497L48.4396 10.403L45.7827 9.81694L46.0367 8.58617L49.2797 9.28947L49.5532 8.11731L44.9622 7.12097L43.6533 13.1771L48.2834 14.193L48.5373 13.0013L45.2357 12.2785L45.5092 11.0086Z" fill="#00285E"/>
<path d="M63.9318 16.9476L59.165 20.933L62.2127 24.5471L63.1309 23.7657L60.9819 21.1869L61.9782 20.3469L63.502 22.1637L64.7328 21.7535L62.916 19.5655L63.8732 18.7645L66.0026 21.3042L66.9404 20.5227L63.9318 16.9476Z" fill="#00285E"/>
<path d="M29.4702 69.8513C29.4702 68.0344 30.8182 66.5692 32.7718 66.5692C33.9635 66.5692 34.6668 66.9599 35.2724 67.546L34.3933 68.5619C33.9049 68.1126 33.4165 67.8586 32.7718 67.8586C31.6973 67.8586 30.9354 68.7377 30.9354 69.8317V69.8513C30.9354 70.9257 31.6778 71.8439 32.7718 71.8439C33.4946 71.8439 33.944 71.5509 34.4324 71.1016L35.3115 72.0002C34.6668 72.7035 33.944 73.1333 32.7132 73.1333C30.8573 73.0942 29.4702 71.6486 29.4702 69.8513Z" fill="#00285E"/>
<path d="M36.6592 66.667H38.0462V72.9771H36.6592V66.667Z" fill="#00285E"/>
<path d="M41.27 67.9564H39.3555V66.667H44.5911V67.9564H42.6766V72.9967H41.2895V67.9564H41.27Z" fill="#00285E"/>
<path d="M47.5997 70.4961L45.1772 66.667H46.7987L48.303 69.2067L49.8268 66.667H51.4092L48.9868 70.457V72.9771H47.5997V70.4961Z" fill="#00285E"/>
</g>
</g>
<defs>
<clipPath id="clip0_52_2145">
<rect width="80" height="80" rx="10" fill="white"/>
</clipPath>
<clipPath id="clip1_52_2145">
<rect width="80.0195" height="80.0195" fill="white" transform="translate(-0.00976562 -0.00976562)"/>
</clipPath>
</defs>
</svg>
