<svg width="500" height="500" viewBox="0 0 500 500" fill="none" xmlns="http://www.w3.org/2000/svg">
<path d="M432.789 53.1022C432.789 33.9978 419.889 28.2004 401.416 23.3857C374.395 16.3391 318.794 4.5059 249.999 4.5059C181.203 4.5059 125.588 16.3251 98.5668 23.3717C80.1081 28.2004 67.208 33.9837 67.208 53.1022V320.48V320.578V320.677C67.4466 342.911 78.0025 364.023 95.4506 377.176L238.994 486.005L249.999 494.343L261.018 486.005L404.603 377.148C422.233 363.855 432.789 342.659 432.789 320.48V53.1022Z" fill="white"/>
<path d="M250 4.50159C181.204 4.50159 125.59 16.3346 98.5682 23.3812C80.1095 28.196 67.2097 33.9791 67.2097 53.0976V320.476V320.574V320.672C67.4344 342.907 77.9896 364.019 95.4517 377.172L238.995 486.001L250 494.339L261.018 486.001L404.604 377.144C422.235 363.85 432.79 342.654 432.79 320.489V53.0976C432.79 33.9931 419.89 28.196 401.417 23.3812C374.396 16.3346 318.796 4.50159 250 4.50159ZM246 18.2998L250.337 31.7059H264.43L253.032 39.9872L257.383 53.3793L246 45.0968L234.588 53.3793L238.939 39.9872L227.541 31.7059H241.634L246 18.2998ZM93.7673 37.8391L98.1186 51.2453H112.213L100.814 59.5266L105.165 72.9186L93.7673 64.6362L82.3696 72.9186L86.7209 59.5266L75.3231 51.2453H89.416L93.7673 37.8391ZM394.974 37.8391L399.326 51.2453H413.42L402.021 59.5266L406.372 72.9186L394.974 64.6362L383.577 72.9186L387.928 59.5266L376.53 51.2453H390.623L394.974 37.8391ZM328.566 60.3271C329.899 60.5096 331.218 60.6917 332.524 60.8882C336.426 61.4356 340.203 62.0253 343.852 62.6149C347.53 63.2185 351.095 63.8367 354.492 64.4683L258.478 137.362V87.4329C273.596 96.4025 283.802 95.4895 290.385 91.3065C294.147 88.9202 296.729 85.453 298.343 82.1683C314.725 86.983 332.903 76.8206 328.566 60.3271ZM152.667 63.19C152.793 64.5937 153.075 65.9283 153.468 67.2057C153.481 67.2618 153.495 67.3174 153.509 67.3735C153.522 67.4297 153.551 67.4723 153.565 67.5285C157.762 80.2882 174.832 86.8991 190.553 82.2669C193.487 88.2186 200.519 93.4405 210.331 94.8021C216.928 95.7145 224.79 94.8578 233.492 91.2924V156.341L173.4 201.975C173.597 200.529 173.723 198.985 173.723 197.315V196.795V195.869V195.447C180.292 191.391 186.089 183.488 188.994 173.494C190.286 169.058 190.819 164.665 190.777 160.538C189.57 161.072 188.293 161.436 187.086 161.674C183.899 162.292 181.163 162.11 181.149 162.11C186.412 161.703 190.23 159.696 192.714 157.843C193.444 157.225 194.244 156.481 195.086 155.625C200.28 150.319 203.706 144.156 205.741 137.011L215.623 102.452C210.458 101.975 205.474 104.432 202.695 108.812L197.922 116.335L193.248 123.732C192.195 125.501 190.314 127.101 188.181 128.252C184.896 125.684 182.341 123.662 180.32 122.076C180.011 121.837 179.717 121.598 179.436 121.374L176.319 108.292L180.854 100.206C182.159 97.8621 182.58 95.1805 182.145 92.6117C181.864 91.0396 181.26 89.4963 180.334 88.1066C179.59 87.0117 178.046 86.7592 176.923 87.4751L165.539 94.7457C165.216 94.4229 164.908 94.1699 164.585 93.9734C163.869 93.5242 163.138 93.4127 162.352 93.5391C161.201 93.7356 159.924 94.4793 158.422 95.4899L155.516 97.6098L151.193 100.767L147.88 100.642L145.578 100.543C143.332 100.543 142.434 104.586 144.511 107.561C146.238 110.032 147.599 113.233 148.526 117.093C148.539 117.149 148.568 117.206 148.582 117.262C148.638 117.543 148.694 117.823 148.764 118.103C148.806 118.328 148.863 118.539 148.905 118.763C149.635 122.357 150.014 126.47 150.014 131.046C150.014 141.265 144.511 163.121 137.423 177.368C137.086 177.986 136.735 178.603 136.398 179.235L131.064 188.12C130.208 189.412 130.404 191.363 131.415 192.766C132.145 193.777 133.31 194.507 134.826 194.507C134.826 194.507 139.107 199.897 140.455 210.27C141.072 214.987 141.086 220.743 139.809 227.481L129.703 235.159L118.977 243.3L118.993 70.0123C124.144 68.791 129.997 67.4864 136.468 66.195C141.494 65.1843 146.912 64.1726 152.667 63.19ZM410.48 91.5976L405.898 95.1061L396.147 102.567L410.48 91.5976ZM375.171 118.621V380.284L325.079 418.253V156.961L325.084 156.958L375.169 118.623L375.171 118.621ZM297.993 125.305L302.344 138.696H316.438L305.039 146.978L309.39 160.383L297.993 152.102L286.595 160.383L290.946 146.978L279.548 138.696H293.641L297.993 125.305ZM93.7673 151.919L98.1186 165.31H112.213L100.814 173.592L105.165 186.997L93.7673 178.716L82.3696 186.983L86.7209 173.592L75.3231 165.31H89.416L93.7673 151.919ZM274.982 195.296V456.227L250 475.164L224.891 456.131V233.633L174.792 271.968V418.15L207.419 442.887L103.762 364.314C103.762 364.31 103.754 364.307 103.752 364.303L124.694 380.171V310.311L174.79 271.964L224.887 233.628L274.982 195.296ZM199.565 196.347L203.93 209.752H218.01L206.611 218.034L210.963 231.425L199.565 223.156L188.167 231.425L192.532 218.034L181.12 209.752H195.213L199.565 196.347ZM93.7673 272.442L98.1186 285.847H112.213L100.814 294.128L105.165 307.52L93.7673 299.251L82.3696 307.52L86.7209 294.128L75.3231 285.847H89.416L93.7673 272.442ZM121.132 313.036L105.954 324.655L88.5603 337.959L105.952 324.645L121.132 313.036ZM86.134 339.816C88.5027 346.626 92.1835 352.888 97.0094 358.162C92.1825 352.892 88.5006 346.629 86.1316 339.819L86.134 339.816ZM406.454 354.06C406.276 354.296 406.106 354.536 405.924 354.768C405.728 355.017 405.526 355.26 405.326 355.505C405.527 355.258 405.73 355.014 405.926 354.764C406.107 354.533 406.277 354.294 406.454 354.06ZM401.439 359.805C399.834 361.395 398.12 362.888 396.294 364.271C396.266 364.285 396.253 364.3 396.239 364.314L377.213 378.735L396.297 364.267C398.115 362.884 399.831 361.393 401.439 359.805Z" fill="#262F61"/>
<path d="M417.283 292.58V86.3897L405.898 95.1067L375.171 118.619V380.284L396.297 364.267C399.933 361.502 403.161 358.302 405.926 354.764C413.17 345.528 417.283 333.989 417.283 322.044V292.58ZM325.08 156.957L274.982 195.292V456.227L325.08 418.257V156.957ZM174.792 271.968V418.15L224.891 456.134V233.633L174.792 271.968ZM124.694 310.309L105.955 324.655L86.1343 339.815C89.5032 349.5 95.5251 358.077 103.723 364.281L124.694 380.171V310.309Z" fill="#CE3524"/>
</svg>
