<svg width="500" height="500" viewBox="0 0 500 500" fill="none" xmlns="http://www.w3.org/2000/svg">
<path fill-rule="evenodd" clip-rule="evenodd" d="M53.9102 24.88C86.8238 39.3272 140.843 37.6166 177.076 10.2718C227.739 47.3929 276.499 43.5822 322.991 10.2718C353.987 32.6769 401.71 42.243 446.488 25.3503L466.562 53.2413C414.218 123.196 433.594 190.063 487.585 248.91L464.913 271.898C470.049 422.777 353.191 458.8 286.088 462.54L250.011 492.057L214.202 462.98C94.404 452.634 31.1528 389.433 35.0659 272.285L11.7554 248.734C57.3019 199.468 91.5274 132.149 33.0189 53.2261L53.9102 24.88Z" fill="black" stroke="black" stroke-width="0.189272"/>
<path fill-rule="evenodd" clip-rule="evenodd" d="M56.6375 269.247H442.115C452.247 375.917 384.476 433.532 281.422 439.197L215.937 439.362C117.343 432.275 43.8867 380.219 56.6375 269.247Z" fill="#004D98"/>
<path d="M277.418 270.53H222.814V440.982H277.418V270.53Z" fill="#A50044"/>
<path d="M168.74 270.53H114.137V422.865H168.74V270.53Z" fill="#A50044"/>
<path d="M168.741 415.06H133.175V430.751H168.741V415.06Z" fill="#A50044"/>
<path d="M385.475 270.53H330.871V422.865H385.475V270.53Z" fill="#A50044"/>
<path d="M366.437 415.06H330.871V430.751H366.437V415.06Z" fill="#A50044"/>
<path fill-rule="evenodd" clip-rule="evenodd" d="M248.34 60.1262V211.527L64.3304 212.858L83.297 139.986L59.6719 52.8057L176.134 37.832L248.34 60.1262Z" fill="white"/>
<path fill-rule="evenodd" clip-rule="evenodd" d="M251.002 60.1262V211.527L435.013 212.858L416.046 139.986L439.671 52.8057L323.209 37.832L251.002 60.1262Z" fill="#FFED02"/>
<path d="M194.773 42.1449H142.014V210.589H194.773V42.1449Z" fill="#DB0030"/>
<path d="M248.34 157.733V104.975H84.172V157.733H248.34Z" fill="#DB0030"/>
<path d="M287.029 54.0859H267.516V209.492H287.029V54.0859Z" fill="#DB0030"/>
<path d="M324.07 42.9532H304.557V209.858H324.07V42.9532Z" fill="#DB0030"/>
<path d="M361.353 52.3613H341.84V210.207H361.353V52.3613Z" fill="#DB0030"/>
<path d="M398.288 58.1436H378.775V210.066H398.288V58.1436Z" fill="#DB0030"/>
<path fill-rule="evenodd" clip-rule="evenodd" d="M176.768 22.2648C142.787 47.1721 89.0134 49.7926 58.1445 37.3392L45.781 53.2556C98.8215 127.887 68.3473 202.971 26.291 248.956L45.6578 269.453C37.799 381.942 103.445 446.999 218.849 453.693L250.128 479.817L281.345 453.283C348.55 452.123 466.391 414.432 453.694 269.288L473.164 249.121C423.773 194.346 406.75 119.321 454.475 53.2556L442.871 37.4419C400.643 51.3196 352.332 43.6271 323.261 22.6139C279.658 53.855 224.284 57.0799 176.768 22.2648ZM323.652 43.6442C349.869 59.9225 378.839 64.5545 428.782 60.1767C403.773 103.447 401.072 154.993 423.217 204.76L76.6281 204.554C95.269 160.085 99.546 108.913 70.3231 59.1909C106.346 64.4209 141.534 63.1678 176.625 44.0754C224.221 72.0162 273.186 72.5273 323.652 43.6442ZM64.3262 270.931H435.991C445.759 373.777 380.416 429.317 281.057 434.778L217.905 434.943C122.845 428.109 52.0326 377.925 64.3262 270.931Z" fill="#EDBB00" stroke="#DEB405" stroke-width="0.177515"/>
<path fill-rule="evenodd" clip-rule="evenodd" d="M69.9224 59.7323C99.1452 109.454 94.8651 160.625 76.2242 205.095L422.805 205.3C400.66 155.533 403.371 103.986 428.38 60.7159C378.437 65.0937 349.474 60.4662 323.257 44.1878C272.791 73.071 223.81 72.5487 176.213 44.6079C141.123 63.7002 105.945 64.9623 69.9224 59.7323Z" stroke="black" stroke-width="0.75709"/>
<path fill-rule="evenodd" clip-rule="evenodd" d="M64.3231 270.931H435.982C445.75 373.777 380.409 429.326 281.049 434.788L217.912 434.947C122.852 428.114 52.0295 377.924 64.3231 270.931Z" stroke="black" stroke-width="0.75709"/>
<path d="M249.79 64.9326V205.365" stroke="black" stroke-width="0.75709"/>
<path d="M301.045 351.072C301.047 357.709 299.741 364.281 297.202 370.412C294.663 376.544 290.941 382.115 286.249 386.808C281.557 391.501 275.986 395.224 269.855 397.764C263.724 400.304 257.152 401.611 250.516 401.611C243.879 401.611 237.308 400.304 231.177 397.764C225.046 395.224 219.475 391.501 214.783 386.808C210.091 382.115 206.369 376.544 203.83 370.412C201.291 364.281 199.985 357.709 199.986 351.072C199.985 344.436 201.291 337.864 203.83 331.733C206.369 325.601 210.091 320.03 214.783 315.337C219.475 310.643 225.046 306.921 231.177 304.381C237.308 301.841 243.879 300.533 250.516 300.533C257.152 300.533 263.724 301.841 269.855 304.381C275.986 306.921 281.557 310.643 286.249 315.337C290.941 320.03 294.663 325.601 297.202 331.733C299.741 337.864 301.047 344.436 301.045 351.072Z" fill="#EDBB00" stroke="black" stroke-width="0.760882"/>
<path d="M221.367 309.913C215.469 331.41 211.811 352.576 228.825 362.746C240.714 369.853 248.753 355.359 250.981 349.744" stroke="black" stroke-width="0.662453"/>
<path d="M203.755 371.448C213.716 370.994 218.914 370.174 225.303 360.467" stroke="black" stroke-width="0.662453"/>
<path d="M250.562 350.122C260.557 343.977 269.448 346.95 273.578 362.332C283.307 358.423 292.683 365.931 295.125 373.52" stroke="black" stroke-width="0.662453"/>
<path d="M273.785 362.332C266.401 380.16 246.977 388.414 219.709 391.131" stroke="black" stroke-width="0.662453"/>
<path d="M250.577 350.853C244.441 345.235 235.003 338.806 248.753 322.29C242.919 314.896 241.329 307.672 248.956 300.817" stroke="black" stroke-width="0.662453"/>
<path d="M300.815 354.094C291.841 338.23 270.954 316.249 248.753 322.087" stroke="black" stroke-width="0.662453"/>
<path d="M179.866 213.779V213.964H170.686V231.79V241.894V261.713H180.606V241.894H194.756V231.79H180.606V224.047H205.025V213.779H179.866Z" fill="black"/>
<path fill-rule="evenodd" clip-rule="evenodd" d="M254.964 228.736L263.867 224.087C258.184 211.521 235.141 207.947 227.561 224.087C219.74 243.338 228.053 261.222 243.191 262.965C252.81 264.365 260.433 259.657 263.669 251.291L254.865 246.246C252.52 252.089 243.579 256.11 236.761 246.345C234.661 241.982 234.123 235.265 236.464 228.736C242.056 221.054 250.23 221.885 254.964 228.736Z" fill="black" stroke="black" stroke-width="0.0378545"/>
<path fill-rule="evenodd" clip-rule="evenodd" d="M289.002 213.902L289.187 262.083L315.413 261.98C323.947 260.785 335.134 246.816 322.026 235.959C328.956 229.852 328.088 216.787 314.222 214.005L289.002 213.902ZM299.086 223.39H312.148C317.892 225.043 316.187 230.565 312.332 231.502H299.086V223.39ZM299.188 240.909L312.928 241.093C319.724 243.116 318.189 250.861 313.133 252.184L299.291 252.081L299.188 240.909Z" fill="black" stroke="black" stroke-width="0.189272"/>
</svg>
