<svg width="500" height="500" viewBox="0 0 500 500" fill="none" xmlns="http://www.w3.org/2000/svg">
<path d="M237.602 17.2865H247.159V4.67207H255.759V17.2865H265.316V25.8867H255.759V32.1404C258.82 33.2094 261.359 35.3858 262.898 38.1902C264.744 36.6169 267.136 35.6655 269.751 35.6655C275.59 35.6655 280.325 40.4003 280.325 46.2389C280.325 46.4813 280.316 46.7209 280.3 46.9587C281.926 45.9378 283.849 45.3481 285.91 45.3481C289.259 45.3481 292.244 46.9053 294.182 49.3355C294.936 44.2363 299.332 40.3228 304.64 40.3228C310.479 40.3228 315.214 45.0577 315.214 50.8963C315.214 52.1203 315.006 53.2944 314.623 54.3875C316.554 52.2958 319.319 50.9863 322.39 50.9863C327.951 50.9863 332.511 55.281 332.932 60.7339C333.781 60.5139 334.671 60.398 335.588 60.398C341.427 60.398 346.162 65.1329 346.162 70.9715C346.162 72.0476 346 73.0846 345.701 74.0627C350.022 75.3928 353.163 79.4158 353.163 84.1712C353.163 85.8379 352.776 87.4147 352.088 88.8169C354.819 90.7287 356.606 93.8992 356.606 97.484C356.606 99.932 355.772 102.186 354.374 103.978C356.52 105.913 357.868 108.715 357.868 111.83C357.868 115.926 355.538 119.478 352.131 121.234C352.635 122.44 352.769 123.955 352.526 125.674C352.064 128.954 349.982 131.933 345.893 132.922C341.341 134.028 336.647 134.655 331.956 134.591C332.461 140.846 327.674 147.653 321.469 147.78L327.158 157.464L317.209 159.71C320.606 162.523 321.257 167.995 319.774 171.987C319.044 173.951 317.797 175.559 316.271 176.883C359.696 200.078 389.256 245.843 389.256 298.503C389.256 307.09 388.468 315.492 386.964 323.644C387.961 324.265 388.946 324.892 389.91 325.525C401.168 332.915 411.272 341.905 420.315 351.862V351.87C423.92 355.862 427.638 359.918 431.546 364.084C435.36 368.149 439.23 372.176 443.178 376.15C450.064 383.079 457.031 389.868 464.308 396.391C440.98 402.47 420.567 412.464 400.819 424.365L454.57 478.878L434.563 492.029L380.599 437.23C376.966 439.641 373.33 442.093 369.674 444.574C356.525 453.501 343.294 462.484 329.229 470.592C306.739 483.557 284.687 492.514 264.116 495.995C246.051 499.051 227.637 498.023 210.856 490.138C195.159 473.142 179.215 457.054 159.248 444.982C143.211 441.943 129.365 425.664 121.513 412.739L121.44 412.601C118.795 407.322 115.267 401.878 110.876 396.289C100.489 383.066 88.0925 370.865 73.9227 361.735C64.6917 355.786 59.8723 351.233 56.1476 340.692C53.4395 333.027 49.9001 325.689 47.1073 318.04C45.0628 312.441 43.2696 306.943 41.9859 302.134C37.6751 285.985 39.6652 269.497 43.078 253.323C44.4366 246.888 45.8201 240.332 46.5488 233.29C47.3042 225.988 46.7857 218.568 44.5738 211.546C33.0774 174.302 42.2344 132.053 51.4119 94.6083C37.7748 97.2025 30.8521 79.6038 40.0884 69.7243L47.1189 62.2038C60.0798 48.344 79.3061 64.3873 69.9219 78.9481L170.521 186.986C175.641 183.264 181.026 179.881 186.644 176.881C185.118 175.558 183.871 173.948 183.141 171.985C181.657 167.994 182.309 162.521 185.706 159.708L175.757 157.462L181.446 147.778C175.24 147.651 170.454 140.844 170.959 134.589C166.269 134.654 161.574 134.026 157.021 132.92C152.933 131.932 150.85 128.952 150.388 125.672C150.145 123.953 150.279 122.438 150.782 121.232C147.376 119.476 145.045 115.924 145.045 111.828C145.045 108.713 146.394 105.911 148.539 103.976C147.141 102.184 146.307 99.9302 146.307 97.4822C146.307 93.8965 148.095 90.7269 150.825 88.8151C150.137 87.4121 149.751 85.8362 149.751 84.1694C149.751 79.414 152.892 75.391 157.211 74.061C156.913 73.0828 156.751 72.0459 156.751 70.9697C156.751 65.1311 161.486 60.3963 167.324 60.3963C168.242 60.3963 169.132 60.513 169.981 60.7321C170.402 55.2792 174.962 50.9845 180.522 50.9845C183.593 50.9845 186.358 52.2949 188.289 54.3857C187.906 53.2927 187.699 52.1185 187.699 50.8945C187.699 45.0559 192.434 40.3211 198.272 40.3211C203.58 40.3211 207.976 44.2345 208.731 49.3337C210.668 46.9035 213.654 45.3463 217.002 45.3463C219.064 45.3463 220.986 45.9361 222.612 46.957C222.596 46.7191 222.588 46.4795 222.588 46.2372C222.588 40.3986 227.323 35.6637 233.161 35.6637C235.778 35.6637 238.172 36.6151 240.017 38.1893C241.556 35.3858 244.095 33.2085 247.153 32.1395V25.8849H237.596V17.2865H237.602ZM131.485 230.688C137.377 220.292 144.584 210.738 152.875 202.249L56.2242 98.6109C61.0722 117.432 67.8364 134.792 77.0745 152.408C91.8536 180.592 110.96 206.427 131.485 230.688Z" fill="black"/>
<path d="M85.1421 339.127C68.6766 320.543 73.3491 290.731 77.1485 266.504C77.7089 262.93 78.2505 259.479 78.704 256.185C79.6144 245.277 79.7498 233.699 78.7289 222.4C77.8283 212.441 76.0288 202.695 73.0703 193.814L73.056 193.757C72.2364 187.952 71.9246 181.756 72.0084 175.542C72.101 168.709 72.672 161.857 73.5718 155.479L73.6627 154.84L73.3945 154.332C65.6157 139.498 57.4341 123.01 53.175 106.698C45.7632 139.953 38.7032 176.926 48.5524 210.311C50.9363 217.879 51.5038 225.845 50.6895 233.715C49.9368 240.984 48.5319 247.639 47.1529 254.172C44.589 266.321 42.8145 276.666 44.5436 287.133C46.9213 301.529 56.1228 314.495 66.4548 324.396C72.2721 330.084 78.516 335.029 85.1421 339.127Z" fill="#143C8B"/>
<path d="M317.671 147.026C317.581 146.988 317.493 146.949 317.403 146.908C307.397 142.378 296.81 138.964 285.812 136.679C263.514 132.05 239.402 132.05 217.105 136.679C206.106 138.963 195.52 142.378 185.513 146.908C185.423 146.948 185.335 146.988 185.246 147.026L195.759 148.325L196.554 148.424L196.051 149.046L188.8 158.013C198.291 153.772 208.269 150.465 218.618 148.214C240.169 143.524 262.753 143.539 284.303 148.228C294.51 150.45 304.51 153.721 314.12 158.014L306.868 149.046L306.365 148.424L307.16 148.325L317.671 147.026Z" fill="#FFE24A"/>
<path d="M109.271 349.72C105.991 344.263 103.349 338.144 101.181 331.855C98.8736 325.161 97.099 318.262 95.6647 311.761C92.5406 298.094 93.7316 284.317 94.9298 270.449C95.6434 262.197 96.3587 253.912 96.169 245.628C95.8028 242.102 95.3494 238.537 94.8906 234.942C92.9993 220.081 91.0413 204.684 95.0064 190.547C87.4805 179.299 80.4847 167.713 74.174 155.815C73.3695 161.855 72.7442 169.186 72.6578 175.549C72.574 181.719 72.884 187.872 73.6974 193.641C76.6666 202.564 78.4723 212.347 79.3765 222.341C80.4019 233.688 80.2674 245.304 79.3551 256.238L79.3525 256.255C78.9017 259.531 78.3565 263.007 77.7926 266.604C73.8987 291.434 69.0828 322.167 87.2088 340.37C92.7731 343.626 98.5974 346.291 104.654 348.307C106.179 348.82 107.718 349.291 109.271 349.72Z" fill="white"/>
<path d="M124.642 352.487C117.572 335.907 113.658 317.661 113.658 298.502C113.658 275.735 119.188 254.258 128.97 235.335C117.092 221.323 105.797 206.608 95.4852 191.261C91.7543 205.126 93.6795 220.252 95.5387 234.859C95.9992 238.475 96.4553 242.061 96.8197 245.568L96.8206 245.595C97.0139 253.94 96.2968 262.239 95.5823 270.504C94.3886 284.323 93.202 298.051 96.3021 311.614V311.617C97.7301 318.088 99.4976 324.96 101.801 331.642C104.036 338.123 106.77 344.414 110.184 349.967C114.881 351.209 119.703 352.057 124.642 352.487Z" fill="#143C8B"/>
<path d="M229.964 472.728C228.632 478.748 226.7 484.745 224.186 490.674C236.292 494.006 249.492 494.249 263.432 491.89C283.505 488.493 305.094 479.713 327.161 466.992C341.089 458.962 354.258 450.022 367.345 441.138C394.961 422.391 422.017 403.956 455.647 394.411C451.769 390.829 448.036 387.023 444.319 383.233C401.219 384.123 367.149 408.076 333.293 431.883C329.842 434.309 326.392 436.734 322.896 439.162L322.88 439.173C308.652 447.745 294.09 456.13 278.728 462.374C263.415 468.598 247.312 472.694 229.964 472.728Z" fill="#143C8B"/>
<path d="M232.155 452.573C232.188 459.061 231.496 465.579 230.107 472.072C247.308 472.016 263.284 467.946 278.483 461.768C293.802 455.541 308.337 447.171 322.541 438.614C325.976 436.229 329.446 433.789 332.917 431.348C366.694 407.597 400.683 383.703 443.695 382.597C442.54 381.421 441.388 380.246 440.231 379.082C436.532 375.359 432.934 371.626 429.41 367.885C417.189 368.793 405.877 371.534 395.039 375.451C384.006 379.439 373.461 384.646 362.947 390.376C342.39 403.392 321.509 416.45 299.775 427.515C278.251 438.475 255.883 447.484 232.155 452.573Z" fill="white"/>
<path d="M226.762 423.009C229.734 431.018 231.46 439.226 231.985 447.515C232.077 448.977 232.132 450.442 232.15 451.907C255.762 446.827 278.036 437.85 299.479 426.931C321.199 415.872 342.063 402.825 362.603 389.82L362.621 389.81C373.166 384.062 383.743 378.839 394.815 374.836C405.551 370.956 416.752 368.224 428.835 367.272L428.517 366.934C424.805 362.977 421.037 358.863 417.241 354.659L417.236 354.662C415.327 352.56 413.368 350.502 411.359 348.493C363.768 350.245 323.87 374.638 285.022 398.39L284.14 398.929L284.12 398.941L283.402 399.311C265.092 408.727 246.92 418.07 226.762 423.009Z" fill="#143C8B"/>
<path d="M219.992 408.733C222.597 413.204 224.773 417.764 226.531 422.393C246.643 417.479 264.804 408.14 283.103 398.73L283.811 398.365L284.683 397.833C323.437 374.138 363.236 349.809 410.73 347.868C407.111 344.285 403.331 340.865 399.387 337.647C386.914 335.473 374.444 335.881 362.453 338.083C348.596 340.626 335.37 345.565 323.505 351.682L323.488 351.689C308.37 358.418 294.227 367.758 280.068 377.108C260.911 389.761 241.72 402.433 219.992 408.733Z" fill="white"/>
<path d="M197.621 382.781C205.314 388.842 212.202 396.372 217.956 405.397C218.539 406.311 219.103 407.229 219.648 408.151C241.347 401.895 260.542 389.219 279.706 376.564C293.881 367.203 308.041 357.852 323.204 351.101L323.205 351.1C335.121 344.957 348.407 339.997 362.332 337.44C374.032 335.293 386.181 334.842 398.348 336.81C394.9 334.047 391.328 331.439 387.629 329.01C384.484 326.946 381.35 325.079 378.256 323.237C374.905 321.24 371.599 319.271 368.469 317.18C366.697 315.997 364.967 314.8 363.267 313.579C315.845 309.237 278.31 334.351 241.834 358.763C236.782 362.144 231.749 365.512 226.716 368.785L226.698 368.796C217.334 374.057 207.803 379.259 197.621 382.781Z" fill="#143C8B"/>
<path d="M180.031 372.031C181.353 372.638 182.663 373.277 183.957 373.952C188.501 376.317 192.867 379.099 197.007 382.301C207.304 378.793 216.926 373.538 226.379 368.226C231.406 364.957 236.43 361.595 241.473 358.22C277.765 333.932 315.101 308.949 362.236 312.834C359.727 311.006 357.282 309.127 354.867 307.173C352.544 305.294 350.23 303.331 347.895 301.261C337.865 301.014 327.499 301.752 317.358 303.267C306.237 304.928 295.387 307.525 285.546 310.778L285.525 310.784C266.929 315.65 250.886 326.928 234.823 338.221C226.097 344.355 217.364 350.494 208.206 355.62C199.12 361.605 189.048 365.942 180.031 372.031Z" fill="white"/>
<path d="M63.5688 327.392C57.6081 321.68 52.2408 315.048 48.0547 307.99C48.9473 310.787 49.9477 313.694 51.0168 316.622C53.814 324.284 57.3605 331.631 60.0731 339.307C63.4815 348.956 67.7023 352.775 76.1707 358.232C83.6885 363.076 90.4224 368.633 96.8953 374.821C103.487 371.542 110.181 369.043 117.059 367.147C124.047 365.219 131.118 364.073 138.151 363.834C152.382 363.35 166.468 365.948 179.333 371.715C188.436 365.495 198.664 361.129 207.867 355.062L207.886 355.049C217.019 349.936 225.737 343.808 234.445 337.685C250.55 326.365 266.635 315.057 285.34 310.157C295.214 306.892 306.101 304.288 317.261 302.62C327.174 301.139 337.306 300.398 347.141 300.591C345.333 298.974 343.512 297.291 341.662 295.537C338.492 292.528 335.415 289.421 332.456 286.197C329.691 283.183 327.029 280.073 324.49 276.85C303.386 276.634 282.737 282.235 263.851 291.443C248.82 298.77 234.747 307.928 221.706 318.377C207.902 329.435 195.001 339.372 178.542 346.552C168.864 350.774 158.618 353.926 147.672 355.702C131.933 358.255 117.1 356.888 103.335 352.248C88.4394 347.529 75.0179 339.04 63.5688 327.392Z" fill="#143C8B"/>
<path d="M213.373 486.727C215.597 487.755 217.868 488.661 220.182 489.446C226.071 475.71 228.706 461.617 227.83 447.777C226.955 433.962 222.582 420.376 214.453 407.629C205.888 394.194 194.679 384.233 182.034 377.65C168.592 370.652 153.526 367.47 138.281 367.989C131.594 368.217 124.85 369.312 118.165 371.156C112.034 372.847 106.042 375.028 100.084 377.901C105.507 383.231 110.136 388.607 114.15 393.717C118.662 399.459 122.32 405.108 125.103 410.645C132.538 422.424 145.722 437.711 160.721 440.997C181.022 453.074 197.905 469.331 213.373 486.727Z" fill="white"/>
<path d="M395.33 427.507L444.795 477.849L435.421 484.01L385.969 433.793L395.33 427.507Z" fill="#FFE24A"/>
<path d="M61.609 79.1789L165.532 190.787C162.707 193.043 159.974 195.411 157.337 197.88L53.888 86.9542C50.8511 88.9844 47.1924 89.4165 44.331 86.5551C40.6839 82.9079 41.1373 77.7464 44.6597 73.9781L51.6903 66.4576C55.2127 62.6893 60.5239 61.6844 64.1719 65.3316C67.8191 68.9787 66.5906 73.8498 63.0673 77.6181L61.609 79.1789Z" fill="#FFE24A"/>
<path d="M309.933 173.705C311.627 172.809 313.282 171.566 313.935 169.811C314.442 168.443 314.613 165.088 312.932 164.317C303.346 159.918 293.295 156.58 282.984 154.336C262.264 149.827 240.66 149.812 219.938 154.322C209.478 156.599 199.45 159.973 189.985 164.317C188.305 165.088 188.476 168.443 188.984 169.811C189.636 171.566 191.29 172.809 192.984 173.705C210.737 165.37 230.552 160.704 251.459 160.704C272.365 160.704 292.181 165.369 309.933 173.705Z" fill="#FFE24A"/>
<path d="M230.653 138.761C231.551 140.405 230.694 142.243 229.327 143.278C228.434 143.955 227.372 144.281 226.256 144.528L212.953 147.468C211.59 147.769 210.156 147.898 208.761 147.261C206.497 146.226 205.95 143.809 207.569 141.912C208.536 140.779 209.865 140.24 211.269 139.971L224.733 136.991C226.781 136.54 229.51 136.666 230.653 138.761Z" fill="black"/>
<path d="M224.769 137.441L211.338 140.4C210.067 140.679 208.825 141.107 207.898 142.193C206.469 143.868 206.943 145.952 208.941 146.866C210.198 147.441 211.589 147.358 212.857 147.077L226.182 144.127C227.165 143.92 228.138 143.603 228.953 143.018C230.186 142.133 231.073 140.529 230.307 139.032C229.278 137.026 226.645 137.028 224.769 137.441Z" fill="#EC1D24"/>
<path d="M156.87 375.749C156.984 375.637 157.092 375.536 157.206 375.429C160.192 378.278 163.235 381.145 166.319 384.076C169.471 387.061 172.675 390.103 175.94 393.193C175.785 393.378 175.633 393.566 175.477 393.75C170.359 389.39 165.75 386.367 162.124 384.75C158.498 383.146 155.783 382.894 154.503 384.158C152.511 386.097 154.857 390.892 158.75 394.855C160.06 396.192 161.206 397.165 162.451 398.062C164.069 399.127 165.845 399.971 167.814 400.634C169.333 401.221 171.976 401.637 175.923 402.252C178.757 402.688 181.361 403.284 183.703 403.996C186.047 404.718 188.177 405.604 190.061 406.64C193.791 408.855 197.942 411.965 202.434 416.276C208.128 421.726 212.965 427.815 216.118 433.376C219.397 439.146 220.896 444.362 219.606 447.599C218.768 449.706 217.385 450.695 213.39 450.592C212.278 450.796 211.664 451.057 211.46 451.527C211.048 452.462 212.012 455.063 215.023 459.109C214.888 459.447 214.754 459.777 214.621 460.115C209.585 454.883 204.654 449.74 199.867 444.759C195.199 439.89 190.636 435.128 186.187 430.517C186.345 430.236 186.51 429.979 186.677 429.694C194.666 436.883 201.43 441.645 206.466 444.014C211.515 446.387 214.705 446.285 215.701 443.937C217.154 440.492 212.755 433.046 207.228 427.649C203.731 424.235 200.517 422.204 196.971 420.809C195.011 420.005 192.758 419.69 189.596 419.25C185.036 418.616 181.554 417.816 178.478 416.663C175.401 415.496 172.764 414.009 169.867 412.052C167.217 410.142 164.131 407.546 161.353 404.649C156.61 399.718 153.075 394.593 151.25 390.33C149.484 386.193 149.297 382.841 151.13 381.126C151.757 380.535 152.629 380.196 153.646 380.176C155.332 379.987 159.231 380.966 159.733 380.467C160.233 379.982 159.994 379.255 156.87 375.749Z" fill="#143C8B"/>
<path d="M251.459 50.5898C254.841 50.5898 257.6 47.8318 257.6 44.4492C257.6 41.0667 254.842 38.3086 251.459 38.3086C248.076 38.3086 245.318 41.0667 245.318 44.4492C245.318 47.8318 248.077 50.5898 251.459 50.5898Z" fill="#FFE24A"/>
<path d="M165.075 116.565C166.106 115.935 167.322 115.584 168.512 115.557C170.077 115.522 171.675 116.031 172.91 117.174C173.156 117.402 173.361 117.616 173.519 117.813C173.597 117.911 173.669 118.014 173.736 118.117C173.996 118.473 174.2 118.812 174.36 119.134C177.03 118.738 179.54 117.896 181.862 116.674C184.284 115.398 186.5 113.715 188.472 111.696C187.074 110.547 186.012 108.966 185.517 107.087C184.995 105.102 185.185 103.094 185.932 101.336C186.656 99.6291 187.916 98.1583 189.563 97.174C189.713 94.9059 190.663 93.0208 192.063 91.6204C193.215 90.4668 194.659 89.6606 196.194 89.257C196.264 89.2383 196.333 89.2214 196.404 89.2044C195.491 87.7497 194.961 86.0277 194.961 84.1836C194.961 80.0492 197.616 76.5348 201.315 75.2511C200.518 73.7652 200.066 72.0655 200.066 70.2615C200.066 65.5748 203.116 61.6007 207.34 60.2145C206.959 59.3575 206.689 58.44 206.546 57.4805C204.608 59.9108 201.624 61.4697 198.275 61.4697C195.204 61.4697 192.439 60.1584 190.506 58.0667C190.889 59.1607 191.098 60.3357 191.098 61.5588C191.098 67.3974 186.363 72.1323 180.524 72.1323C179.607 72.1323 178.716 72.0147 177.867 71.7955C177.528 76.1865 174.505 79.8247 170.437 81.0764C170.736 82.0545 170.898 83.0932 170.898 84.1694C170.898 87.755 169.111 90.9238 166.38 92.8355C167.066 94.2386 167.455 95.8154 167.455 97.4831C167.455 100.598 166.105 103.399 163.961 105.334C165.358 107.126 166.193 109.381 166.193 111.829C166.194 113.533 165.791 115.141 165.075 116.565Z" fill="#EC1D24"/>
<path d="M239.109 90.6583C236.463 89.1991 234.67 86.3831 234.67 83.1485C234.67 79.6795 236.732 76.6925 239.697 75.3447C236.732 73.9959 234.67 71.008 234.67 67.54C234.67 62.9022 238.356 59.1241 242.958 58.9754C243.127 57.6471 243.599 56.4142 244.302 55.347C243.233 54.6432 242.273 53.7853 241.454 52.8054C239.517 55.2463 236.524 56.8124 233.166 56.8124C231.105 56.8124 229.181 56.2209 227.555 55.2009C227.572 55.4387 227.58 55.6792 227.58 55.9216C227.58 60.6083 224.529 64.5832 220.306 65.9694C220.889 67.2816 221.214 68.7337 221.214 70.2615C221.214 75.2387 217.773 79.4132 213.141 80.5374C213.61 81.659 213.87 82.891 213.87 84.1836C213.87 88.2904 211.249 91.7861 207.59 93.0912C208.861 93.3736 210.049 93.9295 211.069 94.7117C212.586 95.8751 213.742 97.5303 214.265 99.5151C214.832 101.668 214.559 103.846 213.648 105.7C218.751 107.653 224.32 108.4 229.627 107.717C233.578 107.208 237.381 105.894 240.72 103.674C238.467 102.053 236.998 99.4082 236.998 96.4203C236.998 94.2253 237.793 92.2137 239.109 90.6583Z" fill="#EC1D24"/>
<path d="M259.96 58.9754C264.562 59.1241 268.246 62.9022 268.246 67.5391C268.246 71.008 266.184 73.9959 263.219 75.3438C266.184 76.6925 268.246 79.6795 268.246 83.1485C268.246 86.3822 266.454 89.1991 263.808 90.6583C265.124 92.2137 265.918 94.2244 265.918 96.4203C265.918 99.4082 264.449 102.054 262.196 103.674C265.534 105.894 269.337 107.208 273.287 107.717C278.595 108.4 284.163 107.653 289.266 105.7C288.355 103.846 288.082 101.667 288.649 99.5151C289.171 97.5303 290.328 95.8751 291.846 94.7117C292.865 93.9295 294.053 93.3736 295.324 93.0912C291.665 91.787 289.044 88.2904 289.044 84.1836C289.044 82.891 289.304 81.659 289.773 80.5374C285.141 79.4132 281.7 75.2386 281.7 70.2615C281.7 68.7337 282.025 67.2816 282.608 65.9694C278.385 64.5832 275.333 60.6074 275.333 55.9215C275.333 55.6792 275.343 55.4387 275.359 55.2009C273.732 56.2209 271.809 56.8124 269.748 56.8124C266.391 56.8124 263.4 55.2472 261.462 52.8063C260.644 53.7853 259.684 54.6432 258.615 55.3469C259.32 56.4142 259.793 57.6471 259.96 58.9754Z" fill="#EC1D24"/>
<path d="M337.841 116.565C336.81 115.935 335.594 115.584 334.404 115.557C332.839 115.522 331.241 116.031 330.006 117.174C329.76 117.402 329.555 117.616 329.397 117.813C329.319 117.911 329.247 118.014 329.18 118.117C328.92 118.473 328.716 118.812 328.556 119.134C325.886 118.738 323.376 117.896 321.054 116.674C318.631 115.398 316.416 113.715 314.444 111.696C315.842 110.547 316.904 108.966 317.399 107.087C317.92 105.102 317.731 103.094 316.984 101.336C316.26 99.6291 315 98.1583 313.353 97.174C313.203 94.9059 312.253 93.0208 310.853 91.6204C309.701 90.4668 308.256 89.6606 306.722 89.257C306.652 89.2383 306.583 89.2214 306.512 89.2044C307.426 87.7497 307.954 86.0277 307.954 84.1836C307.954 80.0492 305.3 76.5348 301.601 75.2511C302.398 73.7652 302.85 72.0655 302.85 70.2615C302.85 65.5748 299.8 61.6007 295.576 60.2145C295.957 59.3575 296.227 58.44 296.37 57.4805C298.307 59.9108 301.292 61.4697 304.641 61.4697C307.711 61.4697 310.477 60.1584 312.41 58.0667C312.027 59.1607 311.818 60.3357 311.818 61.5588C311.818 67.3974 316.553 72.1323 322.392 72.1323C323.309 72.1323 324.2 72.0147 325.049 71.7955C325.388 76.1865 328.411 79.8247 332.478 81.0764C332.179 82.0545 332.017 83.0932 332.017 84.1694C332.017 87.755 333.804 90.9238 336.535 92.8355C335.849 94.2386 335.46 95.8154 335.46 97.4831C335.46 100.598 336.81 103.399 338.954 105.334C337.556 107.126 336.723 109.381 336.723 111.829C336.722 113.533 337.125 115.141 337.841 116.565Z" fill="#EC1D24"/>
<path d="M251.459 62.9628C253.059 62.9628 254.364 61.6577 254.364 60.0577C254.364 58.4578 253.06 57.1527 251.459 57.1527C249.859 57.1527 248.555 58.4578 248.555 60.0577C248.555 61.6577 249.859 62.9628 251.459 62.9628Z" fill="#FFE24A"/>
<path d="M251.459 76.4475C253.059 76.4475 254.364 75.1424 254.364 73.5425C254.364 71.9425 253.06 70.6374 251.459 70.6374C249.859 70.6374 248.555 71.9425 248.555 73.5425C248.555 75.1424 249.859 76.4475 251.459 76.4475Z" fill="#FFE24A"/>
<path d="M243.239 79.1254C245.46 79.1254 247.261 80.9267 247.261 83.1476C247.261 83.1895 247.26 83.2304 247.258 83.2723C245.626 84.1436 244.297 85.5065 243.469 87.1626C243.392 87.1671 243.316 87.1698 243.239 87.1698C241.017 87.1698 239.217 85.3685 239.217 83.1476C239.217 80.9267 241.018 79.1254 243.239 79.1254Z" fill="#FFE24A"/>
<path d="M243.239 63.5169C243.369 63.5169 243.497 63.5231 243.625 63.5356C244.197 64.822 245.077 65.9427 246.171 66.8015C244.671 67.9792 243.575 69.645 243.12 71.5604C240.954 71.4971 239.217 69.7216 239.217 67.54C239.217 65.3182 241.018 63.5169 243.239 63.5169Z" fill="#FFE24A"/>
<path d="M233.168 52.3787C236.55 52.3787 239.309 49.6206 239.309 46.2381C239.309 42.8555 236.55 40.0975 233.168 40.0975C229.785 40.0975 227.027 42.8555 227.027 46.2381C227.027 49.6206 229.785 52.3787 233.168 52.3787Z" fill="#FFE24A"/>
<path d="M155.621 117.97C159.003 117.97 161.762 115.212 161.762 111.829C161.762 108.448 159.004 105.689 155.621 105.689C152.239 105.689 149.48 108.448 149.48 111.829C149.48 115.212 152.239 117.97 155.621 117.97Z" fill="#FFE24A"/>
<path d="M156.885 103.623C160.266 103.623 163.024 100.865 163.024 97.4831C163.024 94.1014 160.266 91.3425 156.885 91.3425C153.503 91.3425 150.744 94.1014 150.744 97.4831C150.744 100.865 153.502 103.623 156.885 103.623Z" fill="#FFE24A"/>
<path d="M160.326 90.31C163.708 90.31 166.467 87.5519 166.467 84.1694C166.467 80.7868 163.709 78.0288 160.326 78.0288C156.944 78.0288 154.186 80.7868 154.186 84.1694C154.186 87.5519 156.944 90.31 160.326 90.31Z" fill="#FFE24A"/>
<path d="M167.328 77.1112C170.71 77.1112 173.469 74.3532 173.469 70.9706C173.469 67.5881 170.711 64.83 167.328 64.83C163.946 64.83 161.188 67.5881 161.188 70.9706C161.188 74.3532 163.946 77.1112 167.328 77.1112Z" fill="#FFE24A"/>
<path d="M180.527 67.6994C183.909 67.6994 186.668 64.9414 186.668 61.5588C186.668 58.1763 183.91 55.4182 180.527 55.4182C177.145 55.4182 174.387 58.1763 174.387 61.5588C174.387 64.9414 177.145 67.6994 180.527 67.6994Z" fill="#FFE24A"/>
<path d="M198.277 57.036C201.659 57.036 204.418 54.2779 204.418 50.8954C204.418 47.5129 201.66 44.7548 198.277 44.7548C194.895 44.7548 192.137 47.5129 192.137 50.8954C192.137 54.2779 194.895 57.036 198.277 57.036Z" fill="#FFE24A"/>
<path d="M217.008 62.0622C220.39 62.0622 223.148 59.3041 223.148 55.9216C223.148 52.539 220.39 49.781 217.008 49.781C213.626 49.781 210.867 52.5399 210.867 55.9216C210.867 59.3032 213.626 62.0622 217.008 62.0622Z" fill="#FFE24A"/>
<path d="M210.641 76.4012C214.022 76.4012 216.781 73.6432 216.781 70.2615C216.781 66.879 214.023 64.1209 210.641 64.1209C207.258 64.1209 204.5 66.879 204.5 70.2615C204.501 73.644 207.259 76.4012 210.641 76.4012Z" fill="#FFE24A"/>
<path d="M204.417 89.2044C207.182 89.2044 209.438 86.9497 209.438 84.1836C209.438 81.4185 207.182 79.1628 204.417 79.1628C201.652 79.1628 199.396 81.4185 199.396 84.1836C199.396 86.9497 201.652 89.2044 204.417 89.2044Z" fill="#FFE24A"/>
<path d="M347.295 117.97C350.677 117.97 353.436 115.212 353.436 111.829C353.436 108.448 350.677 105.689 347.295 105.689C343.913 105.689 341.154 108.448 341.154 111.829C341.155 115.212 343.913 117.97 347.295 117.97Z" fill="#FFE24A"/>
<path d="M346.033 103.623C349.415 103.623 352.174 100.865 352.174 97.4831C352.174 94.1014 349.416 91.3425 346.033 91.3425C342.651 91.3425 339.893 94.1014 339.893 97.4831C339.893 100.865 342.652 103.623 346.033 103.623Z" fill="#FFE24A"/>
<path d="M342.59 90.31C345.971 90.31 348.73 87.5519 348.73 84.1694C348.73 80.7868 345.972 78.0288 342.59 78.0288C339.207 78.0288 336.449 80.7868 336.449 84.1694C336.45 87.5519 339.208 90.31 342.59 90.31Z" fill="#FFE24A"/>
<path d="M335.589 77.1112C338.971 77.1112 341.73 74.3532 341.73 70.9706C341.73 67.5881 338.971 64.83 335.589 64.83C332.207 64.83 329.449 67.5881 329.449 70.9706C329.449 74.3532 332.207 77.1112 335.589 77.1112Z" fill="#FFE24A"/>
<path d="M322.391 67.6994C325.772 67.6994 328.531 64.9414 328.531 61.5588C328.531 58.1763 325.773 55.4182 322.391 55.4182C319.008 55.4182 316.25 58.1763 316.25 61.5588C316.25 64.9414 319.009 67.6994 322.391 67.6994Z" fill="#FFE24A"/>
<path d="M304.641 57.036C308.022 57.036 310.781 54.2779 310.781 50.8954C310.781 47.5129 308.022 44.7548 304.641 44.7548C301.259 44.7548 298.5 47.5129 298.5 50.8954C298.5 54.2779 301.258 57.036 304.641 57.036Z" fill="#FFE24A"/>
<path d="M269.75 52.3787C273.132 52.3787 275.891 49.6206 275.891 46.2381C275.891 42.8555 273.133 40.0975 269.75 40.0975C266.367 40.0975 263.609 42.8555 263.609 46.2381C263.609 49.6206 266.368 52.3787 269.75 52.3787Z" fill="#FFE24A"/>
<path d="M285.91 62.0622C289.292 62.0622 292.051 59.3041 292.051 55.9216C292.051 52.539 289.293 49.781 285.91 49.781C282.528 49.781 279.77 52.5399 279.77 55.9216C279.77 59.3032 282.528 62.0622 285.91 62.0622Z" fill="#FFE24A"/>
<path d="M292.275 76.4012C295.657 76.4012 298.416 73.6432 298.416 70.2615C298.416 66.879 295.658 64.1209 292.275 64.1209C288.893 64.1209 286.135 66.879 286.135 70.2615C286.135 73.644 288.893 76.4012 292.275 76.4012Z" fill="#FFE24A"/>
<path d="M298.499 89.2044C301.265 89.2044 303.52 86.9497 303.52 84.1836C303.52 81.4185 301.265 79.1628 298.499 79.1628C295.734 79.1628 293.479 81.4185 293.479 84.1836C293.479 86.9497 295.734 89.2044 298.499 89.2044Z" fill="#FFE24A"/>
<path d="M259.676 79.1254C257.456 79.1254 255.654 80.9267 255.654 83.1476C255.654 83.1895 255.655 83.2304 255.656 83.2723C257.288 84.1436 258.617 85.5065 259.447 87.1626C259.522 87.1671 259.599 87.1698 259.676 87.1698C261.896 87.1698 263.698 85.3685 263.698 83.1476C263.698 80.9267 261.898 79.1254 259.676 79.1254Z" fill="#FFE24A"/>
<path d="M259.678 63.5169C259.548 63.5169 259.42 63.5231 259.292 63.5356C258.72 64.822 257.84 65.9427 256.746 66.8015C258.244 67.9792 259.342 69.645 259.796 71.5604C261.963 71.4971 263.7 69.7216 263.7 67.54C263.701 65.3182 261.9 63.5169 259.678 63.5169Z" fill="#FFE24A"/>
<path d="M214.258 120.685C202.58 123.085 191.307 126.645 180.592 131.325C174.309 134.067 178.06 143.426 182.946 141.214C193.352 136.503 204.372 132.95 215.833 130.57C238.963 125.767 263.952 125.767 287.082 130.57C298.542 132.949 309.562 136.503 319.968 141.214C324.854 143.426 328.607 134.067 322.323 131.325C311.608 126.645 300.335 123.085 288.658 120.685C264.458 115.712 238.458 115.712 214.258 120.685Z" fill="#FFE24A"/>
<path d="M251.459 134.451L262.889 139.019L251.459 143.587L240.029 139.019L251.459 134.451Z" fill="black"/>
<path d="M261.722 139.019L251.459 134.916L241.195 139.019L251.459 143.12L261.722 139.019Z" fill="#143C8B"/>
<path d="M272.263 138.761C271.366 140.405 272.222 142.243 273.59 143.278C274.483 143.955 275.545 144.281 276.66 144.528L289.963 147.468C291.326 147.769 292.761 147.898 294.156 147.261C296.419 146.226 296.966 143.809 295.348 141.912C294.381 140.779 293.052 140.24 291.647 139.971L278.183 136.991C276.136 136.54 273.407 136.666 272.263 138.761Z" fill="black"/>
<path d="M278.147 137.441L291.578 140.4C292.85 140.679 294.091 141.107 295.018 142.193C296.447 143.868 295.973 145.952 293.975 146.866C292.72 147.441 291.327 147.358 290.06 147.077L276.734 144.127C275.753 143.92 274.778 143.603 273.963 143.018C272.73 142.133 271.844 140.529 272.61 139.032C273.638 137.026 276.271 137.028 278.147 137.441Z" fill="#EC1D24"/>
<path d="M185.127 454.559C182.3 451.944 179.37 449.201 176.342 446.386C173.213 443.475 169.965 440.457 166.611 437.328C166.918 437.246 167.231 437.173 167.538 437.087C174.141 442.609 179.22 446.262 183.11 448.491C186.959 450.7 189.807 451.591 191.735 451.397C195.664 451.009 193.13 446.576 189.216 442.566C186.816 440.119 184.444 438.181 182.012 436.878C180.346 436.011 177.658 434.762 174.499 433.657C172.649 432.959 170.822 432.271 169.001 431.583C166.353 430.546 163.941 429.51 161.714 428.425C159.491 427.346 157.418 426.196 155.424 424.928C151.689 422.627 147.481 419.235 142.875 414.934C137.585 409.998 132.391 404.321 128.831 399.171C125.002 393.633 123.005 388.664 124.916 386.106C125.907 384.764 128.211 384.45 130.303 384.41C132.452 384.362 134.385 384.643 134.535 384.458C135.249 383.616 133.745 381.571 130.88 378.084C131.212 377.627 131.553 377.182 131.89 376.721C137.158 382.307 142.203 387.65 147.016 392.732C151.599 397.591 156.015 402.256 160.224 406.707C159.839 406.955 159.461 407.196 159.074 407.434C152.726 401.742 146.122 396.656 140.656 393.362C135.121 390.018 130.972 388.653 129.55 390.329C127.695 392.519 131.833 398.903 137.909 404.75C141.678 408.364 144.614 410.722 146.833 411.914C149.045 413.102 153.048 414.743 158.4 416.671C160.736 417.504 163.107 418.348 165.493 419.21C168.39 420.115 171.371 421.486 174.239 423.298C179.785 426.574 184.789 430.71 189.498 435.734C193.611 440.127 196.82 444.696 197.839 448.145C198.793 451.348 197.857 453.57 193.991 453.876C192.358 453.997 190.037 453.542 187.349 452.703C186.971 452.592 186.6 452.481 186.232 452.369C185.673 452.21 185.125 452.046 184.902 452.075C184.116 452.148 184.721 452.947 186.124 454.477C185.793 454.506 185.456 454.535 185.127 454.559Z" fill="#143C8B"/>
<path d="M206.697 324.821C210.83 321.728 214.92 318.484 219.1 315.135C232.373 304.499 246.728 295.152 262.028 287.695C262.921 287.259 263.818 286.832 264.718 286.414C248.552 271.044 233.008 253.427 225.218 232.368C222.96 226.266 221.956 221.114 222.75 215.091C208.578 217.577 189.409 222.234 176.673 231.961C162.357 242.895 162.532 258.992 168.547 275.285C176.228 296.092 190.743 310.635 206.697 324.821Z" fill="#E6A514"/>
<path d="M122.943 270.37C120.967 279.436 119.916 288.846 119.916 298.502C119.916 317.867 124.104 336.254 131.621 352.811C136.643 352.843 141.778 352.448 147.021 351.597C157.594 349.882 167.506 346.83 176.882 342.74C185.967 338.776 193.927 333.953 201.563 328.561C185.527 314.09 172.257 299.856 163.763 278.706C159.038 266.939 156.592 254.398 160.099 243.943C145.624 250.273 133.608 259.183 122.943 270.37Z" fill="#E6A514"/>
<path d="M257.441 167.101C255.457 167.012 253.463 166.959 251.458 166.959C192.74 166.959 143.001 205.456 126.094 258.579C137.691 248.041 150.982 239.48 165.906 234.202C179.593 218.037 203.967 211.984 224.135 208.641C225.629 204.12 228.352 198.641 231.863 193.694C236.294 187.449 241.124 181.591 246.656 176.221C249.983 172.992 253.557 169.945 257.441 167.101Z" fill="#E6A514"/>
<path d="M317.285 184.602C312.123 181.611 306.735 178.964 301.158 176.687C293.02 179.728 285.966 184.264 279.62 189.729C273.807 194.735 268.552 200.555 263.586 206.737C272.315 212.181 280.77 218.049 289.015 224.239L293.407 218.08C290.296 215.256 287.317 213.19 284.173 211.179C282.761 210.063 282.336 207.552 283.452 206.139C284.567 204.726 287.079 204.393 288.491 205.509C291.306 208.612 294.274 210.722 297.29 212.636L303.118 204.464C301.001 202.645 298.701 201.149 296.316 199.815C294.938 198.865 294.593 196.976 295.543 195.599C296.495 194.222 298.382 193.875 299.76 194.827C301.781 196.766 303.975 198.471 306.338 199.95L310.882 193.578C309.602 192.483 308.234 191.646 306.755 191.113C305.372 190.176 305.01 188.293 305.947 186.91C306.885 185.526 308.767 185.165 310.15 186.102C311.295 187.388 312.592 188.397 313.946 189.28L317.285 184.602Z" fill="#E6A514"/>
<path d="M337.542 199.045C332.847 194.979 327.861 191.241 322.62 187.864L318.798 193.222C320.126 194.469 321.613 195.502 323.146 196.492C324.358 197.645 324.407 199.565 323.253 200.778C322.099 201.991 320.18 202.039 318.967 200.884C318.038 199.53 316.964 198.405 315.771 197.467L311.287 203.755C313.072 205.333 314.929 206.848 316.973 208.198C318.233 209.307 318.355 211.227 317.247 212.487C316.138 213.746 314.218 213.869 312.958 212.76C311.428 210.838 309.787 209.421 308.109 208.21L302.133 216.587C304.824 219.12 307.701 221.356 310.861 223.663C312.21 224.856 312.244 227.749 311.05 229.098C309.856 230.447 307.333 230.111 305.984 228.918C303.59 226.181 301.168 223.95 298.345 221.899L293.979 228.021C301.528 233.859 308.96 239.991 316.311 246.322C321.854 240.248 326.475 234.071 330.001 226.994C333.895 219.182 336.482 210.229 337.542 199.045Z" fill="#E6A514"/>
<path d="M359.229 223.08C354.484 216.313 349.117 210.015 343.212 204.265C341.847 214.191 339.257 222.44 335.599 229.779C330.828 239.354 324.062 247.27 316.753 254.958C306.924 246.418 296.95 238.069 286.563 230.209C276.188 222.358 265.463 215.14 254.349 208.385C260.833 200.053 267.505 191.931 275.54 185.012C280.737 180.537 286.386 176.63 292.666 173.555C284.564 170.883 276.115 168.978 267.405 167.925C261.223 171.727 255.832 176.009 251.007 180.693C245.768 185.779 241.174 191.354 236.948 197.31C232.556 203.499 230.064 209.046 229.197 214.38C228.347 219.616 229.065 224.759 231.083 230.218C238.832 251.164 254.794 268.575 270.921 283.685C287.227 276.919 304.414 273.001 322.147 272.723C329.449 266.549 336.37 259.623 342.639 251.505C348.913 243.38 354.534 234.055 359.229 223.08Z" fill="#E6A514"/>
<path d="M383.001 298.502C383.001 273.095 375.788 249.371 363.305 229.258C358.74 239.159 353.428 247.735 347.575 255.316C341.737 262.876 335.358 269.443 328.641 275.348C343.027 293.146 360.753 307.97 380.393 319.668L381.226 320.164C382.393 313.117 383.001 305.88 383.001 298.502Z" fill="#E6A514"/>
<path d="M315.899 159.509L307.214 148.767L320.516 147.123L326.482 157.164L315.899 159.509ZM187.018 159.509L195.704 148.767L182.402 147.123L176.436 157.164L187.018 159.509Z" fill="#143C8B"/>
<path d="M246.44 89.6588C246.045 91.1955 245.709 91.2186 244.209 91.6044C241.974 92.1799 240.323 94.2101 240.323 96.6234C240.323 100.229 245.057 102.9 248.374 101.858C238.058 113.315 220.193 113.647 207.152 106.744C209.811 105.944 211.376 103.171 210.664 100.465C210.049 98.1298 207.934 96.5878 205.627 96.6011C204.077 96.6109 203.746 96.6742 202.973 95.2889C200.401 90.6841 193.236 92.5718 193.266 97.8474C193.277 99.4323 192.958 99.54 191.605 100.296C189.589 101.422 188.51 103.805 189.124 106.14C189.786 108.651 192.178 110.244 194.682 109.975C193.859 111.183 192.965 112.308 192.026 113.348C187.392 119.1 181.251 122.792 173.751 122.968C169.99 123.36 172.163 122.088 170.602 120.136C169.621 118.908 167.499 119.072 166.474 120.18C164.62 122.184 163.116 122.639 159.713 121.812C156.417 121.015 155.195 126.065 158.49 126.862C172.287 130.215 186.563 128.869 195.876 116.83C197.899 114.59 199.739 112.018 201.219 109.138C215.983 118.32 238.107 118.838 251.46 106.217C264.813 118.838 286.938 118.319 301.701 109.138C303.181 112.018 305.022 114.591 307.044 116.83C316.357 128.87 330.633 130.215 344.429 126.862C347.726 126.065 346.502 121.015 343.207 121.812C339.804 122.639 338.3 122.184 336.447 120.18C335.42 119.071 333.299 118.907 332.318 120.136C330.757 122.087 332.93 123.36 329.168 122.968C321.669 122.791 315.527 119.099 310.894 113.348C309.954 112.308 309.06 111.183 308.238 109.975C310.742 110.244 313.134 108.651 313.796 106.14C314.41 103.805 313.331 101.422 311.315 100.296C309.962 99.5409 309.644 99.4323 309.654 97.8474C309.684 92.5727 302.519 90.6841 299.948 95.2889C299.175 96.6742 298.845 96.6109 297.294 96.6011C294.988 96.5878 292.872 98.1298 292.257 100.465C291.544 103.171 293.111 105.943 295.769 106.744C282.727 113.648 264.862 113.315 254.547 101.858C257.864 102.9 262.598 100.229 262.598 96.6234C262.598 94.2101 260.947 92.179 258.711 91.6044C257.21 91.2186 256.874 91.1955 256.481 89.6588C255.169 84.5685 247.749 84.5685 246.44 89.6588Z" fill="#FFE24A"/>
<path d="M251.311 98.5521C252.843 98.5521 254.094 97.3014 254.094 95.7682C254.094 94.236 252.843 92.9852 251.311 92.9852C249.778 92.9852 248.527 94.236 248.527 95.7682C248.528 97.3022 249.779 98.5521 251.311 98.5521Z" fill="black"/>
<path d="M199.676 105.259C201.213 105.259 202.459 104.013 202.459 102.476C202.459 100.939 201.213 99.6933 199.676 99.6933C198.139 99.6933 196.893 100.939 196.893 102.476C196.893 104.013 198.139 105.259 199.676 105.259Z" fill="black"/>
<path d="M303.24 105.259C304.777 105.259 306.023 104.013 306.023 102.476C306.023 100.939 304.777 99.6933 303.24 99.6933C301.703 99.6933 300.457 100.939 300.457 102.476C300.457 104.013 301.703 105.259 303.24 105.259Z" fill="black"/>
</svg>
