<svg width="500" height="500" viewBox="0 0 500 500" fill="none" xmlns="http://www.w3.org/2000/svg">
<g clip-path="url(#clip0_6_72702)">
<path d="M314.817 207.043C298.034 190.765 275.166 180.726 249.994 180.726C224.825 180.726 201.959 190.765 185.178 207.043H0L250 455.236L500 207.043H314.817Z" fill="#DE9500"/>
<path d="M249.993 189.416C296.566 189.416 334.471 227.309 334.471 273.892C334.471 320.472 296.566 358.359 249.993 358.359C203.419 358.359 165.527 320.471 165.527 273.892C165.527 227.308 203.419 189.416 249.993 189.416Z" fill="white"/>
<path d="M210.978 257.507H217.961V246.913H210.978V234.16H231.443V269.054H210.978V257.507ZM210.978 303.476H217.961V292.894H210.978V281.575H231.443V315.529H210.978V303.476ZM268.273 315.528H243.483V281.574H248.308V285.194H255.285V281.574H265.158C267.888 281.574 268.272 286.442 268.272 286.442V315.528H268.273ZM268.273 261.93L268.235 263.522C268.235 263.522 267.624 268.976 264.073 269.055H255.286V264.488H248.308V269.055H243.483V234.161H268.274V261.93H268.273ZM298.772 304.445C298.144 306.273 294.891 315.432 291.393 315.432C291.214 315.432 291.104 315.501 290.987 315.529H279.102V285.917H279.034C278.872 283.95 278.033 281.838 277.907 281.575H290.227C291.199 281.67 299.266 284.824 299.301 294.819H291.394V304.445H298.772ZM299.32 257.269V257.281C299.32 257.281 294.986 269.043 291.191 269.043L290.933 269.054H277.483C277.679 268.669 279.102 265.965 279.102 263.521V234.159H290.586C290.791 234.227 299.32 237.236 299.32 247.631H291.393V257.268H299.32V257.269ZM317.883 247.632H310.708C310.708 247.554 309.218 228.598 294.992 222.364H279.684V221.986C279.684 206.637 268.433 203.485 260.235 203.485C252.045 203.485 248.233 206.915 248.233 206.915V217.983C248.233 217.983 248.428 214.083 259.029 214.083C270.84 214.083 268.52 222.357 268.52 222.357V222.364H243.483V215.61C243.483 204.16 237.689 201.157 230.918 201.157L226.151 201.172V213.451H229.032C230.953 213.451 231.357 214.884 231.443 215.875V222.363H192.928V234.158H201.365V246.91H192.928V257.504H201.365V269.052H192.928V281.572H201.365V292.891H192.928V303.473H201.365V315.526H192.928V326.12H230.845V329.123C230.845 331.171 229.032 330.924 229.032 330.924H225.204V343.204H232.885C236.043 343.204 243.244 339.936 243.244 331.88V327.558L243.256 326.119H268.356C268.356 331.723 265.422 334.384 257.723 334.384C250.028 334.384 247.863 330.67 247.863 330.67V341.832C250.149 344.378 259.552 345.101 259.552 345.101C278.663 345.101 279.225 329.122 279.153 326.119H296.189C296.189 326.119 308.282 321.023 309.883 304.441H317.882V294.816H310.41C310.393 294.116 310.025 278.684 301.884 274.27C301.884 274.27 309.708 269.844 309.778 257.278L309.723 257.265H317.883V247.632Z" fill="#00954C"/>
<path d="M56.3047 215.733V250.696L91.522 285.659V215.733H56.3047Z" fill="#00954C"/>
<path d="M56.3052 250.696V215.733H21.0879L56.3052 250.696Z" fill="white"/>
<path d="M156.839 273.892C156.839 263.241 158.651 253.009 161.958 243.47V215.733H126.74V320.621L161.958 355.583V304.348C158.645 294.801 156.839 284.553 156.839 273.892Z" fill="#00954C"/>
<path d="M126.739 215.733H91.5215V285.659L126.739 320.621V215.733Z" fill="white"/>
<path d="M197.174 350.582V390.546L232.391 425.509V365.373C219.52 362.901 207.583 357.774 197.174 350.582Z" fill="#00954C"/>
<path d="M161.957 304.349V355.583L197.174 390.546V350.582C180.999 339.406 168.514 323.252 161.957 304.349Z" fill="white"/>
<path d="M177.276 215.733H161.957V243.47C165.476 233.32 170.688 223.955 177.276 215.733Z" fill="white"/>
<path d="M267.609 365.371V425.509L302.827 390.546V350.578C292.418 357.771 280.48 362.898 267.609 365.371Z" fill="#00954C"/>
<path d="M249.993 367.049C243.975 367.049 238.093 366.469 232.391 365.374V425.51L249.999 442.992L267.608 425.51V365.371C261.902 366.467 256.014 367.049 249.993 367.049Z" fill="white"/>
<path d="M338.043 215.733V243.471C341.35 253.01 343.161 263.242 343.161 273.892C343.161 284.553 341.356 294.799 338.043 304.348V355.584L373.26 320.621V215.733H338.043Z" fill="#00954C"/>
<path d="M302.826 350.578V390.546L338.043 355.583V304.347C331.485 323.249 319.002 339.402 302.826 350.578Z" fill="white"/>
<path d="M322.723 215.733C329.312 223.956 334.525 233.321 338.044 243.471V215.733H322.723Z" fill="white"/>
<path d="M408.479 285.658L443.696 250.696V215.733H408.479V285.658Z" fill="#00954C"/>
<path d="M408.477 215.733H373.26V320.621L408.477 285.658V215.733Z" fill="white"/>
<path d="M478.913 215.733H443.695V250.696L478.913 215.733Z" fill="white"/>
<path d="M238.877 135.602C238.877 131.584 241.045 128.079 244.263 126.162V101.471C224.334 102.337 206.281 107.771 192.432 116.243C193.824 121.881 197.37 127.277 202.756 131.962C204.11 131.357 205.607 131.015 207.191 131.015C213.265 131.015 218.183 135.937 218.183 142.012C218.183 146.362 215.647 150.112 211.981 151.893L212.039 152.033C213.072 154.11 214.851 155.666 217.054 156.406C219.251 157.144 221.607 156.982 223.69 155.951C225.773 154.917 227.321 153.135 228.059 150.933C228.171 150.614 228.251 150.288 228.319 149.955C226.601 149.198 225.705 147.252 226.312 145.435C226.959 143.504 229.055 142.47 230.982 143.121C232.908 143.765 233.945 145.856 233.299 147.788C233.059 148.489 232.631 149.069 232.089 149.496C233.109 151.425 234.827 152.956 236.96 153.668C239.16 154.407 241.514 154.249 243.597 153.212C245.679 152.18 247.224 150.403 247.965 148.199C248.161 147.634 248.266 147.056 248.336 146.475C242.997 145.721 238.877 141.153 238.877 135.602Z" fill="#D7013E"/>
<path d="M207.192 153C201.118 153 196.197 148.081 196.197 142.012C196.197 141.825 196.214 141.638 196.231 141.453C189.852 136.157 185.233 129.98 182.657 123.333C173.276 131.396 167.063 141.183 165.285 151.871C166.26 151.584 167.283 151.425 168.356 151.425C174.421 151.425 179.343 156.345 179.343 162.417C179.343 165.255 178.256 167.842 176.483 169.794C178.045 171.294 180.157 172.215 182.488 172.215C187.278 172.215 191.178 168.318 191.178 163.528C191.178 163.185 191.149 162.854 191.108 162.521C189.24 162.341 187.772 160.789 187.772 158.871C187.772 156.835 189.419 155.187 191.453 155.187C193.491 155.187 195.137 156.835 195.137 158.871C195.137 159.61 194.917 160.3 194.539 160.877C196.123 162.383 198.238 163.281 200.485 163.281C205.281 163.281 209.176 159.386 209.176 154.595C209.176 153.997 209.101 153.415 208.981 152.842C208.394 152.938 207.805 153 207.192 153Z" fill="#D7013E"/>
<path d="M261.123 135.602C261.123 131.584 258.956 128.079 255.737 126.162V101.471C275.666 102.337 293.719 107.771 307.569 116.243C306.176 121.881 302.63 127.277 297.244 131.962C295.89 131.357 294.393 131.015 292.809 131.015C286.736 131.015 281.817 135.937 281.817 142.012C281.817 146.362 284.353 150.112 288.019 151.893L287.961 152.033C286.928 154.11 285.149 155.666 282.947 156.406C280.749 157.144 278.393 156.982 276.31 155.951C274.228 154.917 272.679 153.135 271.941 150.933C271.829 150.614 271.75 150.288 271.682 149.955C273.399 149.198 274.296 147.252 273.689 145.435C273.041 143.504 270.945 142.47 269.018 143.121C267.093 143.765 266.055 145.856 266.701 147.788C266.941 148.489 267.369 149.069 267.911 149.496C266.891 151.425 265.174 152.956 263.04 153.668C260.84 154.407 258.486 154.249 256.403 153.212C254.321 152.18 252.776 150.403 252.035 148.199C251.839 147.634 251.735 147.056 251.664 146.475C257.003 145.721 261.123 141.153 261.123 135.602Z" fill="#D7013E"/>
<path d="M292.809 153C298.883 153 303.804 148.081 303.804 142.012C303.804 141.825 303.786 141.638 303.769 141.453C310.148 136.157 314.768 129.98 317.344 123.333C326.724 131.396 332.938 141.183 334.716 151.871C333.74 151.584 332.718 151.425 331.645 151.425C325.58 151.425 320.658 156.345 320.658 162.417C320.658 165.255 321.745 167.842 323.518 169.794C321.956 171.294 319.844 172.215 317.512 172.215C312.723 172.215 308.822 168.318 308.822 163.528C308.822 163.185 308.852 162.854 308.893 162.521C310.761 162.341 312.229 160.789 312.229 158.871C312.229 156.835 310.581 155.187 308.548 155.187C306.51 155.187 304.864 156.835 304.864 158.871C304.864 159.61 305.084 160.3 305.462 160.877C303.877 162.383 301.762 163.281 299.516 163.281C294.72 163.281 290.824 159.386 290.824 154.595C290.824 153.997 290.9 153.415 291.019 152.842C291.607 152.938 292.195 153 292.809 153Z" fill="#D7013E"/>
<path d="M358.973 131.184C358.973 120.765 354.447 110.762 346.223 103.031C337.407 94.7195 325.532 90.0994 312.408 89.7425C302.289 75.6577 282.377 65.4739 258.822 63.3821C258.796 59.3644 256.133 55.9784 252.472 54.8626V53.1851L256.859 53.1789L256.854 48.1568L252.458 48.163L252.456 44.7637L250 44.7663L247.544 44.7637L247.542 48.163L243.146 48.1568L243.141 53.1789L247.528 53.1851V54.8626C243.866 55.9784 241.204 59.3644 241.178 63.3821C217.623 65.4739 197.711 75.6577 187.592 89.7425C174.468 90.0994 162.593 94.7195 153.776 103.031C145.553 110.762 141.027 120.765 141.027 131.184C141.027 142.521 146.943 153.268 157.538 161.66C157.521 161.909 157.499 162.16 157.499 162.416C157.499 168.48 162.423 173.403 168.496 173.403C169.704 173.403 170.866 173.203 171.956 172.842C172.854 174.615 175.812 179.115 182.762 179.25C182.332 179.558 181.89 179.853 181.458 180.17C180.309 181.042 178.625 183.452 180.484 186.359C181.349 187.699 182.615 188.405 184.152 188.405C184.69 188.405 185.193 188.312 185.617 188.201L191.247 195.901L192.37 195.081C209.202 182.749 229.125 176.224 249.998 176.224C270.871 176.224 290.795 182.749 307.626 195.081L308.749 195.901L314.38 188.201C314.804 188.312 315.307 188.405 315.844 188.405C317.382 188.405 318.647 187.698 319.512 186.359C321.372 183.452 319.687 181.042 318.539 180.17C318.108 179.852 317.665 179.557 317.234 179.25C324.185 179.115 327.143 174.615 328.041 172.842C329.131 173.204 330.292 173.403 331.5 173.403C337.573 173.403 342.497 168.479 342.497 162.416C342.497 162.16 342.475 161.909 342.458 161.66C353.057 153.268 358.973 142.521 358.973 131.184ZM200.627 163.277C198.377 163.277 196.263 162.379 194.678 160.871C195.056 160.296 195.28 159.608 195.28 158.867C195.28 156.833 193.631 155.185 191.593 155.185C189.561 155.185 187.912 156.833 187.912 158.867C187.912 160.788 189.38 162.34 191.249 162.519C191.289 162.85 191.318 163.182 191.318 163.526C191.318 168.317 187.42 172.212 182.628 172.212C180.297 172.212 178.185 171.291 176.625 169.791C178.396 167.841 179.484 165.252 179.484 162.416C179.484 156.344 174.562 151.424 168.496 151.424C167.423 151.424 166.401 151.582 165.428 151.87C164.967 152.006 164.519 152.157 164.084 152.349C156.563 146.22 152.376 138.786 152.376 131.183C152.376 123.925 155.634 116.856 161.55 111.295C166.942 106.219 173.9 102.945 181.73 101.674C180.881 104.644 180.427 107.712 180.427 110.853C180.427 115.126 181.241 119.313 182.799 123.332C185.374 129.979 189.994 136.154 196.372 141.449C196.354 141.636 196.337 141.821 196.337 142.009C196.337 148.08 201.261 152.998 207.332 152.998C207.944 152.998 208.534 152.934 209.123 152.84C209.237 153.41 209.315 153.994 209.315 154.59C209.316 159.382 205.42 163.277 200.627 163.277ZM248.106 148.199C247.365 150.402 245.82 152.18 243.739 153.212C241.658 154.246 239.299 154.405 237.102 153.667C234.967 152.954 233.251 151.424 232.231 149.494C232.772 149.069 233.201 148.489 233.44 147.786C234.085 145.854 233.049 143.764 231.123 143.121C229.193 142.47 227.1 143.505 226.45 145.435C225.845 147.252 226.742 149.196 228.461 149.955C228.393 150.288 228.309 150.614 228.2 150.933C227.462 153.133 225.911 154.917 223.831 155.951C221.749 156.982 219.393 157.144 217.194 156.404C214.994 155.663 213.213 154.109 212.18 152.034L212.122 151.89C215.788 150.11 218.324 146.36 218.324 142.01C218.324 135.937 213.405 131.013 207.332 131.013C205.748 131.013 204.252 131.358 202.895 131.962C197.511 127.277 193.966 121.881 192.573 116.243C192.135 114.465 191.905 112.667 191.905 110.854C191.905 92.3291 215.405 76.5022 244.402 74.6294V126.16C241.186 128.079 239.019 131.583 239.019 135.602C239.019 141.153 243.136 145.721 248.476 146.475C248.405 147.055 248.299 147.632 248.106 148.199ZM287.819 152.034C286.786 154.109 285.005 155.663 282.805 156.404C280.607 157.144 278.251 156.982 276.168 155.951C274.088 154.917 272.537 153.134 271.799 150.933C271.69 150.614 271.606 150.288 271.538 149.955C273.257 149.197 274.154 147.252 273.549 145.435C272.899 143.504 270.806 142.47 268.876 143.121C266.95 143.764 265.913 145.854 266.559 147.786C266.799 148.489 267.227 149.069 267.768 149.494C266.749 151.425 265.032 152.955 262.897 153.667C260.7 154.405 258.342 154.247 256.26 153.212C254.179 152.18 252.634 150.401 251.893 148.199C251.7 147.632 251.594 147.056 251.522 146.475C256.862 145.721 260.98 141.153 260.98 135.602C260.98 131.584 258.812 128.079 255.596 126.16V74.6294C284.594 76.5031 308.093 92.3291 308.093 110.854C308.093 112.667 307.863 114.465 307.425 116.243C306.033 121.881 302.487 127.277 297.103 131.962C295.746 131.357 294.25 131.013 292.666 131.013C286.593 131.013 281.674 135.937 281.674 142.01C281.674 146.36 284.21 150.11 287.876 151.89L287.819 152.034ZM335.915 152.349C335.481 152.157 335.032 152.007 334.572 151.871C333.598 151.583 332.576 151.425 331.503 151.425C325.437 151.425 320.515 156.345 320.515 162.417C320.515 165.253 321.603 167.842 323.375 169.792C321.814 171.292 319.702 172.213 317.371 172.213C312.579 172.213 308.681 168.318 308.681 163.527C308.681 163.184 308.71 162.851 308.75 162.52C310.619 162.341 312.087 160.788 312.087 158.868C312.087 156.834 310.438 155.186 308.406 155.186C306.368 155.186 304.719 156.834 304.719 158.868C304.719 159.609 304.943 160.297 305.321 160.872C303.736 162.379 301.621 163.278 299.372 163.278C294.579 163.278 290.683 159.382 290.683 154.591C290.683 153.995 290.761 153.411 290.875 152.841C291.464 152.935 292.054 153 292.666 153C298.737 153 303.661 148.082 303.661 142.011C303.661 141.823 303.643 141.637 303.626 141.451C310.005 136.156 314.625 129.981 317.199 123.333C318.757 119.315 319.572 115.128 319.572 110.855C319.572 107.715 319.117 104.647 318.269 101.676C326.097 102.947 333.056 106.22 338.448 111.296C344.364 116.858 347.622 123.927 347.622 131.185C347.623 138.787 343.436 146.221 335.915 152.349Z" fill="#DE9500"/>
</g>
<defs>
<clipPath id="clip0_6_72702">
<rect width="500" height="410.473" fill="white" transform="translate(0 44.7637)"/>
</clipPath>
</defs>
</svg>
