<svg width="500" height="500" viewBox="0 0 500 500" fill="none" xmlns="http://www.w3.org/2000/svg">
<g clip-path="url(#clip0_6_72700)">
<path d="M323.454 144.963C321.28 144.963 319.583 143.266 319.583 141.209C319.583 139.151 321.28 137.454 323.454 137.454C325.628 137.454 327.325 139.151 327.325 141.209C327.441 143.266 325.628 144.963 323.454 144.963ZM92.4453 320.431C92.4453 236.574 163.353 168.444 250 168.444C336.647 168.444 407.555 236.69 407.555 320.431C407.555 404.044 336.647 472.535 250 472.535C163.365 472.418 92.4453 404.044 92.4453 320.431ZM311.83 88.33C315.584 89.2948 317.874 92.9332 316.909 96.56C315.945 100.187 312.074 102.372 308.319 101.396C304.564 100.419 302.275 96.7925 303.239 93.1657C304.204 89.5389 308.075 87.3536 311.83 88.33ZM318.246 75.0203C320.42 75.0203 322.117 76.7174 322.117 78.7749C322.117 80.8324 320.42 82.5295 318.246 82.5295C316.073 82.5295 314.375 80.8324 314.375 78.7749C314.259 76.6011 316.073 75.0203 318.246 75.0203ZM314.98 61.4664C317.154 61.4664 318.851 63.1635 318.851 65.221C318.851 67.2785 317.154 68.9756 314.98 68.9756C312.806 68.9756 311.109 67.2785 311.109 65.221C310.993 63.1635 312.806 61.4664 314.98 61.4664ZM363.383 97.0482C365.557 97.0482 367.254 98.7453 367.254 100.803C367.254 102.86 365.557 104.557 363.383 104.557C361.209 104.557 359.512 102.86 359.512 100.803C359.512 98.7453 361.209 97.0482 363.383 97.0482ZM360.117 83.6222C362.29 83.6222 363.988 85.3193 363.988 87.3768C363.988 89.4343 362.29 91.1315 360.117 91.1315C357.943 91.1315 356.246 89.4343 356.246 87.3768C356.246 85.3193 357.943 83.6222 360.117 83.6222ZM354.305 71.7655C356.478 71.7655 358.176 73.4626 358.176 75.5201C358.176 77.5776 356.362 79.2747 354.305 79.2747C352.131 79.2747 350.434 77.5776 350.434 75.5201C350.318 73.4626 352.131 71.7655 354.305 71.7655ZM344.982 61.2339C347.156 61.2339 348.853 62.931 348.853 64.9885C348.853 67.046 347.156 68.7432 344.982 68.7432C342.808 68.7432 341.111 67.046 341.111 64.9885C341.111 62.931 342.808 61.2339 344.982 61.2339ZM333.602 53.248C335.776 53.248 337.473 54.9452 337.473 57.0027C337.473 59.0602 335.776 60.7573 333.602 60.7573C331.428 60.7573 329.731 59.0602 329.731 57.0027C329.731 54.9452 331.428 53.248 333.602 53.248ZM321.257 48.5286C323.431 48.5286 325.128 50.2257 325.128 52.2832C325.128 54.3407 323.431 56.0379 321.257 56.0379C319.083 56.0379 317.386 54.3407 317.386 52.2832C317.386 50.2257 319.199 48.5286 321.257 48.5286ZM308.796 49.6213C310.969 49.6213 312.667 51.3184 312.667 53.3759C312.667 55.4334 310.969 57.1305 308.796 57.1305C306.622 57.1305 304.925 55.4334 304.925 53.3759C304.925 51.3184 306.622 49.6213 308.796 49.6213ZM299.601 39.3338C301.775 39.3338 303.472 41.031 303.472 43.0885C303.472 45.1459 301.658 46.8431 299.601 46.8431C297.427 46.8431 295.73 45.1459 295.73 43.0885C295.73 41.031 297.427 39.3338 299.601 39.3338ZM287.616 31.7083C289.79 31.7083 291.487 33.4055 291.487 35.463C291.487 37.5204 289.79 39.2176 287.616 39.2176C285.443 39.2176 283.745 37.5204 283.745 35.463C283.745 33.4055 285.443 31.7083 287.616 31.7083ZM275.155 27.233C277.329 27.233 279.026 28.9301 279.026 30.9876C279.026 33.0451 277.329 34.7423 275.155 34.7423C272.981 34.7423 271.284 33.0451 271.284 30.9876C271.284 28.9301 272.981 27.233 275.155 27.233ZM262.45 25.0593C264.624 25.0593 266.321 26.7564 266.321 28.8139C266.321 30.8714 264.624 32.5685 262.45 32.5685C260.276 32.5685 258.579 30.8714 258.579 28.8139C258.463 26.7564 260.276 25.0593 262.45 25.0593ZM141.581 124.4C139.95 125.264 138.05 125.47 136.273 124.974C134.495 124.479 132.975 123.321 132.026 121.738C131.578 120.958 131.294 120.095 131.192 119.201C131.09 118.308 131.172 117.402 131.432 116.541C131.692 115.68 132.125 114.882 132.705 114.194C133.285 113.507 133.999 112.945 134.804 112.543C136.435 111.679 138.335 111.474 140.112 111.969C141.89 112.464 143.41 113.623 144.359 115.205C146.173 118.472 144.964 122.587 141.581 124.4ZM191.681 101.407C187.927 102.372 184.056 100.198 183.091 96.5716C182.126 92.9448 184.428 89.1902 188.171 88.3416C191.926 87.3768 195.796 89.5506 196.761 93.1773C197.726 96.8041 195.424 100.559 191.681 101.407ZM250 94.27C249.094 94.2869 248.193 94.125 247.35 93.7934C246.506 93.4619 245.736 92.9672 245.084 92.3377C244.432 91.7082 243.911 90.9563 243.549 90.125C243.188 89.2937 242.994 88.3993 242.979 87.4931C242.979 83.7384 246.129 80.7161 250 80.7161C253.871 80.7161 257.021 83.7384 257.021 87.4931C257.021 91.2477 253.871 94.27 250 94.27ZM181.871 82.5295C179.697 82.5295 178 80.8324 178 78.7749C178 76.7174 179.697 75.0203 181.871 75.0203C184.044 75.0203 185.741 76.7174 185.741 78.7749C185.741 80.8324 183.928 82.5295 181.871 82.5295ZM185.137 68.9756C182.963 68.9756 181.266 67.2785 181.266 65.221C181.266 63.1635 182.963 61.4664 185.137 61.4664C187.311 61.4664 189.008 63.1635 189.008 65.221C189.008 67.2785 187.195 68.9756 185.137 68.9756ZM136.617 104.674C134.444 104.674 132.747 102.977 132.747 100.919C132.747 98.8616 134.444 97.1644 136.617 97.1644C138.791 97.1644 140.488 98.8616 140.488 100.919C140.605 102.977 138.791 104.674 136.617 104.674ZM139.884 91.1198C137.71 91.1198 136.013 89.4227 136.013 87.3652C136.013 85.3077 137.826 83.6106 139.884 83.6106C142.058 83.6106 143.755 85.3077 143.755 87.3652C143.871 89.4227 142.058 91.1198 139.884 91.1198ZM145.696 79.2631C143.522 79.2631 141.825 77.566 141.825 75.5085C141.825 73.451 143.522 71.7538 145.696 71.7538C147.87 71.7538 149.567 73.451 149.567 75.5085C149.683 77.566 147.87 79.2631 145.696 79.2631ZM155.019 68.7315C152.845 68.7315 151.148 67.0344 151.148 64.9769C151.148 62.9194 152.845 61.2223 155.019 61.2223C157.192 61.2223 158.889 62.9194 158.889 64.9769C158.889 67.0344 157.192 68.7315 155.019 68.7315ZM166.399 60.7457C164.225 60.7457 162.528 59.0485 162.528 56.9911C162.528 54.9336 164.225 53.2364 166.399 53.2364C168.572 53.2364 170.27 54.9336 170.27 56.9911C170.386 59.0485 168.572 60.7457 166.399 60.7457ZM178.744 56.1425C176.57 56.1425 174.873 54.4453 174.873 52.3879C174.873 50.3304 176.57 48.6332 178.744 48.6332C180.917 48.6332 182.615 50.3304 182.615 52.3879C182.615 54.4453 180.917 56.1425 178.744 56.1425ZM191.205 57.1073C189.031 57.1073 187.334 55.4102 187.334 53.3527C187.334 51.2952 189.031 49.598 191.205 49.598C193.379 49.598 195.076 51.2952 195.076 53.3527C195.192 55.4102 193.379 57.1073 191.205 57.1073ZM200.4 46.9477C198.226 46.9477 196.529 45.2506 196.529 43.1931C196.529 41.1356 198.342 39.4384 200.4 39.4384C202.573 39.4384 204.271 41.1356 204.271 43.1931C204.271 45.2506 202.573 46.9477 200.4 46.9477ZM212.384 39.206C210.211 39.206 208.513 37.5088 208.513 35.4513C208.513 33.3938 210.211 31.6967 212.384 31.6967C214.558 31.6967 216.255 33.3938 216.255 35.4513C216.255 37.5088 214.558 39.206 212.384 39.206ZM224.845 34.7306C222.672 34.7306 220.975 33.0335 220.975 30.976C220.975 28.9185 222.788 27.2214 224.845 27.2214C227.019 27.2214 228.716 28.9185 228.716 30.976C228.716 33.0335 227.019 34.7306 224.845 34.7306ZM250 71.7538C247.827 71.7538 246.129 70.0567 246.129 67.9992C246.129 65.9417 247.943 64.2446 250 64.2446C252.174 64.2446 253.871 65.9417 253.871 67.9992C253.871 70.0567 252.174 71.7538 250 71.7538ZM250 58.0837C247.827 58.0837 246.129 56.3866 246.129 54.3291C246.129 52.2716 247.943 50.5745 250 50.5745C252.174 50.5745 253.871 52.2716 253.871 54.3291C253.871 56.3866 252.174 58.0837 250 58.0837ZM250 44.4136C247.827 44.4136 246.129 42.7165 246.129 40.659C246.129 38.6015 247.943 36.9044 250 36.9044C252.174 36.9044 253.871 38.6015 253.871 40.659C253.871 42.7165 252.174 44.4136 250 44.4136ZM237.655 32.5569C235.482 32.5569 233.657 30.8598 233.657 28.8023C233.657 26.7448 235.47 25.0476 237.655 25.0476C239.841 25.0476 241.526 26.7448 241.526 28.8023C241.526 30.976 239.713 32.5569 237.655 32.5569ZM365.197 112.532C368.579 114.345 369.8 118.46 367.975 121.726C366.15 124.993 361.802 126.202 358.42 124.388C357.626 123.974 356.924 123.406 356.353 122.717C355.783 122.028 355.355 121.232 355.097 120.375C354.838 119.519 354.753 118.619 354.846 117.73C354.94 116.84 355.21 115.978 355.641 115.194C356.59 113.611 358.111 112.453 359.888 111.957C361.666 111.462 363.566 111.668 365.197 112.532ZM275.051 132.374C272.877 132.374 271.18 130.677 271.18 128.62C271.18 126.562 272.877 124.865 275.051 124.865C277.224 124.865 278.921 126.562 278.921 128.62C279.038 130.677 277.224 132.374 275.051 132.374ZM176.547 144.963C174.373 144.963 172.676 143.266 172.676 141.209C172.676 139.151 174.489 137.454 176.547 137.454C178.72 137.454 180.418 139.151 180.418 141.209C180.418 143.266 178.72 144.963 176.547 144.963ZM224.95 132.374C222.776 132.374 221.079 130.677 221.079 128.62C221.079 126.562 222.893 124.865 224.95 124.865C227.124 124.865 228.821 126.562 228.821 128.62C228.821 130.677 227.124 132.374 224.95 132.374Z" fill="white"/>
<path d="M279.037 105.15C280.13 107.452 281.339 109.149 282.908 110.59L272.144 109.254C274.163 108.177 275.937 106.693 277.352 104.895C277.906 105.041 278.475 105.123 279.049 105.139L279.037 105.15ZM220.951 105.15C221.562 105.132 222.17 105.05 222.764 104.906C224.101 106.72 225.914 108.173 227.844 109.265L217.08 110.602C218.777 109.033 220.102 107.219 220.951 105.162V105.15ZM200.015 113.741L190.577 116.042C192.274 113.985 193.355 111.439 193.599 108.777C195.281 110.95 197.489 112.659 200.015 113.741ZM164.073 125.121C164.977 123.652 165.67 122.063 166.131 120.401L166.619 120.285C167.524 120.069 168.385 119.699 169.165 119.192C170.656 120.159 172.287 120.892 174 121.366L164.073 125.121ZM250 101.884C250.965 104.43 252.778 106.603 254.963 108.3C253.266 108.3 251.697 108.184 250 108.184L245.036 108.3C247.338 106.603 249.035 104.43 250 101.884ZM330.835 119.065C331.555 119.553 332.532 119.913 333.38 120.157L333.869 120.273C334.229 121.971 334.961 123.54 335.926 124.993L325.883 121.122C327.655 120.764 329.341 120.066 330.846 119.065H330.835ZM309.411 116.042L299.972 113.741C302.48 112.687 304.654 110.971 306.261 108.777C306.618 111.444 307.709 113.959 309.411 116.042ZM321.628 86.5166C324.29 85.4239 326.232 83.134 326.836 80.3442C331.067 81.309 335.787 82.4016 339.658 83.9709C342.779 85.1331 345.682 86.8109 348.248 88.9345C350.305 94.1421 351.514 100.187 352.247 107.568C349.701 108.661 348.015 111.195 347.039 113.741C345.47 117.611 345.47 121.61 349.817 124.633C348.85 124.707 347.877 124.576 346.964 124.247C346.051 123.919 345.218 123.4 344.52 122.725C343.822 122.05 343.276 121.235 342.917 120.334C342.557 119.432 342.393 118.465 342.436 117.495C343.269 116.55 343.888 115.436 344.249 114.229C345.458 109.626 342.68 105.034 337.96 103.941C333.241 102.732 328.521 105.511 327.313 109.986C327.196 110.474 327.068 110.951 327.068 111.439C323.07 116.158 315.084 113.741 314.724 107.568C322.105 109.021 325.255 105.394 326.464 100.547C327.557 96.5483 327.068 92.445 322.349 90.0155C322.105 88.6787 321.989 87.4698 321.628 86.505V86.5166ZM196.877 69.8242C210.919 62.3266 229.181 60.9898 243.339 63.0473V64.0121C242.312 65.5516 241.915 67.4269 242.231 69.2506C242.547 71.0742 243.551 72.7069 245.036 73.8113C242.374 74.6599 240.317 76.5895 239.596 79.9838C234.272 81.1927 232.819 85.0636 232.819 89.1786C232.819 94.1421 234.877 98.3734 242.374 98.7337C241.526 101.512 238.864 103.453 235.714 103.453C234.28 103.465 232.879 103.027 231.707 102.201C230.536 101.376 229.652 100.204 229.181 98.8499C229.425 98.1292 229.425 97.3969 229.425 96.6762C229.425 91.9568 225.426 88.2021 220.59 88.2021C215.755 88.2021 211.756 91.9568 211.756 96.6762C211.727 98.0866 212.107 99.4751 212.849 100.675C212.74 102.121 212.178 103.496 211.243 104.604C210.308 105.712 209.048 106.497 207.641 106.847C206.214 107.214 204.707 107.119 203.337 106.576C201.967 106.033 200.804 105.07 200.015 103.825C207.153 101.651 208.118 97.0482 206.792 92.2125C205.7 88.2138 203.282 84.8311 197.842 84.9474C197.047 83.2419 195.676 81.8713 193.971 81.0765C194.692 77.2056 195.54 73.3347 196.877 69.8242ZM256.533 62.931C270.691 60.8735 289.08 62.2103 302.995 69.708C304.359 73.3806 305.292 77.1997 305.773 81.0881C304.069 81.8845 302.698 83.2547 301.902 84.959C296.462 84.8427 294.032 88.2254 293.068 92.2241C291.731 97.0598 292.707 101.663 299.844 103.837C298.275 106.255 295.241 107.591 292.219 106.859C290.806 106.52 289.539 105.738 288.602 104.628C287.665 103.517 287.108 102.136 287.011 100.687C287.736 99.4792 288.114 98.0958 288.104 96.6878C288.104 91.9684 284.233 88.2138 279.27 88.2138C274.434 88.2138 270.435 91.9684 270.435 96.6878C270.453 97.4181 270.535 98.1455 270.679 98.8616C270.193 100.206 269.306 101.368 268.138 102.192C266.969 103.015 265.576 103.459 264.146 103.465C262.681 103.478 261.249 103.028 260.054 102.181C258.858 101.334 257.959 100.132 257.486 98.7453C264.983 98.385 267.041 94.1421 267.041 89.1902C267.041 84.959 265.588 81.2043 260.264 79.9954C259.965 78.5852 259.308 77.276 258.355 76.1945C257.402 75.1131 256.185 74.2962 254.824 73.823C256.521 72.4862 257.73 70.3124 257.73 68.0108C257.73 66.5578 257.242 65.1048 256.521 64.0121L256.533 62.931ZM160.458 83.9825C164.329 82.5295 169.049 81.3206 173.28 80.3558C173.884 83.134 175.825 85.4356 178.487 86.5282C178.072 87.6047 177.906 88.761 177.999 89.9109C173.163 92.3288 172.792 96.4437 173.884 100.442C175.221 105.278 178.243 108.917 185.625 107.464C185.381 113.636 177.278 116.054 173.28 111.334C173.28 110.846 173.163 110.37 173.036 109.881C171.827 105.278 166.991 102.616 162.272 103.837C157.552 105.057 154.774 109.649 155.983 114.124C156.343 115.333 156.948 116.542 157.796 117.391C157.912 119.936 156.587 122.354 154.169 123.679C152.999 124.246 151.715 124.536 150.415 124.528C154.774 121.622 154.774 117.635 153.193 113.636C152.1 111.218 150.531 108.672 147.869 107.591C148.474 100.21 149.683 94.1654 151.74 88.9577C153.914 87.2606 156.704 85.331 160.458 83.9942V83.9825ZM262.589 127.306L250 131.781L237.539 127.306L250 122.819L262.589 127.306ZM168.316 143.754L167.224 147.986L166.863 149.555L166.015 149.067L161.783 146.765L162.876 142.766L163.12 141.918L164.573 142.406L168.316 143.754ZM331.672 143.754L336.879 141.813L337.123 142.662L338.216 146.777L334.101 148.95L333.253 149.439L332.892 147.869L331.672 143.754Z" fill="#E62644"/>
<path d="M309.411 116.042C307.714 113.985 306.633 111.439 306.389 108.777C304.82 110.951 302.518 112.648 300.1 113.741L309.423 116.042H309.411ZM330.835 119.065C329.382 120.029 327.685 120.762 325.999 121.238L336.043 125.109C335.086 123.669 334.389 122.071 333.985 120.39L333.497 120.273C332.532 120.029 331.683 119.553 330.835 119.065ZM250 101.884C249.035 104.43 247.338 106.603 245.036 108.3L250 108.184L254.963 108.3C252.755 106.654 251.039 104.435 250 101.884ZM164.085 125.121L174.128 121.25C172.431 120.762 170.746 120.041 169.293 119.076C168.572 119.564 167.596 119.925 166.747 120.169L166.259 120.285C165.654 121.982 165.05 123.668 164.085 125.121ZM200.027 113.741C197.52 112.687 195.346 110.971 193.739 108.777C193.378 111.439 192.402 113.985 190.716 116.042L200.039 113.741H200.027ZM220.963 105.15C220.114 107.208 218.789 109.021 217.092 110.59L227.856 109.254C225.851 108.209 224.113 106.717 222.776 104.895C222.171 105.011 221.567 105.139 220.963 105.139V105.15ZM279.049 105.15C278.475 105.137 277.906 105.055 277.352 104.906C276.015 106.72 274.202 108.173 272.144 109.265L282.908 110.602C281.356 109.153 280.083 107.431 279.154 105.522L279.049 105.15ZM365.208 112.532C363.578 111.665 361.677 111.458 359.898 111.953C358.12 112.449 356.6 113.609 355.653 115.194C353.839 118.46 355.048 122.575 358.431 124.388C360.062 125.252 361.961 125.458 363.739 124.963C365.517 124.467 367.037 123.309 367.986 121.726C368.448 120.95 368.743 120.086 368.852 119.189C368.962 118.292 368.883 117.382 368.622 116.517C368.361 115.652 367.922 114.851 367.334 114.165C366.746 113.479 366.022 112.923 365.208 112.532ZM311.841 88.33C308.086 87.3652 304.215 89.5389 303.251 93.1657C302.286 96.7925 304.587 100.547 308.33 101.396C312.085 102.36 315.956 100.187 316.921 96.56C317.885 92.9332 315.584 89.1786 311.841 88.33ZM318.257 75.0203C316.084 75.0203 314.387 76.7174 314.387 78.7749C314.387 80.8324 316.2 82.5295 318.257 82.5295C320.431 82.5295 322.128 80.8324 322.128 78.7749C322.133 78.2705 322.036 77.7703 321.842 77.3048C321.648 76.8393 321.361 76.4181 320.999 76.0669C320.637 75.7157 320.207 75.4418 319.736 75.2619C319.264 75.0819 318.761 74.9997 318.257 75.0203ZM314.991 61.4664C312.817 61.4664 311.12 63.1635 311.12 65.221C311.12 67.2785 312.934 68.9756 314.991 68.9756C317.165 68.9756 318.862 67.2785 318.862 65.221C318.862 63.1635 317.165 61.4664 314.991 61.4664ZM363.394 97.0482C361.221 97.0482 359.524 98.7453 359.524 100.803C359.524 102.86 361.221 104.557 363.394 104.557C365.568 104.557 367.265 102.86 367.265 100.803C367.265 98.7453 365.568 97.0482 363.394 97.0482ZM360.128 83.6222C357.954 83.6222 356.257 85.3193 356.257 87.3768C356.257 89.4343 357.954 91.1315 360.128 91.1315C362.302 91.1315 363.999 89.4343 363.999 87.3768C363.999 85.3193 362.302 83.6222 360.128 83.6222ZM354.316 71.7655C352.142 71.7655 350.445 73.4626 350.445 75.5201C350.445 77.5776 352.258 79.2747 354.316 79.2747C356.49 79.2747 358.187 77.5776 358.187 75.5201C358.187 73.4626 356.49 71.7655 354.316 71.7655ZM344.993 61.2339C342.82 61.2339 341.122 62.931 341.122 64.9885C341.122 67.046 342.82 68.7432 344.993 68.7432C347.167 68.7432 348.864 67.046 348.864 64.9885C348.864 62.931 347.167 61.2339 344.993 61.2339ZM333.613 53.248C331.439 53.248 329.742 54.9452 329.742 57.0027C329.742 59.0602 331.439 60.7573 333.613 60.7573C335.787 60.7573 337.484 59.0602 337.484 57.0027C337.484 54.9452 335.787 53.248 333.613 53.248ZM321.268 48.5286C319.094 48.5286 317.397 50.2257 317.397 52.2832C317.397 54.3407 319.094 56.0379 321.268 56.0379C323.442 56.0379 325.139 54.3407 325.139 52.2832C325.255 50.2257 323.442 48.5286 321.268 48.5286ZM308.807 49.6213C306.633 49.6213 304.936 51.3184 304.936 53.3759C304.936 55.4334 306.633 57.1305 308.807 57.1305C310.981 57.1305 312.678 55.4334 312.678 53.3759C312.678 51.3184 310.981 49.6213 308.807 49.6213ZM299.612 39.3338C297.438 39.3338 295.741 41.031 295.741 43.0885C295.741 45.1459 297.438 46.8431 299.612 46.8431C301.786 46.8431 303.483 45.1459 303.483 43.0885C303.599 41.031 301.786 39.3338 299.612 39.3338ZM287.628 31.7083C285.454 31.7083 283.757 33.4055 283.757 35.4629C283.757 37.5204 285.454 39.2176 287.628 39.2176C289.801 39.2176 291.498 37.5204 291.498 35.4629C291.498 33.4055 289.801 31.7083 287.628 31.7083ZM275.166 27.233C272.993 27.233 271.296 28.9301 271.296 30.9876C271.296 33.0451 272.993 34.7423 275.166 34.7423C277.34 34.7423 279.037 33.0451 279.037 30.9876C279.154 28.9301 277.34 27.233 275.166 27.233ZM262.461 25.0593C260.287 25.0593 258.59 26.7564 258.59 28.8139C258.59 30.8714 260.287 32.5685 262.461 32.5685C264.635 32.5685 266.332 30.8714 266.332 28.8139C266.332 26.7564 264.635 25.0593 262.461 25.0593ZM141.581 124.4C144.963 122.587 146.184 118.472 144.359 115.205C143.418 113.614 141.898 112.448 140.117 111.952C138.336 111.456 136.432 111.668 134.804 112.543C131.421 114.357 130.2 118.472 132.025 121.738C133.85 125.004 138.198 126.213 141.581 124.4ZM191.681 101.407C195.436 100.442 197.726 96.8041 196.761 93.1773C195.796 89.5506 191.925 87.3652 188.171 88.3416C184.416 89.3181 182.126 92.9448 183.091 96.5716C183.616 98.3344 184.805 99.8241 186.408 100.726C188.011 101.629 189.902 101.873 191.681 101.407ZM250 94.27C253.871 94.27 257.021 91.2477 257.021 87.4931C257.006 86.5868 256.812 85.6924 256.451 84.8611C256.09 84.0298 255.568 83.2779 254.916 82.6484C254.264 82.019 253.494 81.5243 252.65 81.1927C251.807 80.8611 250.906 80.6992 250 80.7161C249.094 80.6992 248.193 80.8611 247.349 81.1927C246.506 81.5243 245.736 82.019 245.084 82.6484C244.432 83.2779 243.91 84.0298 243.549 84.8611C243.188 85.6924 242.994 86.5868 242.979 87.4931C242.979 91.2477 246.129 94.27 250 94.27ZM181.87 82.5295C184.044 82.5295 185.741 80.8324 185.741 78.7749C185.741 76.7174 184.044 75.0203 181.87 75.0203C179.696 75.0203 177.999 76.7174 177.999 78.7749C177.883 80.8324 179.696 82.5295 181.87 82.5295ZM185.137 68.9756C187.31 68.9756 189.008 67.2785 189.008 65.221C189.008 63.1635 187.31 61.4664 185.137 61.4664C182.963 61.4664 181.266 63.1635 181.266 65.221C181.15 67.2785 182.963 68.9756 185.137 68.9756ZM136.617 104.674C138.791 104.674 140.488 102.977 140.488 100.919C140.488 98.8616 138.791 97.1644 136.617 97.1644C134.443 97.1644 132.746 98.8616 132.746 100.919C132.746 102.977 134.443 104.674 136.617 104.674ZM139.883 91.1198C142.057 91.1198 143.754 89.4227 143.754 87.3652C143.724 86.3589 143.303 85.4039 142.58 84.7029C141.858 84.0019 140.89 83.6101 139.883 83.6106C137.71 83.6106 136.013 85.3077 136.013 87.3652C136.013 89.4227 137.71 91.1198 139.883 91.1198ZM145.696 79.2631C147.869 79.2631 149.566 77.566 149.566 75.5085C149.566 73.451 147.869 71.7538 145.696 71.7538C143.522 71.7538 141.825 73.451 141.825 75.5085C141.825 77.566 143.638 79.2631 145.696 79.2631ZM155.018 68.7315C157.192 68.7315 158.889 67.0344 158.889 64.9769C158.889 62.9194 157.192 61.2223 155.018 61.2223C152.844 61.2223 151.147 62.9194 151.147 64.9769C151.147 67.0344 152.844 68.7315 155.018 68.7315ZM166.398 60.7457C168.572 60.7457 170.269 59.0485 170.269 56.991C170.269 54.9336 168.572 53.2364 166.398 53.2364C164.225 53.2364 162.527 54.9336 162.527 56.991C162.527 59.0485 164.341 60.7457 166.398 60.7457ZM178.743 56.1425C180.917 56.1425 182.614 54.4453 182.614 52.3878C182.614 50.3304 180.917 48.6332 178.743 48.6332C176.57 48.6332 174.872 50.3304 174.872 52.3878C174.872 54.4453 176.57 56.1425 178.743 56.1425ZM191.204 57.1073C193.378 57.1073 195.075 55.4102 195.075 53.3527C195.075 51.2952 193.378 49.598 191.204 49.598C189.031 49.598 187.334 51.2952 187.334 53.3527C187.334 55.4102 189.031 57.1073 191.204 57.1073ZM200.399 46.9477C202.573 46.9477 204.27 45.2506 204.27 43.1931C204.27 41.1356 202.573 39.4384 200.399 39.4384C198.226 39.4384 196.528 41.1356 196.528 43.1931C196.528 45.2506 198.226 46.9477 200.399 46.9477ZM212.384 39.206C214.558 39.206 216.255 37.5088 216.255 35.4513C216.255 33.3938 214.558 31.6967 212.384 31.6967C210.21 31.6967 208.513 33.3938 208.513 35.4513C208.513 37.5088 210.21 39.206 212.384 39.206ZM224.845 34.7306C227.019 34.7306 228.716 33.0335 228.716 30.976C228.716 28.9185 227.019 27.2214 224.845 27.2214C222.671 27.2214 220.974 28.9185 220.974 30.976C220.974 33.0335 222.671 34.7306 224.845 34.7306ZM250 71.7538C252.174 71.7538 253.871 70.0567 253.871 67.9992C253.871 65.9417 252.174 64.2446 250 64.2446C247.826 64.2446 246.129 65.9417 246.129 67.9992C246.129 70.0567 247.826 71.7538 250 71.7538ZM250 58.0837C252.174 58.0837 253.871 56.3866 253.871 54.3291C253.871 52.2716 252.174 50.5745 250 50.5745C247.826 50.5745 246.129 52.2716 246.129 54.3291C246.129 56.3866 247.826 58.0837 250 58.0837ZM250 44.4136C252.174 44.4136 253.871 42.7165 253.871 40.659C253.871 38.6015 252.174 36.9044 250 36.9044C247.826 36.9044 246.129 38.6015 246.129 40.659C246.129 42.7165 247.826 44.4136 250 44.4136ZM237.655 32.5569C239.829 32.5569 241.526 30.8597 241.526 28.8023C241.496 27.7959 241.074 26.841 240.352 26.14C239.629 25.439 238.662 25.0472 237.655 25.0476C235.481 25.0476 233.656 26.7448 233.656 28.8023C233.656 30.976 235.47 32.5569 237.655 32.5569ZM345.109 125.132C348.376 126.83 350.922 126.097 354.06 125.016C348.852 122.47 346.074 120.18 348.492 114.252C349.585 111.59 350.91 109.533 353.816 108.684C352.003 85.5751 345.342 74.5553 323.57 64.0353L322 64.5236C322 64.7677 322.117 65.0118 322.117 65.3721C322.117 68.5223 320.303 70.0916 317.885 71.7887C321.756 72.5094 325.267 74.3344 325.267 78.8097C325.267 82.5644 322.605 84.6219 319.222 85.5867C320.315 87.6442 320.559 88.4927 320.315 90.9106C324.79 92.9681 325.755 95.63 324.546 100.105C322.849 106.394 318.978 106.999 312.806 105.429C312.473 107.351 312.805 109.328 313.745 111.037C314.686 112.745 316.18 114.082 317.982 114.829C319.783 115.576 321.785 115.687 323.658 115.145C325.532 114.603 327.165 113.439 328.289 111.846C328.289 111.241 328.405 110.753 328.533 110.149C329.498 106.522 333.369 104.22 337.251 105.185C341.134 106.15 343.424 109.905 342.331 113.531C341.971 114.74 341.366 115.705 340.518 116.554C340.402 120.18 341.971 123.447 345.121 125.144L345.109 125.132ZM243.944 40.5427C243.944 40.0545 244.06 39.5779 244.06 38.9735C215.627 36.916 195.168 55.6775 192.39 82.0529C194.936 83.0177 195.901 84.1104 196.993 86.5282C201.957 86.2841 204.131 88.2254 205.34 92.5729C207.037 98.7453 203.887 101.163 197.714 102.732C199.527 106.731 203.282 109.509 208.118 108.3C209.95 107.882 211.585 106.851 212.751 105.378C213.918 103.905 214.547 102.078 214.534 100.198C213.813 99.1269 213.433 97.8629 213.442 96.5716C213.442 92.817 216.592 89.6784 220.579 89.6784C224.45 89.6784 227.716 92.7007 227.716 96.5716C227.714 97.3109 227.592 98.0449 227.356 98.7453C227.868 100.553 228.965 102.14 230.475 103.257C231.986 104.374 233.824 104.958 235.702 104.918C240.666 104.918 243.572 101.407 244.292 97.0482C238.004 97.0482 234.365 95.4789 234.365 89.0623C234.365 84.4591 236.062 82.1692 240.898 81.1927C241.991 75.5085 245.013 75.1481 249.849 74.4158C254.812 75.2644 257.718 75.5085 258.799 81.1927C263.635 82.1575 265.332 84.4591 265.332 89.0623C265.332 95.4789 261.706 97.0482 255.405 97.0482C256.126 101.407 259.032 104.918 263.996 104.918C265.865 104.92 267.685 104.321 269.187 103.209C270.69 102.098 271.796 100.533 272.342 98.7453C272.105 98.045 271.983 97.3109 271.981 96.5716C271.981 92.817 275.132 89.6784 279.119 89.6784C283.106 89.6784 286.256 92.7007 286.256 96.5716C286.266 97.8631 285.885 99.1276 285.163 100.198C285.279 104.069 287.709 107.336 291.58 108.3C296.416 109.509 300.17 106.731 301.984 102.732C295.811 101.163 292.789 98.7337 294.358 92.5729C295.567 88.2138 297.741 86.2841 302.704 86.5282C303.913 84.1104 304.762 83.0177 307.307 82.0529C304.529 55.6775 284.198 36.916 255.638 38.9735C255.741 39.4898 255.78 40.0169 255.754 40.5427C255.754 41.8795 255.266 42.9606 254.545 44.0533V50.714C255.266 51.8066 255.754 52.8877 255.754 54.2245C255.754 55.5613 255.266 56.6423 254.545 57.735L254.661 64.6282C255.266 65.593 255.754 66.6857 255.754 67.8946C255.754 71.8933 252.732 72.9744 249.709 74.3112C246.687 72.9744 243.665 71.7655 243.665 67.8946C243.665 66.5578 244.153 65.4767 244.874 64.3841V57.8512C244.119 56.8336 243.696 55.6075 243.665 54.3407C243.665 53.0039 244.153 51.9229 244.874 50.8302V44.0533C244.246 42.9896 243.913 41.7779 243.909 40.5427H243.944ZM151.496 114.229C153.798 120.157 151.136 122.459 145.928 124.993C149.078 126.086 151.612 126.806 154.879 125.109C156.381 124.341 157.607 123.126 158.388 121.631C159.169 120.135 159.466 118.434 159.238 116.763C158.386 115.926 157.762 114.886 157.424 113.741C157.019 111.928 157.337 110.029 158.309 108.447C159.281 106.865 160.832 105.724 162.632 105.267C163.669 104.994 164.753 104.958 165.805 105.161C166.858 105.365 167.851 105.803 168.711 106.443C169.57 107.083 170.275 107.908 170.772 108.857C171.27 109.807 171.547 110.856 171.583 111.927C177.023 118.82 188.043 115.194 187.066 105.511C180.894 106.964 177.023 106.359 175.326 100.187C174.117 95.8277 175.082 93.0495 179.557 90.992C179.291 89.1442 179.677 87.2615 180.65 85.6681C177.267 84.7032 174.605 82.6458 174.605 78.8911C174.605 74.2879 178.116 72.6024 181.986 71.8701C179.685 70.0567 177.871 68.6037 177.871 65.4535C177.871 65.2094 177.871 64.849 176.302 64.3608C154.158 74.8924 147.986 85.5402 146.056 108.893C149.078 109.614 150.415 111.555 151.496 114.217V114.229ZM339.786 136.129C312.562 123.784 282.06 116.763 250 116.763C217.94 116.763 187.566 123.656 160.331 136.001C158.517 136.85 156.46 136.001 155.611 134.304C154.762 132.491 155.611 131.154 156.46 129.701C150.892 131.398 146.777 131.398 141.941 127.759C132.99 133.572 122.703 121.587 129.48 116.147C126.33 112.148 126.33 107.801 130.933 104.895C130.062 103.7 129.593 102.258 129.596 100.78C129.596 96.3042 133.107 94.4909 136.977 93.7585C134.676 92.0614 132.862 90.4921 132.862 87.3419C132.862 82.7387 136.617 80.8091 140.604 80.4488C139.511 78.7516 138.663 77.5427 138.663 75.4852C138.663 71.7306 141.813 68.7083 145.8 68.7083C147.009 68.7083 148.218 69.0686 149.311 69.429C148.59 67.8597 147.974 66.6508 147.974 64.9537C147.974 61.199 151.124 58.1767 155.111 58.1767C157.052 58.1767 158.134 58.8974 159.831 59.6298C159.551 58.7678 159.387 57.8727 159.342 56.9678C159.342 53.2132 162.493 50.0746 166.48 50.0746C168.653 50.0746 169.862 50.9232 171.56 52.0159C172.408 48.3891 174.466 45.483 178.697 45.483C181.847 45.483 183.66 47.1802 185.23 49.4818C186.927 47.6684 188.496 46.4595 191.158 46.4595C192.251 46.4595 193.215 46.7036 194.308 46.9477C193.653 45.758 193.279 44.4337 193.215 43.0768C193.215 39.3222 196.366 36.2999 200.237 36.2999C202.538 36.2999 203.747 37.2647 205.56 38.3574C205.444 37.5088 205.072 36.4161 205.072 35.4513C205.072 31.6967 208.222 28.6744 212.21 28.6744C214.511 28.6744 215.72 29.523 217.417 30.7319C218.266 27.1051 220.323 24.1991 224.682 24.1991C227.344 24.1991 228.797 25.2917 230.494 26.9773C231.831 24.0712 233.761 22.0137 237.388 22.0137C238.343 22.0403 239.285 22.2453 240.166 22.6182C242.023 20.4072 244.592 18.9113 247.431 18.3869V11.1334H241.503V6.77432H247.431V1.57828H252.15V6.78594H258.079V11.0172H252.15V18.2823C254.98 18.8335 257.54 20.3245 259.416 22.5135C260.296 22.1407 261.238 21.9357 262.194 21.9091C265.821 21.9091 267.762 24.0828 269.087 26.8726C270.784 25.1755 272.353 24.0944 274.899 24.0944C279.258 24.0944 281.316 27.1167 282.036 30.6273C283.733 29.4183 285.059 28.5698 287.36 28.5698C291.231 28.5698 294.498 31.5921 294.498 35.3467C294.498 36.3115 294.253 37.4042 294.137 38.2528C295.951 37.1601 297.159 36.3115 299.461 36.3115C303.332 36.3115 306.598 39.3338 306.598 43.0885C306.598 44.5415 306.11 45.6342 305.506 46.9593C306.532 46.6693 307.59 46.5054 308.656 46.4711C311.318 46.4711 312.887 47.68 314.584 49.4934C316.153 47.0756 317.967 45.4947 321.117 45.4947C325.476 45.4947 327.534 48.517 328.382 52.0275C330.079 50.9348 331.288 50.0862 333.462 50.0862C337.333 50.0862 340.599 53.1085 340.599 56.9794C340.599 57.828 340.355 58.7928 340.239 59.6414C341.808 58.7928 343.017 58.1883 344.842 58.1883C348.713 58.1883 351.979 61.2106 351.979 64.9653C351.979 66.6624 351.375 67.8713 350.643 69.3244C351.852 68.964 352.944 68.6037 354.269 68.6037C358.14 68.6037 361.407 71.626 361.407 75.3806C361.407 77.4381 360.558 78.647 359.465 80.3442C363.58 80.7045 367.335 82.6458 367.335 87.2373C367.335 90.3875 365.522 91.9568 363.22 93.6539C367.091 94.5025 370.601 96.1996 370.601 100.675C370.601 102.372 370.113 103.453 369.265 104.79C373.984 107.696 373.868 111.927 370.718 115.926C374.833 119.192 372.659 124.272 369.265 126.934C365.754 129.596 362.127 130.084 358.257 127.539C353.421 131.165 349.306 131.165 343.738 129.48L344.586 131.177C345.679 134.199 342.889 137.222 339.751 136.141L339.786 136.129ZM169.653 143.022L163.841 140.965L163.353 140.116C162.865 140.36 162.504 140.36 162.144 140.476C160.575 140.593 160.691 138.907 161.423 138.535C188.287 126.318 218.173 119.541 249.884 119.541C281.595 119.541 311.481 126.318 338.344 138.535C339.065 138.895 339.193 140.593 337.623 140.476C337.263 140.476 336.903 140.36 336.415 140.116L335.926 140.965L330.114 143.022L331.811 149.439L331.323 150.531C334.345 151.868 332.288 154.042 330.963 153.437C306.273 142.185 278.805 136.013 249.767 136.013C220.73 136.013 193.262 142.185 168.572 153.437C167.968 153.682 167.235 153.437 166.875 152.717C166.515 151.996 166.875 151.508 167.363 151.02C167.607 150.775 167.968 150.659 168.328 150.531L167.84 149.439L169.653 143.022ZM201.724 138.303L214.069 129.956L199.062 128.387L186.718 136.733L201.724 138.303ZM323.454 146.044C326.232 146.044 328.533 143.871 328.533 141.209C328.533 138.547 326.232 136.373 323.454 136.373C320.675 136.373 318.374 138.547 318.374 141.209C318.49 143.871 320.675 146.044 323.454 146.044ZM224.95 133.455C227.728 133.455 230.029 131.282 230.029 128.62C230.029 125.958 227.728 123.784 224.95 123.784C222.171 123.784 219.87 125.958 219.87 128.62C219.87 131.282 222.171 133.455 224.95 133.455ZM176.546 146.044C179.325 146.044 181.626 143.871 181.626 141.209C181.626 138.547 179.452 136.373 176.546 136.373C173.768 136.373 171.467 138.547 171.467 141.209C171.467 143.871 173.768 146.044 176.546 146.044ZM275.05 133.455C277.828 133.455 280.13 131.282 280.13 128.62C280.13 125.958 277.828 123.784 275.05 123.784C274.406 123.773 273.766 123.89 273.168 124.128C272.569 124.365 272.023 124.719 271.562 125.168C271.1 125.618 270.732 126.154 270.479 126.747C270.226 127.339 270.093 127.976 270.087 128.62C270.087 131.282 272.388 133.455 275.05 133.455ZM298.287 138.291L313.294 136.722L300.949 128.376L285.942 129.945L298.287 138.291ZM265.739 127.283L250 121.61L234.272 127.294L250 132.979L265.739 127.283ZM87.121 320.431C87.121 406.951 160.447 477.742 250 477.742C339.669 477.742 412.995 406.951 412.995 320.431C412.995 233.668 339.669 163.12 250 163.12C160.331 163.12 87.121 233.668 87.121 320.431ZM430.664 320.431C430.664 416.389 349.585 494.807 250 494.807C150.415 494.807 69.3359 416.389 69.3359 320.431C69.3359 224.357 150.415 145.94 250 145.94C349.585 145.824 430.664 224.229 430.664 320.431ZM226.286 246.245L249.884 269.482L271.912 246.978C264.17 245.036 256.788 243.595 248.675 243.351C241.177 242.991 233.552 244.688 226.286 246.257V246.245ZM288.36 230.03L322.965 195.54C367.742 220.347 397.872 266.809 397.872 319.931C397.872 354.537 385.167 386.248 363.743 411.054L347.644 395.443C365.789 374.019 377.657 352.723 377.657 318.606C377.657 282.188 357.931 241.526 326.476 220.474L305.668 241.049C316.316 248.791 324.79 256.533 331.928 267.425L316.072 280.618C309.783 269.97 301.67 262.473 291.266 255.568L249.884 297.683L206.92 254.964C184.66 269.97 171.583 291.382 170.978 318.013C170.258 353.467 193.971 378.029 227.251 388.805V317.653H278.072V332.3H246.978V351.294H277.712V367.998H246.978V391.955C269.726 393.048 294.044 380.343 308.807 364.603L324.058 379.482C304.576 401.266 276.503 412.274 247.094 412.519V434.419H227.368V410.217C182.475 399.453 149.927 361.453 150.531 316.072C150.892 284.977 168.072 259.439 193.006 241.293L171.955 220.242C139.279 246.013 121.738 277.48 120.285 318.374C119.192 354.56 138.558 383.597 150.775 395.814L136.617 409.729C114.717 385.039 101.768 354.548 101.768 319.815C101.768 267.053 131.898 220.591 176.302 195.785L211.396 231.122C223.857 226.519 236.806 224.101 250.116 224.101C262.811 224.291 275.379 226.666 287.267 231.122L288.36 230.03Z" fill="#FCBF00"/>
<path d="M435.988 320.431C435.988 419.296 352.491 500.003 250 500.003C147.381 500.003 64.0117 419.296 64.0117 320.431C64.0117 221.439 147.509 140.616 250 140.616C352.618 140.616 435.988 221.451 435.988 320.431ZM430.664 320.431C430.664 224.357 349.585 145.94 250 145.94C150.415 145.94 69.3356 224.345 69.3356 320.431C69.3356 416.389 150.415 494.807 250 494.807C349.585 494.807 430.664 416.389 430.664 320.431ZM92.4446 320.431C92.4446 404.045 163.353 472.535 250 472.535C336.647 472.535 407.555 404.161 407.555 320.431C407.555 236.574 336.647 168.444 250 168.444C163.364 168.328 92.4446 236.574 92.4446 320.431ZM87.1207 320.431C87.1207 233.668 160.446 163.12 250 163.12C339.669 163.12 412.995 233.668 412.995 320.431C412.995 406.951 339.669 477.742 250 477.742C160.33 477.626 87.1207 406.951 87.1207 320.431ZM269.11 285.698L357.198 373.426C367.242 357.455 372.322 341.122 372.322 318.49C372.322 279.037 349.329 243.107 327.185 227.135L313.875 240.329C323.913 248.031 332.411 257.554 338.925 268.401L314.479 288.848C308.667 277.712 302.495 269.854 291.975 262.473L269.11 285.698ZM380.796 396.907C364.94 422.922 340.738 443.497 312.061 455.842L297.799 441.8L271.179 415.541C265.012 416.882 258.728 417.61 252.417 417.715V439.743H221.927V414.332C176.186 402.347 144.603 360.965 145.091 316.072C145.207 308.575 146.3 301.309 148.113 294.288L133.106 279.526C128.631 291.626 126.085 304.692 125.609 318.606C124.76 346.435 137.349 376.565 158.284 395.803L136.256 417.459C110.358 389.386 96.1992 357.803 96.1992 319.804C96.1992 264.379 127.666 215.976 177.15 189.356L212.604 225.171C224.345 221.056 237.655 218.998 249.872 218.998C263.065 219.114 275.038 221.416 285.814 225.171L321.872 188.984C371.729 215.732 403.184 264.135 403.184 319.908C403.3 348.225 395.442 373.88 380.796 396.872V396.907ZM221.788 367.021L176.302 322.245C177.395 347.295 193.238 371.008 221.799 381.54L221.788 367.021ZM288.36 230.03L287.151 231.238C275.294 226.671 262.706 224.296 250 224.229C236.69 224.229 223.74 226.647 211.279 231.25L176.186 195.912C131.781 220.602 101.651 267.064 101.651 319.827C101.651 354.676 114.6 385.05 136.501 409.74L150.659 395.826C138.442 383.609 119.076 354.56 120.168 318.385C121.621 277.48 139.162 246.025 171.838 220.254L192.89 241.305C167.967 259.451 150.775 284.989 150.415 316.084C149.81 361.465 182.242 399.453 227.251 410.229V434.43H246.977V412.507C276.503 412.263 304.575 401.255 323.941 379.471L308.69 364.592C293.928 380.319 269.726 393.153 246.861 391.944V367.986H277.596V351.282H246.861V332.288H277.956V317.641H227.135V388.793C193.855 378.029 170.025 353.456 170.862 318.002C171.466 291.382 184.532 269.959 206.804 254.952L249.767 297.671L291.149 255.556C301.681 262.45 309.667 269.959 315.956 280.607L331.811 267.413C324.674 256.521 316.2 248.779 305.552 241.038L326.359 220.463C357.826 241.514 377.541 282.176 377.541 318.595C377.541 352.596 365.684 374.019 347.527 395.431L363.627 411.042C385.654 385.798 397.78 353.423 397.755 319.92C397.755 266.797 367.625 220.335 322.849 195.529L288.36 230.03ZM226.286 246.245C233.551 244.676 241.165 242.979 248.674 243.223C256.777 243.467 264.158 244.92 271.911 246.85L249.883 269.354L226.286 246.245ZM237.05 249.396L249.756 261.985L261.612 249.884C257.381 249.035 253.022 248.675 248.419 248.547C245.641 248.431 241.398 248.791 237.039 249.396H237.05ZM331.683 143.754L332.776 147.986L333.264 149.439L334.113 148.95L338.228 146.777L337.135 142.662L336.891 141.813L331.683 143.754ZM339.785 136.129C342.935 137.222 345.714 134.071 344.261 131.409L343.412 129.712C348.98 131.409 353.095 131.409 357.931 127.771C361.802 130.317 365.312 129.829 368.939 127.167C372.449 124.505 374.507 119.425 370.392 116.158C373.542 112.16 373.658 107.812 368.939 105.022C369.787 103.686 370.276 102.605 370.276 100.907C370.276 96.4321 366.765 94.6187 362.894 93.8864C365.196 92.073 367.009 90.62 367.009 87.4698C367.009 82.8666 363.255 80.937 359.14 80.5767C360.232 78.8795 361.081 77.7985 361.081 75.6131C361.081 71.8585 357.931 68.8362 353.944 68.8362C352.735 68.8362 351.526 69.1965 350.317 69.5569C351.038 67.9876 351.654 66.8949 351.654 65.1978C351.654 61.4431 348.503 58.4208 344.516 58.4208C342.575 58.4208 341.494 59.0253 339.913 59.8739C340.029 59.0253 340.273 58.0605 340.273 57.2119C340.24 55.3518 339.469 53.581 338.131 52.2886C336.793 50.9961 334.996 50.2876 333.136 50.3187C330.962 50.3187 329.754 51.1673 328.056 52.26C327.208 48.6332 325.15 45.7272 320.791 45.7272C317.641 45.7272 315.828 47.4243 314.258 49.7259C312.561 47.9125 310.992 46.7036 308.33 46.7036C307.237 46.7036 306.156 46.9477 305.18 47.1918C305.784 45.855 306.273 44.774 306.273 43.3209C306.273 39.5663 303.122 36.544 299.135 36.544C296.834 36.544 295.625 37.3926 293.811 38.4853C293.928 37.6367 294.172 36.544 294.172 35.5792C294.172 31.8246 291.022 28.8023 287.034 28.8023C284.733 28.8023 283.524 29.6508 281.711 30.8598C280.862 27.233 278.805 24.3269 274.573 24.3269C271.911 24.3269 270.458 25.4196 268.761 27.1051C267.308 24.1991 265.495 22.1416 261.868 22.1416C260.775 22.1416 260.055 22.3857 259.09 22.746C257.233 20.5351 254.664 19.0392 251.825 18.5148V11.2497H257.753V6.77432H251.825V1.57828H247.105V6.78594H241.177V11.0172H247.105V18.2823C244.083 19.003 242.142 20.0957 239.84 22.5135C238.96 22.141 238.017 21.936 237.062 21.9091C233.435 21.9091 231.494 24.0828 230.169 26.8726C228.472 25.1755 226.902 24.0944 224.357 24.0944C219.997 24.0944 217.94 27.1167 217.091 30.6273C215.394 29.4183 214.069 28.5698 211.884 28.5698C208.013 28.5698 204.746 31.5921 204.746 35.3467C204.746 36.3115 204.991 37.4042 205.235 38.2528C203.421 37.1601 202.084 36.1953 199.911 36.1953C199.005 36.1783 198.104 36.3403 197.26 36.6719C196.417 37.0034 195.647 37.4981 194.995 38.1276C194.343 38.7571 193.821 39.509 193.46 40.3403C193.099 41.1716 192.905 42.066 192.89 42.9722C192.89 44.4252 193.378 45.5179 193.982 46.8431C192.89 46.599 191.925 46.3549 190.832 46.3549C188.17 46.3549 186.601 47.5638 184.904 49.3772C183.335 46.9593 181.521 45.3784 178.371 45.3784C174.012 45.3784 171.954 48.4007 171.234 51.9113C169.897 50.9464 168.572 50.0979 166.398 50.0979C164.538 50.0668 162.741 50.7752 161.403 52.0677C160.065 53.3601 159.294 55.1309 159.261 56.9911C159.261 57.8396 159.505 58.8044 159.621 59.653C158.261 58.7211 156.655 58.2153 155.006 58.2C151.135 58.2 147.869 61.2223 147.869 64.9769C147.869 66.674 148.473 67.883 149.206 69.336C148.113 69.0919 147.032 68.7315 145.695 68.7315C141.824 68.7315 138.558 71.7538 138.558 75.5085C138.558 77.566 139.407 78.7749 140.499 80.472C136.501 80.8324 132.874 82.7736 132.874 87.3652C132.874 90.5154 134.687 92.0846 136.989 93.7818C133.118 94.6304 129.607 96.3275 129.607 100.803C129.607 102.5 130.096 103.581 130.944 104.918C126.341 107.824 126.341 112.183 129.491 116.17C122.714 121.61 133.002 133.711 141.952 127.783C146.788 131.409 150.903 131.409 156.471 129.724C155.75 131.293 154.774 132.63 155.622 134.327C155.815 134.754 156.091 135.138 156.434 135.455C156.778 135.773 157.182 136.019 157.622 136.177C158.062 136.335 158.53 136.403 158.997 136.377C159.465 136.351 159.922 136.231 160.342 136.024C187.566 123.679 217.94 116.786 250.011 116.786C282.199 116.902 312.573 123.807 339.797 136.152L339.785 136.129ZM168.316 143.754L164.561 142.418L163.108 141.929L162.864 142.778L161.772 146.777L165.887 148.95L166.735 149.439L167.096 147.869L168.316 143.754ZM165.898 150.287L160.458 147.381L161.795 142.174C159.737 141.929 158.773 139.628 159.737 138.059C158.622 138.222 157.483 138.029 156.483 137.507C155.483 136.985 154.674 136.161 154.169 135.152C153.681 134.188 153.565 133.211 153.681 132.246C151.662 132.652 149.582 132.647 147.565 132.231C145.548 131.816 143.635 130.999 141.941 129.829C132.386 135.397 121.133 122.087 127.294 115.914C124.516 111.916 125.237 107.08 128.747 104.418C128.156 103.303 127.864 102.053 127.899 100.791C127.899 97.2807 130.2 94.2584 133.339 92.9216C131.939 91.4054 131.163 89.4171 131.165 87.3536C131.165 83.3548 134.071 80.0884 137.826 79.1236C137.234 78.0082 136.942 76.7588 136.977 75.4968C136.977 70.7774 140.848 67.0228 145.695 67.0228H146.544C146.242 65.7537 146.235 64.4326 146.522 63.1603C146.81 61.888 147.384 60.6982 148.202 59.682C149.02 58.6657 150.059 57.8499 151.24 57.2969C152.422 56.7439 153.714 56.4683 155.018 56.4912C155.918 56.4835 156.814 56.6048 157.68 56.8516C157.68 52.2484 161.679 48.5054 166.398 48.5054C167.788 48.5078 169.158 48.8384 170.397 49.4702C171.606 46.2038 174.872 43.9022 178.627 43.9022C179.918 43.9001 181.194 44.1811 182.365 44.7254C183.536 45.2696 184.573 46.0639 185.404 47.0523C187.026 45.6815 189.093 44.9498 191.216 44.9948H191.82C191.704 44.3904 191.576 43.7859 191.576 43.1814C191.576 38.462 195.447 34.7074 200.294 34.7074C201.503 34.7074 202.596 34.9515 203.561 35.3118C203.677 30.7086 207.56 26.9656 212.279 26.9656C213.848 26.9656 215.301 27.326 216.51 28.0583C217.719 24.7919 220.986 22.4903 224.74 22.4903C226.798 22.4903 228.611 23.0948 230.064 24.3037C231.633 22.0021 234.295 20.4328 237.445 20.4328C238.294 20.4328 239.015 20.549 239.747 20.7932C241.2 19.3401 242.897 18.2474 244.955 17.4105L245.803 17.0501V12.6911H239.875V5.20504H245.803V-0.00261688H253.905V5.20504H259.834V12.7027H253.905V17.0618L254.754 17.4221C256.731 18.1253 258.515 19.2841 259.962 20.8048C260.682 20.5607 261.415 20.4444 262.263 20.4444C265.413 20.4444 268.075 22.0137 269.645 24.3153C271.098 23.2226 273.027 22.5019 274.969 22.5019C278.723 22.5019 281.99 24.8035 283.198 28.0699C284.407 27.3492 285.86 26.9773 287.43 26.9773C292.265 26.9773 296.148 30.7319 296.148 35.3235C297.113 34.9631 298.205 34.719 299.414 34.719C304.25 34.719 308.132 38.4736 308.132 43.1931C308.132 43.7975 308.132 44.402 307.888 45.0065H308.493C310.603 45.0407 312.643 45.7632 314.305 47.0639C315.874 45.1227 318.304 43.9138 321.082 43.9138C324.836 43.9138 328.103 46.2154 329.312 49.4818C330.55 48.85 331.92 48.5195 333.311 48.517C338.146 48.517 342.029 52.2716 342.029 56.8632C342.894 56.6168 343.791 56.4954 344.691 56.5028C349.526 56.5028 353.409 60.2575 353.409 64.9769C353.409 65.6976 353.293 66.4299 353.165 67.1506H354.013C358.849 67.1506 362.732 70.9053 362.732 75.6247C362.732 76.9615 362.371 78.1704 361.883 79.2515C365.754 80.1001 368.544 83.4827 368.544 87.4814C368.535 89.6015 367.711 91.6369 366.242 93.1657C367.868 93.7433 369.276 94.8096 370.273 96.2183C371.27 97.6271 371.807 99.3096 371.81 101.035C371.81 102.372 371.45 103.581 370.961 104.662C374.472 107.324 375.193 112.16 372.415 116.158C376.285 120.029 372.903 126.202 369.636 128.748C366.486 131.165 362.011 132.618 357.652 130.084C354.269 132.386 350.026 133.351 345.911 132.502C346.399 135.885 343.249 138.791 339.867 138.314C340.831 139.884 339.867 142.185 337.809 142.429L339.146 147.637L333.706 150.543C334.427 151.392 334.554 152.6 334.066 153.693C333.345 155.146 331.648 155.995 330.067 155.262C305.622 144.126 278.398 137.954 249.477 137.954C221.721 137.886 194.275 143.789 169.002 155.262C167.433 155.983 165.735 155.146 165.003 153.693C165.119 152.356 165.247 151.147 165.968 150.31L165.898 150.287ZM169.653 143.022L167.956 149.439L168.444 150.531C168.2 150.648 167.839 150.775 167.479 151.02C166.991 151.38 166.631 151.868 166.991 152.717C167.351 153.437 168.084 153.682 168.688 153.437C193.378 142.185 220.846 136.013 249.883 136.013C279.049 136.013 306.389 142.185 331.079 153.437C332.288 154.042 334.461 151.868 331.439 150.531L331.927 149.439L330.23 143.022L336.042 140.965L336.53 140.116C337.019 140.36 337.379 140.36 337.739 140.476C339.309 140.593 339.192 138.907 338.46 138.535C310.675 125.94 280.506 119.466 250 119.553C218.3 119.553 188.403 126.33 161.539 138.547C160.818 138.907 160.691 140.604 162.26 140.488C162.62 140.488 162.981 140.372 163.469 140.128L163.829 140.976L169.653 143.022ZM302.518 68.2433C295.625 51.423 279.409 39.4384 257.869 40.5311C257.869 41.9842 257.381 43.3093 256.66 44.5299V50.2141C257.381 51.423 257.869 52.7598 257.869 54.2129C257.869 55.6659 257.381 57.1189 256.66 58.2116V61.8384C271.423 59.8971 288.848 61.3501 302.518 68.2549V68.2433ZM256.532 64.0121C257.56 65.5516 257.956 67.4269 257.641 69.2506C257.325 71.0743 256.32 72.7069 254.835 73.8113C257.497 74.6599 259.555 76.5895 260.275 79.9838C265.599 81.1927 267.052 85.0636 267.052 89.1786C267.052 94.1421 264.995 98.3734 257.497 98.7337C258.346 101.512 261.008 103.453 264.158 103.453C265.591 103.465 266.992 103.027 268.164 102.201C269.336 101.376 270.219 100.204 270.691 98.85C270.447 98.1293 270.447 97.3969 270.447 96.6762C270.447 91.9568 274.445 88.2021 279.281 88.2021C284.117 88.2021 288.116 91.9568 288.116 96.6762C288.116 98.1293 287.755 99.4544 287.023 100.675C287.139 103.581 289.197 105.999 292.23 106.847C295.253 107.568 298.275 106.359 299.856 103.825C292.719 101.651 291.754 97.0482 293.079 92.2125C294.172 88.2138 296.59 84.8311 301.913 84.9474C302.878 83.0061 304.215 81.7972 305.784 81.0765C305.296 77.0778 304.448 73.3347 303.006 69.6964C288.964 62.1987 270.702 60.8619 256.544 62.9194L256.532 64.0121ZM243.943 40.5311C243.943 41.8679 244.432 42.949 245.152 44.0416V50.7023C244.432 51.795 243.943 52.8761 243.943 54.2129C243.943 55.5496 244.432 56.6307 245.152 57.7234V64.5003C244.432 65.593 243.943 66.674 243.943 68.0108C243.943 72.0096 246.966 73.0906 249.988 74.4274C253.01 73.0906 256.033 71.8817 256.033 68.0108C256.033 66.8019 255.672 65.593 254.94 64.7444L254.824 57.8512C255.544 56.7586 256.033 55.6775 256.033 54.3407C256.033 53.0039 255.544 51.9229 254.824 50.8302V44.0533C255.544 42.9606 256.033 41.8795 256.033 40.5427C256.033 40.0545 255.916 39.5779 255.916 38.9735C284.349 36.916 304.808 55.6775 307.586 82.0529C305.04 83.0177 304.076 84.1104 302.983 86.5283C298.019 86.2841 295.846 88.2254 294.637 92.5729C292.94 98.7453 296.09 101.163 302.262 102.732C300.449 106.731 296.694 109.509 291.859 108.3C290.027 107.88 288.394 106.849 287.228 105.376C286.061 103.903 285.431 102.077 285.442 100.198C286.163 99.1269 286.544 97.8629 286.535 96.5716C286.501 94.7115 285.73 92.9407 284.392 91.6483C283.054 90.3558 281.258 89.6473 279.397 89.6784C277.537 89.6473 275.741 90.3558 274.402 91.6483C273.064 92.9407 272.294 94.7115 272.26 96.5716C272.262 97.3109 272.384 98.0449 272.62 98.7453C272.091 100.543 270.99 102.118 269.483 103.232C267.977 104.347 266.148 104.938 264.274 104.918C259.311 104.918 256.405 101.407 255.684 97.0482C261.973 97.0482 265.611 95.4789 265.611 89.0623C265.611 84.4591 263.914 82.1692 259.078 81.1927C257.985 75.5085 254.963 75.1481 250.127 74.4158C245.164 75.2644 242.258 75.5085 241.177 81.1927C236.341 82.1575 234.644 84.4591 234.644 89.0623C234.644 95.4789 238.271 97.0482 244.571 97.0482C243.85 101.407 240.944 104.918 235.981 104.918C234.112 104.92 232.292 104.321 230.789 103.209C229.286 102.098 228.18 100.533 227.635 98.7453C227.871 98.0449 227.993 97.3109 227.995 96.5716C227.961 94.7115 227.191 92.9407 225.853 91.6483C224.514 90.3558 222.718 89.6473 220.858 89.6784C216.859 89.6784 213.72 92.7007 213.72 96.5716C213.71 97.8631 214.091 99.1276 214.813 100.198C214.697 104.069 212.267 107.336 208.396 108.3C203.561 109.509 199.806 106.731 197.993 102.732C204.165 101.163 207.188 98.7337 205.618 92.5729C204.409 88.2138 202.236 86.2841 197.272 86.5283C196.063 84.1104 195.215 83.0177 192.669 82.0529C195.447 55.6775 215.778 36.916 244.339 38.9735C244.118 39.4683 243.996 40.0013 243.978 40.5427L243.943 40.5311ZM196.877 69.8242C195.54 73.451 194.575 77.2056 194.215 81.2044C195.784 81.9251 197.121 83.1456 198.086 85.0752C203.526 84.959 205.955 88.3416 207.036 92.3404C208.373 97.1761 207.397 101.779 200.259 103.953C201.829 106.371 204.863 107.708 207.885 106.975C210.907 106.243 212.965 103.709 213.093 100.803C212.366 99.5964 211.988 98.2123 212 96.8041C212 92.0846 215.999 88.33 220.834 88.33C225.67 88.33 229.669 92.0846 229.669 96.8041C229.669 97.5248 229.553 98.2571 229.425 98.9778C229.911 100.322 230.798 101.485 231.966 102.308C233.135 103.131 234.528 103.576 235.958 103.581C239.108 103.581 241.642 101.64 242.618 98.8616C235.121 98.5012 233.063 94.2584 233.063 89.3065C233.063 85.0752 234.516 81.3206 239.84 80.1117C240.139 78.7014 240.796 77.3922 241.749 76.3108C242.702 75.2294 243.919 74.4125 245.28 73.9392C244.395 73.2465 243.675 72.3656 243.173 71.3604C242.67 70.3552 242.397 69.2507 242.374 68.1271C242.374 66.674 242.862 65.221 243.583 64.1283V62.9194C229.181 60.9782 210.907 62.315 196.877 69.8126V69.8242ZM242.258 40.5427C220.602 39.3338 204.502 51.4347 197.481 68.2549C211.035 61.478 228.576 59.7809 243.339 61.8384V58.2C242.618 56.9911 242.13 55.6543 242.13 54.2012C242.13 52.7482 242.618 51.2952 243.339 50.2025V44.5182C242.652 43.2954 242.276 41.922 242.246 40.5195L242.258 40.5427ZM330.346 117.507L330.835 117.147C331.799 117.867 332.648 118.355 333.857 118.716C334.345 118.832 334.95 118.832 335.426 118.96C336.031 121.982 337.123 124.4 339.297 126.585L338.332 127.922C333.125 125.709 327.836 123.693 322.477 121.878L322.721 120.308C325.383 120.064 328.161 119.099 330.346 117.53V117.507ZM330.835 119.076C329.382 120.041 327.684 120.773 325.999 121.25C329.374 122.467 332.723 123.758 336.042 125.121C335.085 123.68 334.389 122.083 333.985 120.401L333.497 120.285C332.532 120.041 331.683 119.564 330.835 119.076ZM249.151 98.6291H250.848C251.453 102.988 254.359 106.731 258.346 108.556L257.985 110.125C255.324 110.009 252.662 110.009 250 110.009C247.338 110.009 244.676 110.009 242.014 110.125L241.653 108.556C245.652 106.615 248.547 102.988 249.151 98.6291ZM250 101.896C249.035 104.441 247.338 106.615 245.036 108.312C246.733 108.312 248.302 108.196 250 108.196C251.655 108.174 253.311 108.213 254.963 108.312C252.753 106.662 251.037 104.439 250 101.884V101.896ZM161.783 127.794L160.818 126.458C162.992 124.156 164.085 121.854 164.689 118.832C166.326 118.766 167.896 118.171 169.165 117.135C171.71 118.948 174.244 120.041 177.395 120.157L177.639 121.726C172.28 123.542 166.991 125.558 161.783 127.771V127.794ZM164.085 125.132C167.404 123.769 170.753 122.479 174.128 121.262C172.431 120.773 170.746 120.053 169.292 119.088C168.572 119.576 167.595 119.936 166.747 120.18L166.259 120.297C165.654 121.994 165.05 123.679 164.085 125.132ZM203.41 113.148V114.717C198.282 115.783 193.195 117.035 188.159 118.472L187.438 117.019C190.704 114.24 192.646 109.998 192.041 105.639L193.61 105.278C195.308 109.393 199.051 112.299 203.41 113.148ZM200.027 113.752C197.519 112.699 195.346 110.983 193.738 108.789C193.378 111.451 192.401 113.996 190.716 116.054C193.738 115.205 196.888 114.485 200.039 113.752H200.027ZM214.185 112.66L213.581 111.207C216.603 109.265 218.544 106.731 219.753 103.465H220.718C221.683 103.465 222.415 103.221 223.38 102.977C225.438 105.883 227.855 107.94 231.366 108.905L231.25 110.474C225.545 111.064 219.856 111.789 214.185 112.648V112.66ZM220.962 105.162C220.114 107.219 218.789 109.033 217.091 110.602L227.855 109.265C225.851 108.22 224.113 106.729 222.776 104.906C222.171 105.022 221.567 105.15 220.962 105.15V105.162ZM268.761 110.602L268.645 109.033C271.895 108.006 274.707 105.919 276.631 103.104C277.596 103.349 278.328 103.593 279.293 103.593H280.258C281.466 106.859 283.408 109.405 286.43 111.334L285.826 112.787C280.258 111.823 274.573 111.09 268.761 110.614V110.602ZM279.049 105.162C278.475 105.149 277.905 105.067 277.351 104.918C276.015 106.731 274.201 108.184 272.144 109.277C275.771 109.637 279.409 109.998 282.908 110.614C281.355 109.165 280.083 107.443 279.153 105.534L279.049 105.162ZM312.689 117.019L311.968 118.472C307.005 117.019 301.925 115.81 296.717 114.717V113.148C300.949 112.299 304.703 109.393 306.4 105.406L307.97 105.766C307.735 107.889 308.045 110.036 308.87 112.004C309.696 113.973 311.011 115.699 312.689 117.019ZM309.423 116.054C307.726 113.996 306.645 111.451 306.4 108.789C304.831 110.962 302.53 112.66 300.112 113.752L309.434 116.054H309.423ZM311.841 88.3416C308.086 87.3768 304.215 89.5506 303.25 93.1773C302.285 96.8041 304.587 100.559 308.33 101.407C312.085 102.372 315.956 100.198 316.92 96.5716C317.885 92.9448 315.584 89.1902 311.841 88.3416ZM312.085 87.249C316.444 88.3416 319.106 92.5729 318.013 96.8041C316.92 101.035 312.445 103.581 308.086 102.488C307.065 102.257 306.101 101.826 305.249 101.218C304.397 100.611 303.674 99.8407 303.122 98.9515C302.57 98.0624 302.201 97.0724 302.035 96.0392C301.87 95.006 301.911 93.9502 302.158 92.9332C303.25 88.702 307.726 86.1563 312.085 87.249ZM318.257 75.0319C316.083 75.0319 314.386 76.729 314.386 78.7865C314.386 80.844 316.2 82.5411 318.257 82.5411C320.431 82.5411 322.128 80.844 322.128 78.7865C322.133 78.2821 322.036 77.782 321.841 77.3164C321.647 76.8509 321.36 76.4297 320.998 76.0785C320.636 75.7273 320.207 75.4534 319.735 75.2735C319.264 75.0936 318.761 75.0114 318.257 75.0319ZM318.257 73.9392C321.035 73.9392 323.337 76.1129 323.337 78.7749C323.337 81.4368 321.035 83.6106 318.257 83.6106C315.479 83.6106 313.177 81.4368 313.177 78.7749C313.177 76.1129 315.479 73.9392 318.257 73.9392ZM314.991 61.478C312.817 61.478 311.12 63.1752 311.12 65.2326C311.12 67.2901 312.933 68.9873 314.991 68.9873C317.164 68.9873 318.862 67.2901 318.862 65.2326C318.862 63.1752 317.164 61.478 314.991 61.478ZM314.991 60.3853C317.769 60.3853 320.071 62.5591 320.071 65.221C320.071 67.883 317.769 70.0567 314.991 70.0567C312.213 70.0567 309.911 67.883 309.911 65.221C309.911 62.5591 312.213 60.3853 314.991 60.3853ZM363.394 97.0482C361.22 97.0482 359.523 98.7453 359.523 100.803C359.523 102.86 361.22 104.557 363.394 104.557C365.568 104.557 367.265 102.86 367.265 100.803C367.265 98.7453 365.568 97.0482 363.394 97.0482ZM363.394 95.9555C366.172 95.9555 368.474 98.1292 368.474 100.791C368.474 103.453 366.172 105.627 363.394 105.627C360.616 105.627 358.314 103.453 358.314 100.791C358.314 98.1292 360.616 95.9555 363.394 95.9555ZM360.128 83.6106C357.954 83.6106 356.257 85.3077 356.257 87.3652C356.257 89.4227 357.954 91.1198 360.128 91.1198C362.301 91.1198 363.999 89.4227 363.999 87.3652C363.999 85.3077 362.301 83.6106 360.128 83.6106ZM360.128 82.5179C362.906 82.5179 365.207 84.6916 365.207 87.3536C365.207 90.0155 362.906 92.1893 360.128 92.1893C357.35 92.1893 355.048 90.0155 355.048 87.3536C355.164 84.6916 357.35 82.5179 360.128 82.5179ZM354.316 71.7538C352.142 71.7538 350.445 73.451 350.445 75.5085C350.445 77.566 352.258 79.2631 354.316 79.2631C356.489 79.2631 358.186 77.566 358.186 75.5085C358.186 73.451 356.489 71.7538 354.316 71.7538ZM354.316 70.6612C357.094 70.6612 359.395 72.8349 359.395 75.4968C359.395 78.1588 357.094 80.3325 354.316 80.3325C351.537 80.3325 349.236 78.1588 349.236 75.4968C349.236 72.8349 351.537 70.6612 354.316 70.6612ZM344.993 61.2223C342.819 61.2223 341.122 62.9194 341.122 64.9769C341.122 67.0344 342.819 68.7315 344.993 68.7315C347.167 68.7315 348.864 67.0344 348.864 64.9769C348.864 62.9194 347.167 61.2223 344.993 61.2223ZM344.993 60.1296C347.771 60.1296 350.073 62.3033 350.073 64.9653C350.073 67.6272 347.899 69.8242 344.993 69.8242C342.215 69.8242 339.913 67.6505 339.913 64.9885C340.029 62.3266 342.215 60.1529 344.993 60.1529V60.1296ZM333.613 53.2364C331.439 53.2364 329.742 54.9336 329.742 56.9911C329.742 59.0485 331.439 60.7457 333.613 60.7457C335.787 60.7457 337.484 59.0485 337.484 56.9911C337.484 54.9336 335.787 53.2364 333.613 53.2364ZM333.613 52.1437C336.391 52.1437 338.693 54.3175 338.693 56.9794C338.693 59.6414 336.391 61.8151 333.613 61.8151C330.835 61.8151 328.533 59.6414 328.533 56.9794C328.533 54.3175 330.835 52.1437 333.613 52.1437ZM321.268 48.517C319.094 48.517 317.397 50.2141 317.397 52.2716C317.397 54.3291 319.094 56.0262 321.268 56.0262C323.442 56.0262 325.139 54.3291 325.139 52.2716C325.255 50.2141 323.442 48.517 321.268 48.517ZM321.268 47.4243C324.046 47.4243 326.348 49.598 326.348 52.26C326.348 54.9219 324.046 57.0957 321.268 57.0957C318.49 57.0957 316.188 54.9219 316.188 52.26C316.304 49.598 318.49 47.4243 321.268 47.4243ZM308.807 49.598C306.633 49.598 304.936 51.2952 304.936 53.3527C304.936 55.4102 306.633 57.1073 308.807 57.1073C310.98 57.1073 312.678 55.4102 312.678 53.3527C312.678 51.2952 310.98 49.598 308.807 49.598ZM308.807 48.5054C311.585 48.5054 313.886 50.6791 313.886 53.341C313.886 56.003 311.596 58.2 308.807 58.2C306.017 58.2 303.727 56.0262 303.727 53.3643C303.727 50.7023 306.028 48.5286 308.807 48.5286V48.5054ZM299.612 39.3106C297.438 39.3106 295.741 41.0077 295.741 43.0652C295.741 45.1227 297.438 46.8198 299.612 46.8198C301.786 46.8198 303.483 45.1227 303.483 43.0652C303.599 41.0077 301.786 39.3106 299.612 39.3106ZM299.612 38.3458C302.39 38.3458 304.692 40.5195 304.692 43.1814C304.692 45.8434 302.39 48.0171 299.612 48.0171C296.834 48.0171 294.532 45.8434 294.532 43.1814C294.648 40.5195 296.834 38.3458 299.612 38.3458ZM287.627 31.6851C285.454 31.6851 283.756 33.3822 283.756 35.4397C283.756 37.4972 285.454 39.1943 287.627 39.1943C289.801 39.1943 291.498 37.4972 291.498 35.4397C291.498 33.3822 289.801 31.6851 287.627 31.6851ZM287.627 30.5924C290.405 30.5924 292.707 32.7661 292.707 35.4281C292.707 38.09 290.405 40.2638 287.627 40.2638C284.849 40.2638 282.547 38.09 282.547 35.4281C282.664 32.7661 284.849 30.5924 287.627 30.5924ZM275.166 27.2097C272.992 27.2097 271.295 28.9069 271.295 30.9644C271.295 33.0219 272.992 34.719 275.166 34.719C277.34 34.719 279.037 33.0219 279.037 30.9644C279.153 28.9069 277.34 27.2097 275.166 27.2097ZM275.166 26.1171C277.944 26.1171 280.246 28.2908 280.246 30.9527C280.246 33.6147 277.944 35.7884 275.166 35.7884C272.388 35.7884 270.086 33.6147 270.086 30.9527C270.203 28.2908 272.388 26.1171 275.166 26.1171ZM262.461 25.0244C260.287 25.0244 258.59 26.7215 258.59 28.779C258.59 30.8365 260.287 32.5336 262.461 32.5336C264.635 32.5336 266.332 30.8365 266.332 28.779C266.332 26.7215 264.635 25.0244 262.461 25.0244ZM262.461 23.9317C265.239 23.9317 267.541 26.1054 267.541 28.7674C267.541 31.4293 265.239 33.6031 262.461 33.6031C261.817 33.6138 261.177 33.497 260.578 33.2594C259.979 33.0218 259.434 32.668 258.972 32.2185C258.511 31.769 258.143 31.2327 257.89 30.6404C257.637 30.0481 257.503 29.4115 257.497 28.7674C257.381 26.1054 259.671 23.9317 262.461 23.9317ZM141.58 124.365C144.963 122.552 146.184 118.437 144.358 115.17C143.418 113.579 141.897 112.413 140.116 111.917C138.336 111.421 136.432 111.633 134.803 112.508C131.421 114.322 130.2 118.437 132.025 121.703C133.85 124.97 138.198 126.179 141.58 124.365ZM142.069 125.33C138.07 127.387 133.234 126.051 131.06 122.18C130.546 121.273 130.222 120.271 130.108 119.234C129.994 118.198 130.093 117.149 130.399 116.152C130.705 115.155 131.211 114.231 131.886 113.437C132.562 112.642 133.392 111.994 134.327 111.532C138.326 109.475 143.277 110.811 145.335 114.682C145.848 115.589 146.171 116.592 146.284 117.628C146.396 118.664 146.297 119.712 145.991 120.708C145.686 121.705 145.18 122.629 144.506 123.423C143.831 124.218 143.002 124.866 142.069 125.33ZM191.681 101.372C195.435 100.408 197.725 96.7692 196.761 93.1424C195.796 89.5157 191.925 87.3303 188.17 88.3068C184.416 89.2832 182.126 92.91 183.09 96.5367C183.616 98.2995 184.805 99.7893 186.408 100.692C188.011 101.594 189.901 101.838 191.681 101.372ZM192.041 102.465C189.972 103.008 187.772 102.717 185.915 101.654C184.058 100.59 182.693 98.8406 182.114 96.7808C181.853 95.7633 181.8 94.7035 181.959 93.6651C182.118 92.6267 182.486 91.6312 183.04 90.7386C183.594 89.8459 184.322 89.0745 185.182 88.4708C186.042 87.8671 187.015 87.4436 188.042 87.2257C192.401 86.133 196.877 88.6787 197.97 92.91C199.062 97.1412 196.4 101.384 192.041 102.465ZM250 94.27C253.87 94.27 257.021 91.2477 257.021 87.4931C257.006 86.5868 256.812 85.6924 256.451 84.8611C256.089 84.0298 255.568 83.2779 254.916 82.6484C254.264 82.019 253.494 81.5243 252.65 81.1927C251.807 80.8611 250.906 80.6992 250 80.7161C249.093 80.6992 248.193 80.8611 247.349 81.1927C246.506 81.5243 245.736 82.019 245.084 82.6484C244.431 83.2779 243.91 84.0298 243.549 84.8611C243.187 85.6924 242.994 86.5868 242.979 87.4931C242.979 91.2477 246.129 94.27 250 94.27ZM250 95.3627C248.951 95.3781 247.909 95.1867 246.935 94.7995C245.96 94.4123 245.071 93.8369 244.318 93.1061C243.566 92.3754 242.965 91.5035 242.55 90.5404C242.134 89.5773 241.913 88.5418 241.898 87.4931C241.898 83.134 245.524 79.6235 250 79.6235C254.475 79.6235 258.102 83.134 258.102 87.4931C258.218 91.8522 254.475 95.3627 250 95.3627ZM181.87 82.5411C184.044 82.5411 185.741 80.844 185.741 78.7865C185.741 76.729 184.044 75.0319 181.87 75.0319C179.696 75.0319 177.999 76.729 177.999 78.7865C177.883 80.844 179.696 82.5411 181.87 82.5411ZM181.87 83.6338C181.226 83.6446 180.586 83.5278 179.987 83.2902C179.389 83.0526 178.843 82.6988 178.381 82.2493C177.92 81.7998 177.552 81.2634 177.299 80.6711C177.046 80.0788 176.912 79.4423 176.906 78.7981C176.906 76.1362 179.208 73.9624 181.87 73.9624C184.648 73.9624 186.95 76.1362 186.95 78.7981C186.833 81.4601 184.648 83.6338 181.87 83.6338ZM185.136 68.9873C187.31 68.9873 189.007 67.2901 189.007 65.2326C189.007 63.1752 187.31 61.478 185.136 61.478C182.963 61.478 181.265 63.1752 181.265 65.2326C181.149 67.2901 182.963 68.9873 185.136 68.9873ZM185.136 70.0799C182.358 70.0799 180.057 67.9062 180.057 65.2443C180.057 62.5823 182.358 60.4086 185.136 60.4086C187.915 60.4086 190.216 62.5823 190.216 65.2443C190.1 67.9062 187.798 70.0799 185.136 70.0799ZM136.617 104.674C138.79 104.674 140.488 102.977 140.488 100.919C140.488 98.8616 138.79 97.1644 136.617 97.1644C134.443 97.1644 132.746 98.8616 132.746 100.919C132.746 102.977 134.443 104.674 136.617 104.674ZM136.617 105.766C133.839 105.766 131.537 103.593 131.537 100.931C131.537 98.2687 133.839 96.095 136.617 96.095C137.261 96.0843 137.901 96.201 138.499 96.4387C139.098 96.6763 139.644 97.03 140.105 97.4795C140.567 97.929 140.934 98.4654 141.188 99.0577C141.441 99.65 141.574 100.287 141.58 100.931C141.697 103.593 139.407 105.766 136.617 105.766ZM139.883 91.1198C142.057 91.1198 143.754 89.4227 143.754 87.3652C143.724 86.3589 143.303 85.4039 142.58 84.7029C141.857 84.0019 140.89 83.6101 139.883 83.6106C137.709 83.6106 136.012 85.3077 136.012 87.3652C136.012 89.4227 137.709 91.1198 139.883 91.1198ZM139.883 92.2125C137.105 92.2125 134.803 90.0388 134.803 87.3768C134.803 84.7149 137.105 82.5411 139.883 82.5411C142.661 82.5411 144.963 84.7149 144.963 87.3768C144.963 90.0388 142.661 92.2125 139.883 92.2125ZM145.695 79.2631C147.869 79.2631 149.566 77.566 149.566 75.5085C149.566 73.451 147.869 71.7538 145.695 71.7538C143.522 71.7538 141.824 73.451 141.824 75.5085C141.824 77.566 143.638 79.2631 145.695 79.2631ZM145.695 80.3558C142.917 80.3558 140.615 78.1821 140.615 75.5201C140.615 72.8581 142.917 70.6844 145.695 70.6844C148.473 70.6844 150.775 72.8581 150.775 75.5201C150.775 78.1821 148.473 80.3558 145.695 80.3558ZM155.018 68.7432C157.192 68.7432 158.889 67.046 158.889 64.9885C158.889 62.931 157.192 61.2339 155.018 61.2339C152.844 61.2339 151.147 62.931 151.147 64.9885C151.147 67.046 152.844 68.7432 155.018 68.7432ZM155.018 69.8358C152.24 69.8358 149.938 67.6621 149.938 65.0002C149.938 62.3382 152.24 60.1645 155.018 60.1645C157.796 60.1645 160.098 62.3382 160.098 65.0002C160.098 67.6621 157.796 69.8242 155.006 69.8242L155.018 69.8358ZM166.398 60.7573C168.572 60.7573 170.269 59.0602 170.269 57.0027C170.269 54.9452 168.572 53.248 166.398 53.248C164.224 53.248 162.527 54.9452 162.527 57.0027C162.527 59.0602 164.341 60.7573 166.398 60.7573ZM166.398 61.85C163.62 61.85 161.318 59.6763 161.318 57.0143C161.318 54.3523 163.62 52.1786 166.398 52.1786C169.176 52.1786 171.478 54.3523 171.478 57.0143C171.478 59.6763 169.176 61.85 166.398 61.85ZM178.743 56.1657C180.917 56.1657 182.614 54.4686 182.614 52.4111C182.614 50.3536 180.917 48.6565 178.743 48.6565C176.569 48.6565 174.872 50.3536 174.872 52.4111C174.872 54.4686 176.569 56.1657 178.743 56.1657ZM178.743 57.2584C175.965 57.2584 173.663 55.0847 173.663 52.4227C173.663 49.7608 175.965 47.587 178.743 47.587C181.521 47.587 183.823 49.7608 183.823 52.4227C183.707 55.0847 181.521 57.2584 178.743 57.2584ZM191.204 57.1422C193.378 57.1422 195.075 55.445 195.075 53.3875C195.075 51.33 193.378 49.6329 191.204 49.6329C189.03 49.6329 187.333 51.33 187.333 53.3875C187.333 55.445 189.03 57.1422 191.204 57.1422ZM191.204 58.2348C188.426 58.2348 186.124 56.0611 186.124 53.3992C186.124 50.7372 188.426 48.5635 191.204 48.5635C193.982 48.5635 196.284 50.7372 196.284 53.3992C196.284 56.0611 193.971 58.2 191.193 58.2L191.204 58.2348ZM200.399 46.9826C202.573 46.9826 204.27 45.2854 204.27 43.2279C204.27 41.1705 202.573 39.4733 200.399 39.4733C198.225 39.4733 196.528 41.1705 196.528 43.2279C196.528 45.2854 198.225 46.9826 200.399 46.9826ZM200.399 48.0753C197.621 48.0753 195.319 45.9015 195.319 43.2396C195.319 40.5776 197.621 38.4039 200.399 38.4039C203.177 38.4039 205.479 40.5776 205.479 43.2396C205.479 45.9015 203.177 48.0753 200.399 48.0753ZM212.384 39.2408C214.557 39.2408 216.254 37.5437 216.254 35.4862C216.254 33.4287 214.557 31.7316 212.384 31.7316C210.21 31.7316 208.513 33.4287 208.513 35.4862C208.513 37.5437 210.21 39.2408 212.384 39.2408ZM212.384 40.3335C209.605 40.3335 207.304 38.1598 207.304 35.4978C207.304 32.8359 209.605 30.6621 212.384 30.6621C215.162 30.6621 217.463 32.8359 217.463 35.4978C217.463 38.1598 215.162 40.3335 212.384 40.3335ZM224.845 34.7655C227.018 34.7655 228.716 33.0684 228.716 31.0109C228.716 28.9534 227.018 27.2562 224.845 27.2562C222.671 27.2562 220.974 28.9534 220.974 31.0109C220.974 33.0684 222.671 34.7655 224.845 34.7655ZM224.845 35.8582C222.067 35.8582 219.765 33.6844 219.765 31.0225C219.765 28.3605 222.067 26.1868 224.845 26.1868C227.623 26.1868 229.925 28.3605 229.925 31.0225C229.925 33.6844 227.623 35.8582 224.845 35.8582ZM250 71.7538C252.173 71.7538 253.87 70.0567 253.87 67.9992C253.87 65.9417 252.173 64.2446 250 64.2446C247.826 64.2446 246.129 65.9417 246.129 67.9992C246.129 70.0567 247.826 71.7538 250 71.7538ZM250 72.8465C247.221 72.8465 244.92 70.6728 244.92 68.0108C244.92 65.3489 247.221 63.1752 250 63.1752C252.778 63.1752 255.079 65.3489 255.079 68.0108C255.079 70.6728 252.778 72.8465 250 72.8465ZM250 58.0837C252.173 58.0837 253.87 56.3866 253.87 54.3291C253.87 52.2716 252.173 50.5745 250 50.5745C247.826 50.5745 246.129 52.2716 246.129 54.3291C246.129 56.3866 247.826 58.0837 250 58.0837ZM250 59.1764C247.221 59.1764 244.92 57.0027 244.92 54.3407C244.92 51.6788 247.221 49.505 250 49.505C252.778 49.505 255.079 51.6788 255.079 54.3407C255.079 57.0027 252.778 59.1764 250 59.1764ZM250 44.4136C252.173 44.4136 253.87 42.7165 253.87 40.659C253.87 38.6015 252.173 36.9044 250 36.9044C247.826 36.9044 246.129 38.6015 246.129 40.659C246.129 42.7165 247.826 44.4136 250 44.4136ZM250 45.3784C247.221 45.3784 244.92 43.2047 244.92 40.5427C244.92 37.8808 247.221 35.7071 250 35.7071C252.778 35.7071 255.079 37.8808 255.079 40.5427C255.079 43.3209 252.778 45.3784 250 45.3784ZM237.655 32.5569C239.828 32.5569 241.526 30.8598 241.526 28.8023C241.495 27.7959 241.074 26.841 240.352 26.14C239.629 25.439 238.661 25.0472 237.655 25.0476C235.481 25.0476 233.656 26.7448 233.656 28.8023C233.656 30.976 235.469 32.5569 237.655 32.5569ZM237.655 33.7658C234.876 33.7658 232.575 31.5921 232.575 28.9301C232.575 26.2682 234.876 24.0944 237.655 24.0944C240.433 24.0944 242.734 26.2682 242.734 28.9301C242.618 31.5921 240.433 33.7658 237.655 33.7658ZM365.196 112.532C363.566 111.665 361.665 111.458 359.886 111.953C358.108 112.449 356.588 113.609 355.641 115.194C353.827 118.46 355.036 122.575 358.419 124.388C360.05 125.252 361.95 125.458 363.727 124.963C365.505 124.467 367.025 123.309 367.974 121.726C368.436 120.95 368.731 120.086 368.84 119.189C368.95 118.292 368.871 117.382 368.61 116.517C368.349 115.652 367.91 114.851 367.322 114.165C366.735 113.479 366.01 112.923 365.196 112.532ZM365.8 111.567C369.799 113.624 371.124 118.46 368.951 122.215C367.861 124.077 366.093 125.446 364.017 126.033C361.941 126.621 359.718 126.381 357.814 125.365C356.886 124.896 356.063 124.242 355.397 123.444C354.731 122.645 354.235 121.719 353.94 120.721C353.645 119.724 353.557 118.677 353.681 117.644C353.806 116.612 354.14 115.616 354.664 114.717C355.753 112.854 357.521 111.486 359.598 110.898C361.674 110.311 363.897 110.551 365.8 111.567ZM151.496 114.229C150.403 111.567 149.078 109.509 146.172 108.661C148.113 85.3077 154.274 74.6599 176.186 64.0121C178.127 64.7328 177.999 64.9769 177.999 65.221C177.999 68.3712 179.812 69.9405 182.114 71.6376C178.243 72.4862 174.733 74.1833 174.733 78.7749C174.733 82.5295 177.395 84.587 180.777 85.5518C179.685 87.6093 179.44 88.4579 179.685 90.8757C175.209 92.9332 174.244 95.7114 175.325 100.071C177.023 106.243 180.893 106.964 187.066 105.394C187.398 107.316 187.067 109.294 186.126 111.002C185.186 112.71 183.692 114.047 181.89 114.794C180.088 115.541 178.086 115.652 176.213 115.11C174.34 114.568 172.707 113.404 171.582 111.811C171.582 111.207 171.466 110.718 171.338 110.114C170.374 106.603 166.503 104.43 162.62 105.278C158.866 106.243 156.448 109.998 157.413 113.624C157.773 114.833 158.377 115.798 159.226 116.647C159.586 120.157 158.017 123.307 154.867 124.993C151.6 126.69 149.055 125.958 145.916 124.877C151.124 122.459 153.786 120.157 151.484 114.229H151.496ZM151.856 88.9345C149.682 94.1421 148.59 100.187 147.857 107.568C150.403 108.661 152.089 111.195 153.065 113.741C154.634 117.611 154.634 121.61 150.287 124.633C151.598 124.775 152.919 124.477 154.041 123.784C156.459 122.447 157.796 120.029 157.668 117.495C156.833 116.508 156.215 115.355 155.855 114.113C154.646 109.509 157.552 104.918 162.144 103.825C164.371 103.258 166.731 103.57 168.734 104.695C170.738 105.82 172.233 107.673 172.908 109.87C173.024 110.358 173.152 110.835 173.152 111.323C177.15 116.042 185.136 113.624 185.497 107.452C178.115 108.905 174.965 105.278 173.756 100.431C172.664 96.4321 173.152 92.3288 177.871 89.8993C177.829 88.7515 177.994 87.6056 178.359 86.5166C177.071 85.9834 175.934 85.1415 175.048 84.0651C174.162 82.9886 173.555 81.7108 173.28 80.3442C169.048 81.1927 164.329 82.4017 160.458 83.9709C156.703 85.3077 153.925 87.2373 151.868 88.9345H151.856ZM176.302 65.7092C164.085 71.8817 156.936 78.1704 152.705 86.8886C154.935 85.268 157.381 83.9652 159.97 83.0177C163.969 81.4485 168.804 80.2395 173.035 79.391V78.7749C173.035 75.2644 175.337 72.1142 178.476 70.9053C177.178 69.4682 176.411 67.6307 176.302 65.6976V65.7092ZM345.109 125.121C343.625 124.332 342.414 123.113 341.636 121.623C340.858 120.134 340.549 118.443 340.75 116.775C341.599 115.926 342.203 114.961 342.563 113.752C342.78 112.871 342.82 111.955 342.682 111.058C342.544 110.16 342.23 109.299 341.758 108.524C341.286 107.748 340.665 107.074 339.932 106.539C339.198 106.004 338.366 105.619 337.484 105.406C336.447 105.133 335.363 105.097 334.31 105.301C333.258 105.504 332.265 105.942 331.405 106.582C330.545 107.222 329.841 108.047 329.344 108.997C328.846 109.946 328.569 110.996 328.533 112.067C323.093 118.96 312.073 115.333 313.05 105.65C319.222 107.103 323.093 106.499 324.79 100.326C325.999 95.9671 324.906 93.189 320.559 91.1315C320.825 89.2837 320.439 87.401 319.466 85.8076C322.849 84.8427 325.511 82.7852 325.511 79.0306C325.511 74.4274 322 72.7419 318.129 72.0096C320.431 70.1962 322.361 68.7432 322.361 65.593C322.361 65.3489 322.361 64.9885 322.244 64.7444L323.814 64.2562C345.597 74.7878 352.246 85.7959 354.188 108.905C351.165 109.754 349.829 111.811 348.864 114.473C346.562 120.401 349.224 122.703 354.432 125.237C350.921 126.086 348.387 126.806 345.109 125.121ZM326.836 80.3442C326.231 83.1224 324.29 85.424 321.628 86.5166C322.043 87.5931 322.21 88.7494 322.116 89.8993C326.952 92.3171 327.324 96.4321 326.231 100.431C324.895 105.267 321.872 108.905 314.491 107.452C314.851 113.624 322.837 116.042 326.836 111.323C326.836 110.835 326.952 110.358 327.08 109.87C328.289 105.394 333.125 102.605 337.728 103.825C342.447 105.034 345.225 109.637 344.016 114.113C343.656 115.322 343.052 116.53 342.203 117.379C342.161 118.349 342.325 119.316 342.684 120.218C343.043 121.119 343.59 121.934 344.288 122.609C344.985 123.283 345.818 123.802 346.731 124.131C347.644 124.46 348.617 124.591 349.585 124.516C345.225 121.61 345.225 117.623 346.806 113.624C347.771 111.079 349.352 108.545 352.014 107.452C351.41 100.071 350.201 94.0259 348.015 88.8182C345.45 86.6947 342.546 85.0169 339.425 83.8547C335.798 82.5179 330.951 81.309 326.836 80.3442ZM323.686 65.4651C323.569 67.5226 322.721 69.4639 321.384 70.789C323.01 71.3667 324.418 72.4329 325.415 73.8417C326.412 75.2504 326.949 76.9329 326.952 78.6586V79.2631C331.311 80.2279 335.903 81.3206 340.018 82.8899C342.924 83.9826 345.342 85.3077 347.283 86.7607C343.052 78.1704 335.903 71.8817 323.686 65.4651ZM298.275 138.314L285.93 129.968L300.937 128.399L313.282 136.745L298.275 138.314ZM275.038 133.479C274.394 133.489 273.754 133.373 273.156 133.135C272.557 132.897 272.011 132.544 271.55 132.094C271.088 131.645 270.721 131.108 270.467 130.516C270.214 129.924 270.081 129.287 270.075 128.643C270.075 125.981 272.376 123.807 275.038 123.807C277.816 123.807 280.118 125.981 280.118 128.643C280.118 131.305 277.816 133.479 275.038 133.479ZM275.038 132.386C277.212 132.386 278.909 130.689 278.909 128.631C278.909 126.574 277.212 124.877 275.038 124.877C272.865 124.877 271.167 126.574 271.167 128.631C271.167 130.689 272.981 132.386 275.038 132.386ZM176.534 144.975C178.708 144.975 180.405 143.278 180.405 141.22C180.405 139.163 178.708 137.466 176.534 137.466C174.361 137.466 172.664 139.163 172.664 141.22C172.664 143.278 174.361 144.975 176.534 144.975ZM176.534 146.068C173.756 146.068 171.455 143.894 171.455 141.232C171.455 138.57 173.756 136.396 176.534 136.396C179.313 136.396 181.614 138.57 181.614 141.232C181.498 143.894 179.313 146.068 176.534 146.068ZM224.938 132.398C227.111 132.398 228.809 130.7 228.809 128.643C228.778 127.637 228.357 126.682 227.635 125.981C226.912 125.28 225.945 124.888 224.938 124.888C222.764 124.888 221.067 126.585 221.067 128.643C220.951 130.7 222.764 132.398 224.938 132.398ZM224.938 133.49C222.16 133.49 219.858 131.316 219.858 128.655C219.858 125.993 222.16 123.819 224.938 123.819C227.716 123.819 230.018 125.993 230.018 128.655C229.901 131.316 227.716 133.49 224.938 133.49ZM323.442 144.987C325.615 144.987 327.312 143.289 327.312 141.232C327.312 139.174 325.615 137.477 323.442 137.477C321.268 137.477 319.571 139.174 319.571 141.232C319.571 143.289 321.268 144.987 323.442 144.987ZM323.442 146.079C320.663 146.079 318.362 143.906 318.362 141.244C318.362 138.582 320.663 136.408 323.442 136.408C326.22 136.408 328.521 138.582 328.521 141.244C328.521 143.906 326.22 146.079 323.442 146.079ZM201.713 138.338L186.706 136.768L199.051 128.422L214.057 129.991L201.713 138.338ZM262.577 127.329L250 122.819L237.538 127.294L250 131.781L262.577 127.329ZM265.727 127.329L250 132.99L234.272 127.306L250 121.61L265.727 127.329Z" fill="#004996"/>
</g>
<defs>
<clipPath id="clip0_6_72700">
<rect width="371.976" height="500" fill="white" transform="translate(64.0117)"/>
</clipPath>
</defs>
</svg>
