<svg width="500" height="500" viewBox="0 0 500 500" fill="none" xmlns="http://www.w3.org/2000/svg">
<path d="M409.636 111.208C383.172 65.6043 353.31 41.0923 332.92 28.5527C324.857 23.587 318.794 20.7317 315.881 19.3573L314.772 18.8261C312.384 17.6285 310.012 17.027 307.735 17.027C303.412 17.027 300.274 19.1621 298.629 21.327C292.276 28.5518 286.143 32.3682 280.875 32.3682C277.843 32.3682 275.414 31.1116 273.774 29.8849C274.747 27.1958 275.915 23.5386 276.64 19.7996C277.484 14.9156 275.88 11.7719 274.381 9.99125C270.884 5.83893 265.487 5.83893 263.181 5.83893C259.807 5.83893 256.581 7.83859 253.977 10.1618L251.118 9.67292C250.375 9.54278 249.62 9.54278 248.876 9.67292L246.019 10.1627C243.415 7.83859 240.191 5.83981 236.818 5.83981C234.461 5.83981 228.947 5.83981 225.458 10.0924C223.975 11.903 222.412 15.0818 223.38 19.9306C224.09 23.5931 225.202 27.2029 226.119 29.8568C224.494 31.0958 222.082 32.3691 219.062 32.3691C213.822 32.3691 207.69 28.5351 201.326 21.2804C199.66 19.1568 196.481 17.0279 192.181 17.0279C189.884 17.0279 187.516 17.6416 185.209 18.8323L184.009 19.3924C181.29 20.6543 175.634 23.2792 168.358 27.8149C147.547 40.4249 117.122 65.1321 90.3743 111.189C68.7255 148.217 63.9805 184.278 63.8125 208.058L63.8151 213.143C63.998 225.34 65.1219 234.812 66.039 240.663C75.7735 299.555 100.808 356.736 140.425 410.573C141.029 411.41 205.43 494.16 249.995 494.16C298.202 494.16 357.083 414 359.542 410.614C399.041 356.942 424.019 299.761 433.757 240.805C435.142 233.414 436.027 223.334 436.181 213.042V207.964C435.842 184.137 430.964 148.005 409.636 111.208Z" fill="white"/>
<path d="M250.989 484.25C284.853 485.579 349.362 414.281 383.793 348.794C411.182 296.703 420.29 261.54 421.643 202.708L77.6777 202.038C80.2261 268.842 92.4562 309.114 127.48 366.055C162.407 422.845 202.509 479.599 250.989 484.25Z" fill="#FFDF1C"/>
<path d="M250 487.55C212.917 487.55 154.683 418.988 145.775 406.704C89.662 330.448 76.6581 264.357 72.5576 239.588C71.6695 233.887 70.5949 224.623 70.4199 213.044V208.056C70.5949 183.469 75.7646 149.266 96.076 114.526C122.976 68.2028 153.259 44.6906 171.782 33.463C180.34 28.1183 186.398 25.6236 188.174 24.7354C193.706 21.8845 196.194 25.4477 196.194 25.4477C219.175 51.8108 233.785 31.4994 233.785 31.4994C233.785 31.4994 231.109 25.0915 229.872 18.6775C228.621 12.4385 234.317 12.4385 236.817 12.4385C239.487 12.4385 243.768 17.2582 243.768 17.2582L250.001 16.1828L256.234 17.2582C256.234 17.2582 260.51 12.4385 263.185 12.4385C265.68 12.4385 271.206 12.4385 270.13 18.6775C268.886 25.0915 266.03 31.4994 266.03 31.4994C266.03 31.4994 280.821 51.8108 303.808 25.4477C303.808 25.4477 306.121 21.8845 311.816 24.7354C313.598 25.6236 320.193 28.4735 329.458 34.1753C347.988 45.5841 377.557 69.0963 403.92 114.526C424.055 149.265 429.22 183.292 429.576 208.055V213.043C429.401 224.621 428.332 233.886 427.263 239.588C423.169 264.356 410.34 330.447 354.221 406.703C345.668 418.457 292.097 487.55 250 487.55ZM329.457 51.4625C324.825 44.8674 318.948 37.9214 311.64 30.97L310.927 32.3955C310.927 32.3955 320.192 41.6604 329.457 55.5568C338.897 69.6353 348.162 88.3339 347.806 107.044C347.806 107.045 350.832 82.1011 329.457 51.4625ZM171.782 55.5577C181.053 41.6604 190.317 32.3964 190.317 32.3964L189.423 30.9709C182.121 37.9222 176.42 44.8683 171.781 51.4634C150.232 82.1019 153.258 107.046 153.258 107.046C152.903 88.3339 162.342 69.6353 171.782 55.5577ZM418.892 205.206H383.615V342.594C412.399 281.402 422.824 222.998 418.892 205.206ZM95.0006 167.435H404.994C401.962 161.733 398.574 156.038 394.842 150.155C368.116 109.715 345.136 115.597 345.136 115.597C339.966 111.852 334.797 109.539 329.457 108.288C306.12 103.125 283.133 120.585 280.821 143.922C280.821 143.922 284.022 148.198 281.171 150.692C278.326 153.004 277.257 151.048 277.257 151.048L269.598 143.383C256.233 143.383 249.819 159.956 249.819 159.956C249.819 159.956 243.767 143.383 230.221 143.383L222.744 151.048C222.744 151.048 221.493 153.004 218.824 150.692C215.967 148.197 219.174 143.922 219.174 143.922C216.867 120.935 194.593 103.656 171.781 108.113C166.08 109.176 160.385 111.67 154.864 115.597C154.864 115.597 131.703 109.714 105.159 150.155C101.24 156.038 98.0326 161.914 95.0006 167.435ZM118.525 345.825V205.206H81.4602C75.9818 240.67 93.3764 295.202 118.525 345.825ZM194.238 447.116V205.206H156.291V406.088C168.123 421.242 181.113 435.374 194.238 447.116ZM269.955 473.581V339.133C288.183 331.493 301.059 313.417 301.059 292.327C301.059 271.092 288.183 252.985 269.955 245.339V205.206H232.002V244.934C213.165 252.338 199.836 270.711 199.836 292.327C199.836 313.797 213.159 332.14 232.002 339.539V473.291C238.145 476.13 244.045 478.038 249.626 478.854C255.829 478.853 262.69 476.975 269.955 473.581ZM307.896 205.206V446.282C320.941 434.142 333.927 419.563 345.668 404.241V205.206H307.896Z" fill="black"/>
<path d="M383.619 205.206V342.601C383.619 342.601 380.5 349.378 378.423 353.256C367.618 371.984 356.578 389.838 345.689 404.206C345.683 404.213 345.678 404.218 345.673 404.225V205.206H383.619ZM269.959 205.206V245.339C288.187 252.985 301.051 271.085 301.051 292.321C301.051 313.424 288.187 331.493 269.959 339.134V473.392C280.869 468.212 293.72 459.37 307.746 446.423C307.796 446.377 307.849 446.321 307.9 446.275V205.206H269.959ZM194.235 205.206V446.983C195.773 448.381 197.313 449.87 198.848 451.193C210.729 461.436 221.723 468.588 232.007 473.213V339.532C213.157 332.14 199.84 313.798 199.84 292.321C199.84 270.705 213.17 252.339 232.007 244.94V205.206H194.235ZM118.518 205.206V345.598C118.603 345.764 118.678 345.927 118.763 346.092C122.863 354.059 127.279 362.291 132.491 370.776C139.751 382.588 147.612 394.648 156.289 406.006V205.206H118.518Z" fill="#EE3524"/>
<path d="M250.531 237.737C220.466 237.737 196.121 262.089 196.121 292.323C196.121 322.389 220.466 346.74 250.531 346.74C280.421 346.74 304.766 322.382 304.766 292.323C304.766 262.088 280.433 237.737 250.531 237.737Z" fill="#B23428"/>
<path d="M261.29 339.739C257.37 337.933 254.175 334.955 252.43 330.408C254.224 329.846 255.963 329.061 257.582 328.101C268.321 321.759 269.401 309.227 264.087 298.978C263.905 298.622 263.682 298.241 263.465 297.885C269.631 278.649 258.99 270.134 255.722 268.044C257.746 261.333 263.073 257.764 271.039 258.869C282.761 266.757 285.962 285.42 285.829 298.018C285.654 328.76 266.418 337.536 261.29 339.739ZM209.538 322.171C214.792 329.382 221.907 335.15 230.17 338.774C228.165 335.851 226.371 332.402 225.749 329.321C221.406 324.55 216.116 321.059 209.538 322.171ZM199.856 293.858C200.14 303.473 203.135 312.399 208.051 319.949C215.359 318.258 222.172 321.61 227.118 327.076C229.806 324.919 237.694 320.493 251.077 328.229C264.697 324.437 267.729 311.379 261.894 300.115L261.55 299.511C256.313 301.106 230.482 307.724 199.856 293.858ZM207.876 264.769C202.99 272.391 200.067 281.414 199.85 291.132C216.567 298.935 231.884 300.421 243.087 299.925C251.657 299.551 258.33 297.841 261.139 296.996C264.201 287.266 263.542 275.792 254.26 270.048C247.562 273.092 239.698 274.16 233.453 269.727C224.08 274.196 214.778 273.007 208.232 265.21L207.876 264.769ZM248.692 241.478C232.475 242.058 218.204 250.236 209.344 262.605C209.55 262.901 209.815 263.245 210.129 263.619C216.163 270.806 223.978 271.242 232.277 267.521C232.04 264.211 232.705 253.419 248.692 241.478ZM280.014 250.995C272.314 245.421 263.001 241.972 252.927 241.501C245.117 246.828 235.23 255.797 234.729 265.961C234.693 266.68 234.723 267.229 234.759 267.58C235.049 267.797 235.357 268.021 235.647 268.19C241.083 271.427 247.709 270.443 253.222 267.774C255.463 259.946 261.877 255.018 270.55 256.087L271.232 255.441C273.702 253.163 276.74 251.503 280.014 250.995ZM264.74 340.983C285.691 334.823 301.05 315.375 301.05 292.322C301.05 276.643 294.038 262.667 283.022 253.354C279.271 253.015 275.702 254.701 272.984 257.213C277.031 260.167 288.596 271.002 288.294 298.035C288.131 326.681 272.011 337.286 264.589 340.94L264.74 340.983ZM250.53 343.02C253.906 343.02 257.204 342.688 260.399 342.047C255.833 339.988 252.125 336.515 250.246 331.66C250.047 331.129 249.908 330.687 249.817 330.373C242.787 326.393 234.483 324.068 228.347 329.401C228.528 330.059 228.812 330.953 229.253 332.022C230.177 334.275 231.801 337.288 234.574 340.459C239.599 342.127 244.956 343.02 250.53 343.02Z" fill="#D18816"/>
<path d="M95.0046 167.434H404.992C404.992 167.434 416.848 190.505 418.884 205.206H81.5117C81.5117 205.206 85.7942 181.7 95.0046 167.434Z" fill="#0097D7"/>
<path d="M393.48 194.588H399.363V199.577H393.48V194.588ZM378.159 189.065H390.806V184.783H378.159V179.087H392.769V174.63H372.283V199.573H378.159V189.065ZM359.279 199.577H365.162V194.588H359.279V199.577ZM340.037 200.285C343.244 200.285 345.913 199.397 348.051 197.79C350.189 196.008 351.439 193.871 351.971 191.201H346.094C345.738 192.445 345.206 193.339 344.493 194.052C343.605 195.302 341.993 195.833 339.861 195.833C337.898 195.833 336.292 195.121 335.041 193.696C333.622 192.27 333.085 190.314 333.085 187.457C333.085 184.606 333.622 182.468 334.872 180.868C336.117 179.436 337.898 178.549 339.861 178.549C341.992 178.549 343.605 179.086 344.662 180.155C345.206 180.868 345.737 181.756 346.094 183.006H351.971C351.971 181.406 351.257 179.799 350.014 178.374C347.876 175.523 344.493 174.098 339.681 174.098C336.117 174.098 333.267 175.167 330.953 177.305C328.277 179.617 326.846 183.006 326.846 187.282C326.846 191.382 328.103 194.584 330.416 196.903C332.729 199.215 335.936 200.285 340.037 200.285ZM273.233 199.577H279.11V174.633H273.233V199.577ZM253.985 200.285C257.192 200.285 259.862 199.397 262.005 197.79C264.149 196.008 265.394 193.871 265.926 191.201H260.049C259.693 192.445 259.155 193.339 258.617 194.052C257.548 195.302 255.941 195.833 253.81 195.833C251.853 195.833 250.253 195.121 249.002 193.696C247.577 192.27 247.04 190.314 247.04 187.457C247.04 184.606 247.577 182.468 248.821 180.868C250.065 179.436 251.853 178.549 253.81 178.549C255.941 178.549 257.549 179.086 258.617 180.155C259.155 180.868 259.692 181.756 260.049 183.006H265.926C265.926 181.406 265.212 179.799 263.963 178.374C261.825 175.523 258.437 174.098 253.63 174.098C250.066 174.098 247.222 175.167 244.902 177.305C242.232 179.617 240.808 183.006 240.808 187.282C240.808 191.382 242.058 194.584 244.371 196.903C246.683 199.215 249.89 200.285 253.985 200.285ZM216.214 181.754L227.979 199.577H234.037V174.633H228.511V192.094L216.933 174.633H210.7V199.577H216.215V181.754H216.214ZM203.924 195.121H188.426V188.532H201.967V184.25H188.426V179.086H203.211V174.629H182.549V199.572H203.924V195.121ZM176.67 195.121H162.417V174.629H156.359V199.572H176.67V195.121ZM110.75 199.575H116.276L126.072 174.631H119.839L113.6 193.517L107.361 174.631H100.953L110.75 199.575ZM142.111 174.634L152.082 199.578H145.668L143.887 194.408H138.548H133.197L131.241 199.578H125.183L135.335 174.634H138.548H142.111ZM142.286 190.132L138.548 180.33L134.798 190.132H138.548H142.286ZM301.195 174.634L311.353 199.578H304.758L302.982 194.408H297.638H292.474L290.505 199.578H284.272L294.431 174.634H297.638H301.195ZM301.376 190.132L297.819 180.33L294.075 190.132H297.638H301.376Z" fill="white"/>
</svg>
