<svg width="500" height="500" viewBox="0 0 500 500" fill="none" xmlns="http://www.w3.org/2000/svg">
<g clip-path="url(#clip0_6_72681)">
<path d="M249.996 0C111.927 0 0 111.927 0 249.996C0 388.064 111.927 500 249.996 500C388.064 500 500 388.055 500 249.996C500 111.936 388.055 0 249.996 0Z" fill="#0066B2"/>
<path d="M249.996 12.4971C118.833 12.4971 12.4971 118.833 12.4971 249.996C12.4971 381.158 118.833 487.503 249.996 487.503C381.158 487.503 487.503 381.167 487.503 249.996C487.503 118.824 381.167 12.4971 249.996 12.4971Z" fill="white"/>
<path d="M249.995 23.7507C125.042 23.7507 23.7505 125.051 23.7505 249.996C23.7505 374.94 125.05 476.249 249.995 476.249C374.94 476.249 476.249 374.958 476.249 249.996C476.249 125.033 374.958 23.7507 249.995 23.7507ZM249.995 391.248C222.058 391.248 194.749 382.963 171.52 367.442C148.291 351.921 130.187 329.861 119.496 304.05C108.804 278.24 106.007 249.839 111.457 222.439C116.908 195.038 130.361 169.87 150.115 150.115C169.87 130.361 195.038 116.908 222.438 111.458C249.839 106.007 278.24 108.805 304.05 119.496C329.861 130.187 351.921 148.291 367.442 171.52C382.963 194.749 391.247 222.059 391.247 249.996C391.249 268.545 387.596 286.914 380.498 304.052C373.399 321.19 362.995 336.762 349.878 349.878C336.762 362.995 321.19 373.4 304.052 380.498C286.914 387.596 268.545 391.249 249.995 391.248Z" fill="#DC052D"/>
<path d="M125.809 288.395C131.517 306.922 141.312 323.93 154.473 338.163V279.576L121.347 231.184C118.537 250.348 120.062 269.899 125.809 288.395ZM192.678 334.83V267.74L154.755 212.345V161.537C147.755 169.086 141.674 177.437 136.64 186.416L154.455 212.442V279.576L192.378 334.962V366.5C201.602 371.062 211.333 374.516 221.368 376.793L192.678 334.83ZM230.893 255.878L268.816 311.264V378.389L230.893 322.994V255.913L192.969 200.519V133.394L230.893 188.78V255.878ZM269.107 244.051L231.184 188.656V121.567L269.107 176.962V244.087L307.031 299.481V366.606L269.107 311.211V244.051ZM211.57 125.809C192.864 131.576 175.709 141.509 161.396 154.86L192.714 200.607V267.731L230.637 323.117V378.556C249.998 381.462 269.764 379.967 288.467 374.182C307.17 368.396 324.328 358.47 338.666 345.14L307.349 299.393V232.26L269.425 176.865V121.426C250.06 118.503 230.285 120.011 211.587 125.836L211.57 125.809ZM345.554 287.584V220.433L307.631 165.038V133.509C298.405 128.942 288.671 125.485 278.632 123.207L307.331 165.135V232.26L345.254 287.655V338.463C352.25 330.917 358.328 322.568 363.361 313.593L345.554 287.584ZM374.209 211.587C368.502 193.062 358.71 176.055 345.554 161.819V220.459L378.671 268.843C381.489 249.664 379.964 230.097 374.209 211.587Z" fill="#0066B2"/>
<path d="M98.7775 296.73L105.198 310.4L94.7558 330.138C93.186 333.075 91.8278 335.474 91.8278 335.474L91.9689 335.729C91.9689 335.729 94.7294 335.897 98.0455 336.179L120.288 338.181L128.226 351.013L80.1597 379.094L72.478 366.747L92.6039 355.035C97.2958 352.319 100.832 350.405 100.832 350.405L100.691 350.149C100.691 350.149 98.266 349.973 93.1948 349.223L72.7249 346.18L72.5838 345.925L81.1386 327.095C83.2729 322.438 84.4459 320.304 84.4459 320.304L84.3048 320.048C84.3048 320.048 80.777 321.971 75.9352 324.458L55.1566 334.874L48.983 321.715L98.7775 296.73ZM135.572 357.399L146.649 367.241L124.407 393.699C120.756 398.109 120.941 402.713 126.462 407.061C131.983 411.409 136.516 410.509 139.938 405.932L160.452 378.107L172.614 386.564L151.553 415.087C141.896 428.175 129.39 425.59 118.577 417.08C107.765 408.569 102.305 397.016 112.783 384.527L135.572 357.399ZM157.735 375.408L144.065 384.959L143.836 384.774L149.93 369.252L157.735 375.408ZM181.177 391.389L195.641 396.68L203.817 424.603C205.581 430.644 206.304 433.837 206.304 433.837L206.727 433.96C206.727 433.96 207.671 429.806 209.056 424.726L214.991 402.51L229.102 405.853L214.727 459.651L199.734 456.053L190.447 426.86C188.683 421.19 187.889 417.6 187.889 417.6L187.466 417.477C187.466 417.477 186.222 421.886 184.652 426.569L177.068 449.209L163.442 444.182L181.177 391.389ZM289.471 439.552C289.78 452.781 281.534 461.812 265.738 462.879C250.983 463.902 237.172 457.182 236.361 435.68C235.54 413.869 247.614 405.694 261.778 404.75C277.115 403.709 285.988 412.282 287.513 423.924L272.609 424.929C271.242 419.884 268.543 416.912 261.972 417.362C255.799 417.776 251.521 423.43 251.989 434.622C252.491 446.325 257.342 450.841 264.212 450.382C271.083 449.923 274.081 446.634 274.408 440.592L289.471 439.552ZM292.805 401.09L306.625 395.798L314.439 414.513L331.69 406.646L322.65 388.399L335.747 381.467L360.441 431.367L347.327 438.326L337.555 418.482L319.501 426.711L328.083 447.145L314.263 452.437L292.805 401.152V401.09ZM344.496 374.967L371.139 349.435L379.712 357.848L363.008 373.856L369.384 380.911L385.559 365.415L393.929 373.618L377.216 389.642L384.148 397.404L402.969 379.368L411.541 387.782L381.731 416.348L344.496 374.967ZM377.789 341.541L385.409 328.18L414.319 324.846C420.572 324.123 423.844 323.964 423.844 323.964L424.038 323.567C424.038 323.567 420.131 321.909 415.395 319.704L394.502 310.1L400.182 296.739L450.673 319.995L444.596 334.107L414.249 338.357C408.357 339.186 404.688 339.319 404.688 339.319L404.494 339.716C404.494 339.716 408.586 341.674 412.979 344.028L434.004 355.335L426.746 367.911L377.789 341.541ZM59.4781 157.295L70.6435 161.704L61.7359 186.425L72.1605 189.874L80.5036 166.74L91.3956 171.062L83.2994 193.507L102.799 199.839L98.6099 214.048L45.27 196.673L59.4781 157.295ZM127.67 120.553C137.292 129.275 138.95 141.226 129.337 153.396C120.517 164.535 106.988 169.88 89.4642 156.871C72.1693 144.048 74.4712 128.878 83.6257 117.272C93.3271 104.978 105.718 103.946 115.376 110.79L106.115 122.511C101.6 119.971 97.3576 120.253 93.1331 125.598C88.9086 130.942 89.8434 137.557 99.2185 144.586C108.188 151.297 115.19 151.05 119.097 146.112C123.269 140.82 122.458 136.542 118.374 132.388L127.67 120.553ZM164.253 57.5468C174.087 53.0048 183.717 52.017 187.96 62.0712C191.443 70.2997 189.23 73.898 184.935 77.5052L185.084 77.8403C189.671 76.7732 195.818 76.9584 199.734 86.1482C204.434 97.199 197.229 103.593 187.386 108.144L166.59 117.757L141.658 67.989L164.253 57.5468ZM172.605 77.7168C176.459 75.9529 177.561 74.1361 176.009 70.4232C174.51 66.8425 171.97 66.5691 168.248 68.2889L159.94 72.1253L164.632 81.4122L172.605 77.7168ZM182.006 98.0544C186.257 96.0877 187.422 94.4208 185.622 90.1699C183.947 86.1923 181.001 86.0953 176.741 88.062L169.562 91.3781L174.625 101.423L182.006 98.0544ZM265.509 94.121H249.713L245.18 84.1109L226.068 85.7513L223.308 96.3346L207.742 99.0687L223.167 40.8604L240.382 39.3788L265.509 94.121ZM240.876 73.3865L236.123 62.5562C234.482 58.8785 233.247 55.6065 233.247 55.6065H232.956C232.956 55.6065 232.295 59.0461 231.307 62.9531L228.476 74.4184L240.876 73.3865ZM279.576 77.7874L266.647 38.2763L283.333 41.4513L288.395 58.2082C289.348 61.4097 290.159 64.814 290.159 64.814L290.441 64.8757C290.441 64.8757 292.611 62.1241 294.807 59.5841L306.352 46.4343L322.853 50.4648L294.736 81.077L290.433 99.5449L275.836 96.3787L279.576 77.7874ZM333.965 55.2802L368.996 74.5154L362.893 84.8606L341.312 72.9896L336.99 81.4739L356.949 92.4276L350.987 102.517L331.672 91.9337L326.927 101.185L347.971 112.739L341.867 123.084L308.759 104.907L333.965 55.2802ZM388.372 89.579L405.367 107.765C414.063 117.069 416.145 126.047 405.791 135.105C399.176 140.89 394.325 142.487 388.531 140.22L379.641 162.657L369.146 149.824L377.278 131.507L372.427 126.321L359.348 139.347L348.606 129.143L388.372 89.579ZM380.726 118.066L386.476 124.239C389.678 127.661 392.368 127.767 395.939 124.61C399.511 121.452 399.405 118.568 396.204 115.138L390.154 108.664L380.726 118.066ZM402.404 213.942L397.324 199.407L413.755 175.401C417.282 170.303 419.329 167.622 419.329 167.622L419.161 167.216C419.161 167.216 415.351 169.113 410.536 171.265L389.589 180.745L383.222 167.693L433.934 144.762L440.636 158.626L423.95 184.326C420.748 189.221 418.411 192.175 418.411 192.175L418.579 192.581C418.579 192.581 422.742 190.817 427.398 189L449.72 180.534L454.465 194.257L402.404 213.942Z" fill="white"/>
</g>
<defs>
<clipPath id="clip0_6_72681">
<rect width="500" height="500" fill="white"/>
</clipPath>
</defs>
</svg>
