<svg width="500" height="500" viewBox="0 0 500 500" fill="none" xmlns="http://www.w3.org/2000/svg">
<path d="M250 495.536C385.606 495.536 495.536 385.606 495.536 250C495.536 114.394 385.606 4.46429 250 4.46429C114.394 4.46429 4.46436 114.394 4.46436 250C4.46436 385.606 114.394 495.536 250 495.536Z" fill="#FDE100"/>
<path d="M250 477.679C375.744 477.679 477.679 375.743 477.679 250C477.679 124.257 375.744 22.3214 250 22.3214C124.257 22.3214 22.3215 124.257 22.3215 250C22.3215 375.743 124.257 477.679 250 477.679Z" stroke="black" stroke-width="14"/>
<path d="M176.429 64.5625L236.697 250.982H262.679L322.143 64.5625H285.804L249.554 189.018L213.572 64.5625H176.429ZM83.259 156.339V340.268H140.982C187.768 340.268 211.429 283.661 178.929 248.75C178.929 248.75 178.929 248.571 178.929 248.393C178.929 248.214 179.197 248.125 179.197 248.125C206.25 217.679 194.822 163.929 144.643 156.339H83.259ZM322.143 156.339V340.268H380.179C426.875 340.268 450.536 283.661 418.125 248.75C418.125 248.75 418.125 248.571 418.125 248.393C418.125 248.214 418.393 248.125 418.393 248.125C445.357 217.679 434.018 163.929 383.75 156.339H322.143ZM117.054 190.714H145.447C163.929 190.714 167.679 226.071 146.607 231.696H117.054V190.714ZM356.429 190.714H384.643C403.036 190.714 406.875 226.071 385.714 231.696H356.429V190.714ZM117.054 264.643H142.143C162.947 264.643 170.625 302.5 143.572 307.857H117.054V264.643ZM356.429 264.643H381.25C402.054 264.643 409.732 302.5 382.679 307.857H356.429V264.643ZM213.572 344.107C198.661 344.107 186.518 356.339 186.518 371.25V411.964C186.518 426.875 198.661 439.018 213.572 439.018H214.107C229.018 439.018 241.161 426.875 241.161 411.964V371.25C241.161 356.339 229.018 344.107 214.107 344.107H213.572ZM285.268 344.107C270.357 344.107 257.679 355.714 257.679 370.625V377.321C257.679 392.232 271.25 404.286 285.268 404.732C285.268 404.732 290.982 404.643 293.929 403.036L294.197 412.232C294.197 416.875 290.447 420.982 285.804 420.893C282.054 420.714 276.875 418.839 276.875 414.196C276.875 414.196 277.768 408.036 273.304 408.036H257.679C257.5 409.554 257.679 410.446 257.679 412.5C257.679 426.607 269.732 439.018 286.072 439.018C301.518 438.839 312.322 427.054 312.322 411.696V370.893C312.322 355.982 300.714 344.107 285.804 344.107H285.268ZM285.536 363.393C290.447 363.393 294.197 367.143 294.197 371.786V377.054C294.197 381.696 290.447 385.446 285.804 385.446C280.893 385.446 276.875 381.696 276.875 377.054V371.786C276.875 367.143 280.893 363.393 285.536 363.393ZM213.572 363.661C218.482 363.661 222.5 367.411 222.5 372.054V412.5C222.5 417.143 218.482 420.893 213.839 420.893C208.929 420.893 205.179 417.143 205.179 412.5V372.054C205.179 367.411 208.929 363.661 213.572 363.661Z" fill="black"/>
</svg>
