<svg width="500" height="500" viewBox="0 0 500 500" fill="none" xmlns="http://www.w3.org/2000/svg">
<g clip-path="url(#clip0_6_72689)">
<path d="M249.323 497.456C298.252 497.456 346.081 482.946 386.763 455.762C427.445 428.578 459.151 389.94 477.873 344.735C496.595 299.53 501.49 249.788 491.941 201.801C482.392 153.813 458.826 109.736 424.225 75.1417C389.623 40.5479 345.54 16.992 297.551 7.45314C249.561 -2.08575 199.821 2.82081 154.62 21.5523C109.419 40.2838 70.788 71.9989 43.6126 112.687C16.4372 153.374 1.93803 201.207 1.94874 250.135C1.94874 282.619 8.34766 314.784 20.7801 344.793C33.2125 374.803 51.4348 402.07 74.4064 425.037C97.378 448.003 124.649 466.219 154.661 478.645C184.674 491.071 216.84 497.463 249.323 497.456Z" fill="white"/>
<path d="M249.973 8.22778C202.147 8.22778 155.396 22.4104 115.631 48.9821C75.866 75.5537 44.874 113.321 26.5744 157.507C8.27477 201.693 3.4895 250.314 12.8238 297.22C22.158 344.126 45.1926 387.21 79.0142 421.024C112.836 454.838 155.925 477.863 202.833 487.187C249.742 496.511 298.361 491.714 342.543 473.405C386.725 455.095 424.485 424.095 451.048 384.324C477.611 344.553 491.783 297.799 491.772 249.973C491.701 185.871 466.201 124.415 420.868 79.0933C375.536 33.7713 314.075 8.28509 249.973 8.22778ZM249.973 500C200.522 500 152.182 485.336 111.065 457.863C69.9487 430.389 37.902 391.341 18.9781 345.654C0.0541332 299.968 -4.89724 249.696 4.75011 201.195C14.3975 152.695 38.2102 108.144 73.1771 73.1771C108.144 38.2102 152.695 14.3974 201.195 4.75007C249.696 -4.89728 299.968 0.0540874 345.654 18.978C391.341 37.902 430.39 69.9486 457.863 111.065C485.336 152.182 500 200.522 500 249.973C499.928 316.262 473.563 379.816 426.69 426.69C379.816 473.563 316.262 499.928 249.973 500Z" fill="#E00914"/>
<path d="M249.973 58.0816C212.008 58.0816 174.895 69.3404 143.328 90.434C111.762 111.528 87.1598 141.509 72.6334 176.585C58.1071 211.662 54.3091 250.258 61.7198 287.494C69.1304 324.729 87.4168 358.93 114.266 385.772C141.116 412.614 175.322 430.891 212.56 438.291C249.797 445.691 288.392 441.882 323.465 427.346C358.537 412.81 388.512 388.199 409.596 356.627C430.681 325.054 441.929 287.938 441.919 249.973C441.861 199.088 421.618 150.305 385.632 114.329C349.647 78.3537 300.858 58.1246 249.973 58.0816ZM249.973 480.784C204.323 480.784 159.698 467.247 121.741 441.885C83.7848 416.523 54.2012 380.476 36.7316 338.3C19.2621 296.125 14.6913 249.717 23.5972 204.944C32.5031 160.171 54.4857 119.044 86.7652 86.765C119.045 54.4855 160.171 32.5029 204.944 23.597C249.717 14.6911 296.125 19.262 338.301 36.7315C380.476 54.201 416.523 83.7846 441.885 121.741C467.247 159.698 480.784 204.323 480.784 249.973C480.727 311.17 456.391 369.845 413.118 413.118C369.845 456.391 311.17 480.727 249.973 480.784Z" fill="#E00914"/>
<path d="M344.917 260.258C364.293 268.72 385.112 273.388 406.247 274.007C428.657 274.819 437.534 260.853 430.118 258.471C427.195 257.497 363.267 239.418 363.267 239.418C363.267 239.418 355.364 236.332 361.265 235.683C367.165 235.033 393.743 235.304 405.11 230.703C418.967 225.29 421.349 212.515 418.155 212.677C390.332 214.139 364.025 213.652 362.618 213.435H362.131C362.131 213.435 359.045 212.407 361.806 209.971C364.566 207.535 384.865 190.592 388.871 186.316C399.697 175.49 392.444 159.251 390.549 160.712C377.419 173.028 362.755 183.598 346.92 192.162C345.513 192.162 345.892 189.077 346.92 186.749C350.958 181.447 354.254 175.62 356.718 169.427C362.131 149.291 360.723 136.57 349.356 131.536C347.299 130.67 346.541 131.807 343.943 138.032C341.345 144.257 340.262 155.245 330.086 159.684C324.673 161.849 315.254 170.51 315.092 174.299C314.929 178.088 317.094 183.393 314.388 185.125C311.681 186.857 308.542 184.042 305.132 186.803C301.721 189.564 292.519 198.982 289.271 201.418C286.024 203.854 279.474 207.806 275.36 205.586C266.429 196.763 270.759 170.835 270.759 170.835C272.875 171.17 275.03 171.17 277.146 170.835C278.61 170.552 279.999 169.97 281.227 169.125C282.455 168.281 283.495 167.192 284.283 165.927C285.071 164.661 285.588 163.247 285.804 161.772C286.02 160.298 285.929 158.794 285.537 157.356C284.577 158.413 283.408 159.258 282.102 159.836C280.797 160.414 279.386 160.713 277.958 160.712C274.332 161.037 273.357 159.576 272.545 156.328C271.395 152.941 271.395 149.268 272.545 145.881C274.115 140.468 279.636 137.815 282.776 135.325C285.915 132.835 284.237 123.308 284.237 123.308C283.4 125.122 282.245 126.772 280.827 128.18C277.796 130.995 273.682 130.183 264.913 129.642C262.367 129.78 259.821 129.367 257.449 128.433C255.076 127.499 252.933 126.065 251.164 124.229C249.757 122.551 238.281 123.796 234.925 123.958C227.251 124.869 219.678 126.482 212.298 128.776C207.379 130.474 202.645 132.668 198.17 135.325C196.222 136.895 196.926 138.357 196.926 138.357L198.658 143.12C202.636 140.399 206.996 138.283 211.595 136.841C217.982 135.109 218.74 138.032 219.552 140.792C220.205 142.773 220.712 144.8 221.068 146.855C214.35 148.306 207.459 148.78 200.606 148.262C190.646 147.721 190.105 143.337 190.213 140.738C190.213 139.818 187.344 140.738 186.208 143.337C184.205 147.775 183.609 155.245 204.017 154.975C210.17 154.687 216.23 153.35 221.934 151.023C223.503 156.436 221.934 157.302 219.389 157.681C214.517 158.879 209.402 158.635 204.666 156.977C204.666 156.977 203.313 161.416 204.287 162.39C210.423 165.685 217.369 167.168 224.315 166.667C226.426 166.667 228.104 165.151 229.241 166.125C230.671 168.275 231.664 170.684 232.164 173.216C232.164 174.894 231.839 176.031 226.751 175.923C221.663 175.815 219.931 175.923 220.147 176.951C222.139 179.131 224.293 181.158 226.589 183.014C227.617 184.042 232.76 178.629 232.76 178.629C232.534 179.572 232.534 180.555 232.76 181.498C233.193 183.664 234.6 200.552 224.099 205.424C220.039 207.643 213.273 203.692 210.242 201.256C207.21 198.82 197.575 189.347 194.327 186.641C191.079 183.934 187.399 186.641 185.233 185.125C183.068 183.609 184.638 177.655 184.476 174.299C184.313 170.943 174.732 161.849 169.536 159.684C159.359 155.462 158.331 144.527 155.624 138.032C152.918 131.536 152.214 130.67 150.211 131.536C138.844 136.354 137.491 149.074 142.849 169.427C145.199 175.574 148.387 181.367 152.322 186.641C153.405 189.022 153.784 192.378 152.322 192.054C136.505 183.461 121.845 172.894 108.693 160.604C106.853 158.872 99.3289 175.111 110.371 186.208C114.648 190.484 134.676 207.21 137.707 209.863C140.738 212.515 137.382 213.327 137.382 213.327H136.895C135.271 213.327 109.181 214.031 81.3577 212.569C78.1099 212.569 80.5457 224.911 94.403 230.594C105.716 235.195 132.294 234.979 138.248 235.574C144.203 236.17 136.246 239.309 136.246 239.309C136.246 239.309 72.3179 257.389 69.3408 258.363C61.9791 260.745 70.8564 274.602 93.2122 273.898C114.365 273.285 135.203 268.618 154.596 260.149C162.661 257.064 157.844 262.748 156.111 263.939C144.094 272.437 108.693 296.417 91.9672 307.243C89.5854 308.812 89.2607 310.545 91.9672 313.413C105.067 327.325 129.858 311.357 139.656 305.943C151.131 299.556 178.359 278.878 180.524 281.206C181.336 282.072 179.766 289.759 162.932 307.784C164.654 309.48 166.46 311.088 168.345 312.602C168.345 312.602 160.334 322.291 154.812 328.353C152.593 330.735 147.396 335.932 145.989 335.661C144.582 335.39 137.382 327.541 134.892 327.379C133.323 327.379 129.967 329.707 127.531 328.299C124.149 327.566 120.617 328.065 117.571 329.707C113.727 331.493 114.431 340.533 115.514 336.473C116.596 332.413 124.175 332.63 128.018 337.068C130.019 339.164 132.485 340.758 135.217 341.724C137.545 342.265 138.736 343.023 137.761 343.672C133.398 345.177 129.221 347.175 125.311 349.626C124.175 351.521 124.77 352.171 124.337 353.145C119.086 355.256 117.462 357.259 119.086 362.672C119.562 364.162 120.197 365.595 120.981 366.948C121.847 365.378 121.414 360.236 126.881 359.045C127.477 359.045 128.451 359.749 129.479 359.749C133.915 358.453 138.003 356.178 141.442 353.091C142.904 351.25 142.579 354.173 141.442 355.96C136.841 364.458 138.573 369.655 138.952 369.817C139.331 369.979 140.63 369.438 141.28 371.062C143.014 376.267 146.701 380.594 151.564 383.133C149.777 379.079 148.908 374.68 149.02 370.25C149.886 369.817 150.59 370.25 151.619 369.817C152.963 367.767 153.729 365.392 153.838 362.943C153.838 359.424 151.727 358.287 151.781 356.176C151.954 354.595 152.491 353.076 153.351 351.738C154.61 354.223 156.134 356.564 157.898 358.72C162.12 363.213 161.362 364.133 165.855 362.455C166.721 362.076 172.675 371.82 172.675 371.82C173.86 368.926 174.235 365.763 173.758 362.672C173.325 360.994 171.701 360.29 170.564 358.829C169.427 357.367 172.567 355.527 171.051 353.416C162.445 345.188 161.633 348.003 159.413 342.59C157.898 338.963 160.821 336.527 163.852 332.9C171.376 323.806 171.647 323.915 176.085 318.556C177.926 319.801 179.008 320.992 181.498 322.886C189.943 310.545 197.088 299.394 204.991 296.525C212.894 293.656 216.521 298.257 216.521 303.129C216.142 311.519 199.253 329.653 199.253 329.653C193.36 335.424 187.931 341.65 183.014 348.273C181.648 350.667 180.731 353.29 180.308 356.014C179.982 359.784 180.237 363.581 181.065 367.273C181.715 370.791 182.473 373.552 182.473 373.552C182.473 373.552 184.963 364.512 185.558 363.43C187.182 360.344 187.507 363.43 189.889 369.492C192.003 374.253 194.501 378.833 197.359 383.187V367.652C197.359 363.646 197.846 358.233 199.686 362.239C201.986 366.603 204.535 370.832 207.318 374.905C207.318 374.905 207.318 371.712 207.643 367.923C208.408 361.466 209.878 355.113 212.028 348.977C213.273 346.704 218.74 337.177 225.344 336.148C231.948 335.12 232.543 346.974 232.11 349.518C231.349 353.803 230.133 357.995 228.483 362.022C227.834 363.267 222.637 372.848 221.934 374.959C219.532 380.197 218.937 386.084 220.239 391.697C221.542 397.309 224.67 402.331 229.133 405.976C229.643 399.849 230.99 393.82 233.139 388.059C234.492 386.11 236.332 384.865 237.685 386.76C241.11 393.246 245.172 399.375 249.811 405.056C254.449 399.375 258.511 393.246 261.936 386.76C263.289 384.865 265.129 386.11 266.483 388.059C268.66 393.82 270.062 399.845 270.651 405.976C275.147 402.395 278.341 397.434 279.74 391.858C281.139 386.283 280.665 380.402 278.391 375.122C277.688 373.281 272.491 363.43 271.842 362.185C270.192 358.157 268.976 353.966 268.215 349.681C267.728 347.137 268.215 335.336 274.981 336.311C281.747 337.285 287.052 347.137 288.297 349.139C290.318 355.29 291.661 361.643 292.303 368.085C292.573 371.874 292.628 375.068 292.628 375.068C295.412 370.995 297.96 366.766 300.26 362.401C302.046 358.396 302.371 363.809 302.588 367.814V383.295C305.441 378.948 307.922 374.366 310.003 369.601C312.439 363.538 312.764 360.453 314.388 363.538C314.929 364.621 317.473 373.66 317.473 373.66C317.473 373.66 318.231 370.9 318.881 367.381C319.719 363.69 319.957 359.889 319.584 356.122C319.211 353.386 318.29 350.754 316.878 348.382C311.982 341.742 306.551 335.514 300.639 329.761C300.639 329.761 283.75 311.627 283.371 303.237C283.371 298.474 286.727 293.872 294.576 296.796C302.425 299.719 309.624 310.815 318.015 323.157C320.613 321.262 321.641 320.071 323.428 318.826C327.866 324.24 328.137 324.239 335.661 333.171C338.692 336.798 341.561 339.234 340.1 342.86C337.88 348.273 337.068 345.404 328.462 353.686C326.946 356.014 330.086 357.854 328.949 359.099C327.812 360.344 326.188 361.265 325.755 362.943C325.352 365.973 325.763 369.055 326.946 371.874C326.946 371.874 332.9 362.131 333.766 362.509C338.205 364.296 337.447 363.267 341.724 358.775C343.54 356.643 345.12 354.32 346.433 351.846C347.256 353.197 347.774 354.712 347.949 356.285C347.949 358.396 346.054 359.532 345.946 363.051C346.054 365.5 346.821 367.875 348.165 369.925C349.194 370.521 349.897 369.925 350.763 370.358C350.876 374.788 350.007 379.187 348.219 383.241C352.866 380.671 356.367 376.435 358.017 371.387C358.72 369.763 359.316 370.521 360.398 370.142C361.481 369.763 362.455 364.729 357.854 356.285C356.934 354.498 356.609 351.575 357.854 353.416C361.285 356.514 365.376 358.79 369.817 360.074C370.846 360.074 371.82 359.262 372.361 359.37C377.774 360.561 377.449 365.703 378.316 367.273C379.069 365.905 379.703 364.474 380.21 362.997C381.996 357.151 380.589 355.364 374.797 353.307C374.364 352.333 374.797 351.683 373.823 349.789C369.907 347.348 365.731 345.351 361.373 343.835C360.398 343.185 361.373 342.427 363.917 341.886C366.649 340.921 369.115 339.326 371.116 337.231C374.959 332.792 382.592 332.684 383.62 336.635C384.649 340.587 385.407 331.655 381.563 329.869C378.516 328.232 374.985 327.733 371.603 328.462C369.113 329.869 365.757 327.487 364.242 327.541C361.752 327.541 354.498 335.553 353.416 335.823C352.333 336.094 346.812 330.897 344.592 328.516C339.179 322.453 331.006 312.764 331.006 312.764C332.902 311.265 334.71 309.656 336.419 307.946C319.639 289.921 318.069 282.234 318.881 281.368C320.992 279.149 348.273 299.719 359.695 306.106C369.546 311.519 394.338 327.487 407.438 313.576C410.144 310.707 409.819 308.975 407.438 307.405C390.711 296.579 355.364 272.653 343.348 264.101C341.615 262.91 336.744 257.226 344.863 260.312" fill="#E00914"/>
<path d="M280.827 87.2578C280.827 87.2578 262.585 94.9442 260.961 96.1892C257.822 93.4827 248.728 85.3632 247.7 84.443C246.671 85.3632 237.577 93.4827 234.438 96.1892C232.814 94.9442 214.788 87.2578 214.572 87.2578C214.355 87.2578 219.606 94.836 222.746 100.032C224.753 103.897 225.617 108.253 225.236 112.591H270.272C269.923 108.255 270.785 103.907 272.762 100.032C275.901 94.6195 280.935 87.2578 280.935 87.2578" fill="#E00914"/>
<path d="M232.76 135.325C237.039 133.257 241.918 132.796 246.509 134.026L234.871 143.391C233.97 140.758 233.264 138.062 232.76 135.325Z" fill="white"/>
<path d="M283.75 241.096C294.035 239.255 307.459 235.953 321.641 211.162C308.217 208.618 305.943 201.851 305.943 201.851C305.943 201.851 313.251 199.903 323.427 207.968C323.969 190.7 334.253 187.94 334.253 187.94C334.253 187.94 338.53 197.467 325.538 208.888C338.313 211.595 341.453 218.469 341.453 218.469C341.453 218.469 334.686 220.959 324.293 212.298C308.866 240.446 291.815 246.509 283.912 246.509C284.099 244.709 284.099 242.895 283.912 241.096" fill="white"/>
<path d="M226.859 223.774C227.126 233.875 228.194 243.939 230.053 253.87C232.309 267.438 237.063 280.469 244.073 292.303C245.659 295.097 247.47 297.758 249.486 300.26C251.716 297.774 253.744 295.113 255.548 292.303C262.558 280.469 267.312 267.438 269.568 253.87C271.427 243.939 272.495 233.875 272.762 223.774C272.762 223.774 226.968 223.774 226.859 223.774Z" fill="white"/>
<path d="M215.817 241.096C205.532 239.255 192.162 235.953 177.926 211.162C191.35 208.618 193.624 201.851 193.624 201.851C193.624 201.851 186.316 199.903 176.14 207.968C175.544 190.7 165.314 187.94 165.314 187.94C165.314 187.94 161.037 197.467 174.029 208.888C161.254 211.595 158.114 218.469 158.114 218.469C158.114 218.469 164.881 220.959 175.274 212.298C190.701 240.446 207.481 246.509 215.6 246.509C215.476 244.706 215.476 242.898 215.6 241.096" fill="white"/>
<path d="M262.477 272.978V266.97H247.7V255.548H260.907V249.54H247.7V239.851H260.799V233.842H238.768V272.978H262.477Z" fill="#E00914"/>
</g>
<defs>
<clipPath id="clip0_6_72689">
<rect width="500" height="500" fill="white"/>
</clipPath>
</defs>
</svg>
