<svg width="500" height="500" viewBox="0 0 500 500" fill="none" xmlns="http://www.w3.org/2000/svg">
<path d="M487.595 228.76C474.05 222.131 450.493 214.492 450.493 214.492C449.482 214.224 447.449 213.56 447.449 213.56C447.449 213.56 448.478 212.034 448.772 210.893C449.587 207.967 449.424 204.558 447.533 203.495C447.533 203.495 457.813 204.062 460.042 203.195C466.365 200.731 468.79 192.251 466.567 186.248C465.407 183.106 460.459 181.137 459.442 178.51C458.478 176.02 457.845 174.065 455.199 172.722C450.929 170.564 440.115 168.674 435.357 169.091C431.342 169.443 430.572 174.078 428.089 175.147C418.161 179.423 413.736 177.415 413.833 192.231C413.833 192.231 413.833 192.929 413.944 193.516C410.352 191.775 401.37 187.375 397.211 185.524V95.8639H103.494V185.517C99.3352 187.369 90.3529 191.769 86.7612 193.509C86.8721 192.922 86.8721 192.225 86.8721 192.225C86.9698 177.409 82.5373 179.416 72.6164 175.14C70.1394 174.071 69.3637 169.437 65.3484 169.085C60.59 168.674 49.7826 170.558 45.5065 172.715C42.86 174.058 42.2278 176.014 41.263 178.504C40.2527 181.131 35.2987 183.099 34.1385 186.241C31.9157 192.244 34.3405 200.725 40.6634 203.189C42.8926 204.056 53.1721 203.489 53.1721 203.489C51.2818 204.551 51.1188 207.967 51.9336 210.887C52.2269 212.021 53.2568 213.553 53.2568 213.553C53.2568 213.553 51.2166 214.224 50.2128 214.485C50.2128 214.485 26.6554 222.131 13.1037 228.754C13.1037 228.754 -3.14007 236.387 17.0017 234.927C17.9794 234.927 33.076 233.76 48.8243 231.42L48.7266 232.306C48.707 237.397 49.8151 237.371 54.0456 238.825L53.9087 239.763C48.6027 240.839 38.056 241.888 34.3862 244.346C30.3643 247.038 19.3744 244.952 12.7778 253.934C11.0439 256.294 8.15626 263.458 9.85104 265.791C12.6344 269.598 28.5653 275.171 30.6446 275.217C35.6247 275.328 36.1331 271.247 39.6465 268.829C41.3347 267.662 43.3554 268.444 45.2262 267.955C48.0421 267.206 49.6066 264.644 52.0835 263.353C53.5306 262.61 56.6334 261.893 58.6084 263.047C67.3561 268.431 94.1726 261.6 103.481 256.098V304.68C103.481 321.973 105.678 328.589 110.931 337.734L111.368 338.451C141.255 383.148 191.909 408.778 250.34 408.785C308.777 408.785 359.379 383.22 389.174 338.653L389.624 337.956C394.969 328.648 397.198 321.966 397.198 304.68V256.105C406.507 261.606 433.323 268.438 442.071 263.053C444.046 261.9 447.149 262.617 448.596 263.36C451.073 264.644 452.637 267.212 455.46 267.962C457.33 268.457 459.351 267.668 461.039 268.835C464.553 271.247 465.068 275.328 470.041 275.223C472.121 275.178 488.051 269.604 490.835 265.798C492.536 263.464 489.648 256.294 487.908 253.941C481.318 244.965 470.321 247.044 466.3 244.352C462.63 241.901 452.083 240.845 446.777 239.77L446.64 238.831C450.871 237.371 451.979 237.404 451.959 232.313L451.861 231.426C467.61 233.766 482.706 234.933 483.684 234.933C503.845 236.393 487.595 228.76 487.595 228.76Z" fill="white"/>
<path d="M236.025 271.273C220.401 271.273 205.832 266.782 193.506 259.051C206.693 275.973 227.245 286.865 250.359 286.865C277.925 286.865 301.867 271.377 313.978 248.635L313.894 248.609C312.473 248.218 310.354 247.383 307.903 246.419C305.152 245.337 300.14 243.361 298.432 243.159C298.106 243.348 297.5 243.837 297.044 244.209C296.248 244.854 295.258 245.636 294.032 246.412C279.424 261.717 258.846 271.273 236.025 271.273Z" fill="#DADADA"/>
<path d="M459.774 194.708C460.641 193.424 460.654 191.052 459.983 189.663C459.207 188.073 456.835 187.597 455.335 187.043C453.458 187.447 455.544 189.09 453.927 189.8L450.297 189.331C448.015 186.971 452.787 187.297 453.054 186.032C453.445 184.201 451.718 182.513 452.852 180.713C452.656 180.277 452.389 179.814 451.907 179.638C450.036 178.967 438.857 176.294 437.312 176.405L436.843 176.946C437.293 177.565 439.176 179.279 439.261 179.436C440.004 180.785 434.985 181.75 434.151 181.926C430.135 182.773 419.393 184.064 420.971 190.4C421.707 193.385 432.384 200.966 433.681 204.251C433.962 204.962 435.357 206.441 434.425 207.08C432.462 208.417 422.581 206.63 422.046 208.162C422.6 210.229 428.48 211.793 430.39 212.53C432.645 213.39 434.737 214.035 437.11 212.869C439.77 211.565 441.497 208.045 441.015 205.131C440.786 203.795 439.346 200.523 438.525 199.415C437.749 198.385 431.257 193.242 433.075 192.551C435.265 193.248 438.257 192.623 439.802 194.702C443.889 195.862 448.263 196.573 452.448 197.329C455.133 197.818 458.19 197.068 459.774 194.708ZM370.31 245.154C370.649 244.411 370.786 243.472 370.382 242.664C370.043 242.332 369.71 241.927 369.169 241.856C367.285 242.266 365.402 243.133 363.251 242.599C361.288 242.599 358.134 240.845 357.26 243.472C356.921 245.154 355.976 246.569 355.572 248.185C355.572 249.059 356.38 249.867 357.182 250.271C358.394 250.538 359.874 251.21 360.95 251.008C362.97 249.593 362.833 247.038 364.848 245.565C365.93 245.832 366.06 247.318 367.272 247.181C368.498 247.038 369.71 246.301 370.31 245.154ZM419.354 213.879C419.7 211.976 417.555 211.669 416.258 211.252C413.149 210.242 410.059 209.264 406.917 208.371C404.616 207.713 402.296 206.487 399.982 206.011C397.061 205.405 394.754 205.346 392.714 202.778L393.183 202.504C395.947 203.606 400.386 205.979 403.28 204.056C404.649 203.137 406.083 200.686 405.431 199.017C404.942 197.759 403.397 197.59 402.335 197.127C397.804 195.152 393.359 192.72 388.933 190.511C379.572 185.85 370.232 181.144 360.904 176.411C356.66 174.26 351.843 171.783 347.183 170.766C343.383 169.939 339.061 170.988 335.75 172.983C332.471 174.958 332.549 179.605 330.098 179.11C329.746 178.719 329.453 178.236 329.492 177.695C328.501 176.125 325.405 180.537 322.902 181.796C317.309 184.605 307.499 195.334 303.464 200.432C300.915 203.645 299.898 207.758 298.96 211.663L299.501 212.399C300.726 212.693 301.854 212.191 302.93 211.663C303.946 211.923 303.855 213.208 304.409 213.944C308.49 219.439 319.33 216.245 325.261 218.246C325.346 218.611 325.261 218.937 324.857 218.983C322.204 219.322 318.684 218.768 315.96 218.696C309.689 218.533 303.412 218.455 297.141 218.109L296.398 218.513C295.818 219.798 292.37 227.189 291.822 227.789C290.981 228.715 289.743 229.425 288.85 230.423C286.419 233.141 284.652 236.432 281.601 238.551C280.689 239.183 278.851 239.535 278.44 240.565L278.909 241.106C288.178 241.862 289.117 232.137 295.323 229.947C295.662 230.012 295.792 230.377 295.72 230.69C294.182 232.228 292.52 234.444 291.555 236.4C287.931 243.74 285.349 241.504 281.869 244.88L282.41 245.689C292.663 245.389 294.534 239.62 297.878 239.157C300.733 238.753 311.429 243.766 314.962 244.743C316.735 245.232 318.482 245.838 320.353 245.806C320.979 245.793 321.82 245.46 322.361 245.486C323.736 245.532 324.003 247.976 327.008 246.562C328.814 245.708 328.931 243.133 329.159 241.38C329.433 239.274 326.819 237.475 327.008 236.335C327.269 234.718 329.296 236.882 329.759 235.461C330.039 234.607 328.99 232.886 328.482 232.235C327.132 230.507 323.319 227.554 323.84 225.038C323.893 224.797 324.61 224.269 324.851 224.302L337.294 225.847C337.725 225.899 339.621 230.312 339.647 230.755C339.68 231.426 337.868 235.976 337.496 236.876C336.453 239.346 334.641 241.145 334.667 244.007C334.7 247.514 337.066 250.779 338.839 253.687C340.795 256.913 343.93 255.375 346.779 256.307C347.945 256.698 349.203 257.5 350.351 258.015C353.962 259.592 358.01 261.235 361.843 262.167C363.941 262.675 367.194 261.971 368.433 260.016C369.339 258.582 366.282 258.152 367.631 256.581C368.348 255.746 369.241 255.799 370.251 255.909C372.409 256.151 383.483 257.493 384.644 256.248C385.035 255.831 384.448 255.271 384.109 255.101C381.874 254.026 378.425 253.504 375.968 252.82C373.002 251.979 369.925 251.77 366.953 250.864C364.424 250.088 364.587 252.676 362.781 253.823C360.063 255.564 352.769 252.096 351.882 248.974C351.035 245.975 353.766 242.182 355.715 240.167C357.247 238.577 359.118 238.349 360.63 237.136C361.588 236.367 360.904 234.848 360.897 233.845C362.39 231.974 368.009 234.953 370.31 234.32C372.8 233.63 370.942 230.331 373.074 229.679C374.951 230.207 376.424 231.563 378.256 232.235C379.612 232.73 382.004 232.984 382.897 234.184C383.607 235.142 382.877 236.465 382.695 237.475C383.353 238.72 385.445 239.111 386.73 239.294C388.802 239.594 391.051 239.47 393.163 239.698C395.262 239.92 397.374 240.519 399.44 240.708L406.441 241.38C408.129 242.188 406.031 243.635 407.582 246.894C405.92 246.653 399.082 244.613 398.3 246.894C404.336 252.52 418.031 256.496 426.146 257.656C431.113 258.367 436.367 258.204 441.347 257.793C442.097 257.734 442.762 257.611 443.211 257.22C443.224 257.252 445.877 255.01 447.305 255.238C449.254 255.564 451.529 259.299 455.583 260.85C458.347 262.408 460.967 259.71 463.118 260.922C465.752 262.408 467.394 269.904 471.586 268.724C472.433 268.483 476.077 267.225 476.572 266.736C477.954 265.602 475.621 262.617 474.421 260.622C473.991 260.009 473.698 259.553 473.189 259.423C468.313 258.178 470.614 252.618 463.646 251.294C460.511 250.708 459.735 250.447 456.587 249.86C455.74 249.697 453.817 250.121 453.719 248.902C453.699 248.902 454.24 248.315 454.24 248.315L459.82 248.185L459.69 247.448C450.753 246.327 441.992 243.785 433.056 242.729C432.384 242.338 431.537 240.272 431.641 239.639C431.908 238.01 434.483 241.041 435.813 237.821C436.589 235.957 434.724 234.36 436.217 233.447C440.141 233.949 444.065 234.444 447.989 234.998C425.807 229.705 403.43 225.266 381.254 220.006C376.45 218.865 371.529 218.109 366.796 216.643L366.868 216.108C386.436 218.846 405.809 223.572 425.455 225.658V225.188C414.589 223.115 403.84 220.352 392.961 218.39C376.75 215.476 360.408 213.045 344.126 210.548C333.501 208.918 322.7 206.937 311.984 206.018L311.645 206.754C312.362 207.634 313.365 208.045 314.337 208.573C314.474 208.788 314.487 209.075 314.271 209.244C312.903 209.101 306.808 209.492 306.801 208.038C309.07 205.887 309.624 204.766 312.916 205.079C318.046 205.555 323.215 206.311 328.325 206.956C357.756 210.731 387.401 214.674 416.642 219.739C447.481 225.077 463.796 227.463 489.14 232.339C480.529 229.249 441.706 218.37 421.883 214.954C420.977 214.785 419.797 214.935 419.354 213.879ZM412.086 248.452C413.631 248.583 414.465 248.55 416.486 248.961C419.784 249.639 423.076 249.899 426.433 250.845C426.974 251.047 427.561 251.809 427.626 252.344C427.424 252.683 426.941 252.774 426.674 252.774L413.559 249.417L412.086 248.452ZM339.706 243.068L343.337 234.529C343.474 233.923 344.08 233.317 344.686 233.388C345.494 233.656 346.505 233.793 346.772 234.731L343.676 241.393C341.518 244.222 343.07 248.12 343.813 250.942C343.741 251.346 343.337 251.555 342.998 251.62C340.853 249.456 338.898 246.432 339.706 243.068ZM312.068 237.091C311.24 237.71 309.787 237.365 308.75 237.228C307.499 236.537 307.225 235.09 307.082 233.701C307.082 233.362 307.153 233.01 307.499 232.73C308.952 232.73 310.406 233.082 311.377 234.255C311.795 235.155 312.557 236.12 312.068 237.091ZM356.198 202.218L358.003 203.052C358.003 203.052 331.376 199.284 318.521 197.4C317.98 197.335 316.312 197.172 316.592 196.227C316.924 196.025 317.329 195.888 317.733 195.96L356.198 202.218ZM363.055 190.335L362.781 190.608C355.982 189.292 349.001 187.688 342.333 185.837C341.818 185.693 340.632 185.596 340.782 184.833C343.226 184.364 354.392 187.31 357.195 188.255C358.44 188.679 359.176 188.386 360.428 188.255C361.38 188.848 362.344 189.448 363.055 190.335ZM130.323 242.664C129.919 243.472 130.056 244.417 130.395 245.154C130.995 246.295 132.207 247.038 133.419 247.175C134.632 247.312 134.762 245.825 135.844 245.558C137.858 247.038 137.728 249.593 139.742 251.001C140.818 251.203 142.297 250.532 143.51 250.264C144.312 249.86 145.12 249.052 145.12 248.179C144.716 246.569 143.771 245.154 143.432 243.466C142.565 240.839 139.403 242.592 137.441 242.592C135.29 243.127 133.413 242.26 131.523 241.849C130.995 241.921 130.662 242.332 130.323 242.664ZM221.802 241.113L222.271 240.572C221.867 239.535 220.029 239.19 219.11 238.557C216.059 236.445 214.293 233.147 211.861 230.429C210.968 229.432 209.723 228.721 208.889 227.796C208.342 227.189 204.9 219.804 204.313 218.52L203.57 218.116C197.306 218.461 191.022 218.533 184.752 218.702C182.033 218.774 178.513 219.328 175.854 218.989C175.45 218.944 175.359 218.618 175.45 218.253C181.382 216.252 192.222 219.446 196.302 213.951C196.863 213.208 196.771 211.923 197.788 211.669C198.864 212.197 199.992 212.699 201.217 212.406L201.758 211.669C200.819 207.765 199.796 203.652 197.254 200.438C193.219 195.341 183.402 184.618 177.816 181.802C175.306 180.544 172.217 176.131 171.226 177.702C171.272 178.243 170.972 178.725 170.62 179.116C168.169 179.612 168.241 174.971 164.968 172.989C161.657 170.995 157.335 169.945 153.535 170.773C148.874 171.79 144.051 174.273 139.814 176.418C130.486 181.15 121.145 185.856 111.785 190.517C107.359 192.727 102.913 195.158 98.3832 197.133C97.3207 197.596 95.7759 197.765 95.287 199.024C94.6352 200.692 96.0692 203.15 97.4381 204.062C100.332 205.985 104.771 203.612 107.535 202.511L108.004 202.785C105.964 205.353 103.657 205.412 100.736 206.018C98.4223 206.5 96.1083 207.719 93.8008 208.377C90.659 209.27 87.5693 210.255 84.46 211.259C83.1563 211.676 81.0118 211.982 81.3638 213.885C80.914 214.941 79.7407 214.791 78.8151 214.954C58.9927 218.364 20.1694 229.249 11.5586 232.339C36.902 227.463 53.2175 225.077 84.0559 219.739C113.297 214.674 142.936 210.731 172.373 206.956C177.49 206.305 182.653 205.548 187.783 205.079C191.081 204.773 191.628 205.894 193.897 208.038C193.89 209.492 187.796 209.101 186.427 209.244C186.212 209.075 186.225 208.788 186.362 208.573C187.333 208.051 188.337 207.641 189.054 206.754L188.715 206.018C177.999 206.93 167.198 208.918 156.573 210.548C140.283 213.045 123.948 215.476 107.737 218.39C96.8579 220.352 86.1091 223.115 75.243 225.188V225.658C94.8894 223.572 114.262 218.852 133.83 216.108L133.902 216.643C129.169 218.109 124.248 218.865 119.444 220.006C97.2686 225.273 74.891 229.705 52.709 234.998C56.6331 234.444 60.5572 233.955 64.4812 233.447C65.9739 234.36 64.1097 235.957 64.8853 237.821C66.2151 241.041 68.7898 238.01 69.0571 239.639C69.1614 240.272 68.314 242.338 67.6426 242.729C58.7059 243.785 49.9452 246.321 41.0086 247.448L40.8782 248.185L46.4579 248.315C46.4579 248.315 46.9989 248.902 46.9794 248.902C46.8816 250.121 44.9587 249.697 44.1113 249.86C40.9629 250.447 40.1938 250.708 37.0519 251.294C30.0838 252.618 32.3848 258.178 27.509 259.423C27.0071 259.553 26.7073 260.009 26.2771 260.622C25.0842 262.61 22.7441 265.602 24.126 266.736C24.6279 267.225 28.2652 268.483 29.1125 268.724C33.3104 269.904 34.953 262.408 37.5799 260.922C39.731 259.71 42.3514 262.408 45.1151 260.85C49.1696 259.299 51.4445 255.564 53.3935 255.238C54.821 255.01 57.4805 257.252 57.4935 257.22C57.9433 257.611 58.6082 257.734 59.3578 257.793C64.3378 258.204 69.5981 258.373 74.5586 257.656C82.674 256.496 96.369 252.526 102.405 246.894C101.616 244.613 94.7851 246.653 93.1164 246.894C94.6678 243.635 92.5754 242.188 94.2571 241.38L101.258 240.708C103.324 240.513 105.436 239.913 107.535 239.698C109.647 239.477 111.902 239.594 113.969 239.294C115.253 239.105 117.345 238.72 118.004 237.475C117.821 236.465 117.091 235.135 117.801 234.184C118.694 232.991 121.087 232.737 122.443 232.235C124.274 231.563 125.747 230.214 127.625 229.679C129.75 230.325 127.892 233.623 130.388 234.32C132.689 234.953 138.308 231.974 139.801 233.845C139.794 234.848 139.11 236.374 140.068 237.136C141.574 238.349 143.445 238.577 144.983 240.167C146.932 242.188 149.663 245.982 148.816 248.974C147.936 252.096 140.635 255.564 137.917 253.823C136.118 252.676 136.274 250.088 133.745 250.864C130.773 251.77 127.696 251.979 124.73 252.82C122.273 253.504 118.818 254.019 116.589 255.101C116.25 255.271 115.663 255.831 116.055 256.248C117.208 257.5 128.289 256.151 130.447 255.909C131.457 255.799 132.357 255.746 133.067 256.581C134.417 258.152 131.36 258.582 132.266 260.016C133.504 261.965 136.757 262.669 138.856 262.167C142.689 261.241 146.736 259.599 150.348 258.015C151.495 257.506 152.753 256.698 153.92 256.307C156.762 255.375 159.897 256.913 161.859 253.687C163.632 250.779 165.998 247.514 166.031 244.007C166.063 241.145 164.245 239.346 163.202 236.876C162.83 235.976 161.018 231.426 161.051 230.755C161.077 230.312 162.974 225.899 163.404 225.847L175.847 224.302C176.089 224.269 176.806 224.797 176.858 225.038C177.379 227.554 173.566 230.507 172.217 232.235C171.708 232.88 170.659 234.607 170.939 235.461C171.402 236.882 173.429 234.725 173.69 236.335C173.885 237.482 171.272 239.274 171.539 241.38C171.76 243.133 171.884 245.708 173.69 246.562C176.695 247.983 176.962 245.532 178.337 245.486C178.872 245.46 179.719 245.793 180.345 245.806C182.216 245.832 183.963 245.226 185.736 244.743C189.269 243.772 199.965 238.76 202.82 239.157C206.164 239.62 208.035 245.389 218.289 245.689L218.83 244.88C215.342 241.51 212.768 243.74 209.137 236.4C208.172 234.444 206.51 232.228 204.972 230.69C204.9 230.377 205.03 230.012 205.369 229.947C211.594 232.15 212.533 241.869 221.802 241.113ZM88.6187 248.452L87.1456 249.424L74.0306 252.781C73.7634 252.781 73.281 252.683 73.0789 252.35C73.1441 251.809 73.7308 251.053 74.2718 250.851C77.6287 249.906 80.927 249.639 84.2188 248.967C86.2395 248.55 87.0739 248.583 88.6187 248.452ZM160.999 243.068C161.807 246.438 159.851 249.456 157.707 251.614C157.368 251.549 156.964 251.34 156.892 250.936C157.635 248.113 159.187 244.215 157.029 241.386L153.933 234.725C154.206 233.786 155.217 233.649 156.019 233.382C156.631 233.317 157.231 233.916 157.368 234.523L160.999 243.068ZM159.923 184.827C160.073 185.589 158.887 185.693 158.372 185.83C151.703 187.682 144.722 189.285 137.924 190.602L137.65 190.328C138.36 189.442 139.325 188.842 140.27 188.242C141.522 188.373 142.258 188.666 143.503 188.242C146.313 187.304 157.479 184.357 159.923 184.827ZM182.183 197.4C169.329 199.284 142.702 203.052 142.702 203.052L144.507 202.218L182.972 195.96C183.376 195.888 183.78 196.025 184.113 196.227C184.393 197.166 182.724 197.335 182.183 197.4ZM193.623 233.701C193.48 235.09 193.206 236.543 191.954 237.228C190.918 237.365 189.464 237.71 188.637 237.091C188.148 236.126 188.91 235.155 189.327 234.255C190.292 233.082 191.746 232.73 193.206 232.73C193.551 233.004 193.623 233.356 193.623 233.701ZM79.7407 190.406C81.3116 184.064 70.5759 182.773 66.5606 181.932C65.7262 181.756 60.7071 180.792 61.4502 179.442C61.5349 179.286 63.4252 177.578 63.8685 176.952L63.3992 176.411C61.8543 176.294 50.6753 178.973 48.8045 179.644C48.3222 179.82 48.0614 180.283 47.8594 180.72C48.9936 182.519 47.2662 184.207 47.6573 186.039C47.9245 187.304 52.696 186.978 50.4146 189.337L46.7838 189.807C45.1608 189.096 47.2532 187.46 45.3694 187.049C43.8701 187.603 41.4974 188.073 40.7218 189.67C40.0504 191.058 40.0634 193.424 40.9303 194.715C42.5143 197.075 45.5714 197.824 48.2635 197.342C52.4483 196.586 56.8156 195.875 60.9091 194.715C62.454 192.636 65.4394 193.261 67.6361 192.564C69.4612 193.255 62.9624 198.398 62.1867 199.428C61.3654 200.529 59.9249 203.802 59.6967 205.144C59.2144 208.065 60.9482 211.578 63.6012 212.882C65.9739 214.048 68.0728 213.403 70.3217 212.543C72.2315 211.813 78.1111 210.242 78.6652 208.175C78.1307 206.644 68.2488 208.43 66.2868 207.093C65.3547 206.461 66.7496 204.975 67.0234 204.264C68.327 200.973 79.0041 193.385 79.7407 190.406ZM30.2598 251.197C29.9208 250.134 23.2851 251.314 22.9201 252.598C22.3856 254.482 27.9001 256.959 30.2598 251.197ZM15.4109 262.741C15.5478 262.949 16.3235 263.327 16.669 263.542C18.077 264.298 19.4132 265.641 20.3519 264.429C20.8407 263.81 23.4416 259.331 23.9239 257.637C24.126 256.952 23.6632 255.981 22.0401 255.916H21.7142C17.4903 256.34 16.1475 259.983 15.4109 262.741ZM477.785 252.598C477.413 251.314 470.777 250.134 470.445 251.197C472.805 256.959 478.319 254.482 477.785 252.598ZM476.781 257.643C477.27 259.331 479.871 263.816 480.353 264.435C481.292 265.648 482.628 264.305 484.036 263.549C484.381 263.334 485.157 262.956 485.294 262.747C484.557 259.99 483.214 256.346 478.991 255.922H478.665C477.042 255.981 476.585 256.959 476.781 257.643Z" fill="#DD0741"/>
<path d="M389.473 304.686V261.502H381.417V304.686C381.417 320.024 379.637 323.635 376.072 329.867C348.786 370.672 302.655 392.978 250.352 392.978C198.049 392.978 151.925 370.672 124.645 329.867C121.073 323.635 119.294 320.024 119.294 304.686V261.417H111.23V304.686C111.23 320.989 113.186 326.106 117.658 333.889L117.951 334.358C147.759 378.943 197.26 401.054 250.358 401.054C303.464 401.054 352.958 378.943 382.773 334.358L383.059 333.889C387.518 326.112 389.473 320.995 389.473 304.686ZM189.705 182.975C193.583 174.338 197.807 166.947 199.965 163.342C194.105 169.078 189.216 175.799 185.579 183.243C186.342 183.894 187.111 184.572 187.886 185.289C188.486 184.52 189.086 183.744 189.705 182.975ZM314.349 352.74L327.738 344.344L324.72 339.527L316.337 344.787L304.324 307.013L301.436 302.392L288.048 310.787L291.066 315.605L299.448 310.344L311.462 348.112L314.349 352.74ZM307.753 190.093C300.713 185.205 290.257 180.016 290.257 180.016C282.82 190.491 276.634 203.436 276.634 203.436C280.297 211.089 285.779 219.726 288.791 225.064C292.845 219.12 294.507 213.514 297.03 205.477C298.868 199.636 301.339 196.481 307.753 190.093ZM245.822 203.73C245.822 203.73 236.833 189.415 227.427 178.738C227.427 178.738 207.611 187.577 200.31 191.378L199.985 196.788C200.095 197.153 202.716 200.92 203.817 205.014L206.04 212.099C206.301 212.901 206.542 213.625 206.542 213.625C207.037 215.078 207.722 216.884 208.55 218.748C209.299 220.443 210.166 222.196 211.124 223.793C211.887 225.071 212.832 226.238 213.953 227.215C213.986 227.242 214.012 227.268 214.045 227.294C215.042 228.161 216.222 228.78 217.499 229.132C220.928 230.084 224.78 231.094 228.972 232.104C228.972 232.104 241.474 212.165 245.822 203.73ZM250.352 142.77C242.23 142.77 234.428 144.132 227.14 146.616L240.848 157.436C240.848 157.436 257.581 155.852 272.612 157.782C274.757 154.229 275.865 151.237 276.412 149.36C292.291 156.876 304.852 170.219 311.396 186.613C312.635 185.42 313.886 184.286 315.118 183.243C303.411 159.281 278.811 142.77 250.352 142.77ZM343.343 332.644L347.371 328.648L312.713 293.709L312.498 293.488L308.47 297.49L343.128 332.428L343.343 332.644ZM346.172 294.446L359.9 303.102L357.533 306.863L325.268 286.513L327.64 282.752L331.988 285.496L335.019 280.692L332.21 278.919C330.953 278.126 329.498 277.705 328.012 277.707C325.261 277.707 322.758 279.082 321.311 281.383C318.99 285.066 320.098 289.955 323.781 292.288L352.984 310.696C354.242 311.491 355.695 311.909 357.181 311.909C359.932 311.909 362.435 310.533 363.889 308.232C366.209 304.549 365.095 299.654 361.405 297.327L344.405 286.604L340.208 293.26L345.018 296.291L346.172 294.446ZM288.093 363.352L281.692 342.395L286.236 341.007C286.911 340.802 287.539 340.466 288.084 340.017C288.629 339.569 289.08 339.016 289.41 338.393C289.742 337.769 289.947 337.085 290.013 336.381C290.079 335.677 290.005 334.968 289.795 334.293L284.873 318.179C284.176 315.898 282.116 314.366 279.743 314.366C279.209 314.366 278.681 314.444 278.166 314.601L268.186 317.651L282.559 364.707L282.65 365.001L288.093 363.352ZM280.024 336.952L275.285 321.432L279.535 320.135L284.273 335.655L280.024 336.952ZM265.123 367.927L260.833 318.59L255.176 319.085L259.465 368.423L265.123 367.927ZM243.723 363.097L233.671 361.904L235.581 345.785L243.123 346.684L243.794 341.039L236.253 340.14L238.163 324.02L248.214 325.213L248.885 319.568L238.528 318.336C235.536 317.977 232.909 320.128 232.563 323.042L227.994 361.539C227.642 364.479 229.754 367.158 232.694 367.51L243.051 368.742L243.723 363.097ZM250.352 286.865C277.918 286.865 301.86 271.377 313.971 248.635L313.886 248.609C312.465 248.218 310.347 247.383 307.896 246.419C307.785 246.373 307.655 246.327 307.544 246.282C301.26 257.565 291.985 266.958 280.728 273.287L274.985 257.135L243.788 257.982L231.573 275.119C231.573 275.119 236.683 278.958 245.848 282.198C230.764 282.041 216.861 277.074 205.525 268.796C205.897 268.477 206.262 268.144 206.555 267.818C206.555 267.818 198.101 255.649 192.932 246.366C192.893 246.386 192.84 246.406 192.801 246.419C190.35 247.383 188.232 248.218 186.811 248.609L186.726 248.635C198.844 271.377 222.786 286.865 250.352 286.865ZM216.887 358.828L207.318 355.53L221.612 314.092L216.248 312.241L200.095 359.049L215.035 364.199L216.887 358.828ZM183.122 321.934C183.363 321.966 183.578 321.979 183.793 321.979C185.031 321.979 186.087 321.432 187.104 320.246L197.208 308.519C197.672 307.987 198.026 307.368 198.249 306.697C198.471 306.027 198.558 305.319 198.505 304.615C198.455 303.911 198.265 303.224 197.947 302.594C197.629 301.964 197.19 301.403 196.654 300.945L188.753 294.133L156.422 331.653L164.323 338.464C165.3 339.305 166.545 339.768 167.829 339.768C169.394 339.768 170.88 339.084 171.903 337.897L181.609 326.634C183.141 324.848 183.63 323.368 183.122 321.934ZM178.689 321.634L178.552 321.79L167.816 334.247L164.14 331.073L175.006 318.46L178.689 321.634ZM182.105 317.351L178.741 314.451L189.34 302.157L192.704 305.058L182.105 317.351ZM157.641 298.722L160.19 302.366L145.458 312.678C144.337 313.466 143.509 314.79 143.014 315.767L142.929 315.937L146.319 320.774L146.553 320.304C147.108 319.17 147.629 318.095 148.718 317.332L162.074 307.985C164.01 306.629 164.838 305.319 164.701 303.806C165.163 303.989 165.685 304.132 166.272 304.132C167.138 304.132 168.025 303.813 168.97 303.148L181.648 294.27C182.23 293.868 182.725 293.355 183.106 292.759C183.486 292.164 183.744 291.498 183.865 290.802C184.112 289.394 183.799 287.967 182.972 286.787L176.988 278.241L136.424 306.642L139.677 311.289L157.641 298.722ZM162.002 295.417L162.171 295.3L175.638 285.874L178.422 289.857L178.252 289.974L164.785 299.4L162.002 295.417ZM381.417 178.23L389.48 181.978V103.601H111.23V181.906L119.294 178.126V111.677H381.417V178.23Z" fill="#001F47"/>
</svg>
