<svg width="500" height="500" viewBox="0 0 500 500" fill="none" xmlns="http://www.w3.org/2000/svg">
<g clip-path="url(#clip0_6_72705)">
<path d="M249.999 0.521271C199.404 0.521271 106.111 13.611 58.6003 41.2384C-3.95234 263.009 81.119 413.819 249.999 499.416C418.881 413.819 503.952 262.263 441.398 41.2397C393.84 13.611 300.593 0.521271 249.999 0.521271Z" fill="#9C824A" stroke="#9C824A" stroke-width="0.716088" stroke-miterlimit="282"/>
<path d="M249.999 14.7799C200.293 14.7799 144.326 21.1378 71.0266 51.0557C16.4616 244.639 79.7632 399.796 249.999 484.362C420.235 399.796 483.49 244.637 428.925 51.0557C355.625 21.1378 299.706 14.7799 249.999 14.7799Z" fill="#023474" stroke="#023474" stroke-width="0.716088" stroke-miterlimit="282"/>
<path d="M249.766 14.593C200.293 14.593 147.176 21.9316 99.2438 40.0708C49.5373 238.282 86.2107 383.013 250.047 484.222L249.766 14.593ZM250.047 484.222C413.882 383.013 450.509 238.282 400.801 40.0708C352.87 21.9316 299.799 14.593 250.327 14.593L250.047 484.222Z" fill="white" stroke="white" stroke-width="0.716088" stroke-miterlimit="282"/>
<path d="M250.047 14.5469C200.293 14.5469 149.932 22.0725 109.008 36.3298C57.5262 244.078 98.8699 384.367 250.093 480.247L250.047 14.5469Z" fill="#EF0107" stroke="#EF0107" stroke-width="0.716088" stroke-miterlimit="282"/>
<path d="M250.14 14.5469C299.893 14.5469 350.255 22.0725 391.225 36.3298C442.707 244.078 401.362 384.367 250.094 480.247L250.14 14.5469Z" fill="#DB0007" stroke="#DB0007" stroke-width="0.716088" stroke-miterlimit="282"/>
<path d="M185.764 328.037C163.808 343.092 146.336 348.514 126.06 353.89L113.821 334.863C132.462 325.421 151.755 312.284 171.19 293.259C172.825 311.722 181.419 324.81 185.764 328.037Z" fill="white"/>
<path d="M182.774 327.243C161.939 341.546 132.926 351.505 99.711 356.366L92.9371 346.083C121.387 335.421 148.857 319.529 170.16 297.184C173.384 311.488 178.289 320.979 182.774 327.243Z" fill="#9C824A"/>
<path d="M127.275 239.871C127.275 247.865 120.829 254.316 112.84 254.316C104.851 254.316 98.3578 247.865 98.3578 239.871C98.3578 231.877 104.851 225.426 112.84 225.426C120.829 225.426 127.275 231.877 127.275 239.871Z" fill="white"/>
<path d="M125.733 211.401V265.909H168.665C171.468 247.631 181.839 228.23 205.337 211.401H125.733Z" fill="white"/>
<path d="M127.462 265.909C117.885 266.049 109.99 254.035 109.85 238.982C109.756 223.928 117.419 211.588 127.042 211.401C127.136 211.401 127.229 211.401 127.37 211.401" fill="white"/>
<path d="M121.202 239.871C121.202 246.042 116.717 250.998 111.204 250.998C105.691 250.998 101.206 246.043 101.206 239.871C101.206 233.7 105.691 228.745 111.204 228.745C116.717 228.744 121.202 233.7 121.202 239.871Z" fill="#9C824A"/>
<path d="M126.901 214.253V263.244H169.508C172.871 246.976 181.14 229.68 201.788 214.253H126.901Z" fill="#9C824A"/>
<path d="M128.489 263.244C119.472 263.432 112.091 252.587 111.952 239.076C111.858 225.566 119.099 214.439 128.115 214.253C128.209 214.253 128.302 214.253 128.395 214.253" fill="#9C824A"/>
<path d="M331.519 278.671C331.519 324.159 294.708 360.994 249.252 360.994C203.843 360.994 166.984 324.159 166.984 278.671C166.984 233.186 203.843 196.348 249.252 196.348C294.708 196.348 331.519 233.186 331.519 278.671Z" fill="white"/>
<path d="M327.224 278.671C327.224 321.774 292.325 356.692 249.253 356.692C206.227 356.692 171.329 321.774 171.329 278.671C171.329 235.618 206.227 200.65 249.253 200.65C292.325 200.649 327.224 235.57 327.224 278.671Z" fill="#9C824A"/>
<path d="M314.282 278.671C314.282 314.621 285.176 343.746 249.252 343.746C213.373 343.746 184.269 314.621 184.269 278.671C184.269 242.722 213.373 213.598 249.252 213.598C285.176 213.598 314.282 242.722 314.282 278.671Z" fill="white"/>
<path d="M309.985 278.671C309.985 312.235 282.795 339.397 249.252 339.397C215.756 339.397 188.567 312.235 188.567 278.671C188.567 245.107 215.756 217.947 249.252 217.947C282.795 217.946 309.985 245.107 309.985 278.671Z" fill="#9C824A"/>
<path d="M274.571 278.671C274.619 292.65 263.267 304.01 249.298 304.056C235.284 304.056 223.93 292.697 223.93 278.719V278.671C223.93 264.693 235.236 253.334 249.25 253.334C263.218 253.288 274.57 264.648 274.57 278.625C274.571 278.671 274.571 278.671 274.571 278.671Z" fill="white"/>
<path d="M271.583 278.671C271.583 291.015 261.63 301.018 249.299 301.018C236.966 301.018 226.969 291.062 226.921 278.72V278.673C226.921 266.332 236.919 256.326 249.252 256.326C261.584 256.326 271.583 266.284 271.583 278.625V278.671Z" fill="#9C824A"/>
<path d="M260.745 278.671C260.745 284.982 255.606 290.123 249.253 290.17C242.946 290.17 237.807 285.029 237.807 278.671C237.807 272.315 242.946 267.219 249.253 267.173C255.604 267.172 260.745 272.315 260.745 278.671Z" fill="white"/>
<path d="M257.568 278.671C257.568 283.252 253.877 286.992 249.253 286.992C244.675 286.992 240.938 283.298 240.938 278.671C240.938 274.092 244.675 270.352 249.253 270.352C253.83 270.351 257.568 274.043 257.568 278.671Z" fill="#9C824A"/>
<path d="M257.801 216.544H240.516V256.886H257.801V216.544Z" fill="white"/>
<path d="M255.137 210.747H243.225V262.029H255.137V210.747Z" fill="#9C824A"/>
<path d="M297.417 239.309L306.854 253.8L273.031 275.774L263.642 261.281L297.417 239.309Z" fill="white"/>
<path d="M303.725 238.421L310.218 248.426L267.238 276.381L260.745 266.331L303.725 238.421Z" fill="#9C824A"/>
<path d="M225.006 281.944L234.256 296.529L200.199 318.127L190.949 303.495L225.006 281.944Z" fill="white"/>
<path d="M230.799 281.103L237.199 291.2L193.94 318.641L187.539 308.543L230.799 281.103Z" fill="#9C824A"/>
<path d="M257.801 301.813H240.516V342.153H257.801V301.813Z" fill="white"/>
<path d="M255.137 296.063H243.225V347.298H255.137V296.063Z" fill="#9C824A"/>
<path d="M232.388 297.511C234.724 299.473 237.293 301.251 240.516 302.606L240.423 338.602C224.119 336.498 211.786 328.458 202.442 317.006L232.435 297.511" fill="#EF0107"/>
<path d="M232.388 297.511C234.724 299.473 237.293 301.251 240.516 302.606L240.423 338.602C224.119 336.498 211.786 328.458 202.442 317.006L232.435 297.511" stroke="#EF0107" stroke-width="0.281288" stroke-miterlimit="282"/>
<path d="M266.069 297.652C263.687 299.568 261.163 301.391 257.941 302.7L257.987 338.697C274.291 336.593 286.625 328.553 295.969 317.099L266.023 297.653" fill="#DB0007"/>
<path d="M266.069 297.652C263.687 299.568 261.163 301.391 257.941 302.7L257.987 338.697C274.291 336.593 286.625 328.553 295.969 317.099L266.023 297.653" stroke="#DB0007" stroke-width="0.281288" stroke-miterlimit="282"/>
<path d="M274.245 282.552L309.936 278.25C310.217 287.178 308.067 295.032 305.03 302.559L274.15 282.552" fill="#DB0007"/>
<path d="M274.292 282.411C274.432 281.85 274.386 281.337 274.62 279.701L309.846 275.12C309.985 276.756 309.892 277.363 309.846 278.11L274.292 282.411Z" fill="white" stroke="white" stroke-width="0.281288" stroke-miterlimit="282"/>
<path d="M326.429 252.727H372.633C371.183 258.196 369.781 263.758 363.147 266.237C352.542 270.212 330.54 274.044 330.54 274.044C330.119 268.013 328.764 259.83 326.429 252.727Z" fill="white"/>
<path d="M294.242 210.607L414.957 210.747L410.706 254.876L328.251 259.178C323.812 239.45 308.815 220.611 294.242 210.607Z" fill="white"/>
<path d="M298.538 213.739L452.657 213.878L446.77 249.829L327.175 255.72C322.456 237.861 311.666 224.818 298.538 213.739Z" fill="#9C824A"/>
<path d="M326.429 252.727H368.986C367.586 257.587 366.604 262.029 360.344 264.226C350.394 267.779 330.353 270.584 330.353 270.584C329.512 264.742 328.297 258.804 326.429 252.727Z" fill="#9C824A"/>
<path d="M279.712 146.516C279.712 148.48 279.292 153.856 279.059 155.351H302.978C301.528 148.992 300.873 140.158 300.688 133.332C300.688 133.8 300.268 119.635 300.268 119.635C300.268 118.653 300.688 117.157 301.295 116.69C302.137 115.708 302.978 115.708 304.006 115.708C305.033 115.241 306.902 115.241 307.135 119.121L307.743 133.8C307.976 140.671 307.976 149.975 307.135 155.351H330.167C329.979 153.387 329.326 148.478 329.139 147.029C332.035 153.387 338.296 156.799 346.611 156.799C351.563 156.799 355.346 154.881 358.244 152.918C358.244 153.386 359.459 155.351 359.459 155.351H402.252C400.382 148.992 399.167 140.158 398.514 133.332L392.487 85.3688L370.483 81.4422C372.353 87.8001 373.615 97.1027 374.407 103.461L377.77 134.314C378.378 139.69 378.8 145.581 378.8 151.938V152.405L377.957 150.441C376.276 146.514 375.481 141.653 374.827 134.313L374.033 124.496C372.772 108.835 364.27 102.009 345.536 102.009C342.453 102.009 334.557 102.476 329.746 103.973L331.007 121.55L336.007 118.651C340.165 116.174 343.248 115.192 346.984 115.192C349.928 115.192 351.796 116.175 352.637 118.138C349.088 118.651 345.162 119.633 340.772 121.55C334.137 124.495 329.979 128.935 328.111 133.797V133.33L327.457 117.155C327.084 106.87 320.404 100.045 310.218 100.045C305.687 100.045 301.528 101.494 297.792 103.971C297.559 103.457 297.372 102.988 297.138 102.475L296.296 100.511L277.188 99.5287C278.03 102.988 279.292 112.759 279.479 116.173C278.449 111.31 275.74 105.934 270.741 102.007C266.818 99.5301 261.819 98.0808 256.634 98.0808C249.578 98.0808 242.291 101.025 237.526 105.934C232.527 110.795 230.05 117.668 229.817 125.475C227.949 123.511 225.473 121.595 222.576 120.614L213.839 116.173H213.419C211.365 115.189 211.13 114.722 211.13 114.255C211.365 113.273 213.419 112.291 216.13 112.291C219.867 112.291 225.053 114.255 229.21 116.686L229.63 101.025C226.5 99.5287 222.156 98.5941 215.896 98.5941C212.578 98.5941 206.365 99.0614 200.946 102.006C199.496 102.988 198.235 103.97 197.022 104.952L197.209 100.509C192.211 99.5748 186.837 99.5748 180.203 105.933C179.97 105.418 179.549 102.987 179.129 102.006L158.574 102.988C160.022 108.833 160.255 117.153 159.835 124.493L159.415 132.347V133.329C159.181 137.255 158.995 141.649 158.574 145.576C156.892 140.152 155.07 132.814 153.575 126.971L143.391 80.9709L114.333 85.3649C114.52 85.8322 114.94 87.3289 115.174 88.7769C115.362 90.7408 115.362 94.6675 112.652 102.988C107.887 116.173 101.252 136.273 94.8064 150.437C93.9652 152.401 92.2842 155.346 92.2842 155.346H114.941C115.362 151.932 116.81 146.043 118.258 141.648C121.389 141.648 129.471 141.648 133.207 141.133C134.048 144.592 134.889 148.986 135.123 151.931L135.497 155.344H180.812C179.784 148.004 180.204 138.233 180.579 132.811C180.999 126.453 182.26 122.059 184.971 119.628C187.025 117.151 189.315 116.683 190.997 116.683C190.764 125.471 196.37 129.399 201.368 131.829L210.29 136.269C213.421 138.233 213.421 138.7 213.421 139.682C213.234 141.132 210.71 141.646 208.423 141.646C203.657 141.646 197.21 138.701 190.156 130.895L189.736 151.416C195.342 154.361 202.396 155.81 208.657 155.81C219.028 155.81 230.053 150.948 232.95 141.645C238.135 151.415 248.32 155.81 258.317 155.81C267.238 155.818 273.871 152.918 279.712 146.516ZM123.678 126.46C124.939 123.048 125.966 120.102 127.835 114.726C129.096 120.102 129.703 123.515 130.311 125.993C127.835 126.46 126.574 126.46 123.678 126.46ZM250.84 121.084C250.84 114.259 253.317 111.314 255.794 111.314C256.635 111.314 258.503 110.799 259.343 114.259C259.763 115.708 259.95 116.69 259.95 117.157C259.95 119.121 258.923 119.635 257.662 119.635V120.102C257.662 120.102 254.158 121.084 250.84 122.579C250.84 122.066 250.84 121.599 250.84 121.084ZM274.525 135.295C270.133 139.176 267.004 141.653 261.819 141.653C257.662 141.138 255.184 138.707 253.736 135.295C258.082 133.8 274.899 127.442 279.711 125.478C279.711 129.404 279.899 133.798 279.899 133.798V142.12L274.525 135.295ZM351.982 142.122C348.059 142.122 347.217 139.176 347.03 137.259C347.217 135.295 347.823 132.35 354.083 130.388C354.271 132.819 354.503 134.782 354.503 134.782V136.744C354.691 138.24 354.691 139.689 354.876 141.138C354.084 141.653 353.057 141.653 351.982 142.122Z" fill="#9C824A"/>
<path d="M226.08 103.461C224.025 102.993 220.895 102.011 215.897 102.011C211.973 102.011 206.786 102.993 202.815 104.957C198.237 107.902 194.92 111.783 194.733 116.224C194.313 123.049 197.863 125.994 203.048 128.425C206.552 130.389 209.915 132.352 211.971 133.334C214.681 134.783 217.157 136.278 216.97 139.692C216.737 143.105 213.606 145.582 208.421 145.582C204.076 145.582 197.863 142.638 193.472 138.71L193.285 148.994C197.022 150.958 203.048 151.939 208.654 151.939C218.185 151.939 230.05 147.545 230.237 136.746C230.47 128.425 224.632 125.479 221.128 123.563C217.578 122.067 214.026 120.105 212.393 119.636C210.71 118.654 207.393 117.673 207.628 113.745C208.001 110.333 211.973 108.837 216.13 108.837C219.634 108.837 223.184 109.819 225.893 111.314" fill="white"/>
<path d="M140.728 85.3688L118.678 88.3135C119.1 91.2595 118.258 97.1027 115.969 103.974C111.438 117.157 103.963 139.174 98.1223 151.936H111.858C112.652 147.496 113.68 143.616 115.782 138.24L136.151 137.725C136.945 141.652 138.441 148.01 138.627 151.936H157.127C154.838 146.514 151.942 135.294 150.074 127.441L140.728 85.3688ZM118.678 129.873L128.676 101.029L134.703 129.406" fill="white"/>
<path d="M193.473 103.461L193.053 113.278C189.736 112.765 185.579 113.745 182.262 117.159C179.364 120.103 177.496 124.498 177.077 132.352C176.655 138.71 176.468 146.05 176.842 151.939H161.284C162.312 146.05 162.734 139.223 162.919 132.82L163.339 125.013C163.759 118.655 163.759 112.297 162.732 106.408L176.467 105.941C177.075 107.905 177.495 111.317 177.262 114.729C183.288 105.423 189.128 103.461 193.473 103.461Z" fill="white"/>
<path d="M389.403 88.3135L375.247 85.8361C376.696 92.2415 377.116 96.6354 377.957 102.992L381.276 133.8C381.929 140.158 382.537 146.048 382.348 151.938H397.719C396.224 146.048 395.617 140.158 395.009 133.8" fill="white"/>
<path d="M326.009 151.938C325.214 146.048 324.793 140.158 324.558 133.8L323.952 117.672C323.532 108.837 318.533 103.975 310.217 103.975C305.686 103.975 300.265 105.425 295.688 111.314C295.501 109.819 294.847 105.938 294.007 103.975L281.581 103.461C282.608 109.351 283.029 115.195 283.215 121.553L283.449 133.8C283.636 140.158 283.449 146.048 283.029 151.938H298.586C297.791 146.048 297.371 140.158 297.136 133.8L296.716 120.103C296.529 115.195 300.267 111.781 304.005 111.781C308.349 111.781 310.451 114.726 310.639 119.121L311.292 133.8C311.48 140.158 311.48 146.048 311.059 151.938" fill="white"/>
<path d="M374.64 151.938C372.772 147.029 371.744 141.14 371.323 134.782L370.48 125.011C369.639 113.277 364.69 105.423 345.534 105.423C342.217 105.423 337.452 105.938 333.529 106.873L334.136 115.708C338.059 113.277 342.032 111.314 347.03 111.314C352.215 111.314 356.56 113.745 356.981 121.084C351.982 121.599 347.404 122.533 342.218 125.011C336.427 127.442 330.399 132.35 331.006 140.156C331.613 148.992 338.293 152.918 346.61 152.918C353.056 152.918 357.401 149.974 359.877 147.029C360.297 148.992 360.951 150.441 361.558 151.938H374.64ZM351.982 145.58C347.402 145.58 343.668 143.102 343.479 137.726C343.479 132.35 346.797 127.957 357.401 126.46L358.009 134.782C358.242 137.726 358.242 139.69 358.662 142.122C357.169 144.084 354.692 145.066 351.982 145.58Z" fill="white"/>
<path d="M268.686 104.956C265.137 102.479 260.979 101.497 256.635 101.497C246.45 101.497 232.949 108.837 233.369 127.442C233.556 146.516 248.131 152.405 258.316 152.405C267.238 152.405 272.659 148.992 277.001 144.598L273.871 140.156C271.583 142.12 267.845 145.065 261.819 145.065C255.371 144.598 251.26 140.156 248.971 133.331L277.188 123.047C276.347 113.745 273.031 108.369 268.686 104.956ZM258.923 123.048L247.71 127.442C247.477 125.479 247.29 123.515 247.29 121.084C247.29 109.817 253.503 107.855 255.604 107.855C258.923 107.387 261.819 109.35 262.892 113.277C264.108 117.672 263.688 121.599 258.923 123.048Z" fill="white"/>
<path d="M192.445 250.483L201.928 236.038L235.658 258.102L226.174 272.594L192.445 250.483Z" fill="white"/>
<path d="M189.315 245.527L195.855 235.523L238.695 263.618L232.154 273.623L189.315 245.527Z" fill="#9C824A"/>
<path d="M264.436 296.483L273.919 281.99L307.647 304.102L298.164 318.595L264.436 296.483Z" fill="white"/>
<path d="M261.304 291.527L267.845 281.524L310.685 309.619L304.145 319.577L261.304 291.527Z" fill="#9C824A"/>
</g>
<defs>
<clipPath id="clip0_6_72705">
<rect width="425.656" height="500" fill="white" transform="translate(37.172)"/>
</clipPath>
</defs>
</svg>
