<svg width="500" height="500" viewBox="0 0 500 500" fill="none" xmlns="http://www.w3.org/2000/svg">
<g clip-path="url(#clip0_6_72698)">
<path d="M500 249.999C500 388.081 388.066 500 249.999 500C111.926 500 0 388.081 0 249.999C0 111.932 111.926 0 249.999 0C388.066 0 500 111.932 500 249.999Z" fill="#DBA111"/>
<path d="M491.659 249.999C491.659 383.468 383.468 491.66 249.998 491.66C116.528 491.66 8.33496 383.469 8.33496 249.999C8.33496 116.529 116.528 8.33596 249.998 8.33596C383.466 8.33596 491.659 116.529 491.659 249.999Z" fill="#034694"/>
<path d="M422.215 249.999C422.215 345.112 345.11 422.204 249.999 422.204C154.882 422.204 77.7754 345.112 77.7754 249.999C77.7754 154.878 154.882 77.7762 249.999 77.7762C345.113 77.7752 422.215 154.878 422.215 249.999Z" fill="#DBA111"/>
<path d="M417.005 249.999C417.005 342.234 342.222 417.003 250 417.003C157.765 417.003 82.9946 342.233 82.9946 249.999C82.9946 157.766 157.765 82.9934 250 82.9934C342.224 82.9934 417.005 157.764 417.005 249.999Z" fill="white"/>
<path d="M106.901 394.078C108.749 395.842 113.295 400.172 113.295 400.172L117.653 395.583L104.654 383.19L102.982 384.945L85.5283 403.242L92.155 409.549C92.155 409.549 97.7519 403.68 99.7999 401.541C101.511 403.166 105.618 407.081 105.618 407.081L109.979 402.503C109.979 402.503 105.879 398.591 104.169 396.954C105.254 395.811 105.805 395.232 106.901 394.078Z" fill="#DBA111"/>
<path d="M138.249 414.974C137.661 411.465 135.691 408.366 132.71 406.247C129.743 404.139 126.181 403.307 122.672 403.883C118.893 404.525 115.498 406.728 113.106 410.075C110.722 413.444 109.76 417.37 110.401 421.165C110.992 424.663 112.948 427.743 115.92 429.861C118.893 431.975 122.481 432.821 125.985 432.232C129.762 431.596 133.159 429.389 135.543 426.031C137.451 423.369 138.446 420.32 138.446 417.272C138.447 416.512 138.383 415.732 138.249 414.974H138.249ZM119.583 424.694C116.545 422.545 119.053 418.052 120.822 415.582C122.587 413.093 126.009 409.243 129.047 411.39C132.217 413.657 129.255 418.557 127.833 420.546C126.407 422.557 122.76 426.96 119.583 424.694Z" fill="#DBA111"/>
<path d="M158.681 421.912C151.686 418.373 143.595 421.274 139.879 428.639C138.017 432.321 137.653 436.362 138.852 439.998C139.96 443.378 142.361 446.135 145.617 447.772C148.872 449.43 152.536 449.718 155.922 448.606C159.556 447.421 162.587 444.736 164.438 441.056C168.17 433.677 165.689 425.452 158.681 421.912ZM150.944 442.38C150.124 442.65 149.346 442.566 148.462 442.126C147.075 441.419 146.587 440.156 146.587 438.744C146.587 436.791 147.526 434.489 148.322 432.92C149.702 430.192 152.504 425.882 155.829 427.56C156.707 428.008 157.231 428.59 157.498 429.401C158.054 431.079 157.495 433.836 155.995 436.788C154.504 439.74 152.617 441.827 150.944 442.38Z" fill="#DBA111"/>
<path d="M173.127 432.041L171.839 435.731C171.839 435.731 175.132 436.886 176.131 437.216C174.871 440.819 169.062 457.399 169.062 457.399L177.687 460.423C177.687 460.423 183.504 443.858 184.761 440.255C185.767 440.606 189.06 441.75 189.06 441.75L191.15 435.795L173.928 429.753L173.127 432.041Z" fill="#DBA111"/>
<path d="M208.934 440.042L197.28 437.581L196.781 439.952L191.572 464.687L203.433 467.202C207.224 467.985 209.72 467.054 211.143 466.133C212.95 464.954 214.217 463.021 214.704 460.71C214.837 460.081 214.901 459.471 214.901 458.874C214.901 457.203 214.372 455.697 213.415 454.403C214.751 453.343 215.704 451.845 216.101 449.976C216.202 449.493 216.261 448.948 216.261 448.379C216.261 445.213 214.453 441.193 208.934 440.042H208.934ZM205.726 458.926C205.602 459.491 205.375 460.239 204.947 460.519C204.551 460.775 203.791 460.808 202.806 460.594C202.806 460.594 202.358 460.495 201.828 460.391C202.207 458.606 202.46 457.419 202.829 455.632C203.336 455.75 203.984 455.878 203.984 455.878C205.514 456.201 205.807 457.332 205.807 458.154C205.808 458.484 205.766 458.764 205.726 458.926L205.726 458.926ZM204.93 445.687C205.953 445.92 206.705 446.295 206.995 446.733C207.127 446.934 207.192 447.216 207.192 447.548C207.192 447.749 207.165 447.982 207.112 448.261C206.955 448.986 206.743 449.992 204.727 449.578C204.727 449.578 204.475 449.512 204.129 449.438C204.451 447.942 204.604 447.194 204.93 445.688L204.93 445.687Z" fill="#DBA111"/>
<path d="M230.45 444.071L217.791 469.994L225.02 470.548C225.02 470.548 226.976 466.418 227.758 464.773C229.287 464.901 230.82 465.008 232.319 465.129C232.879 466.86 234.292 471.255 234.292 471.255L243.91 472.003L233.163 438.691L230.45 444.071Z" fill="#DBA111"/>
<path d="M258.994 464.763C258.834 460.974 258.106 443.728 258.106 443.728L248.972 444.112L250.127 471.79L268.432 471.03L268.157 464.388C268.157 464.389 261.619 464.668 258.994 464.763Z" fill="#DBA111"/>
<path d="M284.049 462.111C283.46 458.365 280.787 441.315 280.787 441.315L278.393 441.699L271.748 442.734L276.037 470.11L294.145 467.267L293.108 460.7C293.108 460.7 286.648 461.719 284.049 462.111Z" fill="#DBA111"/>
<path d="M336.469 443.697C336.396 446.07 334.997 448.114 332.814 448.978C331.604 449.458 330.449 449.458 329.292 448.968C327.517 448.208 325.872 446.285 324.884 443.814C323.722 440.899 323.485 438.423 324.248 436.684C324.772 435.465 325.799 434.556 327.369 433.927C329.069 433.25 330.684 433.873 332.897 435.176L334.927 436.374L338.298 431.057L336.298 429.742C332.62 427.326 328.068 426.833 324.13 428.406C320.475 429.863 317.641 432.59 316.143 436.076C314.623 439.611 314.623 443.656 316.165 447.493C319.074 454.766 327.295 458.349 334.484 455.471C339.679 453.395 342.619 449.449 342.993 444.058L343.164 441.653L336.546 441.161L336.469 443.698" fill="#DBA111"/>
<path d="M357.792 436.137C355.921 432.811 347.515 417.731 347.515 417.731L345.409 418.919L339.527 422.204L353.045 446.39L369.028 437.462L365.793 431.656C365.794 431.656 360.073 434.845 357.792 436.137Z" fill="#DBA111"/>
<path d="M375.569 398.835L373.609 400.268L370.176 402.792L381.395 418.084C381.908 418.776 381.908 419.239 381.863 419.508C381.756 420.297 380.934 421.152 380.207 421.676C379.865 421.92 379.071 422.253 378.259 422.126C377.68 422.042 377.222 421.727 376.815 421.177L365.728 406.057L358.338 411.466L369.372 426.511C371.01 428.738 373.043 430.055 375.416 430.417C378.079 430.832 381.105 429.925 383.917 427.847C389.703 423.617 389.608 418.001 387.083 414.559L375.569 398.835Z" fill="#DBA111"/>
<path d="M409.232 393.276C407.532 391.511 405.434 390.718 403.232 390.838C403.102 389.126 402.438 387.491 401.115 386.121C398.804 383.735 393.638 381.877 388.881 386.507L380.324 394.782L399.605 414.687L408.309 406.249C411.091 403.554 411.703 400.945 411.729 399.258C411.776 397.093 410.886 394.974 409.232 393.276ZM394.666 392.605C394.953 392.911 395.305 393.268 395.305 393.766C395.305 394.174 395.083 394.678 394.415 395.316C394.415 395.316 394.234 395.499 393.99 395.744C392.91 394.624 392.397 394.098 391.302 392.973C393.233 391.202 394.034 391.959 394.666 392.605ZM399.231 399.457C400.794 397.949 402.299 399.274 402.728 399.725C403.143 400.141 403.615 400.729 403.615 401.238C403.615 401.238 403.615 401.238 403.615 401.255C403.606 401.725 403.208 402.376 402.492 403.072C402.492 403.072 402.16 403.394 401.765 403.766C400.504 402.461 399.651 401.586 398.388 400.289C398.761 399.918 399.231 399.457 399.231 399.457V399.457Z" fill="#DBA111"/>
<path d="M106.841 391.511C107.595 392.236 113.225 397.606 113.225 397.606L115.081 395.649L104.709 385.757L104.291 386.195L88.1011 403.178L92.0897 406.984C92.0897 406.984 98.9878 399.755 99.7304 398.964C100.485 399.681 105.56 404.515 105.56 404.515L107.419 402.564C107.419 402.564 102.344 397.733 101.59 397.016C102.263 396.311 106.174 392.208 106.841 391.511Z" fill="white"/>
<path d="M131.651 407.725C129.08 405.895 126.004 405.164 122.984 405.669C119.669 406.238 116.695 408.173 114.59 411.135C112.479 414.107 111.632 417.551 112.195 420.854C112.701 423.883 114.403 426.555 116.976 428.379C119.562 430.22 122.652 430.939 125.685 430.431C128.983 429.877 131.96 427.933 134.062 424.991C135.742 422.618 136.63 419.931 136.63 417.268C136.63 416.605 136.572 415.933 136.464 415.27C135.949 412.246 134.244 409.566 131.651 407.725H131.651ZM129.311 421.606C127.571 424.039 123.043 429.386 118.536 426.18C114.044 422.992 117.61 416.963 119.343 414.515C121.08 412.066 125.611 406.729 130.096 409.917C134.604 413.134 131.049 419.165 129.311 421.606Z" fill="white"/>
<path d="M157.861 423.542C151.792 420.472 144.76 423.026 141.5 429.475C139.858 432.717 139.534 436.245 140.576 439.444C141.533 442.349 143.614 444.725 146.436 446.145C149.264 447.591 152.436 447.848 155.357 446.887C158.534 445.837 161.187 443.483 162.829 440.243C166.08 433.795 163.947 426.609 157.861 423.542ZM147.644 443.738C142.729 441.267 145.344 434.765 146.702 432.094C148.056 429.411 151.734 423.451 156.641 425.945C157.948 426.598 158.82 427.57 159.235 428.842C160.199 431.786 158.635 435.591 157.615 437.612C156.6 439.619 154.456 443.139 151.509 444.104C150.248 444.531 148.944 444.402 147.644 443.738Z" fill="white"/>
<path d="M174.848 432.636L174.152 434.606C174.152 434.606 177.586 435.814 178.447 436.117C178.066 437.195 171.372 456.283 171.372 456.283L176.575 458.111C176.575 458.111 183.274 439.024 183.648 437.943C184.509 438.242 187.943 439.443 187.943 439.443L188.84 436.908L175.04 432.064L174.848 432.636" fill="white"/>
<path d="M208.567 441.813L198.689 439.729L198.557 440.328L193.729 463.299L203.807 465.415C206.37 465.951 208.502 465.684 210.151 464.604C211.577 463.673 212.535 462.188 212.926 460.339C213.026 459.834 213.086 459.352 213.086 458.882C213.086 456.873 212.09 455.172 210.311 453.953C212.371 453.361 213.845 451.845 214.32 449.595C214.401 449.244 214.449 448.828 214.449 448.358C214.448 446.06 213.239 442.799 208.567 441.813H208.567ZM205.114 443.847C206.775 444.198 207.924 444.833 208.509 445.737C208.846 446.25 209.012 446.851 209.012 447.549C209.012 447.89 208.968 448.243 208.888 448.627C208.246 451.686 205.775 451.654 204.354 451.343C204.354 451.343 202.85 451.033 201.978 450.85C202.181 449.908 203.328 444.455 203.525 443.515C204.157 443.644 205.114 443.847 205.114 443.847ZM204.354 454.1C207.161 454.69 207.604 456.904 207.604 458.25C207.604 458.827 207.513 459.24 207.502 459.308C207.219 460.635 206.713 461.533 205.935 462.034C205.114 462.582 203.931 462.688 202.434 462.377C202.434 462.377 200.637 461.993 199.675 461.802C199.882 460.814 201.225 454.452 201.428 453.482C202.251 453.653 204.354 454.1 204.354 454.1H204.354Z" fill="white"/>
<path d="M232.088 444.868L220.598 468.386L223.907 468.633C223.907 468.633 226.339 463.522 226.661 462.868C227.361 462.922 232.985 463.36 233.675 463.415C233.895 464.09 235.649 469.541 235.649 469.541L241.348 469.981L232.814 443.525L232.088 444.868ZM230.826 454.324C231.382 456.101 232.45 459.526 232.804 460.644C231.669 460.56 229.055 460.357 227.932 460.271C228.447 459.214 230.013 455.995 230.826 454.324Z" fill="white"/>
<path d="M257.249 466.657C257.203 465.511 256.359 445.622 256.359 445.622L255.772 445.644L250.854 445.845L251.864 469.906L266.543 469.283L266.414 466.28C266.416 466.281 258.31 466.623 257.249 466.658" fill="white"/>
<path d="M282.541 464.209C282.358 463.075 279.269 443.387 279.269 443.387L278.68 443.482L273.827 444.25L277.558 468.035L292.071 465.744L291.602 462.772C291.601 462.774 283.579 464.034 282.541 464.209" fill="white"/>
<path d="M338.277 443.738C338.191 446.872 336.352 449.526 333.486 450.681C331.818 451.344 330.171 451.321 328.578 450.637C326.335 449.689 324.375 447.441 323.187 444.49C321.85 441.121 321.635 438.171 322.569 435.965C323.296 434.297 324.677 433.048 326.696 432.247C329.339 431.189 331.764 432.395 333.817 433.613L334.331 433.913L335.808 431.594L335.313 431.26C332.127 429.173 328.192 428.738 324.805 430.094C321.596 431.38 319.104 433.753 317.81 436.791C316.483 439.869 316.495 443.441 317.853 446.808C320.386 453.162 327.538 456.283 333.819 453.78C338.373 451.952 340.845 448.648 341.175 443.932L341.218 443.324L338.311 443.123L338.277 443.738" fill="white"/>
<path d="M357.088 438.606C356.521 437.612 346.81 420.214 346.81 420.214L346.276 420.511L341.999 422.906L353.729 443.913L366.552 436.753L365.094 434.123C365.096 434.126 357.996 438.08 357.088 438.606Z" fill="white"/>
<path d="M375.172 401.37L374.677 401.734L372.711 403.178L382.859 417.004C383.539 417.935 383.806 418.864 383.661 419.774C383.419 421.421 381.919 422.685 381.29 423.135C380.57 423.677 379.253 424.127 377.992 423.921C376.921 423.764 376.044 423.198 375.34 422.255L365.322 408.59L360.884 411.862L370.837 425.431C372.176 427.261 373.812 428.34 375.692 428.619C378.656 429.067 381.438 427.417 382.837 426.396C387.64 422.865 387.704 418.448 385.629 415.637L375.172 401.37Z" fill="white"/>
<path d="M407.926 394.539C406.063 392.612 403.68 392.172 401.208 393.123C401.403 392.547 401.52 391.959 401.52 391.371C401.52 389.941 400.951 388.547 399.807 387.37C398.257 385.776 394.245 383.807 390.142 387.797L382.89 394.823L399.633 412.108L407.048 404.92C408.917 403.124 409.893 401.189 409.916 399.231C409.945 397.522 409.251 395.905 407.926 394.539ZM397.114 393.788C397.114 394.999 396.325 395.993 395.69 396.613C395.69 396.613 394.578 397.693 393.95 398.312C393.274 397.618 389.393 393.62 388.73 392.911C389.18 392.475 389.889 391.8 389.889 391.8C392.154 389.593 394.143 389.447 395.969 391.339C396.806 392.208 397.114 393.029 397.114 393.788ZM401.725 406.331C401.039 405.624 396.515 400.943 395.821 400.236C396.419 399.66 397.968 398.153 397.968 398.153C400.923 395.306 403.917 398.324 404.045 398.463C404.975 399.425 405.433 400.335 405.433 401.239C405.433 401.256 405.433 401.266 405.433 401.274C405.421 402.268 404.845 403.308 403.752 404.388C403.755 404.388 402.311 405.776 401.725 406.331V406.331Z" fill="white"/>
<path d="M138.929 85.3064L128.824 88.0318L129.984 91.6512C131.38 96.0396 130.116 100.634 126.696 103.634C124.793 105.302 122.596 106.068 120.172 105.902C116.49 105.655 112.333 103.271 109.057 99.5222C105.197 95.1003 103.271 90.8434 103.516 87.2355C103.686 84.6049 104.965 82.2939 107.419 80.1439C110.13 77.7699 113.567 77.8625 118.23 78.7871L121.689 79.4708L123.925 69.7926L120.443 68.9438C112.957 67.0915 105.151 68.9111 99.5809 73.7865C88.6732 83.331 87.7833 98.9185 97.5119 110.044C106.553 120.379 122.239 121.506 132.463 112.563C139.827 106.131 142.392 97.9013 139.891 88.7891L138.929 85.3064Z" fill="#DBA111"/>
<path d="M166.37 34.6218L156.048 39.4824C156.048 39.4824 161.81 51.6934 163.79 55.9019C160.846 57.2861 157.995 58.6335 155.047 60.0251C153.059 55.8198 147.294 43.6036 147.294 43.6036L133.703 50.0199L154.402 93.9243L168.004 87.5111C168.004 87.5111 161.591 73.9317 159.528 69.5286C162.475 68.1496 165.324 66.8033 168.277 65.4127C170.346 69.8032 176.75 83.3847 176.75 83.3847L190.35 76.9673L169.658 33.0735L166.37 34.6218Z" fill="#DBA111"/>
<path d="M212.388 61.8217C211.726 58.5525 211.052 55.2266 210.398 51.9616C214.597 51.117 225.755 48.8639 225.755 48.8639L223.792 39.1122C223.792 39.1122 212.629 41.3684 208.427 42.2172C207.822 39.2279 207.321 36.7171 206.712 33.7319C211.073 32.8526 223.014 30.4396 223.014 30.4396L221.046 20.6921L217.474 21.4094L190.007 26.9643L199.609 74.547L230.9 68.2212L228.934 58.4789C228.934 58.4789 216.779 60.9287 212.388 61.8217Z" fill="#DBA111"/>
<path d="M256.77 19.5634L241.723 19.251L241.648 22.8799L240.708 67.7794L272.295 68.4421L272.521 57.9288C272.521 57.9288 260.394 57.6679 255.962 57.5775C256.089 51.6345 256.77 19.5634 256.77 19.5634" fill="#DBA111"/>
<path d="M305.532 44.0432C301.628 41.1759 300.486 40.0262 300.881 38.46C301.074 37.648 301.959 35.0552 304.763 35.7494C306.45 36.1828 308.129 37.0716 308.877 40.7026L309.698 44.7333L319.634 41.3757L319.016 38.2475C317.793 32.1037 312.597 26.8738 306.075 25.2445C301.403 24.0843 296.721 24.7049 292.877 27.0137C289.349 29.1269 286.868 32.4623 285.886 36.4099C283.392 46.3605 290.1 51.1517 294.535 54.3262C299.082 57.5775 300.238 58.8502 299.544 61.5661C299.326 62.4149 298.826 63.085 298.044 63.5593C297.134 64.0948 295.992 64.2883 295.063 64.0463C292.674 63.4584 291.64 62.3297 290.633 59.2404L289.413 55.5369L279.444 59.6138L280.409 62.7789C282.279 68.9291 286.741 72.8051 294.043 74.6343C302.249 76.6875 312.205 72.9135 314.685 63.0597C317.273 52.6769 310.206 47.4744 305.532 44.0432Z" fill="#DBA111"/>
<path d="M341.431 69.9315C345.261 71.8669 355.411 76.9999 355.411 76.9999L359.9 68.1244C359.9 68.1244 349.742 62.9913 345.924 61.0622C347.291 58.3401 348.449 56.0512 349.813 53.3343C353.774 55.3349 364.662 60.8372 364.662 60.8372L369.139 51.9616L340.885 37.6837L339.252 40.9182L318.984 81.0033L347.475 95.3927L351.967 86.5224C351.967 86.5224 340.897 80.9297 336.896 78.9154C338.394 75.9365 339.933 72.9114 341.431 69.9315Z" fill="#DBA111"/>
<path d="M397.701 74.465L352.428 97.8908L361.089 105.423C361.089 105.423 368.561 101.45 371.277 100.024C373.297 101.783 376.273 104.372 378.26 106.098C377.286 108.987 374.519 117.108 374.519 117.108L386.451 127.49L405.807 70.4132L397.701 74.465Z" fill="#DBA111"/>
<path d="M137.232 88.26L131.896 89.7106L132.288 90.9181C133.983 96.2447 132.454 101.816 128.283 105.463C125.888 107.565 123.096 108.527 120.01 108.328C115.637 108.035 110.986 105.409 107.231 101.116C102.939 96.2015 100.811 91.343 101.093 87.0641C101.314 83.8149 102.906 80.8718 105.826 78.3179C109.66 74.9657 114.487 75.5789 118.702 76.413L119.86 76.6371L121.028 71.5788L119.867 71.2895C113.14 69.6381 106.159 71.2528 101.175 75.6158C91.3148 84.2515 90.5228 98.3558 99.3394 108.445C107.5 117.775 121.643 118.798 130.876 110.734C137.571 104.863 139.821 97.7037 137.553 89.433L137.232 88.2601" fill="white"/>
<path d="M167.4 36.8023L159.28 40.6416C159.28 40.6416 166.116 55.1477 167.015 57.0547C165.278 57.8783 155.632 62.4297 153.882 63.247C152.985 61.3368 146.153 46.8317 146.153 46.8317L136.923 51.1801L155.556 90.693L164.78 86.3509C164.78 86.3509 157.215 70.3154 156.304 68.3747C158.054 67.5511 167.687 63.0113 169.437 62.1846C170.346 64.12 177.913 80.165 177.913 80.165L187.125 75.8124L168.492 36.2932L167.4 36.8023Z" fill="white"/>
<path d="M210.487 64.6754C210.108 62.7768 207.924 51.9658 207.546 50.0672C209.566 49.6612 222.901 46.9664 222.901 46.9664L221.892 41.9743C221.892 41.9743 208.562 44.6575 206.53 45.0688C206.16 43.207 204.236 33.6951 203.867 31.8354C205.904 31.4178 220.159 28.5473 220.159 28.5473L219.149 23.5531L192.863 28.8576L201.509 71.6849L228.046 66.3278L227.038 61.3336C227.035 61.3347 212.54 64.2599 210.487 64.6754Z" fill="white"/>
<path d="M254.293 21.9396L244.103 21.7188L244.081 22.9221L243.179 65.4034L269.931 65.9703L270.049 60.2998C270.049 60.2998 255.567 59.9937 253.493 59.9495C253.546 57.6828 254.294 21.9397 254.294 21.9397" fill="white"/>
<path d="M305.351 33.4059C308.591 34.2168 310.462 36.3815 311.255 40.2155L311.531 41.5556L316.846 39.759L316.645 38.7103C315.595 33.4753 311.116 29.0028 305.491 27.5881C301.446 26.5793 297.418 27.1084 294.133 29.0806C291.161 30.8667 289.066 33.6804 288.24 36.999C286.147 45.3454 291.587 49.2331 295.951 52.3518C300.367 55.5106 303.03 57.6669 301.896 62.1467C301.445 64.0116 300.227 65.0772 299.288 65.6378C297.832 66.5098 296.046 66.7822 294.477 66.3973C291.255 65.5894 289.596 63.857 288.338 59.9925L287.928 58.7576L282.412 61.0076L282.733 62.0668C284.336 67.3376 288.233 70.6794 294.646 72.2845C301.692 74.0442 310.229 70.8561 312.333 62.4633C314.525 53.6667 308.751 49.4098 304.077 45.9934C300.111 43.065 297.714 41.1075 298.53 37.872C299.244 34.9794 301.639 32.476 305.351 33.4059" fill="white"/>
<path d="M348.746 50.0851C350.606 51.0202 363.58 57.5764 363.58 57.5764L365.888 53.025L341.959 40.9361L341.411 42.0153L322.249 79.9357L346.403 92.1424L348.704 87.5932C348.704 87.5932 335.517 80.9255 333.649 79.9777C334.52 78.2464 339.496 68.4147 340.361 66.6823C342.202 67.6121 354.337 73.7445 354.337 73.7445L356.65 69.1931C356.65 69.1931 344.502 63.066 342.661 62.1309C343.518 60.4417 347.892 51.7744 348.746 50.0851Z" fill="white"/>
<path d="M398.815 76.6213L356.714 98.4094L361.419 102.5C361.419 102.5 370.347 97.7667 371.611 97.0977C372.658 98.0128 380.058 104.45 381.084 105.343C380.638 106.674 377.331 116.342 377.331 116.342L385.321 123.289L401.587 75.3212L398.815 76.6213ZM376.485 94.5912C378.476 93.5614 383.564 90.9181 386.667 89.3035C385.512 92.6021 383.608 98.0339 382.878 100.148C381.264 98.7344 378.102 95.987 376.485 94.5912Z" fill="white"/>
<path d="M369.437 243.44C365.983 234.295 354.094 230.322 342.855 234.565C338.169 236.327 334.331 239.275 331.714 242.754C339.135 221.574 369.363 217.08 369.363 197.375C369.363 164.348 322.461 173.599 329.285 197.38C329.285 186.59 346.458 184.613 346.458 197.38C346.458 210.149 316.515 218.523 316.515 240.096C316.515 263.877 340.3 266.078 337.892 287.828C337.483 291.578 333.451 296.506 327.613 296.506C291.182 296.506 304.187 251.659 291.457 238.012L292.123 228.798C299.482 233.31 319.005 222.739 306.153 206.625C306.153 214.549 289.651 214.111 289.651 199.139C289.651 178.88 308.591 189.451 309.511 193.925C308.604 186.547 308.261 181.865 309.479 177.614C299.268 180.906 298.313 175.004 299.605 172.72C301.084 170.079 303.062 166.994 307.04 166.994C309.19 166.994 310.481 167.294 311.242 167.818C312.513 168.687 313.443 166.701 313.261 168.549C314.354 166.886 313.916 168.962 314.97 167.294C316.044 165.637 317.491 163.764 320.032 161.268L319.923 157.53L322.897 158.621L325.753 154.003C322.671 147.613 318.489 150.69 315.409 142.768C312.833 142.099 272.714 146.462 273.878 130.458C270.606 130.458 262.857 132.25 267.653 138.766C263.924 139.216 261.236 134.981 255.615 146.434C262.656 145.114 259.012 152.985 259.012 155.225C259.012 169.736 239.693 169.491 239.693 162.694C235.038 167.218 237.679 177.111 244.72 179.548C244.72 179.548 242.042 190.13 235.432 196.838C225.621 196.447 209.88 194.742 200.824 186.182C196.919 182.493 193.818 180.483 191.177 179.45V174.654C195.043 172.761 199.283 169.412 203.69 163.815C207.127 159.617 208.988 154.234 208.487 148.517C208.422 147.834 208.321 147.16 208.201 146.503C208.164 146.294 208.113 146.091 208.064 145.882C207.967 145.422 207.856 144.98 207.722 144.524C207.658 144.304 207.598 144.079 207.529 143.862C207.379 143.405 207.215 142.969 207.038 142.535C206.963 142.353 206.91 142.16 206.823 141.989C206.578 141.406 206.304 140.856 206.009 140.303C205.883 140.079 205.749 139.87 205.626 139.664C205.423 139.331 205.23 138.995 205.017 138.674C204.844 138.419 204.663 138.162 204.482 137.905C204.294 137.66 204.097 137.409 203.904 137.162C203.69 136.899 203.48 136.621 203.252 136.36C203.1 136.187 202.936 136.021 202.776 135.862C202.204 135.23 201.584 134.642 200.936 134.08C200.882 134.034 200.818 133.974 200.755 133.926C200.393 133.617 200.007 133.321 199.627 133.039C199.531 132.966 199.43 132.894 199.321 132.818C198.915 132.532 198.5 132.252 198.066 131.985C198.04 131.968 198.016 131.958 197.997 131.939C193.874 129.414 188.891 128.093 183.628 128.511C170.958 129.52 161.54 140.107 162.598 152.159C163.421 161.549 170.347 169.048 179.351 171.44C176.192 173.203 173.523 174.22 172.921 174.22C173.021 174.284 173.151 174.359 173.293 174.451C173.33 174.467 173.373 174.494 173.417 174.516C173.539 174.595 173.684 174.676 173.833 174.756C173.869 174.777 173.915 174.798 173.95 174.82C174.154 174.922 174.363 175.028 174.598 175.141C174.635 175.157 174.679 175.171 174.716 175.189C174.925 175.286 175.137 175.387 175.362 175.473C175.426 175.502 175.496 175.529 175.565 175.552C176.116 175.782 176.737 175.99 177.415 176.183C177.512 176.209 177.614 176.232 177.697 176.258C177.972 176.327 178.25 176.392 178.539 176.461C178.633 176.477 178.73 176.498 178.832 176.519C179.196 176.584 179.577 176.648 179.959 176.694C179.991 176.694 180.024 176.711 180.055 176.711V179.438C179.912 179.47 179.783 179.485 179.649 179.506C175.528 180.184 172.85 181.453 171.639 185.122C170.436 188.804 171.672 190.135 173.602 192.718C171.972 195.633 167.699 196.722 173.275 203.162C172.869 205.594 173.383 209.467 176.923 210.642C178.078 211.033 179.04 211.241 180.055 211.417L180.051 259.693C176.521 261.563 174.779 263.896 173.815 266.07C173.815 266.07 170.981 259.779 171.169 272.241C174.388 269.743 173.121 275.134 173.121 275.134C168.737 280.814 174.305 280.506 174.305 280.506C178.082 276.734 177.312 282.215 177.312 282.215C177.312 288.9 180.026 291.516 180.05 291.526V328.304L176.842 328.314L176.873 338.462L182.481 338.452C179.334 339.759 177.258 342.867 177.561 346.302C177.942 350.633 181.942 353.851 186.497 353.499C191.049 353.133 194.432 349.337 194.043 344.996C193.786 342 191.801 339.556 189.102 338.432L194.277 338.418L194.255 328.27L191.169 328.284L191.174 295.654C191.81 296.003 192.498 296.245 193.245 296.408C193.543 296.464 193.838 296.504 194.142 296.524C194.276 296.546 194.415 296.546 194.548 296.55C193.719 292.26 196.281 289.417 196.281 289.417C197.597 287.436 199.499 285.892 201.665 284.803C208.142 281.553 216.979 282.375 219.62 287.665C236.356 283.253 250.738 266.431 250.738 266.431L258.977 280.452C241.511 286.292 203.467 319.364 229.875 330.819C229.865 334.154 229.418 358.899 213.55 356.934C190.698 354.119 184.999 363.574 189.387 374.203C187.324 383.166 194.227 386.277 194.227 386.277C193.19 381.1 195.68 376.81 205.125 376.865C205.076 386.31 211.176 388.013 211.176 388.013C211.219 379.925 216.839 376.929 221.832 376.951C221.796 383.616 229.538 386.149 229.538 386.149C229.538 386.149 227.576 378.468 236.328 376.951C258.484 373.091 237.676 350.304 271.37 344.024C271.37 344.024 254.591 341.494 254.591 332.322C254.591 323.974 269.779 318.265 275.008 318.265C285.732 338.754 297.382 338.916 300.435 339.063C305.185 344.367 303.593 362.246 296.737 361.895C271.639 360.548 272.557 375.814 275.37 378.937C275.049 384.863 279.659 388.286 279.659 388.286C279.659 381.934 285.703 380.148 293.454 380.568C293.047 388.327 297.991 389.486 297.991 389.486C298.126 381.677 303.903 380.353 308.008 380.568C307.708 386.04 313.14 387.652 313.14 387.652C313.14 387.652 312.605 380.705 319.918 380.705C333.79 380.696 313.644 350.967 340.717 321.566C316.935 332.575 304.282 305.056 304.282 299.775C316.506 314.079 356.137 316.935 356.137 292.5C356.137 269.157 330.482 260.46 342.485 251.531C349.467 246.341 363.195 256.828 355.34 267.661C366.604 263.487 372.881 252.579 369.435 243.44L369.437 243.44ZM217.42 244.176C208.454 249.448 202.443 256.118 194.269 259.035C193.027 259.471 192.038 259.595 191.177 259.539V213.977C193.343 214.18 198.963 214.949 205.534 217.666C212.042 221.217 212.042 228.557 203.829 230.297C209.02 240.236 227.001 235.37 230.92 227.275C232.84 227.104 234.537 230.531 236.132 233.771C233.609 235.081 228.445 237.686 217.42 244.176ZM317.776 168.645C316.79 169.983 315.818 171.314 314.966 172.454C317.24 176.233 321.518 178.596 326.205 178.163C332.682 177.549 337.45 171.8 336.855 165.316C336.82 165.081 336.787 164.868 336.756 164.638C336.062 167.995 332.105 170.838 327.072 171.303C323.261 171.661 319.811 170.567 317.776 168.645H317.776Z" fill="#D1D3D4"/>
<path d="M172.912 141.227C172.912 141.234 172.896 141.251 172.896 141.266H172.891C172.992 141.025 173.098 140.784 173.221 140.549C173.104 140.773 172.998 140.993 172.911 141.227L172.912 141.227ZM173.324 332.327C173.334 332.32 173.352 332.32 173.355 332.308H173.352C173.345 332.322 173.336 332.322 173.325 332.327H173.324ZM173.04 121.775H173.052H173.04ZM169.612 331.206L175.221 331.199C174.536 331.485 173.917 331.86 173.355 332.308C173.912 332.095 174.503 331.965 175.13 331.965C177.943 331.965 180.22 334.244 180.22 337.058C180.22 339.869 177.943 342.147 175.13 342.147C172.853 342.147 170.948 340.654 170.303 338.587V339.048C170.688 343.389 174.678 346.608 179.239 346.234C183.786 345.878 187.168 342.072 186.792 337.741C186.526 334.758 184.545 332.31 181.846 331.187L187.018 331.165L186.994 321.016L183.908 321.033V288.401C180.893 286.836 179.151 283.426 179.824 279.924C181.755 279.924 183.482 280.426 184.638 281.217C182.855 285.139 187.29 289.294 187.29 289.294C186.46 285.007 189.017 282.17 189.017 282.17C190.344 280.185 192.245 278.639 194.402 277.547C200.886 274.296 209.719 275.117 212.36 280.405C229.097 276 243.48 259.17 243.48 259.17L251.722 273.182C271.042 273.182 264.317 258.715 263.055 257.454C267.502 257.454 273.758 260.726 273.758 267.972C273.758 285.765 222.032 288.3 222.032 309.898C222.032 318.966 231.02 322.415 231.02 322.415C231.02 342.107 217.498 353.804 208.249 353.804C193.459 353.804 182.134 350.809 182.134 366.936H187.29C182.392 371.833 186.963 379.017 186.963 379.017C185.931 373.847 188.428 369.565 197.871 369.611H203.762C200.019 373.352 202.205 379.032 203.928 380.766C203.961 372.667 209.576 369.674 214.575 369.703C216.388 369.703 218.851 369.703 218.851 369.703C217.688 370.85 219.557 376.173 222.285 378.891C222.285 378.891 220.313 371.22 229.075 369.703C251.224 365.843 230.411 343.056 264.107 336.767C264.107 336.767 247.339 334.244 247.339 325.063C247.339 316.728 262.52 311.007 267.74 311.007C271.855 310.419 275.774 310.567 279.129 311.286C280.494 324.515 295.679 323.872 298.99 323.872C311.873 336.757 295.714 357.441 295.714 357.441C275.941 357.441 268.116 360.169 268.116 371.684H271.858C269.761 373.792 270.95 379.588 272.394 381.034C272.394 374.677 278.449 372.902 286.2 373.311H290.276C288.287 375.298 288.638 380.131 290.744 382.23C290.86 374.42 296.645 373.094 300.756 373.311H304.153C302.881 374.595 304.153 378.667 305.896 380.411C305.896 380.411 305.36 373.459 312.668 373.451C326.545 373.451 306.387 343.713 333.477 314.313C309.695 325.327 297.032 297.8 297.032 292.517C309.258 306.827 348.898 309.681 348.898 285.253C348.898 265.543 330.614 256.28 332.128 248.498C332.654 242.541 337.65 237.872 343.752 237.872C350.193 237.872 355.413 243.104 355.413 249.546C355.413 254.457 352.397 258.651 348.102 260.374C348.111 260.374 348.111 260.362 348.111 260.362C348.102 260.374 348.087 260.386 348.087 260.407C359.341 256.232 365.626 245.321 362.192 236.184C358.729 227.039 346.84 223.056 335.609 227.296C330.904 229.072 327.079 232.008 324.466 235.494C331.874 214.314 362.108 209.827 362.108 190.114C362.108 157.087 315.204 166.343 322.028 190.124C322.028 189.766 322.05 189.414 322.094 189.07C323.29 175.627 347.319 172.88 347.319 190.403C347.319 205.374 316.543 213.672 316.543 233.814C316.543 254.501 339.278 259.675 339.278 281.444C339.278 284.037 337.907 295.2 322.806 295.2C308.233 295.2 301.228 287.054 297.249 276.424C289.826 262.084 292.552 239.699 284.194 230.749L284.858 221.543C292.221 226.061 311.751 215.48 298.922 199.366C298.922 207.299 282.407 206.85 282.407 191.884C282.407 171.625 301.336 182.196 302.257 186.665C301.348 179.292 300.991 174.598 302.235 170.362C292.014 173.645 291.074 167.748 292.346 165.458C293.841 162.812 295.818 159.732 299.789 159.732C305.529 159.732 305.165 161.839 304.863 164.807C307.055 161.491 307.678 159 312.779 154.011L312.671 150.264L315.631 151.364L318.508 146.74C315.431 140.35 311.246 143.441 308.154 135.512C305.59 134.839 271.859 131.726 273.026 115.717C270.041 115.717 261.916 126.01 267.414 131.518C267.414 131.518 263.062 131.518 260.41 131.518C256.665 131.961 247.924 129.347 242.314 140.794C256.126 126.984 265.092 159.931 239.652 159.931V159.926C235.898 159.935 232.678 158.37 232.46 155.723C229.925 166.843 245.952 170.303 245.952 170.303C245.952 173.607 237.924 191.493 234.022 195.39C236.652 198.021 237.469 213.902 225.311 213.902C229.695 202.046 216.8 192.001 204.276 185.356C204.288 185.356 204.288 185.356 204.293 185.356C202.025 184.494 199.865 183.446 197.865 182.184C190.176 178.671 183.926 176.693 183.926 176.693V167.4C187.792 165.504 192.032 162.155 196.439 156.558C199.881 152.364 201.733 146.981 201.23 141.26C201.176 140.576 201.075 139.912 200.939 139.243C200.909 139.035 200.86 138.837 200.816 138.629C200.715 138.168 200.603 137.715 200.47 137.272C200.41 137.046 200.346 136.833 200.267 136.609C200.122 136.153 199.956 135.707 199.786 135.273C199.71 135.089 199.647 134.914 199.571 134.732C199.32 134.16 199.044 133.597 198.754 133.057C198.638 132.827 198.496 132.62 198.375 132.4C198.172 132.069 197.975 131.742 197.764 131.422C197.588 131.165 197.413 130.902 197.224 130.646C197.038 130.401 196.851 130.149 196.652 129.913C196.44 129.634 196.225 129.362 195.995 129.101C195.845 128.929 195.685 128.762 195.524 128.598C194.946 127.973 194.332 127.385 193.686 126.833C193.621 126.781 193.566 126.709 193.502 126.663C193.139 126.358 192.759 126.063 192.369 125.786C192.266 125.718 192.17 125.631 192.069 125.562C191.657 125.268 191.248 124.999 190.812 124.729C190.787 124.717 190.761 124.696 190.737 124.686C186.615 122.149 181.631 120.841 176.37 121.252C175.237 121.343 174.135 121.546 173.057 121.776C165.762 124.572 160.454 133.111 160.454 143.217C160.454 152.74 165.175 160.862 171.816 164.103C171.906 164.128 172.003 164.165 172.098 164.188C168.933 165.951 166.265 166.969 165.659 166.969C165.762 167.034 165.896 167.108 166.04 167.205C166.077 167.221 166.116 167.241 166.158 167.264C166.285 167.338 166.419 167.413 166.579 167.498C166.618 167.519 166.654 167.541 166.699 167.556C166.888 167.657 167.109 167.775 167.338 167.888C167.38 167.9 167.423 167.92 167.456 167.943C167.657 168.037 167.874 168.123 168.108 168.219C168.172 168.247 168.232 168.274 168.302 168.3C168.864 168.522 169.478 168.739 170.163 168.93C170.258 168.952 170.35 168.979 170.446 169.006C170.713 169.075 170.991 169.14 171.279 169.2C171.376 169.226 171.477 169.242 171.579 169.264C171.942 169.333 172.316 169.396 172.708 169.444C172.735 169.444 172.766 169.449 172.793 169.468C175.209 169.665 178.065 169.066 178.065 169.066V174.457C177.632 174.457 173.834 173.232 172.793 172.191C172.665 172.21 172.526 172.234 172.387 172.26C168.275 172.934 165.595 174.199 164.388 177.874C163.184 181.557 164.42 182.887 166.349 185.471C164.708 188.375 160.447 189.471 166.013 195.914C165.617 198.341 166.125 202.223 169.661 203.401C170.819 203.792 171.782 203.988 172.793 204.169C174.888 204.169 178.065 205.92 178.065 210.269V251.756C179.973 251.867 182.043 252.124 183.925 252.286V206.719C186.091 206.927 191.716 207.697 198.276 210.404C198.352 210.441 198.41 210.483 198.475 210.526C198.47 210.521 198.463 210.521 198.463 210.516C199.063 210.59 199.672 210.719 200.275 210.899C204.644 212.242 207.364 216.034 206.344 219.392C205.323 222.743 200.938 224.375 196.576 223.036C201.758 232.984 219.75 228.117 223.668 220.022C225.578 219.851 227.278 223.279 228.877 226.514C228.877 226.514 233.383 228.24 244.543 228.24C244.543 228.24 199.363 257.085 186.295 257.085C180.712 257.085 168.329 257.085 168.329 261.307C164.926 261.307 160.019 267.09 160.019 270.396C163.237 267.885 165.858 267.885 165.858 267.885C168.601 267.885 170.146 268.705 170.146 268.705C169.141 269.698 164.632 274.786 164.632 278.736C168.408 274.955 170.055 274.971 170.055 274.971C170.055 274.971 174 274.462 175.407 275.875C174.456 276.819 172.793 280.239 172.793 284.286C172.793 284.286 175.134 279.766 178.065 279.766V323.133C178.065 324.458 172.081 325.73 169.616 325.73L169.612 331.206ZM171.454 200C170.34 200.042 169.811 198.594 169.801 198.071C169.774 197.541 170.192 196.066 171.303 196.022C173.95 195.931 179.244 197.201 179.265 197.722C179.286 198.24 174.099 199.904 171.454 200ZM169.747 192.842C168.212 192.734 167.705 190.659 167.756 189.93C167.805 189.215 168.613 187.231 170.146 187.344C173.81 187.618 180.911 190.172 180.851 190.894C180.806 191.626 173.405 193.112 169.747 192.842ZM169.117 183.671C167.491 183.244 167.358 180.917 167.555 180.148C167.757 179.382 169.015 177.421 170.646 177.843C174.519 178.859 181.639 183.023 181.436 183.786C181.238 184.552 172.993 184.686 169.117 183.671V183.671ZM181.115 157.83C181.788 156.225 181.645 154.033 181.228 151.97C181.158 151.97 181.089 151.975 181.018 151.975C176.358 151.975 172.581 148.195 172.581 143.543C172.512 142.747 172.625 141.975 172.893 141.266H172.898C172.898 141.249 172.907 141.233 172.914 141.227C173.922 137.699 177.16 135.101 181.021 135.101C185.668 135.101 189.455 138.88 189.455 143.543C189.453 148.921 185.667 153.872 181.117 157.83L181.115 157.83Z" fill="#034694"/>
<path d="M307.714 165.198C309.971 168.977 314.26 171.34 318.946 170.903C325.433 170.297 330.189 164.545 329.596 158.054C329.571 157.824 329.529 157.604 329.499 157.374C328.811 160.728 324.835 163.578 319.812 164.044C315.991 164.402 312.546 163.306 310.512 161.386C309.532 162.728 308.548 164.058 307.714 165.198" fill="#ED1C24"/>
<path d="M291.962 143.323L296.036 143.537L293.998 146.333C293.996 146.333 291.276 147.193 291.962 143.323ZM282.244 143.323H288.113C288.113 143.323 287.902 148.059 292.187 148.483L291.277 149.991C291.276 149.991 279.76 146.981 282.244 143.323Z" fill="white"/>
<path d="M181.436 183.787C181.639 183.024 174.519 178.858 170.646 177.844C169.015 177.422 167.758 179.383 167.555 180.149C167.357 180.918 167.491 183.245 169.117 183.672C172.993 184.687 181.238 184.553 181.436 183.787V183.787ZM180.852 190.894C180.912 190.172 173.811 187.618 170.148 187.344C168.614 187.231 167.806 189.215 167.758 189.93C167.706 190.659 168.212 192.733 169.748 192.842C173.405 193.113 180.806 191.627 180.852 190.894ZM172.79 169.465V172.188C173.831 173.23 177.629 174.453 178.062 174.453V169.063C178.063 169.064 175.207 169.662 172.79 169.465ZM171.304 196.022C170.192 196.066 169.774 197.54 169.802 198.071C169.811 198.594 170.341 200.043 171.454 200C174.1 199.905 179.286 198.24 179.265 197.721C179.244 197.201 173.95 195.93 171.304 196.022ZM165.855 267.883C161.476 273.558 164.63 278.734 164.63 278.734C164.63 274.782 169.138 269.696 170.144 268.703C170.144 268.704 168.599 267.883 165.855 267.883ZM179.826 279.923C179.153 283.423 180.895 286.832 183.91 288.4C184.552 288.732 185.248 288.995 185.979 289.139C186.293 289.211 186.586 289.248 186.89 289.283C187.024 289.285 187.158 289.288 187.292 289.293C187.292 289.293 182.857 285.141 184.64 281.217C183.483 280.423 181.757 279.922 179.826 279.922V279.923ZM171.812 164.102C165.171 160.861 160.45 152.74 160.45 143.217C160.45 133.112 165.758 124.572 173.053 121.776C162.101 124.203 154.375 133.936 155.342 144.907C156.161 154.2 162.951 161.631 171.812 164.102ZM242.311 140.794C249.359 139.468 251.75 145.733 251.75 147.976C251.75 156.471 245.133 159.893 239.649 159.926V159.931C265.089 159.931 256.124 126.985 242.311 140.794V140.794ZM225.307 213.902C237.465 213.902 236.648 198.022 234.018 195.39C237.92 191.492 245.948 173.608 245.948 170.304C245.948 170.304 229.9 166.843 232.463 155.707C232.458 155.7 232.458 155.695 232.458 155.686L232.243 155.647C227.87 160.261 230.529 169.886 237.467 172.287C237.467 172.287 234.789 182.869 228.179 189.579C221.599 189.323 212.375 188.457 204.274 185.356C216.797 192.003 229.693 202.048 225.307 213.903L225.307 213.902ZM177.81 137.656C180.954 137.405 183.723 139.634 183.991 142.638C184.252 145.627 181.911 148.269 178.761 148.519C175.606 148.772 172.832 146.543 172.581 143.542C172.581 148.194 176.357 151.974 181.018 151.974C181.087 151.974 181.157 151.969 181.227 151.969C181.645 154.032 181.788 156.224 181.115 157.829C185.666 153.871 189.451 148.92 189.451 143.542C189.451 138.879 185.666 135.1 181.018 135.1C177.136 135.1 173.886 137.714 172.892 141.265C173.63 139.312 175.496 137.843 177.811 137.656L177.81 137.656ZM267.411 131.518C261.913 126.01 270.038 115.717 273.023 115.717C269.758 115.717 255.601 124.986 260.407 131.518C263.059 131.518 267.411 131.518 267.411 131.518ZM196.573 223.034C200.934 224.373 205.32 222.741 206.341 219.39C207.362 216.032 204.641 212.24 200.272 210.897C199.669 210.717 199.06 210.588 198.46 210.514C204.77 214.111 204.696 221.328 196.573 223.034ZM183.922 176.694C183.922 176.694 190.172 178.671 197.861 182.184C196.317 181.227 194.868 180.148 193.567 178.923C189.664 175.234 186.559 173.224 183.922 172.202V176.694ZM186.293 257.084C199.36 257.084 244.54 228.238 244.54 228.238C233.381 228.238 228.874 226.512 228.874 226.512C226.355 227.824 221.185 230.418 210.164 236.909C201.197 242.187 195.187 248.861 187.011 251.774C185.766 252.225 184.776 252.33 183.922 252.283C182.04 252.121 179.97 251.866 178.062 251.752V210.266C178.062 205.915 174.885 204.166 172.79 204.166V252.445C169.256 254.318 167.517 256.646 166.561 258.823C166.561 258.823 159.824 257.924 160.016 270.393C160.016 267.086 164.923 261.303 168.326 261.303C168.326 257.084 180.709 257.084 186.293 257.084ZM298.99 323.871C295.681 323.871 280.495 324.514 279.13 311.286C275.774 310.565 271.856 310.42 267.741 311.005C278.477 331.495 290.132 331.659 293.181 331.816C297.927 337.11 296.337 354.987 289.481 354.627C264.382 353.291 265.303 368.56 268.114 371.683C268.114 360.17 275.941 357.44 295.713 357.44C295.714 357.44 311.875 336.756 298.99 323.871ZM304.152 373.312H300.754C300.467 378.797 305.897 380.412 305.897 380.412C304.152 378.668 302.88 374.595 304.152 373.312ZM272.392 381.034C270.948 379.588 269.758 373.792 271.856 371.683H268.113C267.801 377.619 272.392 381.034 272.392 381.034ZM347.313 190.404C347.313 172.875 323.274 175.629 322.087 189.089C323.147 179.223 339.208 177.768 339.208 190.125C339.208 202.894 309.254 211.26 309.254 232.842C309.254 256.623 333.034 258.824 330.628 280.565C330.221 284.329 326.188 289.247 320.35 289.247C307.832 289.247 301.132 283.934 297.241 276.426C301.22 287.055 308.224 295.203 322.798 295.203C337.9 295.203 339.27 284.041 339.27 281.448C339.27 259.68 316.535 254.505 316.535 233.817C316.537 213.673 347.313 205.375 347.313 190.404ZM170.052 274.969C170.052 281.681 172.79 284.285 172.79 284.285C172.79 280.238 174.453 276.818 175.404 275.874C173.999 274.459 170.052 274.969 170.052 274.969ZM343.75 237.872C337.648 237.872 332.652 242.541 332.126 248.497C332.404 247.068 333.357 245.679 335.217 244.288C342.208 239.092 355.909 249.558 348.094 260.374C352.39 258.649 355.408 254.457 355.408 249.545C355.41 243.104 350.19 237.872 343.75 237.872ZM290.274 373.312H286.198C285.781 381.064 290.742 382.23 290.742 382.23C288.637 380.132 288.286 375.297 290.274 373.312ZM175.131 331.966C174.501 331.966 173.913 332.096 173.353 332.309C171.415 333.784 170.234 336.075 170.304 338.588C170.95 340.655 172.854 342.148 175.131 342.148C177.944 342.148 180.221 339.87 180.221 337.059C180.221 334.245 177.944 331.966 175.131 331.966ZM203.764 369.611H197.873C197.822 379.054 203.929 380.766 203.929 380.766C202.207 379.033 200.021 373.352 203.764 369.611H203.764ZM222.034 309.898C222.034 288.301 273.76 285.766 273.76 267.973C273.76 260.726 267.504 257.454 263.057 257.454C264.316 258.715 271.044 273.182 251.724 273.182C234.254 279.03 196.211 312.099 222.617 323.563C222.605 326.887 222.158 351.635 206.298 349.69C183.451 346.863 177.751 356.307 182.136 366.936C182.136 350.809 193.461 353.805 208.251 353.805C217.5 353.805 231.022 342.108 231.022 322.416C231.022 322.416 222.034 318.966 222.034 309.898ZM178.063 323.135V279.767C175.131 279.767 172.791 284.287 172.791 284.287V321.287V321.05L169.587 321.06L169.615 325.731C172.079 325.73 178.063 324.458 178.063 323.134L178.063 323.135ZM186.966 379.018C186.966 379.018 182.393 371.834 187.293 366.936H182.137C180.067 375.91 186.966 379.018 186.966 379.018ZM218.853 369.705C218.853 369.705 216.39 369.705 214.577 369.705C214.544 376.369 222.287 378.893 222.287 378.893C219.559 376.177 217.689 370.851 218.853 369.705Z" fill="#6A7AB5"/>
<path d="M75.0226 297.704L74.7375 296.829L74.6156 295.918C74.198 292.799 73.4438 286.99 68.9587 285.951C67.7596 285.672 66.5205 285.815 65.1983 286.359C65.558 284.979 65.5159 283.729 65.0825 282.584C63.429 278.284 57.5754 278.339 54.4304 278.38H53.5058L52.5949 278.211C49.5056 277.642 43.7425 276.566 41.3779 280.513C40.7426 281.567 40.4902 282.787 40.5985 284.208C39.4015 283.436 38.195 283.09 36.9781 283.149C32.3751 283.394 30.6154 288.979 29.674 291.985L29.3868 292.858L28.9598 293.669C27.4514 296.439 24.6545 301.573 27.6754 305.05C28.4822 305.979 29.5677 306.602 30.9541 306.93C29.858 307.838 29.1501 308.876 28.8409 310.063C27.6386 314.504 32.4119 317.901 34.9679 319.721L35.7179 320.274L36.3638 320.927C38.5295 323.219 42.5539 327.46 46.7918 325.665C47.9131 325.182 48.843 324.346 49.5877 323.131C50.1178 324.456 50.8804 325.438 51.9081 326.116C55.7684 328.616 60.4691 325.132 62.9978 323.273L63.7456 322.725L64.5756 322.318C67.4156 320.958 72.7064 318.447 72.3067 313.86C72.2005 312.629 71.6861 311.499 70.7657 310.417C72.1826 310.333 73.3543 309.904 74.3052 309.133C77.8899 306.237 76.0239 300.688 75.0226 297.704" fill="white"/>
<path d="M54.8584 301.425C80.6099 316.645 72.6789 299.908 72.113 297.433C71.5429 294.966 71.3262 276.453 54.8584 301.425Z" fill="#ED1C24"/>
<path d="M53.2394 305.234C46.7221 334.417 60.189 321.713 62.3611 320.419C64.5321 319.114 82.0728 313.181 53.2394 305.234Z" fill="#ED1C24"/>
<path d="M49.1048 304.881C19.3247 307.692 35.579 316.579 37.4881 318.239C39.4025 319.893 50.4543 334.751 49.1048 304.881Z" fill="#ED1C24"/>
<path d="M48.1706 300.828C36.2847 273.38 32.8567 291.581 31.8669 293.92C30.8771 296.238 20.1618 311.35 48.1706 300.828Z" fill="#ED1C24"/>
<path d="M473.531 293.671L473.106 292.86L472.815 291.987C471.873 288.98 470.114 283.396 465.523 283.15C464.293 283.092 463.093 283.435 461.896 284.199C462.005 282.788 461.738 281.568 461.119 280.514C458.744 276.565 452.99 277.642 449.9 278.211L448.98 278.379H448.059C444.926 278.338 439.067 278.285 437.42 282.585C436.972 283.729 436.939 284.98 437.291 286.359C435.988 285.816 434.747 285.675 433.54 285.952C429.059 286.989 428.289 292.799 427.892 295.918L427.755 296.83L427.477 297.705C426.47 300.688 424.611 306.237 428.194 309.136C429.145 309.906 430.308 310.336 431.734 310.42C430.813 311.502 430.3 312.633 430.193 313.863C429.796 318.45 435.079 320.961 437.924 322.321L438.745 322.728L439.493 323.276C442.03 325.138 446.735 328.619 450.583 326.119C451.624 325.442 452.381 324.459 452.904 323.134C453.654 324.349 454.575 325.185 455.707 325.669C459.942 327.463 463.971 323.222 466.135 320.93L466.786 320.278L467.525 319.724C470.09 317.905 474.86 314.508 473.662 310.068C473.341 308.877 472.647 307.841 471.543 306.933C472.924 306.604 474.013 305.982 474.816 305.053C477.842 301.575 475.049 296.442 473.531 293.671" fill="white"/>
<path d="M450.766 298.699C428.34 278.915 446.703 281.276 449.227 281.054C451.74 280.843 469.425 275.321 450.766 298.699Z" fill="#ED1C24"/>
<path d="M447.644 301.425C421.893 316.645 429.808 299.908 430.385 297.433C430.95 294.966 431.164 276.453 447.644 301.425Z" fill="#ED1C24"/>
<path d="M449.256 305.234C455.777 334.417 442.309 321.713 440.132 320.419C437.964 319.114 420.429 313.181 449.256 305.234Z" fill="#ED1C24"/>
<path d="M453.386 304.881C483.167 307.692 466.924 316.579 465.008 318.239C463.105 319.893 452.038 334.751 453.386 304.881Z" fill="#ED1C24"/>
<path d="M454.313 300.828C466.207 273.38 469.627 291.581 470.621 293.92C471.606 296.238 482.321 311.35 454.313 300.828Z" fill="#ED1C24"/>
<path d="M460.099 301.684C460.07 301.446 459.994 301.232 459.961 301.001C462.352 299.244 464.935 297.362 464.935 297.362L464.687 296.806C464.687 296.806 461.674 297.332 458.783 297.836C457.333 295.458 454.86 293.846 452.028 293.57C451.129 290.867 450.23 288.113 450.23 288.113L449.625 288.165C449.625 288.165 449.217 291.034 448.807 293.845C447.067 294.315 445.505 295.3 444.318 296.709C443.685 297.469 443.227 298.328 442.863 299.225C439.952 299.225 436.875 299.235 436.875 299.235L436.746 299.834C436.746 299.834 439.614 301.232 442.264 302.529C442.273 302.771 442.242 303.01 442.264 303.254C442.467 305.588 443.56 307.683 445.322 309.212C444.392 312.121 443.344 315.372 443.344 315.372L443.857 315.683C443.857 315.683 446.273 313.18 448.424 310.971C449.548 311.341 450.744 311.486 451.952 311.378C453.17 311.286 454.325 310.921 455.373 310.377C457.867 312.173 460.68 314.207 460.68 314.207L461.14 313.81C461.14 313.81 459.546 310.797 458.125 308.099C459.598 306.279 460.292 304.012 460.099 301.683" fill="white"/>
<path d="M450.72 297.204C449.309 297.313 448.037 297.98 447.129 299.071C446.222 300.152 445.782 301.518 445.911 302.922C446.158 305.83 448.732 307.991 451.631 307.735C453.053 307.605 454.315 306.942 455.235 305.864C456.134 304.774 456.572 303.416 456.453 302.002C456.2 299.094 453.621 296.941 450.72 297.204Z" fill="#ED1C24"/>
<path d="M51.7302 298.699C74.1631 278.915 55.7904 281.276 53.2733 281.054C50.7478 280.843 33.0661 275.321 51.7302 298.699Z" fill="#ED1C24"/>
<path d="M60.2231 302.529C62.8916 301.233 65.7464 299.833 65.7464 299.833L65.6127 299.234C65.6127 299.234 62.5424 299.224 59.6234 299.224C59.27 298.328 58.8104 297.467 58.174 296.709C56.9875 295.3 55.4265 294.316 53.6826 293.844C53.2829 291.031 52.8758 288.165 52.8758 288.165L52.2594 288.113C52.2594 288.113 51.3664 290.865 50.4807 293.57C47.6312 293.846 45.1552 295.458 43.7068 297.836C40.8279 297.332 37.7964 296.806 37.7964 296.806L37.563 297.362C37.563 297.362 40.1401 299.244 42.5299 301.001C42.491 301.233 42.4215 301.447 42.3962 301.683C42.1986 304.025 42.9084 306.279 44.38 308.098C42.9474 310.794 41.3528 313.81 41.3528 313.81L41.825 314.207C41.825 314.207 44.6324 312.172 47.1243 310.377C48.1719 310.924 49.3258 311.275 50.5407 311.378C51.7587 311.488 52.9515 311.34 54.0749 310.971C56.2197 313.181 58.6326 315.682 58.6326 315.682L59.1617 315.372C59.1617 315.372 58.112 312.119 57.1758 309.22C58.9356 307.681 60.0274 305.586 60.2346 303.252C60.2599 303.01 60.2227 302.772 60.2227 302.53" fill="white"/>
<path d="M55.3684 299.072C54.4575 297.981 53.1921 297.312 51.7742 297.205C48.8764 296.942 46.2983 299.095 46.0458 302.004C45.926 303.418 46.3625 304.776 47.2618 305.867C48.1706 306.944 49.4486 307.607 50.8591 307.737C53.757 307.993 56.334 305.831 56.5854 302.925C56.7043 301.519 56.2709 300.153 55.3684 299.072Z" fill="#ED1C24"/>
<path d="M55.0088 174.25C42.4718 172.036 30.467 180.452 28.2518 192.989C26.0397 205.534 34.4461 217.538 46.9842 219.752C59.5329 221.965 71.5429 213.554 73.7508 201.01C75.9702 188.471 67.5585 176.467 55.0088 174.25Z" fill="white"/>
<path d="M60.2384 191.724C60.0355 191.599 59.682 191.37 59.2539 191.087C57.3595 189.831 53.6454 187.375 53.5434 187.302C53.029 186.948 52.5283 186.612 52.035 186.279C50.3836 185.173 48.9068 184.21 47.5184 183.409C46.983 183.105 46.4654 182.821 45.9448 182.566C43.7369 181.452 41.6206 180.779 39.1225 180.559C37.1965 181.95 35.5251 183.672 34.1714 185.662C39.9156 187.736 45.5241 191.058 57.2017 198.311C57.8697 196.767 60.1048 192.013 60.2384 191.724Z" fill="#ED1C24"/>
<path d="M54.8543 204.106C55.0877 203.524 56.1144 200.926 56.5341 199.926C44.5671 192.492 39.0102 189.203 33.2534 187.168C32.3604 188.771 31.6914 190.52 31.2549 192.382C34.5409 196.893 43.347 201.326 54.8543 204.106Z" fill="#ED1C24"/>
<path d="M53.5582 185.216C58.0391 182.565 63.1301 183.287 67.0598 184.628C65.5946 182.736 63.8201 181.082 61.7564 179.795C58.0444 179.056 52.9176 178.94 48.8364 182.184C50.3206 183.056 51.8532 184.073 53.5582 185.216Z" fill="#ED1C24"/>
<path d="M35.6788 206.625C36.2783 207.036 36.8926 207.428 37.5458 207.795C38.8648 208.524 40.2932 209.154 41.769 209.693C42.3949 209.93 43.0312 210.15 43.6728 210.357C45.9175 211.096 51.0684 212.434 51.4524 212.523C51.5314 212.325 53.4614 207.552 54.1935 205.738C45.2717 203.525 35.5021 199.652 30.8602 194.616C30.5815 196.942 30.6898 199.242 31.181 201.424C32.1603 203.557 33.7328 205.257 35.6788 206.625Z" fill="#ED1C24"/>
<path d="M51.7535 214.388L49.8917 213.908C48.1656 213.47 46.2944 212.978 44.3916 212.395C45.3193 214.372 46.7793 215.913 48.336 217.106C50.4219 217.383 52.4804 217.33 54.4589 216.988C53.0294 215.876 51.7535 214.388 51.7535 214.388" fill="#ED1C24"/>
<path d="M70.4131 191.11C69.9892 189.725 69.4328 188.383 68.7333 187.132C65.2159 185.564 59.8588 184.031 55.1802 186.32L61.6333 190.581C62.9786 190.461 64.2166 190.424 65.3495 190.452C65.968 190.461 66.5423 190.495 67.0914 190.549C68.3546 190.66 69.4328 190.863 70.4131 191.11" fill="#ED1C24"/>
<path d="M67.1094 192.291C66.9211 202.895 61.9217 211.075 57.6133 216.192C64.3567 213.848 69.6749 208.037 71.0013 200.53C71.4557 197.964 71.3757 195.441 70.9003 193.039C69.8527 192.713 68.5999 192.441 67.1094 192.291" fill="#ED1C24"/>
<path d="M47.225 181.286C50.2449 178.624 53.8118 177.724 57.1009 177.651C56.2657 177.384 55.4148 177.153 54.5281 177.003C49.8378 176.175 45.2497 177.047 41.3525 179.158C43.4279 179.564 45.3033 180.292 47.225 181.286Z" fill="#ED1C24"/>
<path d="M61.8794 192.301C60.3447 195.498 59.4422 197.455 58.6933 199.236C58.463 199.776 58.2389 200.299 58.0128 200.844C57.6551 201.737 56.5528 204.513 56.5528 204.513L55.8954 206.142L53.0459 213.201C53.8316 214.244 54.7836 215.094 55.7197 215.757C59.9534 210.928 65.2222 202.812 65.3831 192.189C64.3176 192.151 63.1458 192.19 61.8794 192.301" fill="#ED1C24"/>
<path d="M42.2562 211.693C40.8352 211.204 39.4162 210.646 38.0762 209.993C38.5768 211.539 39.2984 212.912 40.0252 214.09C41.5452 215.065 43.2134 215.834 44.9942 216.383C43.8403 215.083 42.8442 213.545 42.2562 211.693Z" fill="#ED1C24"/>
<path d="M35.985 208.851C35.0215 208.273 34.1253 207.631 33.2954 206.925C34.2347 208.605 35.4181 210.145 36.7907 211.495C36.4647 210.653 36.1785 209.781 35.985 208.851Z" fill="#ED1C24"/>
<path d="M426.241 201.011C428.457 213.555 440.458 221.966 452.999 219.753C465.543 217.54 473.948 205.535 471.745 192.99C469.531 180.453 457.524 172.037 444.978 174.251C432.435 176.467 424.03 188.471 426.241 201.011Z" fill="white"/>
<path d="M439.751 191.724C439.95 191.599 440.305 191.37 440.743 191.087C442.639 189.831 446.347 187.375 446.442 187.302C446.968 186.948 447.469 186.612 447.962 186.279C449.595 185.173 451.085 184.21 452.475 183.409C453.01 183.105 453.533 182.821 454.045 182.566C456.247 181.452 458.375 180.779 460.869 180.559C462.794 181.95 464.473 183.672 465.808 185.662C460.068 187.736 454.476 191.058 442.783 198.311C442.113 196.767 439.889 192.013 439.751 191.724Z" fill="#ED1C24"/>
<path d="M445.139 204.106C444.903 203.524 443.868 200.926 443.471 199.926C455.415 192.492 460.989 189.203 466.741 187.168C467.629 188.771 468.302 190.52 468.74 192.382C465.449 196.893 456.644 201.326 445.139 204.106Z" fill="#ED1C24"/>
<path d="M446.435 185.216C441.95 182.565 436.863 183.287 432.927 184.628C434.395 182.736 436.18 181.082 438.242 179.795C441.95 179.056 447.074 178.94 451.15 182.184C449.677 183.056 448.134 184.073 446.435 185.216Z" fill="#ED1C24"/>
<path d="M464.303 206.625C463.717 207.036 463.105 207.428 462.441 207.795C461.128 208.524 459.702 209.154 458.229 209.693C457.598 209.93 456.957 210.15 456.317 210.357C454.084 211.096 448.927 212.434 448.54 212.523C448.454 212.325 446.519 207.552 445.801 205.738C454.72 203.525 464.482 199.652 469.138 194.616C469.415 196.942 469.295 199.242 468.813 201.424C467.83 203.557 466.261 205.257 464.303 206.625Z" fill="#ED1C24"/>
<path d="M448.243 214.388L450.093 213.908C451.824 213.47 453.707 212.978 455.611 212.395C454.669 214.372 453.215 215.913 451.662 217.106C449.579 217.383 447.514 217.33 445.546 216.988C446.959 215.876 448.243 214.388 448.243 214.388" fill="#ED1C24"/>
<path d="M429.58 191.11C430.007 189.725 430.554 188.383 431.27 187.132C434.777 185.564 440.122 184.031 444.804 186.32L438.357 190.581C437.01 190.461 435.773 190.424 434.637 190.452C434.027 190.461 433.449 190.495 432.893 190.549C431.632 190.66 430.565 190.863 429.58 191.11" fill="#ED1C24"/>
<path d="M432.885 192.291C433.068 202.895 438.08 211.075 442.392 216.192C435.631 213.848 430.306 208.037 428.994 200.53C428.544 197.964 428.608 195.441 429.099 193.039C430.138 192.713 431.399 192.441 432.885 192.291" fill="#ED1C24"/>
<path d="M452.774 181.286C449.752 178.624 446.177 177.724 442.894 177.651C443.726 177.384 444.572 177.153 445.467 177.003C450.153 176.175 454.741 177.047 458.637 179.158C456.57 179.564 454.69 180.292 452.774 181.286Z" fill="#ED1C24"/>
<path d="M438.115 192.301C439.654 195.498 440.54 197.455 441.314 199.236C441.536 199.776 441.749 200.299 441.975 200.844C442.339 201.737 443.441 204.513 443.441 204.513L444.094 206.142L446.95 213.201C446.159 214.244 445.214 215.094 444.275 215.757C440.043 210.928 434.765 202.812 434.617 192.189C435.677 192.151 436.854 192.19 438.115 192.301" fill="#ED1C24"/>
<path d="M457.739 211.693C459.161 211.204 460.569 210.646 461.922 209.993C461.407 211.539 460.7 212.912 459.962 214.09C458.445 215.065 456.776 215.834 455.003 216.383C456.155 215.083 457.15 213.545 457.739 211.693Z" fill="#ED1C24"/>
<path d="M464.015 208.851C464.966 208.273 465.864 207.631 466.698 206.925C465.757 208.605 464.582 210.145 463.204 211.495C463.524 210.653 463.812 209.781 464.015 208.851Z" fill="#ED1C24"/>
</g>
<defs>
<clipPath id="clip0_6_72698">
<rect width="500" height="500" fill="white"/>
</clipPath>
</defs>
</svg>
