<svg xmlns="http://www.w3.org/2000/svg" xmlns:xlink="http://www.w3.org/1999/xlink" version="1.0" id="katman_1" x="0px" y="0px" style="enable-background:new 0 0 560 400;" xml:space="preserve" viewBox="100 124.19 360.18 151.66">
<style type="text/css">
	.st0{fill:#3D195B;}
</style>
<g transform="matrix(1.75871 0 0 1.75871 100 124.188)">
	<path class="st0" d="M157.6,57.5l0.6-2.4h4.6v18c0,3.5-1,6-3.3,7.8c-1.8,1.3-4.1,2.3-7,2.3c-3.9,0-6.7-1.3-9-3.5l2.9-4   c1.4,1.3,3.3,2.5,5.8,2.5c3.9,0,5.5-1.9,5.5-4.7v-1.3c-1.5,1.6-3.4,2.2-5.4,2.2c-5.3,0-9.5-4.4-9.5-9.9c0-5.5,4.4-9.7,9.7-9.7   C154.5,54.8,156.5,55.9,157.6,57.5 M153,59.5c-2.7,0-4.9,2.1-4.9,5c0,2.7,2.2,4.9,4.9,4.9s4.9-2.2,4.9-4.9   C157.9,61.7,155.7,59.5,153,59.5 M123.3,28.3c-2.2,0-4,1.3-4.4,3.3h8.7C127.1,29.6,125.4,28.3,123.3,28.3 M123.5,43.5   c-5.8,0-10.1-4-10.1-9.8c0-5.3,3.9-10,10-10c4.6,0,9.3,3.4,9.3,9.8c0,0.5,0,1.1-0.1,1.8h-13.8c0.5,2.1,2.4,3.5,4.7,3.5   c2.1,0,3.7-0.8,5.1-2.2l3.2,3.2C129.7,42.3,126.7,43.5,123.5,43.5 M181.9,28.3c-2.2,0-4,1.3-4.4,3.3h8.7   C185.7,29.6,184,28.3,181.9,28.3 M182.2,43.5c-5.8,0-10.1-4-10.1-9.8c0-5.3,3.9-10,10-10c4.6,0,9.3,3.4,9.3,9.8   c0,0.5,0,1.1-0.1,1.8h-13.8c0.5,2.1,2.4,3.5,4.7,3.5c2.1,0,3.7-0.8,5.1-2.2l3.2,3.2C188.3,42.3,185.3,43.5,182.2,43.5 M195.3,59.2   c-2.2,0-4,1.3-4.4,3.3h8.7C199.1,60.5,197.4,59.2,195.3,59.2 M195.6,74.4c-5.8,0-10.1-4-10.1-9.8c0-5.3,3.9-10,10-10   c4.6,0,9.3,3.4,9.3,9.8c0,0.5,0,1.1-0.1,1.8h-13.8c0.5,2.1,2.4,3.5,4.7,3.5c2.1,0,3.7-0.8,5.1-2.2l3.2,3.2   C201.7,73.2,198.7,74.4,195.6,74.4 M109.2,59.2c-2.2,0-4,1.3-4.4,3.3h8.7C113.1,60.5,111.3,59.2,109.2,59.2 M109.5,74.4   c-5.8,0-10.1-4-10.1-9.8c0-5.3,3.9-10,10-10c4.6,0,9.3,3.4,9.3,9.8c0,0.5,0,1.1-0.1,1.8h-13.8c0.5,2.1,2.4,3.5,4.7,3.5   c2.1,0,3.7-0.8,5.1-2.2l3.2,3.2C115.6,73.2,112.7,74.4,109.5,74.4 M80.6,73.9V46.1h5.5v22.6h12.1v5.3L80.6,73.9z M101.8,43V24.2   h4.5l0.6,2.7c0.8-1.8,2.5-2.9,4.8-2.9c0.5,0,1,0.1,1.5,0.2v5c-0.6-0.1-1.2-0.2-1.8-0.2c-2.5,0-4.3,1.5-4.3,4.6V43L101.8,43   L101.8,43z M193.3,43V24.2h4.5l0.6,2.7c0.8-1.8,2.5-2.9,4.8-2.9c0.5,0,1,0.1,1.5,0.2v5c-0.6-0.1-1.2-0.2-1.8-0.2   c-2.5,0-4.3,1.5-4.3,4.6V43L193.3,43L193.3,43z M157,32c0-2-1.1-3.3-2.9-3.3c-2,0-3.1,1.3-3.1,3.4v11h-5.2V32c0-2-1.1-3.3-2.9-3.3   c-2,0-3.1,1.3-3.1,3.4v11h-5.2V24.2h4.6l0.6,2.5c0,0,1.1-2.9,4.6-2.9c2.2,0,4,0.9,5.3,2.8l0.1,0.2l0.1-0.2c1.8-2.6,4.1-2.8,5.5-2.8   c4,0,6.7,3,6.7,7.3v12H157L157,32L157,32z M167.5,21.7c-1.8,0-3.2-1.4-3.2-3.2c0-1.8,1.4-3.2,3.2-3.2s3.2,1.4,3.2,3.2   C170.7,20.3,169.3,21.7,167.5,21.7 M164.8,24.2h5.2V43h-5.2V24.2z M130.8,59.5c-2.8,0-4.9,2.1-4.9,5c0,2.7,2.1,4.9,4.9,4.9   c2.7,0,4.8-2.2,4.8-4.9C135.6,61.7,133.5,59.5,130.8,59.5 M129.7,74.4c-5,0-9.3-4.6-9.3-9.9c0-5.3,4.4-9.7,9.3-9.7   c2.8,0,4.7,1,5.8,2.7l0.6-2.5h4.6v18.8h-4.6l-0.6-2.4C134.4,73.2,132.3,74.4,129.7,74.4 M174.4,74.4c-4.1,0-9.2-2.2-9.2-9.3v-10   h5.2v9.7c0,3.2,1.5,4.6,4,4.6c2.3,0,4-1.6,4-4.6v-9.7h5.2v10C183.6,72.2,178.5,74.4,174.4,74.4 M86.2,28.4h3.2   c2.8,0,4.8-1.5,4.8-4.4c0-2.8-2-4.3-4.8-4.3h-3.2V28.4z M80.6,43V14.5h9.1c5.9,0,10.3,3.5,10.3,9.5c0,6.1-4.4,9.7-10.3,9.7h-3.5V43   H80.6z"/>
	<path class="st0" d="M60.8,39.4c-1.9,1.5-3.5,2.4-3.5,2.4l0,4.9c1.3,1.5,2.7,2.7,3.7,4.9C62.9,48.3,62.5,43.5,60.8,39.4 M59.3,55.5   c0,0-0.4-2-2-3.9l-3.7,0.1c0,0-5,4.2-8.1,4.3c0,0,1.7,3.1,2.5,4.7c1.7-0.4,4.7-1.7,5.9-3c0,0,0.8,2.5,0.6,5.4   C56.1,62.1,58.4,59.5,59.3,55.5 M54.4,46.6l0-4.9c0,0-2.2-0.7-4.6-2.5C45,40,39.2,44.7,39.2,44.7s2,3.6,4.1,7.5   C47.1,52.7,52.6,48.1,54.4,46.6 M67.2,66.9l-3.1-3.3c-0.9,9-5.4,16.6-13.7,21.9l-1.3-4.8c-7,5-19.1,8.2-29.5,2.5   c1.3-6.4,2.4-12.9,0-20.7C13.9,71.2,8.8,74.6,8.8,74.6C5,68.2,5.3,55.4,6.5,51.7l-6.5,2c0-4.3,3.2-13.4,7.7-18.5l-4-0.6h0   c2.7-5.5,6.8-10.2,11.8-13.7l0,0c-1.5,2.3-1.5,8,2.9,10.2c-1.9-3.2-2.1-7.2-0.1-9.2c2-2.1,5.2-1.4,7.3,0.2c-0.6-1.8-2.5-4-5.2-4.2   h0c5.2-2.6,11.1-4.1,17.3-4.1c1.2,0,2.3,0,3.5,0.1c1.8,0.7,4.5,3.2,5.7,4.7c0,0,0.1-1.8-1-4c6.7,1.6,9.9,4.3,11.3,5.6   c0.3,2.8,1.1,4.5,2.3,7.2c-2.2-2.4-7.7-6.2-10.3-7.2c0,0-0.2,2.5-1.1,3.6c-5.2-3.7-7.8-4.6-7.8-4.6c-5.7,0.8-9.4,3-11.4,4.6   l1.7,1.4c-3.5,1-5.7,3.9-5.7,3.9c0,0.1,3.1,0.5,3.1,0.5s-0.3,3.5,4.2,5.7c3.9,1.9,9.4-0.5,14.6,1.6c-3.4-3.9-5.8-5.6-5.8-5.6   s-1.4-0.3-2.3-0.3c-1.2,0-3,0.2-4.9-0.5c-0.9-0.4-2-1-2.9-1.5c0,0,2.4-2.4,5.9-2.9c0,0,3.2,0.9,5.7,2.7c1.7-1.6,3.4-1.5,3.4-1.5   s-1.7,1.6-1.2,3.5c2.5,2.2,5.2,5.3,5.2,5.3c2.8-1.5,8.8-1.1,10,0.3c-1.6-2-3.8-3.6-5.6-5.1c-0.2-0.7-2.1-3.3-2.4-3.6   c0,0,1.8,0.5,3.4,2c0.5-0.6,1.3-1.3,2.5-1.6c1.2,1,1.4,2.5,1.4,2.8c-0.5,0.6-1.1,0.9-1.1,0.9l2.9,3.1l0.3-2.2   C68.3,42.3,71.9,53.2,67.2,66.9 M13.7,7.2c3.9,1.7,6.4,3.9,6.9,4.3c-0.2-1-1-5.7-1.4-8.7c2.3,1.5,7.6,5.1,9.3,6.3   C29.2,7,31.6,0,31.6,0s4.4,7,5.2,8.1C37.7,7.2,43,1.5,44.4,0c0.2,3.3,0.5,8,0.6,8.8c0.3-0.4,2.3-3.1,5.7-5.7   c-1.5,2.8-2.2,6.7-2.5,9.9c-3.3-0.9-6.9-1.4-10.5-1.4c-7,0-13.6,1.8-19.2,4.9C17.4,13.5,15.8,9.7,13.7,7.2"/>
</g>
</svg>