<svg width="500" height="500" viewBox="0 0 500 500" fill="none" xmlns="http://www.w3.org/2000/svg">
<g clip-path="url(#clip0_6_72666)">
<path d="M250.061 0C112.21 0 0 112.21 0 250.061C0 387.912 112.21 500.122 250.061 500.122C387.912 500.122 500.122 387.912 500.122 250.061C500 112.21 387.912 0 250.061 0Z" fill="#00285E"/>
<path d="M473.992 250.061C473.992 126.374 373.748 26.1294 249.938 26.1294C126.251 26.1294 25.8848 126.374 25.8848 250.061C25.8848 373.749 126.251 474.115 249.938 474.115C373.748 473.993 473.992 373.749 473.992 250.061Z" fill="white"/>
<path d="M392.674 250.061C392.674 171.306 328.816 107.448 250.061 107.448C171.307 107.448 107.448 171.306 107.448 250.061C107.448 328.816 171.307 392.674 250.061 392.674C328.816 392.674 392.674 328.816 392.674 250.061Z" fill="#6CADDF"/>
<path d="M250.061 403.907C165.201 403.907 96.2148 334.799 96.2148 249.939C96.2148 165.079 165.201 96.0928 250.061 96.0928C334.921 96.0928 404.029 165.079 404.029 249.939C403.907 334.921 334.921 403.907 250.061 403.907ZM250.061 104.762C169.963 104.762 104.762 169.963 104.762 250.061C104.762 330.159 169.963 395.36 250.061 395.36C330.159 395.36 395.36 330.159 395.36 250.061C395.36 169.963 330.159 104.762 250.061 104.762Z" fill="#00285E"/>
<path d="M250.062 489.866C117.827 489.866 10.2568 382.296 10.2568 250.061C10.2568 117.827 117.827 10.2564 250.062 10.2564C382.296 10.2564 489.866 117.827 489.866 250.061C489.744 382.296 382.296 489.866 250.062 489.866ZM250.062 15.3846C120.635 15.3846 15.5071 120.635 15.5071 250.061C15.5071 379.365 120.757 484.615 250.062 484.615C379.366 484.615 484.616 379.365 484.616 250.061C484.616 120.635 379.366 15.3846 250.062 15.3846Z" fill="#6CADDF"/>
<path d="M49.9388 244.567L45.9094 245.543L44.8105 241.392L51.5261 239.438H54.9449V262.882H49.9388V244.567Z" fill="#6CADDF"/>
<path d="M60.8057 256.41C60.8057 253.48 62.1488 251.893 64.5908 250.794C62.7593 249.695 61.6604 248.23 61.6604 245.665V245.543C61.6604 242.002 64.9571 239.194 69.8411 239.194C74.7251 239.194 78.0218 242.002 78.0218 245.543V245.665C78.0218 248.107 76.9229 249.695 75.0914 250.794C77.4113 252.015 78.8765 253.48 78.8765 256.288V256.41C78.8765 260.684 75.0914 263.248 69.9632 263.248C64.835 263.248 60.8057 260.44 60.8057 256.41ZM73.7483 256.044C73.7483 254.212 72.0389 253.114 69.719 253.114C67.3991 253.114 65.6897 254.212 65.6897 255.922C65.6897 257.509 67.1549 258.852 69.719 258.852C72.2831 258.852 73.7483 257.631 73.7483 256.044ZM73.1378 246.276C73.1378 244.811 71.9168 243.468 69.8411 243.468C67.7654 243.468 66.5444 244.689 66.5444 246.154V246.276C66.5444 247.863 67.8875 249.084 69.8411 249.084C71.7947 249.084 73.1378 247.863 73.1378 246.276Z" fill="#6CADDF"/>
<path d="M429.426 253.236C428.205 254.212 426.74 254.823 424.664 254.823C419.658 254.823 416.361 252.015 416.361 247.375V247.253C416.361 242.613 420.024 239.072 425.275 239.072C428.449 239.072 430.159 239.805 431.99 241.636C433.7 243.346 434.676 245.788 434.676 250.427V250.549C434.676 258.12 431.135 263.248 424.542 263.248C421.123 263.248 418.925 262.149 416.85 260.44L419.536 256.532C421.245 257.875 422.711 258.486 424.664 258.486C428.205 258.486 429.182 255.189 429.426 253.236ZM429.548 247.131C429.548 245.055 428.083 243.468 425.519 243.468C422.955 243.468 421.612 244.933 421.612 247.009V247.131C421.612 249.206 423.199 250.672 425.641 250.672C428.083 250.549 429.548 249.084 429.548 247.131Z" fill="#6CADDF"/>
<path d="M451.038 257.753H439.683L438.828 254.09L451.527 239.316H455.8V253.602H458.975V257.753H455.8V262.759H450.916V257.753H451.038ZM451.038 253.602V246.398L444.811 253.602H451.038Z" fill="#6CADDF"/>
<path d="M250.061 395.36C169.963 395.36 104.762 330.159 104.762 250.061C104.762 169.963 169.963 104.762 250.061 104.762C330.159 104.762 395.36 169.963 395.36 250.061C395.36 330.159 330.159 395.36 250.061 395.36ZM250.061 110.134C172.894 110.134 110.134 172.894 110.134 250.061C110.134 327.228 172.894 389.988 250.061 389.988C327.228 389.988 389.988 327.228 389.988 250.061C389.988 172.894 327.228 110.134 250.061 110.134Z" fill="white"/>
<path fill-rule="evenodd" clip-rule="evenodd" d="M247.375 124.908C175.702 124.908 134.31 134.31 134.31 134.31C134.31 134.31 117.826 197.192 127.228 277.656C131.135 311.477 158.608 384.127 249.694 409.035C340.781 384.249 368.254 311.477 372.161 277.656C381.563 197.07 365.079 134.31 365.079 134.31C365.079 134.31 323.687 124.908 252.014 124.908H247.375Z" fill="#00285E"/>
<path fill-rule="evenodd" clip-rule="evenodd" d="M359.585 258.974C358.73 283.394 354.945 356.41 249.573 396.581C145.055 357.509 139.561 281.929 139.561 258.974H359.585Z" fill="#97C1E7"/>
<path fill-rule="evenodd" clip-rule="evenodd" d="M356.41 254.945C359.219 194.383 348.962 145.299 348.962 145.299C348.962 145.299 309.646 137.729 249.695 137.729C189.622 137.729 149.695 146.032 149.695 146.032C149.695 146.032 138.828 195.36 141.758 254.823H356.41V254.945Z" fill="white"/>
<path d="M252.869 394.383L141.636 259.951C137.607 287.668 160.073 369.353 252.869 394.383Z" fill="#6CADDF"/>
<path d="M174.848 259.096L277.778 383.272C288.157 378.266 295.849 373.382 303.175 367.521L213.309 259.096H174.848Z" fill="#6CADDF"/>
<path d="M246.276 259.219L322.345 350.916C329.793 342.491 336.142 334.799 340.66 326.74L284.738 259.219H246.276Z" fill="#6CADDF"/>
<path d="M357.753 259.219L319.78 259.096L351.648 297.558C357.143 285.714 357.753 265.812 357.753 259.219Z" fill="#6CADDF"/>
<path d="M294.505 309.524C294.261 308.669 293.529 307.937 292.674 307.57L286.325 305.372C285.714 305.128 285.226 305.25 284.615 305.372C284.127 303.175 282.906 301.221 281.074 299.878C280.83 299.756 280.586 299.512 280.342 299.39C279.975 299.145 279.487 298.901 278.999 298.657C278.144 298.291 277.289 298.046 276.557 297.802C274.725 297.192 272.894 296.581 270.574 294.994C268.376 293.407 267.399 291.941 266.422 290.598C266.178 290.232 265.934 289.988 265.69 289.621C265.079 288.645 264.225 287.79 263.37 287.057C261.783 285.959 259.829 285.348 257.875 285.348C257.387 285.348 257.021 285.47 256.532 285.47C256.532 285.47 256.532 285.47 256.532 285.348C256.654 284.615 256.41 283.761 256.044 283.15L252.137 277.9C251.526 277.167 250.671 276.679 249.695 276.679C248.718 276.679 247.863 277.045 247.375 277.778L243.223 283.028C242.735 283.639 242.491 284.493 242.613 285.348C242.247 285.348 242.002 285.226 241.636 285.226C239.682 285.226 237.729 285.836 236.142 286.935C235.897 287.057 235.653 287.302 235.531 287.424C235.165 287.79 234.798 288.034 234.432 288.523C233.822 289.255 233.333 289.866 232.845 290.598C231.624 292.186 230.647 293.651 228.205 295.36C226.007 296.948 224.298 297.436 222.711 297.924C222.344 298.046 221.978 298.169 221.612 298.291C220.513 298.535 219.414 299.023 218.437 299.756C216.483 301.099 215.262 303.175 214.774 305.495C214.164 305.25 213.431 305.25 212.698 305.372L206.471 307.448C205.617 307.692 204.884 308.425 204.518 309.28C204.273 310.134 204.396 311.111 204.884 311.844L208.669 317.338C209.157 317.949 209.768 318.315 210.501 318.559C209.524 320.635 209.28 323.199 210.012 325.397C210.134 325.641 210.256 325.885 210.256 326.129C210.378 326.618 210.623 327.106 210.989 327.595C211.477 328.327 211.966 329.06 212.454 329.67C213.675 331.258 214.774 332.723 215.629 335.531C216.483 338.095 216.361 339.805 216.361 341.514C216.361 341.88 216.361 342.369 216.361 342.735C216.239 343.956 216.361 345.055 216.85 346.154C217.582 348.352 219.17 350.183 221.001 351.282C220.757 351.77 220.513 352.259 220.635 352.747V359.341C220.635 360.317 221.123 361.172 221.856 361.661C222.588 362.149 223.565 362.393 224.42 362.149L230.891 360.317C231.502 360.195 231.868 359.707 232.234 359.341C234.188 361.172 236.874 362.027 239.438 361.905C239.927 361.905 240.415 361.783 241.026 361.661C241.88 361.416 242.735 361.172 243.468 360.928C245.299 360.317 247.131 359.707 250.061 359.707C252.747 359.707 254.334 360.317 256.044 360.806C256.41 360.928 256.776 361.05 257.143 361.172C258.242 361.661 259.463 361.783 260.562 361.783C262.881 361.783 265.201 360.806 266.911 359.219C267.277 359.707 267.643 359.951 268.254 360.195L274.603 362.149C275.458 362.393 276.435 362.271 277.289 361.783C278.022 361.294 278.51 360.44 278.51 359.463L278.632 352.869C278.632 352.381 278.51 351.893 278.266 351.404C280.22 350.305 281.807 348.474 282.417 346.276C282.54 346.032 282.54 345.788 282.662 345.421C282.784 344.933 282.906 344.444 282.906 343.834C283.028 342.979 283.028 342.125 283.028 341.27C283.028 339.316 283.028 337.485 283.883 334.676C284.737 332.112 285.714 330.769 286.813 329.426C287.057 329.06 287.301 328.816 287.546 328.449C288.278 327.595 288.889 326.496 289.255 325.397C289.988 323.077 289.743 320.513 288.645 318.315C289.255 318.071 289.743 317.827 290.11 317.338L294.017 311.966C294.628 311.355 294.872 310.501 294.505 309.524Z" fill="#00285E"/>
<path d="M246.154 323.81C246.154 321.734 247.864 320.147 249.939 320.147C252.015 320.147 253.725 321.856 253.725 323.81C253.725 325.885 252.015 327.473 249.939 327.473C247.864 327.473 246.154 325.763 246.154 323.81Z" fill="#FFC758"/>
<path d="M249.817 292.308C249.207 289.988 247.742 288.034 245.91 286.935L249.817 281.929L253.48 286.935C251.649 288.156 250.428 289.988 249.817 292.308ZM219.903 314.042C217.949 312.698 216.606 310.989 215.874 308.913L210.013 310.867L213.554 315.995C215.263 314.774 217.583 314.042 219.903 314.042ZM231.502 348.596C229.671 350.061 227.595 350.794 225.275 350.794V357.021L231.38 355.189C230.648 353.236 230.648 350.916 231.502 348.596ZM268.132 348.718C268.987 350.916 268.987 353.114 268.254 355.189L274.237 357.021L274.359 350.794C272.284 350.916 270.086 350.183 268.132 348.718ZM279.488 314.164C281.93 314.042 284.005 314.652 285.715 315.995L289.378 310.989L283.395 308.913C282.906 310.867 281.441 312.821 279.488 314.164ZM242.247 348.84C239.439 348.84 237.241 346.642 237.241 343.834C237.241 343.468 236.875 343.346 236.631 343.59C234.799 345.788 233.456 347.741 233.334 350.061C233.212 353.48 236.142 356.288 239.683 356.288C239.927 356.288 240.171 356.288 240.294 356.288C240.66 356.288 240.904 356.288 241.392 356.166C243.834 355.556 246.032 354.335 250.184 354.335C253.725 354.335 255.556 355.311 257.388 355.8C258.12 356.044 258.975 356.288 259.83 356.288C263.37 356.288 266.179 353.48 266.179 350.061C266.179 347.619 264.714 345.788 262.882 343.59C262.76 343.346 262.394 343.59 262.394 343.834C262.394 346.52 260.074 348.84 257.388 348.84C255.312 348.84 252.626 347.009 249.939 347.009C247.62 347.009 244.323 348.84 242.247 348.84ZM238.95 342.002C238.95 344.322 240.782 346.154 243.102 346.154C243.346 346.154 243.59 346.154 243.957 346.032C244.079 346.032 244.201 346.032 244.323 345.91H244.445C245.91 345.421 247.253 344.811 249.817 344.811C252.381 344.811 253.602 345.543 255.068 345.91C255.556 346.032 256.044 346.154 256.533 346.154C258.853 346.154 260.684 344.322 260.684 342.002C260.684 341.392 260.562 340.781 260.318 340.293C260.196 340.049 260.074 339.805 259.952 339.683C259.952 339.683 252.87 330.037 252.626 329.792C252.259 329.304 251.771 329.548 251.527 329.67C251.16 329.792 250.306 330.037 249.695 330.037C249.085 330.037 248.352 329.915 247.986 329.67C247.497 329.426 247.131 329.304 246.887 329.792C246.643 330.159 241.515 337.118 239.927 339.316C239.317 340.049 238.95 340.904 238.95 342.002ZM271.551 338.828C270.696 341.514 267.888 342.857 265.202 342.002C264.836 341.88 264.591 342.125 264.836 342.491C266.423 344.811 267.766 346.764 270.086 347.619C273.383 348.718 277.046 346.886 278.022 343.59C278.145 343.346 278.145 343.223 278.145 342.979C278.267 342.735 278.267 342.369 278.389 342.002C278.633 339.438 278.022 337.118 279.366 333.089C280.464 329.792 281.93 328.327 283.029 326.74C283.517 326.129 284.005 325.397 284.25 324.664C285.348 321.368 283.517 317.705 280.22 316.728C277.9 315.995 275.58 316.85 272.894 317.827C272.65 317.949 272.65 318.193 273.016 318.315C275.703 319.17 277.168 321.978 276.313 324.664C275.703 326.618 273.138 328.571 272.284 331.136C271.551 333.211 272.284 336.752 271.551 338.828ZM263.981 339.805C266.179 340.537 268.621 339.316 269.353 337.118C269.475 336.874 269.475 336.63 269.475 336.264C269.475 336.142 269.475 336.02 269.475 335.897V335.775C269.475 334.31 269.231 332.723 269.964 330.403C270.819 327.961 271.795 326.984 272.65 325.763C272.894 325.397 273.138 324.908 273.383 324.42C274.115 322.222 272.894 319.902 270.696 319.17C270.086 319.048 269.475 318.926 268.987 319.048C268.743 319.048 268.499 319.048 268.254 319.17C268.254 319.17 256.777 322.833 256.411 322.955C255.922 323.199 255.922 323.687 255.922 323.932C255.922 324.298 255.8 325.153 255.678 325.763C255.556 326.252 255.19 326.984 254.823 327.35C254.457 327.717 254.213 328.083 254.579 328.449C254.946 328.816 259.83 335.775 261.539 337.973C262.149 338.828 263.004 339.438 263.981 339.805ZM270.819 307.814C273.138 309.402 273.627 312.576 271.917 314.774C271.673 315.018 271.917 315.385 272.284 315.263C275.092 314.53 277.29 313.797 278.755 311.844C280.831 309.035 280.22 305.128 277.412 303.053C277.29 302.93 277.046 302.808 276.801 302.686C276.557 302.442 276.313 302.32 275.825 302.198C273.505 301.221 271.063 300.977 267.644 298.535C264.836 296.459 263.859 294.628 262.638 293.04C262.272 292.43 261.661 291.819 260.928 291.209C258.12 289.133 254.091 289.744 252.137 292.552C250.794 294.506 250.794 296.948 250.916 299.756C250.916 300 251.283 300.122 251.405 299.756C252.992 297.558 256.167 297.07 258.486 298.657C260.196 299.878 261.295 302.93 263.493 304.396C265.446 306.227 269.109 306.593 270.819 307.814ZM269.475 315.385C270.819 313.553 270.452 310.867 268.499 309.524C268.377 309.402 268.132 309.158 267.766 309.035C267.644 309.035 267.522 308.913 267.4 308.913H267.278C265.812 308.425 264.347 308.181 262.272 306.716C260.196 305.25 259.585 303.907 258.731 302.808C258.486 302.442 258.12 302.076 257.754 301.709C255.922 300.366 253.236 300.733 251.893 302.686C251.527 303.175 251.283 303.663 251.16 304.274C251.16 304.518 251.038 304.762 251.038 305.006C251.038 305.006 251.038 316.972 251.038 317.338C251.038 317.949 251.527 317.949 251.893 318.071C252.259 318.193 253.114 318.559 253.48 318.803C253.969 319.17 254.457 319.658 254.701 320.024C254.946 320.391 255.19 320.757 255.678 320.513C256.167 320.269 264.347 317.705 266.911 316.85C268.01 316.728 268.865 316.117 269.475 315.385ZM241.026 299.023C243.224 297.436 246.399 297.924 248.108 300.122C248.352 300.366 248.718 300.366 248.718 300C248.841 297.192 248.841 294.75 247.497 292.796C245.544 289.988 241.515 289.377 238.706 291.453C238.462 291.575 238.34 291.697 238.218 291.819C237.974 291.941 237.729 292.186 237.485 292.552C235.776 294.506 234.799 296.703 231.38 299.145C228.572 301.221 226.496 301.587 224.665 302.076C223.932 302.32 223.077 302.564 222.467 303.053C219.659 305.128 218.926 309.035 221.124 311.844C222.589 313.797 224.909 314.53 227.595 315.263C227.839 315.385 227.961 315.018 227.839 314.774C226.252 312.576 226.74 309.402 228.938 307.814C230.648 306.593 233.822 306.471 236.02 304.884C237.729 303.663 239.317 300.244 241.026 299.023ZM247.864 302.686C246.521 300.855 243.834 300.366 242.003 301.709C241.759 301.832 241.637 301.954 241.392 302.198C241.27 302.32 241.27 302.32 241.148 302.442L241.026 302.564C240.171 303.785 239.439 305.128 237.363 306.593C235.287 308.059 233.822 308.181 232.479 308.791C231.991 308.913 231.502 309.158 231.136 309.402C229.305 310.745 228.816 313.309 230.159 315.263C230.526 315.751 231.014 316.117 231.502 316.361C231.747 316.484 231.869 316.606 232.113 316.606C232.113 316.606 243.59 320.269 243.957 320.391C244.567 320.513 244.811 320.147 244.933 319.902C245.178 319.658 245.666 318.926 246.154 318.559C246.643 318.193 247.253 317.949 247.742 317.827C248.23 317.705 248.596 317.582 248.596 317.094C248.596 316.606 248.596 308.059 248.596 305.372C248.718 304.518 248.474 303.541 247.864 302.686ZM223.444 324.542C222.589 321.856 224.054 319.048 226.618 318.193C226.985 318.071 226.985 317.705 226.74 317.582C224.054 316.606 221.734 315.751 219.537 316.484C216.24 317.46 214.408 321.123 215.507 324.42C215.507 324.664 215.629 324.786 215.751 325.031C215.873 325.275 215.996 325.641 216.24 326.007C217.583 328.205 219.414 329.792 220.758 333.822C221.856 337.118 221.49 339.194 221.49 341.148C221.368 341.88 221.49 342.735 221.734 343.59C222.833 346.886 226.374 348.718 229.671 347.619C231.991 346.886 233.334 344.933 234.921 342.491C235.043 342.247 234.799 342.002 234.555 342.125C231.869 342.979 229.06 341.514 228.206 338.95C227.595 336.996 228.45 333.944 227.595 331.38C226.863 329.06 224.054 326.496 223.444 324.542ZM228.938 319.292C226.74 320.024 225.519 322.344 226.252 324.542C226.252 324.786 226.374 325.031 226.618 325.275C226.74 325.397 226.74 325.519 226.863 325.519C226.863 325.519 226.863 325.641 226.985 325.641C227.839 326.862 228.938 327.961 229.793 330.281C230.648 332.723 230.281 334.066 230.403 335.531C230.403 336.02 230.403 336.508 230.648 336.996C231.38 339.194 233.7 340.415 235.898 339.683C236.508 339.56 236.997 339.194 237.363 338.828C237.485 338.706 237.729 338.462 237.852 338.339C237.852 338.339 244.933 328.694 245.055 328.327C245.422 327.839 245.055 327.473 244.811 327.228C244.567 326.984 244.079 326.252 243.957 325.641C243.834 325.153 243.712 324.42 243.712 323.932C243.712 323.443 243.712 323.077 243.224 322.955C242.736 322.833 234.555 320.147 231.991 319.292C231.014 319.048 230.037 318.926 228.938 319.292Z" fill="#EE3124"/>
<path d="M284.982 194.628L310.745 185.714C310.745 185.714 308.547 196.459 309.157 204.762C309.89 215.507 316.117 223.687 316.117 223.687L284.371 234.676L284.982 194.628Z" fill="#FFC758"/>
<path d="M316.117 223.687C316.117 223.687 310.501 215.629 309.524 206.227C308.791 199.145 309.524 193.04 310.745 185.714C309.646 190.598 305.495 204.396 293.895 217.216C289.255 222.344 287.18 226.862 286.325 230.037L285.836 169.353C285.836 169.353 279.731 171.551 279.121 171.673C278.388 171.917 278.022 172.405 278.022 172.527C278.022 172.894 277.778 173.138 277.289 173.26C276.801 173.382 273.26 174.725 270.818 175.458C270.33 175.58 270.574 176.068 270.818 176.068C273.749 175.946 277.9 175.58 278.266 175.58C278.877 175.458 279.121 175.214 279.121 174.847C279.121 174.847 279.121 174.847 279.121 174.725C279.243 174.237 279.609 173.871 280.098 173.871C280.464 173.871 282.662 173.626 284.005 173.382L283.394 238.706H286.325V234.066L316.117 223.687Z" fill="#D4A11E"/>
<path d="M201.954 236.386C201.954 236.386 197.192 232.845 195.849 226.129C194.506 219.292 197.925 215.385 197.925 215.385L229.182 204.64C229.182 204.64 227.229 210.867 229.06 217.949C231.38 226.862 236.142 232.845 236.142 232.845C236.142 232.845 224.664 230.647 213.553 232.112C203.053 233.455 201.954 236.386 201.954 236.386Z" fill="#FFC758"/>
<path d="M166.057 228.571C166.057 228.571 169.964 217.949 181.319 206.349C189.988 197.558 195.605 194.994 195.605 194.994C195.605 194.994 190.599 202.198 188.523 214.042C187.18 221.368 188.645 230.647 188.645 230.647C188.645 230.647 182.784 229.426 176.069 228.694C170.452 228.083 166.057 228.571 166.057 228.571Z" fill="#FFC758"/>
<path d="M195.604 194.994C195.604 194.994 190.72 202.198 188.644 214.042C187.301 221.368 188.766 230.647 188.766 230.647C188.766 230.647 187.301 230.281 183.882 229.548C169.963 226.374 195.604 194.994 195.604 194.994Z" fill="#D4A11E"/>
<path d="M213.919 203.541L213.675 175.458C213.065 175.702 207.57 177.534 206.96 177.778C206.227 178.022 205.861 178.51 205.861 178.755C205.861 179.121 205.617 179.365 205.128 179.487C204.64 179.609 201.099 180.83 198.657 181.685C198.169 181.807 198.413 182.295 198.657 182.295C201.465 182.173 205.739 181.807 206.105 181.807C206.716 181.685 206.96 181.441 207.082 181.074C207.082 181.074 207.082 181.074 207.082 180.952C207.204 180.464 207.57 180.098 208.059 180.098C208.425 180.098 210.501 179.853 211.966 179.731L211.722 203.663H213.919V203.541Z" fill="#D4A11E"/>
<path d="M250.306 178.144H252.503V151.16C252.503 151.16 246.398 153.358 245.788 153.48C245.055 153.724 244.689 154.212 244.689 154.335C244.689 154.701 244.445 154.945 243.956 155.067C243.468 155.189 239.927 156.41 237.485 157.265C236.997 157.387 237.241 157.875 237.485 157.875C240.416 157.753 244.567 157.387 244.933 157.387C245.544 157.265 245.788 157.021 245.91 156.654C246.032 156.166 246.398 155.8 246.887 155.8C247.253 155.8 249.207 155.556 250.672 155.433L250.306 178.144Z" fill="#D4A11E"/>
<path d="M244.811 157.509H244.933C245.543 157.387 245.788 157.143 245.788 156.777C245.788 156.41 246.032 156.166 246.398 156.044L245.665 153.724C244.933 153.968 244.689 154.457 244.689 154.579C244.689 154.945 244.444 155.067 244.078 155.189L244.811 157.509Z" fill="#FFC758"/>
<path d="M205.983 181.685H206.105C206.715 181.563 206.959 181.319 206.959 180.952C207.081 180.586 207.204 180.342 207.57 180.22L206.837 177.9C206.105 178.144 205.861 178.632 205.861 178.755C205.861 179.121 205.616 179.243 205.25 179.365L205.983 181.685Z" fill="#FFC758"/>
<path d="M278.022 175.58H278.144C278.754 175.458 278.998 175.214 278.998 174.847C279.121 174.481 279.243 174.237 279.609 174.115L278.876 171.795C278.144 172.039 277.9 172.527 277.9 172.65C277.9 173.016 277.655 173.138 277.289 173.26L278.022 175.58Z" fill="#FFC758"/>
<path d="M236.141 232.845C236.141 232.845 231.135 225.519 229.181 217.705C227.472 210.989 229.181 204.64 229.181 204.64C229.181 204.64 225.885 216.117 217.948 222.344C212.454 226.74 198.901 230.769 202.075 236.386C202.564 235.653 203.907 234.188 209.401 232.845C210.012 232.723 210.744 232.601 211.477 232.479V241.758H214.407V232.112C224.542 231.013 236.141 232.845 236.141 232.845Z" fill="#D4A11E"/>
<path d="M198.657 213.431C198.657 213.431 194.994 211.233 195.482 204.151C195.971 196.825 199.634 193.651 199.634 193.407L223.932 185.104C223.932 185.104 222.1 188.767 223.443 194.261C224.908 200.855 229.182 204.64 229.182 204.64C229.182 204.64 216.972 204.762 205.983 208.547C200.611 210.379 198.657 213.431 198.657 213.431Z" fill="#FFC758"/>
<path d="M213.064 198.168C220.024 192.43 223.809 185.104 223.809 185.104C223.809 185.104 222.832 189.744 223.565 193.895C224.908 200.977 229.06 204.64 229.06 204.64C229.06 204.64 219.169 204.762 208.547 207.814C201.465 209.768 199.267 212.576 198.657 213.553C196.337 208.181 205.983 204.029 213.064 198.168Z" fill="#D4A11E"/>
<path d="M240.782 238.217C240.782 238.217 234.066 233.211 232.479 223.81C231.136 216.361 236.142 210.989 236.142 210.989L274.115 197.924C274.115 197.924 272.039 206.349 273.993 214.408C276.191 223.443 284.494 234.676 284.494 234.676C284.494 234.676 268.743 230.159 255.067 231.868C242.003 233.578 240.782 238.217 240.782 238.217Z" fill="#FFC758"/>
<path d="M233.089 178.022C232.845 172.283 236.874 167.643 236.996 167.399L264.224 157.875C264.224 157.875 262.393 162.149 262.881 165.812C263.736 172.772 267.643 176.435 267.643 176.435C267.643 176.435 256.898 175.824 244.322 180.22C237.362 182.662 236.63 185.958 236.63 185.958C236.63 185.958 233.333 185.104 233.089 178.022Z" fill="#FFC758"/>
<path d="M254.579 170.696C259.463 166.422 264.225 157.998 264.225 157.998C264.225 157.998 262.393 162.271 262.882 165.934C263.736 172.894 267.644 176.557 267.644 176.557C267.644 176.557 256.044 176.435 244.933 180.342C240.171 182.051 237.118 184.615 236.752 186.081C235.165 180.708 247.863 176.557 254.579 170.696Z" fill="#D4A11E"/>
<path d="M236.997 209.402C236.997 209.402 233.089 204.884 232.357 197.802C231.624 190.476 235.898 187.546 236.264 187.302L267.766 176.435C267.766 176.435 266.911 178.755 267.644 185.104C268.376 190.476 273.627 197.802 273.627 197.802C273.627 197.802 256.777 198.291 246.398 202.32C239.805 204.884 236.997 209.402 236.997 209.402Z" fill="#FFC758"/>
<path d="M257.875 191.209C264.713 185.348 267.765 176.557 267.765 176.557C267.765 176.557 266.911 181.563 267.765 185.47C269.353 192.308 274.237 198.046 274.237 198.046C274.237 198.046 259.585 198.291 248.962 201.832C242.002 204.151 237.729 208.303 237.118 209.524C235.531 203.541 251.038 197.07 257.875 191.209Z" fill="#D4A11E"/>
<path d="M285.104 235.287C285.104 235.287 276.557 224.176 273.993 214.408C272.406 207.937 273.627 200.611 274.115 198.046C273.138 201.465 269.72 212.576 261.295 220.391C253.236 227.839 237.363 231.38 240.782 238.339C241.392 237.241 243.224 234.554 249.695 232.967L249.573 241.88H252.626V232.357C266.667 230.159 285.104 235.287 285.104 235.287Z" fill="#D4A11E"/>
<path fill-rule="evenodd" clip-rule="evenodd" d="M299.756 256.166C301.71 255.8 303.663 255.311 306.594 254.579C306.472 254.457 306.228 254.335 306.105 254.212C302.931 250.672 303.419 246.886 305.373 245.055C312.455 238.462 312.333 233.578 312.333 233.578C312.333 233.578 295.116 237.118 272.406 238.339C270.941 238.462 265.69 240.781 264.103 240.781C260.928 240.904 257.754 241.026 254.457 241.026C211.6 241.392 199.634 238.339 185.593 235.775C171.307 233.089 165.08 230.281 165.08 230.281L164.591 231.746C164.591 231.746 175.825 236.142 183.883 240.049C185.593 240.904 192.308 250.916 194.506 254.335H143.59C140.782 195.971 152.015 148.23 152.015 148.23C152.015 148.23 190.965 139.927 249.573 139.927V133.7C187.424 133.7 146.032 142.491 146.032 142.491C146.032 142.491 127.961 206.227 137.485 282.173C141.514 313.797 167.644 373.016 249.329 400.488L252.87 395.482L249.329 390.476C172.406 364.713 149.939 312.576 146.032 282.906C145.177 276.313 144.567 269.719 144.079 263.37H249.695V254.457H195.483C196.704 250.549 200.489 249.573 205.251 250.672C210.135 251.893 215.019 253.114 219.659 252.869C231.258 252.259 229.549 249.206 230.648 249.206C242.613 249.939 247.131 252.869 257.51 252.625C267.033 252.503 270.33 249.939 271.185 249.939C282.784 249.817 287.18 255.189 298.779 256.166C299.146 256.166 299.512 256.166 299.756 256.166Z" fill="#FFC758"/>
<path fill-rule="evenodd" clip-rule="evenodd" d="M352.992 142.491C352.992 142.491 311.722 133.7 249.573 133.7V139.927C308.181 139.927 347.009 148.23 347.009 148.23C347.009 148.23 358.364 195.971 355.434 254.335H304.396C300.366 250.427 302.686 245.299 304.029 244.078C310.012 238.706 310.012 235.043 310.012 235.043C310.012 235.043 296.215 238.462 273.504 239.438C272.039 239.438 265.69 242.369 264.103 242.369C260.928 242.491 256.532 242.613 253.236 242.613C223.688 242.613 209.158 242.002 183.517 236.508C184.005 237.118 184.249 237.363 184.738 238.095C184.86 238.339 195.971 241.148 196.093 241.392C197.802 243.712 200 245.299 202.686 246.764C206.838 248.962 212.943 250.794 217.949 251.16C229.548 251.893 227.351 247.497 228.449 247.497C240.293 247.253 247.985 251.526 258.364 251.404C267.888 251.282 268.132 248.23 269.109 248.23C278.51 247.741 288.034 251.77 296.215 254.457H249.573V263.37H354.823C354.335 269.841 353.724 276.313 352.869 282.906C348.962 312.698 326.496 364.713 249.573 390.476V400.488C331.258 373.016 357.509 313.919 361.416 282.173C371.062 206.227 352.992 142.491 352.992 142.491Z" fill="#D4A11E"/>
<path d="M58.8525 169.963L63.126 161.783L82.4179 160.44L72.6499 143.712L76.9234 135.653L111.233 153.724L107.326 161.172L84.8599 149.451L94.5058 166.789L94.3837 166.911L74.8477 168.864L97.0699 180.586L93.1627 188.034L58.8525 169.963Z" fill="#00285E"/>
<path d="M98.0469 108.913L103.419 103.175L143.224 117.827L137.119 124.298L128.328 120.879L117.094 132.845L121.002 141.392L115.019 147.741L98.0469 108.913ZM120.88 118.071L108.181 113.187L113.798 125.519L120.88 118.071Z" fill="#00285E"/>
<path d="M128.815 80.7082L135.531 76.6789L163.492 87.6679L151.16 67.2772L158.364 62.8816L178.388 95.9707L172.161 99.7558L143.345 88.4005L156.166 109.524L148.962 113.919L128.815 80.7082Z" fill="#00285E"/>
<path d="M180.952 73.9927C177.9 63.2479 183.272 52.2588 194.75 48.9621C201.709 46.8864 206.715 48.1074 211.111 50.4273L207.57 57.9976C203.907 56.1661 200.61 55.4335 196.825 56.5324C190.598 58.3639 187.546 64.8352 189.377 71.3065V71.4286C191.209 77.7778 197.192 81.8071 203.541 79.9756C207.814 78.7546 209.89 76.3126 212.088 72.7717L218.803 76.5568C216.117 81.8071 212.576 85.5922 205.494 87.6679C194.627 90.8425 184.005 84.7375 180.952 73.9927Z" fill="#00285E"/>
<path d="M227.473 42.8571L235.898 42.6129L236.386 57.9976L252.015 57.6313L251.648 42.2466L260.195 42.0024L261.172 80.8303L252.625 81.0745L252.259 65.4457L236.508 65.9341L236.996 81.4408L228.449 81.685L227.473 42.8571Z" fill="#00285E"/>
<path d="M310.379 86.0806L317.461 82.6618C319.414 86.6911 321.978 89.9878 326.008 91.8193C329.182 93.2845 331.624 92.9182 332.601 90.8425V90.7204C333.578 88.7668 332.723 87.1795 327.595 83.0281C321.368 77.8999 317.705 73.8706 320.88 66.9109V66.7888C323.81 60.4396 330.892 58.6081 338.096 61.9048C343.224 64.2247 346.887 67.8877 349.085 72.4054L342.369 76.4347C340.293 72.7717 337.729 70.0855 334.799 68.7424C331.869 67.3993 329.671 68.0098 328.816 69.7192V69.8413C327.717 72.1612 328.938 73.6264 334.311 78.022C340.538 83.1502 343.468 87.6679 340.538 93.7729V93.895C337.363 100.855 330.159 102.32 322.589 98.9011C317.461 96.2149 312.943 91.8193 310.379 86.0806Z" fill="#00285E"/>
<path d="M367.033 88.4005L357.631 81.1966L362.393 74.9695L387.912 94.3834L383.15 100.733L373.748 93.5287L355.067 118.071L348.229 112.943L367.033 88.4005Z" fill="#00285E"/>
<path d="M428.328 143.468L436.264 159.341C438.462 163.736 438.951 167.766 437.852 171.184C436.875 174.115 434.677 176.435 431.38 178.144H431.258C425.642 180.952 420.636 179.731 416.728 176.068L408.548 190.72L404.03 181.807L411.356 168.742L408.303 162.759L397.192 168.376L393.407 160.806L428.328 143.468ZM419.17 167.277C421.002 170.94 424.054 172.161 426.985 170.696H427.107C430.404 169.109 430.892 165.934 429.06 162.271L425.275 154.701L415.385 159.707L419.17 167.277Z" fill="#00285E"/>
<path d="M284.494 68.8645L298.78 71.917L302.809 65.0794L286.203 61.4164L287.791 53.7241L308.059 58.1197L309.769 50.7936L281.075 44.5665L272.895 82.4176L301.832 88.7668L303.42 81.3187L282.785 76.801L284.494 68.8645Z" fill="#00285E"/>
<path d="M399.634 105.983L369.842 130.891L388.889 153.48L394.628 148.596L381.197 132.479L387.424 127.228L396.948 138.584L404.64 136.02L393.285 122.344L399.268 117.338L412.577 133.211L418.438 128.327L399.634 105.983Z" fill="#00285E"/>
<path d="M184.249 436.63C184.249 425.275 192.674 416.117 204.884 416.117C212.332 416.117 216.728 418.559 220.513 422.222L215.018 428.571C211.966 425.763 208.913 424.176 204.884 424.176C198.168 424.176 193.407 429.67 193.407 436.508V436.63C193.407 443.346 198.046 449.084 204.884 449.084C209.402 449.084 212.21 447.253 215.262 444.444L220.757 450.061C216.728 454.457 212.21 457.143 204.518 457.143C192.918 456.899 184.249 447.863 184.249 436.63Z" fill="#00285E"/>
<path d="M229.182 416.728H237.851V456.166H229.182V416.728Z" fill="#00285E"/>
<path d="M257.997 424.786H246.031V416.728H278.754V424.786H266.788V456.288H258.119V424.786H257.997Z" fill="#00285E"/>
<path d="M297.558 440.659L282.418 416.728H292.552L301.954 432.601L311.478 416.728H321.368L306.227 440.415V456.166H297.558V440.659Z" fill="#00285E"/>
</g>
<defs>
<clipPath id="clip0_6_72666">
<rect width="500" height="500" fill="white"/>
</clipPath>
</defs>
</svg>
