<svg width="500" height="500" viewBox="0 0 500 500" fill="none" xmlns="http://www.w3.org/2000/svg">
<path d="M274.254 474.808C272.3 480.553 266.075 494.642 251.005 494.642C233.865 494.642 227.92 476.097 227.632 475.315L227.125 473.56C227.125 473.56 241.886 474.787 250.018 474.787C258.128 474.787 272.026 473.985 274.275 473.56L274.254 474.808H274.254Z" fill="black"/>
<path d="M319.23 465.664L322.747 466.11C318.551 477.073 311.016 489.359 296.248 489.359C281.844 489.359 274.741 481.022 271.765 475.448L269.249 473.912C269.249 473.912 294.061 473.11 319.23 465.664Z" fill="black"/>
<path d="M183.301 465.664L179.784 466.11C183.96 477.073 191.529 489.359 206.345 489.359C220.667 489.359 228.387 480.583 231.568 475.448L233.276 473.912C233.276 473.912 208.504 473.11 183.301 465.664Z" fill="black"/>
<path d="M263.031 475.977C260.693 479.323 259.123 479.152 256.36 479.152C254.927 479.152 252.87 480.303 252.891 482.429C252.953 484.102 254.317 485.459 256.559 485.459C261.66 485.459 265.561 478.391 266.596 475.381C266.596 475.381 269.586 475.257 270.456 475.168C270.456 475.168 265.108 491.157 251.191 491.157C237.252 491.157 231.568 475.36 231.568 475.36C231.568 475.36 243.32 476.073 250.018 476.073C256.737 476.073 261.015 476.012 263.031 475.977Z" fill="url(#paint0_radial_6_72665)"/>
<path d="M185.193 468.93C194.25 471.33 200.722 473.36 215.977 475.211C215.977 475.211 215.491 476.753 212.172 476.63C210.904 476.548 210.732 476.232 210.294 476.157C209.313 475.979 207.894 476.973 208.038 478.625C208.189 479.791 209.162 481.237 212.549 481.237C215.936 481.237 219.878 478.481 221.874 475.903C221.874 475.903 223.896 476.376 226.001 476.479C226.001 476.479 219.481 485.584 206.674 485.584C192.612 485.584 187.374 472.962 185.193 468.93Z" fill="url(#paint1_radial_6_72665)"/>
<path d="M249.847 393.993C298.415 393.993 352.222 364.183 389.999 321.209C394.113 316.56 401.004 307.729 417.41 307.729C433.844 307.729 455.688 322.71 453.131 349.97C451.225 369.825 422.847 414.623 374.258 442.178C325.682 469.842 280.932 475.759 249.847 475.759C218.734 475.759 174.025 469.842 125.422 442.178C76.8395 414.623 48.4688 369.825 46.5766 349.97C44.0192 322.71 65.8697 307.729 82.2695 307.729C98.7173 307.729 105.635 316.56 109.735 321.209C147.457 364.183 201.292 393.993 249.847 393.993Z" fill="#FFE500" stroke="black" stroke-width="2.09797" stroke-miterlimit="3.863"/>
<path d="M249.436 400.602C200.565 400.602 144.955 371.766 103.997 325.117C99.8283 320.379 94.5216 314.284 81.8927 314.284C74.5155 314.284 66.151 318.233 60.6044 324.342C56.429 328.881 51.7463 336.882 52.8707 349.147C54.4956 365.904 81.0494 409.269 128.377 436.199C166.525 457.899 207.257 468.862 249.436 468.862C291.656 468.862 332.388 457.899 370.535 436.199C417.849 409.269 444.444 365.904 446.007 349.147C447.18 336.882 442.463 328.881 438.342 324.342C432.768 318.233 424.383 314.284 417.04 314.284C404.356 314.284 399.057 320.379 394.926 325.117C353.991 371.766 298.313 400.602 249.436 400.602Z" fill="#DA020E"/>
<path d="M459.664 157.33L459.835 146.003C463.325 148.67 469.887 148.711 473.726 144.618C475.474 142.753 476.468 139.867 476.324 136.898C476.16 133.546 474.638 130.063 472.135 127.608C457.957 113.752 445.362 99.9165 445.362 99.9165C444.06 97.8596 442.023 96.3719 440.844 95.8645C439.109 95.0349 432.939 92.2171 428.236 99.3612C423.992 105.833 424.622 114.959 425.438 118.291L438.732 136.412C443.285 142.184 456.113 154.464 459.664 157.33Z" fill="black"/>
<path d="M175.512 39.8768C192.248 34.2548 207.551 29.6064 228.174 27.7826L231.3 26.0275C219.789 16.9431 208.353 10.7452 196.965 10.7452C189.814 10.7452 175.265 15.6062 172.022 41.2755L175.512 39.8768Z" fill="black"/>
<path d="M324.215 39.8768C307.472 34.2548 292.183 29.6064 271.581 27.7826L268.413 26.0275C279.973 16.9431 291.381 10.7452 302.783 10.7452C309.941 10.7452 324.428 15.6062 327.739 41.2755L324.215 39.8768Z" fill="black"/>
<path d="M230.938 26.9325C239.357 10.7452 247.056 4.89001 251.362 4.89001C256.682 4.89001 262.949 13.3505 267.871 24.2997L268.907 26.7816L264.58 26.4457C261.742 25.9109 253.659 25.808 250.573 25.808C247.406 25.808 240.577 25.8081 236.464 26.192L230.938 26.9325Z" fill="black"/>
<path d="M164.55 391.727L152.359 413.763C148.678 420.386 144.886 424.589 138.668 421.023C132.545 417.561 133.964 412.542 137.722 405.7L149.946 383.637L140.087 378.166L127.17 401.483C120.06 414.318 129.008 422.278 136.014 426.138C143.494 430.279 154.382 433.358 161.43 420.619L174.436 397.198L164.55 391.727ZM321.308 437.126L317.201 424.483L329.432 420.534L327.739 415.275L315.494 419.245L312.011 408.44L324.53 404.333L322.844 399.129L299.924 406.582L312.662 445.744L337.927 437.551L336.261 432.326L321.308 437.126ZM347.491 386.445L333.539 394.487L354.197 430.311L368.094 422.275C382.458 413.993 383.822 401.446 378.166 391.382C371.357 379.438 360.12 379.164 347.491 386.445ZM368.574 397.347C373.805 406.513 372.742 413.198 364.686 417.812L360.847 420.047L345.681 393.843L349.809 391.45C359.483 385.89 364.974 390.84 368.574 397.347ZM256.963 414.132L257.711 419.501L269.243 417.869L274.227 453.274L284.95 451.786L279.979 416.402L291.34 414.825L290.558 409.381L256.963 414.132ZM247.2 414.468L236.402 413.878L234.242 455.015L245.047 455.591L247.2 414.468ZM214.414 409.439L206.893 437.549L192.817 403.645L184.062 401.294L173.394 441.093L182.931 443.623L190.514 415.28L204.802 449.471L213.365 451.782L223.992 411.969L214.414 409.439Z" fill="#FFE500"/>
<path d="M157.591 149.712V342.657L249.847 401.935L342.096 342.657L342.233 150.007C339.278 147.401 333.142 141.69 328.336 138.701H170.933C166.949 141.498 158.969 148.231 157.591 149.712H157.591Z" fill="#FFE500"/>
<mask id="mask0_6_72665" style="mask-type:alpha" maskUnits="userSpaceOnUse" x="155" y="137" width="188" height="267">
<path d="M157 150.011V342.956L249.256 402.234L341.505 342.956L341.642 150.306C338.687 147.7 332.551 141.989 327.745 139H170.342C166.359 141.797 158.378 148.53 157 150.011H157Z" fill="#D9D9D9" stroke="black" stroke-width="2.09797" stroke-miterlimit="3.863"/>
</mask>
<g mask="url(#mask0_6_72665)">
<g filter="url(#filter0_f_6_72665)">
<path d="M157 71L157 149.371V342.316L249.256 401.594L341.505 342.316L341.642 71.2948" stroke="#B54005" stroke-width="10" stroke-miterlimit="3.863"/>
</g>
</g>
<path d="M286.719 288.146V280.974C286.719 280.974 284.813 278.026 280.089 278.026C275.379 278.026 272.561 279.445 272.561 280.631C272.561 282.572 276.777 288.146 286.719 288.146ZM249.517 224.665L256.648 212.214L262.235 224.665H271.491C265.924 229.889 263.648 237.794 263.648 243.067V248.812C263.648 251.253 262.421 255.291 262.421 255.291C262.421 255.291 270.456 261.414 271.69 262.476C272.204 262.881 272.766 263.128 272.396 264.19C271.759 265.98 266.301 268.441 265.746 268.907C264.512 270.004 264.189 270.663 264.512 271.746C264.903 272.788 265.924 272.98 268.015 272.239C270.127 271.561 274.501 269.264 278.169 267.694C281.823 266.103 286.719 266.508 286.719 266.508V259.48H272.897V237.15L270.456 233.214L276.551 222.354L282.68 233.283L280.267 237.15V248.812H287.308V237.15L284.881 233.283L290.997 222.437L297.085 233.283L294.679 237.15V248.812H301.768V237.15L299.259 233.283L305.395 222.437L311.51 233.283L309.07 237.15L309.186 259.446H295.254V269.758C298.415 272.726 301.398 279.445 301.398 283.401C301.398 287.453 298.758 289.167 298.758 289.167C299.642 292.348 299.471 293.672 299.094 296.551C298.758 299.479 295.104 304.045 295.104 304.045V357.338C295.104 360.958 286.719 360.601 286.719 357.509V305.245C281.974 300.055 269.057 295.975 269.057 295.975C264.32 300.713 261.406 308.94 261.406 308.94C263.463 310.38 266.664 308.94 267.871 307.542C269.057 306.143 271.491 305.78 272.897 306.664C274.275 307.542 274.618 307.878 274.145 309.934C273.603 312.101 272.739 315.563 272.739 317.983C272.739 320.465 275.529 319.91 277.614 320.095C281.823 320.465 282.516 325.169 282.166 327.795C281.823 330.434 280.589 336.036 280.589 339.519C280.589 342.967 280.774 346.45 281.117 348.425C281.481 350.331 282.166 352.435 281.974 354.897C281.762 358.208 279.725 358.736 277.614 356.611C275.529 354.52 246.343 323.407 246.343 323.407C244.403 329.735 252.479 340.526 255.084 343.858C257.71 347.191 257.539 349.638 255.242 351.921C252.993 354.177 248.612 355.384 247.755 357.509C246.864 359.566 249.846 365.901 255.983 373.758C262.098 381.601 248.962 386.867 241.125 388.437C233.234 389.986 233.234 384.57 233.783 381.601C234.304 378.66 234.304 376.871 234.112 374.286C233.94 371.653 231.527 368.006 228.174 363.638C224.863 359.25 224.863 355.26 226.241 345.093C227.633 334.952 227.304 328.48 227.304 328.48C227.304 328.48 223.807 328.624 218.733 328.48C213.687 328.288 209.498 325.361 209.142 313.116C208.792 300.905 208.504 271.746 207.674 268.688C206.865 265.664 203.595 265.109 202.217 264.705C200.784 264.348 200.715 262.284 202.1 261.544C205.748 259.768 210.122 255.291 208.504 252.508C206.865 249.717 200.441 250.293 196.143 252.398C191.83 254.482 187.284 259.062 186.112 260.31C184.981 261.544 184 261.544 184.124 260.214C184.268 258.788 183.328 252.117 182.773 249.806C182.156 247.475 180.072 243.067 179.366 241.901C178.673 240.729 179.366 240.276 180.545 240.729C181.676 241.195 184.268 242.271 186.702 242.916C189.156 243.656 191.494 242.45 192.612 240.16C193.777 237.794 196.053 232.81 197.219 230.582C198.364 228.381 200.215 228.875 201.737 229.21C203.245 229.567 204.644 230.499 206.036 231.055C207.421 231.631 208.579 231.521 209.073 230.815C209.546 230.143 210.122 229.889 210.959 228.148C211.774 226.406 212.789 227.236 212.919 227.928C217.088 252.994 227.948 254.146 227.948 254.146C226.316 258.322 222.491 264.979 221.586 266.659C220.605 268.229 220.242 270.464 220.002 272.198C219.817 273.926 220.605 290.484 221.764 296.551C222.943 302.626 226.652 300.26 227.859 298.402C228.976 296.551 232.617 288.845 232.617 288.845C232.617 288.845 233.515 286.747 233.515 285.006C233.515 283.25 230.499 279.445 229.806 278.259C229.086 277.052 226.543 274.742 226.543 268.907C226.543 263.093 231.781 259.062 233.666 257.533C235.531 256.004 235.531 253.886 235.277 252.61C234.461 248.113 229.683 238.651 227.386 235.024C225.034 231.411 220.495 224.548 220.495 224.548H229.929L236.004 211.933L242.613 224.603L249.517 224.665L249.517 224.665ZM247.989 262.881C251.067 257.794 252.356 252.508 252.356 252.508H243.457C243.457 252.508 244.883 257.917 247.989 262.881ZM238.719 237.232C239.076 239.837 241.016 240.832 242.49 240.071C243.957 239.262 243.703 237.15 242.613 235.463C241.571 233.811 239.405 231.967 238.74 232.241C238.061 232.522 238.486 235.696 238.719 237.232H238.719ZM256.36 232.241C255.722 231.967 253.439 233.811 252.356 235.463C251.314 237.15 251.046 239.262 252.527 240.071C253.974 240.832 255.839 239.817 256.305 237.232C256.559 235.696 257.059 232.522 256.36 232.241Z" fill="url(#paint2_linear_6_72665)"/>
<path d="M164.828 197.812V209.427H335.036V197.812H322.484V199.688H177.38V197.812H164.828Z" fill="#DA020E"/>
<path d="M164.838 145.619H335.014V191.897H164.838V145.619Z" fill="#DA020E"/>
<path d="M194.079 178.462L207.113 181.663L214.147 162.062V157.098L194.079 178.462ZM301.494 190.016V183.979H289.194V178.906H299.245V156.527H289.983L286.815 150.371L283.723 156.527H274.433V178.906H284.525V183.979H260.33V178.906H270.395V156.527H261.118L257.985 150.371L254.818 156.527H245.569V178.906H255.682V183.979H230.986V178.906H241.071V156.527H231.781L228.675 150.371L225.487 156.527H216.231V178.906H226.351V183.979L206.811 184.041L187.374 179.502L191.268 190.016H301.494V190.016Z" fill="#FFE500"/>
<path d="M176.479 38.053C192.907 32.5544 205.323 28.2694 225.556 26.4731C216.231 20.0009 207.956 14.5228 198.44 14.5228C193.435 14.5228 189.156 16.4357 188.169 19.9323C187.25 23.1136 189.76 24.4985 190.651 24.286C191.584 24.046 192.249 23.7718 192.022 22.9079C191.782 21.996 192.489 19.6786 195.67 19.6786C198.906 19.6786 200.126 22.6748 200.126 24.7316C200.126 26.7885 196.863 30.2234 190.864 30.2234C184.981 30.2234 181.964 26.3017 182.191 22.6748C179.352 26.8296 177.7 31.0324 176.479 38.053Z" fill="url(#paint3_radial_6_72665)"/>
<path d="M62.0098 136.409L75.3518 118.288C76.1197 114.956 76.7299 105.837 72.4654 99.3653C67.8033 92.2143 61.6602 95.0391 59.857 95.8686C58.7189 96.376 56.6484 97.8569 55.3731 99.9206C55.3731 99.9206 42.5453 114.044 28.4286 127.942C26.4334 129.923 24.2395 133.543 24.0544 136.896C23.883 139.871 25.0828 142.86 26.8105 144.725C30.6705 148.839 37.417 148.674 40.8656 146.001L41.1055 157.327C44.657 154.468 57.4642 142.182 62.0098 136.409Z" fill="black"/>
<path d="M249.846 110.038C325.812 110.038 369.033 181.342 378.467 193.861C395.223 216.226 415.737 234.381 439.507 228.382C474.425 219.448 472.608 167.726 472.608 167.726C464.182 161.658 449.825 154.02 423.649 116.915C398.014 80.5432 340.004 26.6609 249.846 26.6609C159.668 26.6609 101.672 80.5432 76.0985 116.915C49.8944 154.02 35.4897 161.658 27.1458 167.726C27.1458 167.726 25.2604 219.448 60.206 228.382C83.9624 234.381 104.462 216.226 121.246 193.861C130.646 181.342 173.894 110.038 249.846 110.038Z" fill="#FFE500" stroke="black" stroke-width="2.09797" stroke-miterlimit="3.863"/>
<path d="M249.846 103.268C323.083 103.268 366.64 165.392 382.392 187.808C403.238 215.633 420.886 226.137 437.841 221.824C462.345 215.585 465.389 181.86 465.718 171.651V171.247L465.444 171.034C456.805 165.049 442.352 155.128 418.137 120.8C403.691 100.3 348.849 33.3635 249.846 33.3635C150.878 33.3635 95.9881 100.3 81.5491 120.8C57.5322 154.909 42.4281 165.309 34.3379 170.863L33.9951 171.144L34.0363 171.501C34.3654 181.73 37.4164 215.633 61.8584 221.824C78.8342 226.137 96.5161 215.633 117.307 187.808C133.046 165.392 176.644 103.268 249.846 103.268" fill="#DA020E"/>
<path d="M210.061 51.3724C196.623 54.2177 187.772 64.1248 190.672 77.5559C192.358 84.8097 198.831 98.1586 219.303 93.8049C224.987 92.7217 228.058 90.4591 231.034 87.6138L227.304 83.3288C225.898 84.8919 223.8 87.1682 219.09 88.1486C209.183 90.2397 203.294 82.2249 201.827 75.3071C199.646 65.0572 205.618 57.9954 212.364 56.535C217.184 55.4723 220.105 56.7819 221.956 57.5018H222.018L223.273 52.25C220.023 50.9473 216.122 50.0835 210.061 51.3724ZM322.446 110.461C330.132 115.089 338.517 114.301 342.439 107.808C345.291 103.269 345.318 99.4982 341.89 92.745C341.006 90.8321 339.847 89.4609 339.072 87.7194C337.557 84.8947 336.158 82.5842 337.461 80.3971C338.901 78.0249 342.233 77.8329 345.25 79.6772C348.41 81.59 349.72 84.7507 350.385 86.9104L355.342 84.7713C353.82 80.6987 351.564 77.0444 346.408 73.9935C337.598 68.6868 330.434 70.0855 327.451 75.0562C324.428 80.0543 325.285 84.2159 327.561 88.4804C327.561 88.4804 328.973 90.9007 329.789 92.553C331.784 95.8851 334.108 100.088 332.477 102.714C330.502 106.025 327.102 106.745 323.79 104.688C319.546 102.014 318.552 98.9018 317.668 95.8645L312.217 98.1955C313.417 102.378 316.235 106.711 322.446 110.461H322.446ZM263.772 49.2107L263.463 65.9944L247.324 65.7614L247.564 48.9159L236.745 48.717L236.025 89.9017L246.864 90.1348L247.207 71.2531L263.374 71.5479L263.065 90.3954L273.891 90.5599L274.597 49.3752L263.772 49.2107V49.2107ZM418.768 179.989C418.843 180.092 425.117 183.191 432.089 176.931C437.917 171.693 435.963 164.515 429.875 157.775L418.651 145.304L388.052 172.879L395.286 180.901L407.469 169.972L410.986 173.942L403.273 191.343L412.508 198.72L418.768 179.989ZM424.232 159.702C427.098 162.883 427.146 166.661 423.814 169.595C420.571 172.584 416.43 171.899 413.283 168.443L411.452 166.393L421.812 157.035L424.232 159.702ZM376.479 149.18L386.729 140.672L394.95 150.456L399.2 146.911L390.932 137.086L399.605 129.784L408.072 139.87L412.275 136.366L396.808 117.93L365.276 144.409L382.307 164.737L386.558 161.206L376.479 149.18ZM364.659 87.2936L360.984 91.3251L369.623 99.1342L345.682 125.695L353.758 132.955L377.665 106.388L386.194 114.067L389.856 110.035L364.659 87.2936ZM294.158 89.9045L298.518 77.3441L310.647 81.5263L312.45 76.3019L300.301 72.1265L303.996 61.3693L316.495 65.6544L318.25 60.4575L295.481 52.6209L282.098 91.6253L307.191 100.216L308.974 95.0191L294.158 89.9045ZM163.761 69.7262L179.229 94.3808L144.791 81.5256L137.125 86.3386L158.962 121.325L167.279 116.087L151.708 91.179L186.503 104.096L194.017 99.3858L172.14 64.4196L163.761 69.7262ZM115.59 106.982L108.549 114.537L128.288 153.788L133.108 148.633L127.746 138.191L137.276 127.941L148.082 132.521L156.021 124.019L115.59 106.982ZM132.237 125.671L125.086 133.35L117.736 119.227L132.237 125.671ZM92.3276 131.889L84.6624 141.015L98.9848 170.633L68.2695 160.575L61.6602 168.405L93.2189 194.904L98.0113 189.213L75.7083 170.441L105.601 180.177L108.748 176.447L94.4941 147.885L116.893 166.663L123.886 158.388L92.3276 131.889Z" fill="#FFE500"/>
<path d="M44.1154 152.876L44.0811 143.792C59.5827 129.558 66.8914 115.256 66.8914 115.256C66.8914 115.256 61.194 113.11 58.6435 109.867C57.3819 108.064 56.8952 105.603 57.1077 103.951C57.6013 100.852 60.0147 99.2816 60.8374 98.9251C62.62 98.1572 65.9315 96.4158 69.6201 101.489C73.5487 106.981 72.5134 117.402 71.9717 119.802C71.9717 119.802 64.7454 132.383 44.1153 152.876" fill="url(#paint4_radial_6_72665)"/>
<path d="M61.2691 116.913C59.178 120.561 53.9056 129.364 40.5704 141.863C38.3559 143.94 32.8299 145.702 29.6967 142.185C28.5243 140.821 27.7495 138.908 27.8661 136.686C28.0169 134.115 29.5595 131.126 31.109 129.81C33.7966 127.54 45.2532 115.974 53.3982 106.876C53.6245 108.535 55.0506 111.312 55.0506 111.312C56.175 112.862 57.5462 115.09 61.2691 116.913Z" fill="url(#paint5_linear_6_72665)"/>
<path d="M249.436 400.602C200.565 400.602 144.955 371.766 103.997 325.117C99.8283 320.379 94.5216 314.284 81.8927 314.284C74.5155 314.284 66.151 318.233 60.6044 324.342C56.429 328.881 51.7463 336.882 52.8707 349.147C54.4956 365.904 81.0494 409.269 128.377 436.199C166.525 457.899 207.257 468.862 249.436 468.862" fill="url(#paint6_linear_6_72665)"/>
<path d="M249.436 400.602C298.306 400.602 353.916 371.766 394.874 325.117C399.043 320.379 404.349 314.284 416.978 314.284C424.356 314.284 432.72 318.233 438.267 324.342C442.442 328.881 447.125 336.882 446 349.147C444.376 365.904 417.822 409.269 370.494 436.199C332.347 457.899 291.614 468.862 249.436 468.862" fill="url(#paint7_linear_6_72665)"/>
<path d="M382.393 187.808C403.239 215.633 420.886 226.137 437.841 221.824C462.345 215.585 465.389 181.86 465.718 171.651V171.247L465.444 171.034C456.806 165.049 442.353 155.128 418.137 120.8" fill="url(#paint8_linear_6_72665)"/>
<path d="M117.369 187.808C96.5227 215.633 78.8751 226.137 61.9199 221.824C37.4161 215.585 34.3721 181.86 34.043 171.651V171.247L34.3172 171.034C42.9559 165.049 57.4086 155.128 81.6244 120.8" fill="url(#paint9_linear_6_72665)"/>
<path d="M323.282 38.053C306.855 32.5544 294.438 28.2694 274.206 26.4731C283.53 20.0009 291.806 14.5228 301.322 14.5228C306.327 14.5228 310.605 16.4357 311.592 19.9323C312.511 23.1136 310.002 24.4985 309.111 24.286C308.178 24.046 307.513 23.7718 307.739 22.9079C307.979 21.996 307.273 19.6786 304.092 19.6786C300.856 19.6786 299.635 22.6748 299.635 24.7316C299.635 26.7885 302.899 30.2234 308.898 30.2234C314.781 30.2234 317.797 26.3017 317.571 22.6748C320.409 26.8296 322.062 31.0324 323.282 38.053Z" fill="url(#paint10_radial_6_72665)"/>
<path d="M250.617 16.4899C250.103 19.63 246.489 22.6399 242.835 22.6399C239.174 22.6399 238.077 22.0503 238.077 22.0503C237.522 22.9141 237.035 23.5792 236.459 24.5116C239.777 24.3813 247.477 24.1688 250.562 24.1688C253.64 24.1688 262.176 24.6144 264.014 24.7447C261.045 17.7858 255.32 8.15291 251.364 8.15291C251.227 8.15291 251.056 8.13959 250.843 8.13959C249.918 8.13959 246.711 10.9194 244.994 13.3603C242.737 16.5671 250.617 16.4899 250.617 16.4899Z" fill="url(#paint11_radial_6_72665)"/>
<path d="M455.646 152.876L455.68 143.792C440.178 129.558 432.87 115.256 432.87 115.256C432.87 115.256 438.567 113.11 441.118 109.867C442.379 108.064 442.866 105.603 442.653 103.951C442.16 100.852 439.746 99.2816 438.924 98.9251C437.141 98.1572 433.83 96.4158 430.141 101.489C426.212 106.981 427.248 117.402 427.789 119.802C427.789 119.802 435.016 132.383 455.646 152.876Z" fill="url(#paint12_radial_6_72665)"/>
<path d="M438.492 116.913C440.583 120.561 445.856 129.364 459.191 141.863C461.405 143.94 466.931 145.702 470.065 142.185C471.237 140.821 472.012 138.908 471.895 136.686C471.744 134.115 470.202 131.126 468.652 129.81C465.965 127.54 454.508 115.974 446.363 106.876C446.137 108.535 444.711 111.312 444.711 111.312C443.586 112.862 442.215 115.09 438.492 116.913Z" fill="url(#paint13_linear_6_72665)"/>
<path d="M157.591 149.712V342.657L249.847 401.935L342.096 342.657L342.233 150.007C339.278 147.401 333.142 141.69 328.336 138.701H170.933C166.949 141.498 158.969 148.231 157.591 149.712H157.591Z" stroke="black" stroke-width="2.09797" stroke-miterlimit="3.863"/>
<path d="M317.484 468.93C308.427 471.33 301.955 473.36 286.7 475.211C286.7 475.211 287.187 476.753 290.506 476.63C291.774 476.548 291.945 476.232 292.384 476.157C293.365 475.979 294.784 476.973 294.64 478.625C294.489 479.791 293.515 481.237 290.128 481.237C286.742 481.237 282.799 478.481 280.804 475.903C280.804 475.903 278.782 476.376 276.677 476.479C276.677 476.479 283.197 485.584 296.004 485.584C310.066 485.584 315.304 472.962 317.484 468.93Z" fill="url(#paint14_radial_6_72665)"/>
<path d="M10.2939 270.879C10.2939 247.602 29.1825 228.672 52.4865 228.672C75.7973 228.672 94.6722 247.602 94.6722 270.879C94.6722 294.196 75.7973 313.085 52.4865 313.085C29.1825 313.085 10.2939 294.196 10.2939 270.879Z" fill="#FFE500" stroke="black" stroke-width="2.09797" stroke-miterlimit="3.863"/>
<path d="M19.9531 269.309C19.9531 251.661 34.5174 237.309 52.4861 237.309C70.4602 237.309 85.0138 251.661 85.0138 269.309C85.0138 286.988 70.4602 301.309 52.4861 301.309C34.5174 301.309 19.9531 286.988 19.9531 269.309Z" fill="url(#paint15_radial_6_72665)"/>
<path d="M61.4475 299.886C59.5963 300.476 58.7942 299.18 57.9509 298.247C54.6668 294.47 53.8235 284.412 53.8235 283.082C53.8235 281.745 54.3171 280.278 55.2564 280.243C63.1752 280.092 68.8316 277.796 74.0216 273.483C79.2049 269.246 81.4536 264.385 81.913 263.521C82.3655 262.561 83.4419 262.733 83.6407 264.063C83.8601 265.174 84.2784 267.169 84.2784 269.328C84.2784 283.822 74.5084 295.663 61.4475 299.886ZM53.0899 301.196C52.8636 301.196 52.61 301.223 52.3974 301.223C46.5629 301.223 40.1387 298.995 36.3335 296.828C32.3913 294.682 30.9104 284.563 30.9104 279.448C30.9104 262.795 37.739 252.881 38.8497 250.934C39.933 248.959 42.3738 248.753 44.1632 249.233C46.0144 249.768 46.6726 250.09 48.8048 250.721C49.9155 251.084 52.1712 251.544 53.8646 251.845C55.5581 252.25 57.3818 252.606 56.2849 255.767C55.2016 258.935 51.513 266.545 51.1428 275.568C50.7862 283.733 51.8695 291.844 53.7138 296.828C54.9273 300.051 54.9273 301.257 53.0899 301.196V301.196ZM28.9838 263.178C27.4275 262.356 25.5557 258.338 24.925 257.166C24.4999 256.322 24.4999 253.909 25.1101 252.881C27.7154 248.321 31.4109 244.098 36.169 241.897C36.7518 241.643 37.5676 241.595 37.5676 242.994C37.5676 243.741 37.9722 244.907 37.9859 245.647C37.9859 246.395 38.3013 247.924 37.3551 249.13C36.361 250.344 32.1033 257.892 31.0132 262.123C30.8349 263.069 30.547 264.063 28.9838 263.178ZM28.1062 289.904C23.6909 285.543 20.5439 277.645 20.5439 269.328C20.5439 266.099 21.0238 263.007 21.8808 260.073C21.8808 260.073 22.6693 258.756 23.3549 259.874C23.8828 260.697 24.6096 261.526 25.1992 262.623C25.8574 263.72 29.2718 266.319 28.9838 268.437C27.7908 276.219 28.8604 286.558 29.2306 288.299C29.5597 290.02 29.0866 290.754 28.1062 289.904ZM42.0447 239.182C45.315 238.099 48.8048 237.489 52.3974 237.489C57.8618 237.489 63.1684 238.483 67.5974 241.308C68.7355 242.048 69.0578 242.912 69.0578 244.194C69.0578 248.369 62.5307 249.768 58.2114 249.768C53.8646 249.768 48.5169 248.047 44.7323 246.847C40.9614 245.668 40.1387 243.488 40.1387 242.494C40.1387 241.541 40.8723 239.566 42.0447 239.182ZM71.5123 243.824C72.095 244.297 73.6377 245.545 73.6377 245.545C76.6818 248.321 79.4311 251.489 81.0286 255.287C83.0237 260.073 76.8326 267.32 75.0157 268.992C66.8158 276.692 61.6806 276.548 58.7736 276.966C55.8666 277.391 53.9812 275.568 54.0566 273.38C54.2417 266.977 58.801 255.938 60.1106 253.861C60.947 252.524 62.4005 251.695 62.4005 251.695C65.4446 250.851 68.3996 249.583 69.9285 247.841C71.4231 246.072 71.5123 243.824 71.5123 243.824ZM52.7128 235.411C33.1112 235.411 17.2393 251.29 17.2393 270.878C17.2393 290.48 33.1112 306.351 52.7128 306.351C72.3007 306.351 88.2069 290.48 88.2069 270.878C88.2069 251.29 72.3007 235.411 52.7128 235.411Z" fill="#DA020E"/>
<path d="M405.905 270.796C405.905 247.52 424.794 228.659 448.098 228.659C471.416 228.659 490.29 247.52 490.29 270.796C490.29 294.114 471.416 313.009 448.098 313.009C424.794 313.009 405.905 294.114 405.905 270.796Z" fill="#FFE500" stroke="black" stroke-width="2.09797" stroke-miterlimit="3.863"/>
<path d="M472.808 289.758C471.882 290.669 471.361 289.874 471.752 288.167C472.074 286.473 473.151 276.1 471.951 268.318C471.656 266.207 475.091 263.615 475.722 262.505C476.352 261.414 477.072 260.564 477.58 259.769C478.286 258.617 479.033 259.906 479.033 259.906C479.938 262.875 480.377 265.981 480.377 269.196C480.377 277.54 477.189 285.411 472.808 289.758V289.758ZM469.949 262.011C468.852 257.794 464.567 250.212 463.6 249.005C462.626 247.839 462.935 246.29 462.949 245.542C462.949 244.802 463.374 243.616 463.374 242.848C463.374 241.511 464.183 241.539 464.759 241.792C469.544 243.993 473.219 248.155 475.852 252.755C476.435 253.804 476.448 256.204 476.016 257.02C475.399 258.199 473.541 262.217 471.951 263.067C470.36 263.937 470.127 262.923 469.949 262.011ZM464.621 296.71C460.809 298.842 454.385 301.091 448.523 301.091H447.845C446.041 301.139 446 299.884 447.234 296.675C449.024 291.732 450.141 283.587 449.771 275.442C449.401 266.378 445.76 258.85 444.629 255.662C443.532 252.502 445.363 252.118 447.077 251.761C448.777 251.425 451.026 250.931 452.143 250.575C454.241 249.937 454.92 249.615 456.771 249.087C458.574 248.621 461.001 248.854 462.105 250.781C463.189 252.755 470.031 262.731 470.031 279.343C470.031 284.43 468.536 294.536 464.621 296.71ZM439.508 299.754C426.412 295.51 416.663 283.676 416.663 269.196C416.663 267.064 417.081 265.089 417.253 263.937C417.506 262.607 418.507 262.388 419.008 263.368C419.467 264.26 421.743 269.114 426.899 273.365C432.123 277.643 437.725 279.981 445.692 280.145C446.658 280.193 447.111 281.613 447.111 282.977C447.111 284.328 446.295 294.365 443.025 298.115C442.154 299.075 441.318 300.391 439.508 299.754ZM419.94 255.175C421.496 251.377 424.26 248.155 427.304 245.44C427.304 245.44 428.812 244.164 429.395 243.719C429.395 243.719 429.518 245.988 431.033 247.688C432.542 249.403 435.469 250.746 438.513 251.549C438.513 251.549 439.946 252.419 440.803 253.756C442.154 255.772 446.679 266.796 446.878 273.248C446.933 275.442 445.068 277.266 442.154 276.848C439.233 276.457 434.112 276.546 425.919 268.888C424.109 267.208 417.918 259.975 419.94 255.175ZM433.323 241.189C437.814 238.35 443.052 237.356 448.523 237.356C452.143 237.356 455.585 237.973 458.883 239.057C460.096 239.434 460.81 241.388 460.81 242.368C460.81 243.335 460.007 245.542 456.209 246.729C452.424 247.894 447.097 249.636 442.757 249.636C438.39 249.636 431.884 248.216 431.884 244.062C431.884 242.807 432.199 241.895 433.323 241.189ZM448.187 235.32C428.606 235.32 412.728 251.206 412.728 270.746C412.728 290.395 428.606 306.219 448.187 306.219C467.803 306.219 483.682 290.395 483.682 270.746C483.682 251.206 467.803 235.32 448.187 235.32Z" fill="#DA020E"/>
<path d="M416.047 269.153C416.047 251.505 430.611 237.153 448.58 237.153C466.554 237.153 481.108 251.505 481.108 269.153C481.108 286.832 466.554 301.153 448.58 301.153C430.611 301.153 416.047 286.832 416.047 269.153Z" fill="url(#paint16_radial_6_72665)"/>
<defs>
<filter id="filter0_f_6_72665" x="145.817" y="64.8172" width="207.008" height="348.903" filterUnits="userSpaceOnUse" color-interpolation-filters="sRGB">
<feFlood flood-opacity="0" result="BackgroundImageFix"/>
<feBlend mode="normal" in="SourceGraphic" in2="BackgroundImageFix" result="shape"/>
<feGaussianBlur stdDeviation="3.09142" result="effect1_foregroundBlur_6_72665"/>
</filter>
<radialGradient id="paint0_radial_6_72665" cx="0" cy="0" r="1" gradientUnits="userSpaceOnUse" gradientTransform="translate(251.012 482.954) scale(16.5325 12.2898)">
<stop stop-color="#FFE500"/>
<stop offset="0.5" stop-color="#FFE500"/>
<stop offset="1" stop-color="#E15007"/>
</radialGradient>
<radialGradient id="paint1_radial_6_72665" cx="0" cy="0" r="1" gradientUnits="userSpaceOnUse" gradientTransform="translate(205.597 477.257) scale(17.4817 15.7184)">
<stop stop-color="#FFE500"/>
<stop offset="0.5" stop-color="#FFE500"/>
<stop offset="1" stop-color="#E15007"/>
</radialGradient>
<linearGradient id="paint2_linear_6_72665" x1="245.086" y1="211.344" x2="245.086" y2="303.121" gradientUnits="userSpaceOnUse">
<stop stop-color="#8F0904"/>
<stop offset="0.249601" stop-color="#B40509"/>
<stop offset="1" stop-color="#DA020E"/>
</linearGradient>
<radialGradient id="paint3_radial_6_72665" cx="0" cy="0" r="1" gradientUnits="userSpaceOnUse" gradientTransform="translate(197.335 27.3191) scale(19.9869 19.0304)">
<stop stop-color="#FFE500"/>
<stop offset="0.5" stop-color="#FFE500"/>
<stop offset="1" stop-color="#E15007"/>
</radialGradient>
<radialGradient id="paint4_radial_6_72665" cx="0" cy="0" r="1" gradientUnits="userSpaceOnUse" gradientTransform="translate(52.0461 128.774) rotate(-60.273) scale(31.1877 27.4352)">
<stop stop-color="#FFE500"/>
<stop offset="0.5" stop-color="#FFE500"/>
<stop offset="1" stop-color="#E15007"/>
</radialGradient>
<linearGradient id="paint5_linear_6_72665" x1="47.8545" y1="116.367" x2="55.4358" y2="124.7" gradientUnits="userSpaceOnUse">
<stop stop-color="#FFE500"/>
<stop offset="0.5" stop-color="#FFE500"/>
<stop offset="1" stop-color="#E15007"/>
</linearGradient>
<linearGradient id="paint6_linear_6_72665" x1="65.0756" y1="323.219" x2="117.442" y2="383.323" gradientUnits="userSpaceOnUse">
<stop stop-color="#740703"/>
<stop offset="1" stop-color="#DA020E" stop-opacity="0"/>
</linearGradient>
<linearGradient id="paint7_linear_6_72665" x1="433.796" y1="323.219" x2="381.429" y2="383.323" gradientUnits="userSpaceOnUse">
<stop stop-color="#740703"/>
<stop offset="1" stop-color="#DA020E" stop-opacity="0"/>
</linearGradient>
<linearGradient id="paint8_linear_6_72665" x1="453.226" y1="212.612" x2="424.885" y2="185.946" gradientUnits="userSpaceOnUse">
<stop stop-color="#740703"/>
<stop offset="1" stop-color="#DA020E" stop-opacity="0"/>
</linearGradient>
<linearGradient id="paint9_linear_6_72665" x1="46.5355" y1="212.612" x2="76.5429" y2="180.946" gradientUnits="userSpaceOnUse">
<stop stop-color="#740703"/>
<stop offset="1" stop-color="#DA020E" stop-opacity="0"/>
</linearGradient>
<radialGradient id="paint10_radial_6_72665" cx="0" cy="0" r="1" gradientUnits="userSpaceOnUse" gradientTransform="translate(302.427 27.3191) rotate(180) scale(19.9869 19.0304)">
<stop stop-color="#FFE500"/>
<stop offset="0.5" stop-color="#FFE500"/>
<stop offset="1" stop-color="#E15007"/>
</radialGradient>
<radialGradient id="paint11_radial_6_72665" cx="0" cy="0" r="1" gradientUnits="userSpaceOnUse" gradientTransform="translate(249.88 18.0626) scale(15.0998 14.4328)">
<stop stop-color="#FFE500"/>
<stop offset="0.5" stop-color="#FFE500"/>
<stop offset="1" stop-color="#E15007"/>
</radialGradient>
<radialGradient id="paint12_radial_6_72665" cx="0" cy="0" r="1" gradientUnits="userSpaceOnUse" gradientTransform="translate(447.715 128.774) rotate(-119.727) scale(31.1877 27.4352)">
<stop stop-color="#FFE500"/>
<stop offset="0.5" stop-color="#FFE500"/>
<stop offset="1" stop-color="#E15007"/>
</radialGradient>
<linearGradient id="paint13_linear_6_72665" x1="451.907" y1="116.367" x2="444.326" y2="124.7" gradientUnits="userSpaceOnUse">
<stop stop-color="#FFE500"/>
<stop offset="0.5" stop-color="#FFE500"/>
<stop offset="1" stop-color="#E15007"/>
</linearGradient>
<radialGradient id="paint14_radial_6_72665" cx="0" cy="0" r="1" gradientUnits="userSpaceOnUse" gradientTransform="translate(297.081 477.257) rotate(180) scale(17.4818 15.7184)">
<stop stop-color="#FFE500"/>
<stop offset="0.5" stop-color="#FFE500"/>
<stop offset="1" stop-color="#E15007"/>
</radialGradient>
<radialGradient id="paint15_radial_6_72665" cx="0" cy="0" r="1" gradientUnits="userSpaceOnUse" gradientTransform="translate(52.4835 269.309) scale(32.5303 31.9999)">
<stop stop-color="#DA030E" stop-opacity="0"/>
<stop offset="0.875" stop-color="#DA020E" stop-opacity="0"/>
<stop offset="1" stop-color="#DA020E"/>
</radialGradient>
<radialGradient id="paint16_radial_6_72665" cx="0" cy="0" r="1" gradientUnits="userSpaceOnUse" gradientTransform="translate(448.577 269.153) scale(32.5304 31.9999)">
<stop stop-color="#DA030E" stop-opacity="0"/>
<stop offset="0.875" stop-color="#DA020E" stop-opacity="0"/>
<stop offset="1" stop-color="#DA020E"/>
</radialGradient>
</defs>
</svg>
