<svg width="500" height="500" viewBox="0 0 500 500" fill="none" xmlns="http://www.w3.org/2000/svg">
<g clip-path="url(#clip0_6_72687)">
<path d="M200.951 314.282C200.157 314.167 199.347 314.264 198.602 314.562C197.857 314.86 197.204 315.349 196.708 315.98C195.328 317.577 194.284 319.436 193.64 321.447C192.997 323.458 192.767 325.578 192.964 327.68V327.676C192.987 328.679 193.182 329.671 193.542 330.608C193.787 331.351 194.208 332.023 194.769 332.568C195.33 333.113 196.014 333.514 196.764 333.736C197.583 333.769 198.396 333.588 199.124 333.21C199.852 332.833 200.468 332.272 200.913 331.583C202.445 329.58 203.496 327.252 203.987 324.778C204.477 322.304 204.394 319.751 203.742 317.315C203.584 316.609 203.242 315.957 202.752 315.425C202.263 314.893 201.641 314.499 200.951 314.282ZM300.111 357.577C300.811 354.781 300.451 351.825 299.102 349.278C298.533 348.255 297.76 347.36 296.83 346.65C295.899 345.939 294.833 345.428 293.696 345.148L291.255 344.633C289.034 344.184 285.677 343.504 280.651 342.249C273.922 340.566 268.148 343.65 264.96 350.522C268.239 351.474 271.466 352.357 274.613 353.154C274.909 351.777 275.115 350.382 275.23 348.977C275.261 348.468 275.493 347.992 275.875 347.654C276.256 347.315 276.757 347.142 277.266 347.172C277.775 347.201 278.252 347.432 278.592 347.812C278.931 348.193 279.106 348.693 279.078 349.202C278.949 350.838 278.709 352.464 278.362 354.068C278.985 354.214 279.606 354.36 280.22 354.5C280.852 354.642 281.473 354.78 282.083 354.909C282.634 352.201 282.984 349.897 282.992 349.853C283.07 349.348 283.345 348.895 283.756 348.592C284.168 348.29 284.682 348.163 285.187 348.24C285.692 348.316 286.146 348.59 286.449 349.001C286.752 349.412 286.88 349.926 286.805 350.431C286.775 350.615 286.421 352.921 285.853 355.684C287.148 355.935 288.369 356.157 289.53 356.352C289.79 354.955 289.969 353.544 290.064 352.126C290.088 351.616 290.315 351.136 290.693 350.793C291.071 350.449 291.57 350.27 292.08 350.294C292.591 350.319 293.07 350.545 293.414 350.923C293.757 351.301 293.937 351.8 293.912 352.311C293.817 353.861 293.628 355.405 293.346 356.933C296.015 357.295 298.257 357.492 300.111 357.577ZM264.418 362.288C265.602 364.944 267.784 367.028 270.491 368.09C275.343 369.476 280.305 370.448 285.321 370.993C291.433 371.669 296.212 368.266 298.941 361.387C296.896 361.271 294.703 361.033 292.439 360.715C292.03 362.101 291.471 363.439 290.772 364.704C290.518 365.146 290.099 365.47 289.607 365.604C289.115 365.738 288.59 365.671 288.147 365.419C287.704 365.166 287.379 364.749 287.243 364.257C287.108 363.766 287.172 363.24 287.423 362.796C287.898 361.941 288.287 361.041 288.585 360.109C287.392 359.906 286.192 359.681 284.997 359.448C284.649 360.898 284.192 362.32 283.628 363.701C283.527 363.934 283.382 364.145 283.199 364.321C283.017 364.497 282.802 364.636 282.566 364.729C282.33 364.822 282.078 364.867 281.824 364.863C281.57 364.858 281.32 364.803 281.088 364.702C280.855 364.6 280.645 364.454 280.47 364.271C280.294 364.088 280.156 363.872 280.064 363.636C279.971 363.4 279.927 363.148 279.932 362.894C279.938 362.641 279.993 362.391 280.095 362.159C280.556 361.025 280.933 359.859 281.223 358.67C280.602 358.531 279.979 358.395 279.368 358.257C278.718 358.109 278.059 357.954 277.398 357.799C277.037 358.97 276.618 360.121 276.141 361.249C276.043 361.483 275.9 361.695 275.72 361.873C275.54 362.051 275.327 362.192 275.092 362.287C274.858 362.383 274.607 362.431 274.354 362.429C274.101 362.428 273.85 362.376 273.617 362.278C273.384 362.179 273.173 362.035 272.995 361.855C272.817 361.675 272.677 361.461 272.582 361.226C272.487 360.992 272.44 360.741 272.442 360.487C272.444 360.234 272.496 359.984 272.596 359.751C273.005 358.781 273.35 357.812 273.645 356.882C270.398 356.06 267.063 355.144 263.68 354.159C263 356.874 263.26 359.739 264.418 362.288ZM307.291 313.21C304.377 305.564 294.626 300.148 281.778 297.24C258.037 291.87 226.841 300.739 206.993 317.436C207.719 320.751 207.55 324.201 206.503 327.43C224.039 336.407 242.357 343.766 261.231 349.414C265.846 338.81 274.691 336.788 281.585 338.511C286.525 339.744 289.702 340.388 292.022 340.857L294.573 341.397C296.227 341.799 297.78 342.536 299.135 343.565C300.491 344.593 301.62 345.889 302.453 347.373C304.151 350.488 304.708 354.099 304.027 357.581C305.368 357.667 306.705 357.366 307.88 356.712C312.798 342.592 312.589 327.192 307.291 313.21ZM284.897 374.823C279.596 374.248 274.354 373.213 269.233 371.729C267.401 371.036 265.724 369.989 264.298 368.648C262.872 367.306 261.724 365.697 260.921 363.911C260.045 362.023 259.553 359.981 259.472 357.901C259.412 356.27 259.584 354.638 259.98 353.055C241.035 347.364 222.639 339.981 205.016 330.996C204.52 331.91 203.935 332.772 203.269 333.571C202.307 334.757 201.081 335.702 199.69 336.332C201.08 348.511 205.263 360.205 211.913 370.502C220.757 384.16 232.802 393.52 245.816 396.464C250.429 397.506 256.46 398.803 261.851 397.608C271.579 395.436 280.657 391.002 288.351 384.667C296.045 378.331 302.138 370.271 306.136 361.141C305.107 361.312 304.069 361.412 303.027 361.442C298.462 374.795 288.864 375.261 284.897 374.823ZM191.998 318.459C192.616 317.012 193.44 315.661 194.443 314.448C195.157 313.586 196.002 312.842 196.948 312.244C199.035 301.686 204.051 291.928 211.422 284.086C200.592 291.784 192.444 302.68 188.124 315.245C189.274 316.476 190.575 317.556 191.998 318.459ZM190.773 322.2C189.425 321.268 188.141 320.247 186.931 319.144C185.235 325.396 184.509 331.873 184.78 338.345C184.835 339.683 184.93 341.016 185.066 342.332C186.223 337.98 188.097 333.851 190.609 330.115C190.106 327.494 190.162 324.797 190.773 322.2ZM195.848 336.688C194.405 336.305 193.149 335.412 192.313 334.175C187.59 341.454 185.602 347.964 187.335 353.811C190.943 365.923 198.086 376.68 207.85 384.703C217.614 392.727 229.552 397.65 242.133 398.841C217.372 391.322 199.052 365.526 195.848 336.688ZM226.336 36.6234C226.358 33.394 225.999 30.1734 225.268 27.0278C225.268 27.0278 230.965 26.729 230.965 19.793C230.965 14.0797 227.152 10.1805 226.129 10.1805C225.302 10.1805 225.101 11.0536 223.315 11.0536C218.96 11.0536 218.64 5.49287 218.64 5.49287C219.284 5.46959 219.946 5.45828 220.627 5.45896C233.09 5.45896 244.623 9.23531 244.623 36.6234C244.517 45.6801 243.914 54.7241 242.817 63.7147C241.849 71.1037 241.386 78.55 241.431 86.002C241.431 86.002 219.729 83.4463 219.729 67.1202C219.729 56.5202 226.336 53.9412 226.336 36.6234ZM260.851 217.536C260.851 238.969 251.709 256.397 246.426 261.681C230.062 278.047 216.557 266.129 216.41 282.552C208.985 289.278 203.642 299.505 201.021 311.186C201.183 311.2 201.344 311.223 201.504 311.254C203.077 311.562 204.466 312.475 205.372 313.797C226.158 296.854 258.166 287.95 282.63 293.481C289.739 294.824 296.399 297.926 302.001 302.504C294.441 290.277 282.96 280.972 269.432 276.108C266.206 274.953 260.48 273.628 260.48 263.175C260.48 243.661 281.829 258.832 295.892 237.577C296.582 236.532 295.589 235.613 294.764 236.437C290.509 240.69 280.061 243.615 274.533 243.615C271.93 243.817 269.317 243.386 266.918 242.356C270.347 235.662 274.267 229.231 278.646 223.116C265.592 210.058 287.565 138.269 345.717 138.269C345.847 125.066 344.54 111.888 341.82 98.967C340.436 99.3018 329.48 101.887 328.98 99.5816C328.539 97.5429 337.05 93.1181 339.979 91.6644C338.672 86.5788 336.758 81.6693 334.276 77.0422C284.433 92.7473 294.451 134.014 282.308 134.014C274.405 134.014 268.198 127.86 265.982 125.643C236.212 95.8773 250.084 76.1797 250.084 36.6234C250.084 9.97702 239.736 0 220.627 0C201.515 0 194.691 8.27109 194.691 8.27109C194.691 8.27109 220.875 9.11876 220.875 36.6234C220.875 65.4143 188.45 73.3612 188.45 109.887C188.45 170.69 260.851 169.55 260.851 217.536Z" fill="#132257"/>
<path d="M151.123 391.191C155.982 394.398 161.13 397.276 161.13 397.276L159.326 401.946C158.654 399.119 155.851 397.583 152.227 395.343L140.375 412.485C138.473 415.033 136.958 417.848 135.88 420.839C135.88 420.839 133.937 419.601 132.159 418.279C130.3 416.897 128.539 415.617 128.539 415.617C130.306 415.182 133.358 410.683 135.195 408.191L146.73 391.734C142.409 388.398 140.722 387.744 137.671 387.587L141.775 384.508C141.775 384.508 145.721 387.627 151.123 391.191Z" fill="#132257"/>
<path d="M172.373 405.261C167.109 402.752 162.966 408.696 159.845 415.234C156.723 421.771 154.682 428.775 159.946 431.289C165.212 433.798 169.374 427.809 172.494 421.273C175.617 414.738 177.637 407.779 172.373 405.261ZM158.793 433.707C150.558 429.773 149.469 420.705 153.521 412.214C157.594 403.684 165.354 398.889 173.547 402.805C181.742 406.713 182.895 415.761 178.82 424.295C174.768 432.783 167.026 437.638 158.793 433.707Z" fill="#132257"/>
<path d="M195.638 411.57C201.205 413.142 205.738 414.195 205.738 414.195L205.252 419.177C203.761 417.024 203.078 416.497 198.325 415.284L192.567 434.662C192.101 436.434 189.802 443.141 190.539 444.404C190.539 444.404 188.937 444.065 186.354 443.348C183.453 442.543 182.088 441.999 182.088 441.999C183.573 441.017 185.451 435.281 186.061 432.95L191.853 413.447C186.93 411.807 185.786 411.69 183.431 412.786L186.286 408.535C186.286 408.535 189.501 409.834 195.638 411.57Z" fill="#132257"/>
<path d="M218.607 416.717C224.096 417.546 229.265 418.016 229.265 418.016L229.466 423.015C227.421 421.193 226.65 420.601 221.229 419.919L218.092 439.816C217.872 441.634 216.704 448.553 217.609 449.704C217.609 449.704 215.711 449.496 213.085 449.125C210.459 448.754 208.847 448.388 208.847 448.388C210.129 447.383 211.192 440.829 211.415 439.008L214.63 418.862C209.936 417.925 208.969 418.287 206.717 419.593L208.758 414.863C208.758 414.863 213.144 415.893 218.607 416.717Z" fill="#132257"/>
<path d="M238.956 435.632L238.541 449.002C245.549 449.093 250.351 448.652 252.489 445.611L251.417 451.682C251.417 451.682 247.534 451.765 241.851 451.682C235.595 451.593 230.693 451.189 230.693 451.189C231.732 450.157 231.992 443.644 232.005 441.807L232.575 428.687C232.598 425.193 232.918 419.547 231.747 418.358C236.824 418.71 236.178 418.704 240.842 418.886C246.947 419.128 250.41 418.945 250.41 418.945L251.175 423.959C248.789 421.972 245.218 421.743 239.384 421.707L239.062 432.926L248.022 432.979C248.831 432.987 248.884 433.438 248.878 434.335C248.869 435.221 248.857 435.695 248.005 435.685L238.956 435.632Z" fill="#132257"/>
<path d="M278.103 439.658C278.62 444.524 279.131 448.018 280.239 448.656C279.97 449.028 279.622 449.336 279.221 449.558C278.819 449.781 278.373 449.912 277.915 449.942C277.246 449.984 276.578 449.852 275.975 449.559C275.372 449.267 274.855 448.823 274.473 448.272L258.584 430.045L259.179 441.639C259.374 443.464 259.582 450.377 260.72 451.294L255.422 451.538C256.344 450.4 256.098 443.814 255.903 441.989L255.155 428.899C254.958 427.074 254.619 419.84 253.477 418.922L258.334 418.746L274.626 438.09L273.267 426.958C273.075 425.131 272.083 418.496 270.987 417.572C270.987 417.572 271.57 417.519 273.547 417.252C275.522 416.983 276.243 416.839 276.243 416.839C275.323 417.981 276.389 424.781 276.582 426.61L278.103 439.658Z" fill="#132257"/>
<path d="M307.963 432.761C308.524 435.022 309.643 440.837 311.309 441.975C311.309 441.975 308.791 442.7 307.261 443.173C305.892 443.596 302.877 444.374 302.877 444.374C303.589 443.12 302.001 436.145 301.565 434.401L300.054 428.33L289.954 430.807L291.102 436.983C291.433 438.979 292.486 445.694 293.847 446.512C293.847 446.512 292.438 446.807 289.492 447.409C287.023 447.913 285.313 448.184 285.313 448.184C286.065 446.93 285.052 440.702 284.736 438.716L282.291 425.664C281.846 423.231 280.723 417.075 279.375 416.357C279.375 416.357 280.678 416.107 283.565 415.547C286.451 414.986 287.862 414.604 287.862 414.604C287.154 416.064 288.407 421.968 288.748 424.039L289.526 428.18L299.463 425.759L298.388 421.525C297.805 419.288 296.57 413.905 295.188 412.907C295.188 412.907 296.555 412.51 299.321 411.728C302.086 410.946 303.279 410.501 303.279 410.501C302.728 411.991 304.267 417.232 304.902 419.934L307.963 432.761Z" fill="#132257"/>
<path d="M324.626 422.899L315.867 410.768L316.486 426.005L324.626 422.899ZM326.414 425.022L316.558 428.881L316.901 434.291C316.955 435.809 317.166 437.316 317.531 438.79C317.698 439.201 318.003 439.541 318.393 439.752C318.393 439.752 317.37 440.125 315.676 440.674C313.985 441.223 313.053 441.49 313.053 441.49C313.652 440.188 313.887 438.747 313.733 437.322L312.868 411.667C312.827 410.8 312.656 409.943 312.362 409.126C312.124 408.614 311.761 408.171 311.307 407.836C312.56 407.014 313.883 406.302 315.259 405.708C317.524 404.754 318.474 404.795 320.124 406.721L334.586 424.651C337.216 428.074 339.534 430.377 341.047 430.835C341.047 430.835 339.57 431.519 336.796 432.755C334.013 433.99 332.176 434.69 332.176 434.69C332.369 433.984 332.306 433.232 331.998 432.568C331.205 431.169 330.293 429.841 329.271 428.599L326.414 425.022Z" fill="#132257"/>
<path d="M367.701 415.721C365.719 417.059 364.236 418.082 364.236 418.082C364.088 416.13 360.324 411.307 359.216 409.847L350.724 398.766L357.552 420.608C357.233 421.132 356.829 421.598 356.355 421.988C355.81 422.447 355.115 422.689 354.403 422.667C353.69 422.645 353.011 422.361 352.496 421.869L336.327 408.461L341.985 418.887C343.371 421.528 346.039 427.021 347.832 427.561C347.832 427.561 346.721 428.159 345.308 428.845C343.903 429.521 343.047 429.92 343.047 429.92C343.356 428.388 340.732 423.827 339.2 420.911L332.9 409.065C330.991 405.501 328.886 401.871 327.072 401.146C328.475 400.466 328.897 400.256 330.899 399.272C332.569 398.448 334.04 397.641 334.04 397.641L352.25 413.132L345.087 391.201C345.087 391.201 346.049 390.55 347.865 389.336C349.682 388.119 351.324 386.911 351.324 386.911C351.46 388.876 355.247 393.873 356.628 395.661L364.471 405.753C366.137 407.825 369.244 412.445 371.46 412.977C371.46 412.977 369.682 414.384 367.701 415.721Z" fill="#132257"/>
<path d="M181.368 455.599C183.055 456.216 185.233 456.972 185.233 456.972C183.4 458.301 181.711 463.59 180.622 466.462L176.394 478.193C175.26 481.376 173.332 485.99 173.978 487.636C173.978 487.636 171.651 486.833 169.767 486.164C168.159 485.591 167.246 485.282 165.538 484.555C167.612 484.008 169.568 477.113 170.2 475.379L172.137 469.905L162.003 465.678L159.072 471.94C158.118 474.116 155.836 479.039 156.376 480.586C156.376 480.586 154.59 479.853 151.966 478.649C148.881 477.229 148.207 476.848 148.207 476.848C150.383 475.78 151.668 472.272 153.325 468.725L158.627 456.987C160.418 452.973 162.035 449.489 161.914 447.196C161.914 447.196 162.859 447.762 165.465 448.934C167.542 449.869 168.602 450.333 169.767 450.799C168.117 451.458 165.824 457.381 164.609 460.036L163.058 463.357L172.959 467.43L174.478 463.669C175.186 461.751 177.64 456.014 177.112 454.046C177.112 454.046 179.145 454.785 181.368 455.599Z" fill="#132257"/>
<path d="M200.662 463.844C195.023 462.359 192.107 468.829 190.301 475.684C188.495 482.538 187.843 489.649 193.486 491.135C199.125 492.621 202.054 486.104 203.857 479.253C205.663 472.395 206.307 465.328 200.662 463.844ZM192.816 493.674C183.99 491.351 181.18 482.807 183.524 473.9C185.878 464.951 192.562 458.953 201.346 461.261C210.122 463.573 212.989 472.086 210.636 481.035C208.295 489.94 201.643 495.996 192.816 493.674Z" fill="#132257"/>
<path d="M216.723 496.824C217.16 496.279 217.481 495.651 217.666 494.978C218.232 492.441 218.666 489.876 218.967 487.294L221.441 468.185C216.172 467.528 214.837 467.906 212.527 469.275L214.691 464.384C216.335 464.746 219.966 465.14 224.386 465.695C227.338 466.068 236.148 466.861 236.148 466.861L236.448 471.754C234.505 469.503 232.49 469.306 228.105 468.959L225.641 488.131C225.42 489.913 224.439 496.107 225.412 497.94C224.354 497.82 222.598 497.625 221.129 497.476C219.607 497.322 217.601 496.972 216.723 496.824Z" fill="#132257"/>
<path d="M258.673 490.184C258.731 495.94 254.054 500.106 246.861 499.998C243.349 500.097 239.921 498.916 237.215 496.675L238.382 491.216C239.022 492.842 240.091 494.264 241.474 495.33C242.858 496.397 244.505 497.068 246.24 497.273C246.996 497.362 247.762 497.292 248.49 497.069C249.217 496.845 249.89 496.471 250.465 495.972C251.039 495.473 251.504 494.86 251.827 494.171C252.151 493.482 252.328 492.734 252.346 491.973C252.382 489.533 251.038 488.061 245.386 485.119C239.974 482.322 237.959 479.533 237.959 475.371C237.959 469.713 242.886 466.835 248.671 466.829C251.849 466.81 254.979 467.603 257.764 469.132L256.559 474.129C253.977 470.686 251.644 469.404 248.824 469.363C248.217 469.279 247.599 469.329 247.014 469.511C246.43 469.693 245.892 470.001 245.44 470.415C244.989 470.829 244.634 471.337 244.402 471.903C244.169 472.47 244.065 473.081 244.096 473.693C244.119 476.797 247.537 478.482 252.153 481.063C257.457 484.03 258.64 487.005 258.673 490.184Z" fill="#132257"/>
<path d="M284.879 472.567C285.076 473.265 285.207 473.98 285.271 474.703C285.336 475.411 285.341 476.122 285.285 476.831C285.079 478.905 284.2 480.855 282.783 482.383C281.602 483.565 280.197 484.499 278.65 485.13C277.104 485.761 275.447 486.076 273.776 486.058C272.287 486.149 271.928 485.691 271.827 484.621L271.818 484.386C271.818 484.386 271.786 483.97 272.113 483.949L272.486 483.913C273.293 483.852 274.079 483.631 274.799 483.261C275.518 482.891 276.156 482.381 276.675 481.76C277.975 479.901 278.519 477.618 278.197 475.373C278.187 474.292 277.94 473.227 277.475 472.251C277.01 471.276 276.337 470.413 275.503 469.725C274.074 468.656 272.291 468.171 270.517 468.367C270.517 468.367 269.801 468.426 269.008 468.547C268.947 468.551 268.888 468.567 268.833 468.595C268.779 468.623 268.73 468.661 268.69 468.707C268.651 468.754 268.621 468.808 268.603 468.867C268.585 468.925 268.578 468.986 268.584 469.047L270.494 488.863C270.663 490.608 271.136 496.751 272.571 498.02C272.571 498.02 270.943 498.192 267.87 498.444C265.533 498.631 263.708 498.682 263.708 498.682C264.247 496.597 264.369 494.426 264.066 492.294L262.587 476.668C262.418 474.879 262.112 468.746 260.652 467.231C260.652 467.231 264.575 466.65 271.837 465.966C275.163 465.438 278.568 466.128 281.426 467.907C283.085 469.011 284.306 470.659 284.879 472.567Z" fill="#132257"/>
<path d="M314.572 478.956C315.032 480.489 315.165 482.101 314.961 483.688C314.758 485.275 314.224 486.802 313.393 488.169C312.562 489.537 311.453 490.714 310.138 491.626C308.823 492.537 307.331 493.162 305.759 493.46C300.736 494.714 293.501 492.873 291.482 484.059L289.028 473.658C288.377 470.749 287.32 465.591 285.631 464.249C285.631 464.249 287.515 463.98 290.473 463.427C293.429 462.878 294.803 462.552 294.803 462.552C294.027 463.772 294.841 468.589 295.612 472.13L298.748 485.356C299.003 487.318 299.969 489.118 301.463 490.415C302.011 490.773 302.625 491.018 303.27 491.133C303.915 491.249 304.576 491.233 305.214 491.086C305.896 490.98 306.546 490.723 307.117 490.333C307.687 489.944 308.164 489.432 308.511 488.836C309.242 487.004 309.3 484.972 308.675 483.101L305.153 469.878C304.188 466.239 303.08 461.683 301.889 460.92C301.889 460.92 303.324 460.53 306.043 459.754C308.1 459.165 309.325 458.807 310.215 458.496C309.406 460.486 311.343 466.587 311.75 468.337L314.572 478.956Z" fill="#132257"/>
<path d="M346.664 476.247C347.304 476.563 348.04 476.628 348.726 476.429C348.522 477.179 348.124 477.863 347.573 478.41C346.824 479.376 345.8 480.093 344.636 480.467C343.473 480.84 342.223 480.853 341.052 480.504C335.953 477.949 331.333 474.535 327.394 470.411C327.381 470.383 327.375 470.352 327.374 470.322C327.374 470.291 327.38 470.261 327.392 470.232C327.404 470.204 327.422 470.179 327.444 470.158C327.466 470.136 327.492 470.12 327.521 470.11L327.826 469.976C328.675 469.576 329.434 469.008 330.057 468.306C330.68 467.605 331.155 466.784 331.453 465.895C331.75 465.005 331.865 464.064 331.79 463.129C331.714 462.194 331.45 461.283 331.014 460.453C330.67 459.51 330.133 458.649 329.438 457.926C328.743 457.202 327.905 456.632 326.977 456.25C325.537 455.811 323.989 455.897 322.607 456.492C322.056 456.698 321.536 456.976 321.058 457.318C321.058 457.318 320.82 457.513 321.098 458.329L327.394 476.304C328.348 478.953 330.009 484.109 331.514 484.982C331.514 484.982 329.814 485.652 327.237 486.584C324.654 487.514 323.084 487.947 323.084 487.947C323.609 485.942 321.626 480.483 321.128 478.951L317.053 466.804C316.035 463.881 314.181 458.63 312.668 457.795C315.948 456.758 319.169 455.543 322.317 454.155C325.445 452.6 329.013 452.17 332.421 452.936C334.142 453.389 335.637 454.459 336.621 455.943C336.992 456.494 337.308 457.081 337.562 457.696C337.791 458.269 337.958 458.865 338.06 459.474C338.409 461.409 338.052 463.406 337.053 465.1C336.303 466.406 335.28 467.535 334.055 468.41C337.868 471.603 342.113 474.241 346.664 476.247Z" fill="#132257"/>
</g>
<defs>
<clipPath id="clip0_6_72687">
<rect width="242.921" height="500" fill="white" transform="translate(128.539)"/>
</clipPath>
</defs>
</svg>
