<svg width="500" height="500" viewBox="0 0 500 500" fill="none" xmlns="http://www.w3.org/2000/svg">
<g clip-path="url(#clip0_6_72703)">
<path d="M253.011 0.00014238V9.72985H263.164V15.6938H253.016V25.2028C255.358 25.8258 257.432 27.199 258.92 29.1123C260.408 31.0257 261.228 33.3738 261.255 35.7974C261.198 38.7683 259.967 41.596 257.832 43.6623C255.696 45.7285 252.829 46.8654 249.858 46.8244C246.887 46.8666 244.019 45.7301 241.884 43.6636C239.748 41.597 238.517 38.7687 238.462 35.7974C238.487 33.5082 239.221 31.2831 240.562 29.4279C241.904 27.5728 243.787 26.1786 245.953 25.437L246.705 25.2026V15.6982H236.552V9.72971H246.705V0L253.011 0.00014238Z" fill="#C1933F"/>
<path d="M232.624 74.1982L232.813 77.2928C233.827 91.7672 236.796 106.038 241.638 119.716C233.705 119.788 226.39 120.022 219.205 120.315L219.011 120.09L217.822 118.806C208.543 108.094 200.735 96.1921 194.606 83.4142C205.886 79.0625 217.65 76.0861 229.642 74.5494L232.624 74.1982Z" fill="#C1933F"/>
<path d="M267.056 74.1982C280.074 75.5991 292.867 78.7027 305.092 83.4144C298.961 96.1924 291.152 108.095 281.872 118.806L280.682 120.09L280.484 120.315C273.011 119.993 265.532 119.794 258.052 119.716C262.892 106.038 265.859 91.7671 266.872 77.2929L267.056 74.1982Z" fill="#C1933F"/>
<path d="M249.926 50.5947C255.48 50.5947 260.07 59.3829 260.07 77.2793L260.061 78.7928C260.016 81.6216 259.682 85.2072 259.151 89.1036L258.714 92.0765L258.214 95.1216L257.655 98.1982L257.358 99.7387L256.732 102.784L256.07 105.757L255.385 108.613L255.034 109.986L254.327 112.59C253.259 116.338 252.178 119.342 251.218 120.955C250.741 121.793 250.264 122.113 249.84 122.113C249.417 122.113 248.939 121.775 248.435 120.905C247.475 119.266 246.394 116.257 245.327 112.509L244.624 109.905L243.93 107.126L243.255 104.212L242.615 101.207C242.511 100.697 242.409 100.187 242.309 99.6756L241.728 96.6125L241.2 93.5495C240.286 87.9775 239.682 82.6756 239.624 78.7928C239.367 60.3874 243.8 51.1036 249.295 50.6127L249.926 50.5947Z" fill="#C1933F"/>
<path d="M328.286 95.8918C330.169 99.1621 329.772 103.644 327.025 108.847L326.484 109.829C324.058 114.365 321.265 118.694 318.133 122.775L313.327 122.324L306.543 121.77L300.935 121.365C309.566 115.058 317.534 107.893 324.718 99.9774H324.723L325.29 99.3468L327.263 97.081L328.281 95.8918H328.286Z" fill="#C1933F"/>
<path d="M171.71 95.8918L174.701 99.3423L175.268 99.9729C182.458 107.885 190.426 115.054 199.052 121.369L192.453 121.847L185.408 122.432L181.858 122.775C179.25 119.375 176.877 115.803 174.755 112.081L173.511 109.829C170.282 104.212 169.705 99.3648 171.71 95.8918Z" fill="#C1933F"/>
<path d="M189.201 35.8694C189.665 35.8694 190.147 35.8833 190.642 35.9056L192.174 36.0181C199.273 36.7073 208.993 40.027 219.606 50.0721L220.791 51.2162C220.975 51.41 222.119 52.5901 221.881 53.5856L221.746 53.9099C220.656 55.4865 219.187 55.3738 217.313 54.9189L214.07 54.072L212.268 53.6441L210.903 53.3559L209.421 53.0858L207.849 52.8382L206.201 52.64C199.205 51.9237 190.71 52.775 186.665 60.1399C182.129 70.2165 187.394 83.8336 194.971 96.2615L196.466 98.6489L198.007 101C198.264 101.392 198.525 101.775 198.791 102.162L200.376 104.442L201.975 106.667L203.579 108.829L205.174 110.915L207.525 113.892L209.047 115.77L212.728 120.158C212.865 120.349 212.963 120.566 213.016 120.795C213.069 121.025 213.077 121.263 213.038 121.495C212.999 121.727 212.914 121.95 212.789 122.149C212.664 122.349 212.501 122.522 212.309 122.658C211.882 122.987 211.361 123.172 210.822 123.185C210.239 123.167 209.67 122.996 209.174 122.689C198.401 115.337 188.519 106.757 179.728 97.1218L176.439 93.3471L174.376 90.9191L172.993 89.2435C172.763 88.9591 172.533 88.6738 172.304 88.3876L170.93 86.6399L169.588 84.8516C169.363 84.5499 169.147 84.248 168.93 83.9417L167.647 82.0948C161.156 72.4733 156.93 61.4552 162.777 50.7165C165.236 46.2493 168.845 42.5208 173.229 39.9174C177.614 37.3141 182.615 35.9305 187.714 35.9103C188.201 35.8696 188.687 35.8696 189.201 35.8696V35.8694Z" fill="#C1933F"/>
<path d="M310.786 35.8695C311.304 35.8695 311.79 35.8695 312.277 35.9146C317.375 35.9354 322.376 37.3186 326.76 39.9211C331.145 42.5235 334.754 46.2505 337.214 50.7164C343.439 62.1488 338.25 73.8965 331.061 83.9415L329.732 85.7523L329.056 86.6397L327.687 88.383L326.304 90.0857L324.921 91.7388L321.547 95.6577L320.263 97.1217C311.474 106.756 301.594 115.337 290.822 122.689C290.324 122.996 289.754 123.166 289.169 123.185C288.63 123.171 288.109 122.987 287.682 122.658C287.49 122.521 287.327 122.349 287.202 122.149C287.077 121.95 286.992 121.728 286.953 121.495C286.914 121.263 286.92 121.026 286.973 120.796C287.025 120.567 287.123 120.35 287.259 120.158L289.466 117.545L290.935 115.77L292.457 113.892L294.808 110.914L296.408 108.824L298.011 106.662C298.281 106.302 298.547 105.932 298.813 105.563L300.408 103.311L301.984 101L303.52 98.6487L305.016 96.2613C312.597 83.8379 317.867 70.2163 313.331 60.1353C309.286 52.7794 300.79 51.9236 293.795 52.6398L292.146 52.8381L290.57 53.0856L289.092 53.3558L287.727 53.644L285.926 54.0719L282.682 54.9187C280.971 55.3286 279.601 55.4592 278.547 54.3016L278.241 53.9097C277.79 53.1755 278.34 52.2565 278.781 51.6935L279.106 51.3151L279.196 51.2162C290.268 40.2703 300.453 36.7342 307.813 36.018L309.344 35.9055C309.84 35.8847 310.322 35.8694 310.786 35.8694V35.8695Z" fill="#C1933F"/>
<path d="M354.52 69.1351C358.304 69.482 361.971 70.6396 365.259 72.5225C367.281 73.6749 369.055 75.2169 370.478 77.0595C371.901 78.902 372.944 81.0084 373.547 83.2567C376.236 94.2207 366.38 104.234 354.538 112.207L352.367 113.635C352.007 113.869 351.637 114.099 351.272 114.329L349.061 115.685L346.84 116.991L344.628 118.252L342.435 119.459L340.272 120.613L336.11 122.752L332.254 124.667L328.034 126.716C327.538 126.944 326.998 127.055 326.453 127.04C326.167 127.021 325.888 126.938 325.638 126.798C325.388 126.658 325.172 126.464 325.007 126.23C324.767 125.916 324.629 125.535 324.613 125.14C324.597 124.745 324.703 124.355 324.917 124.022L325.227 123.648L331.642 117.099L335.083 113.495L338.813 109.486L340.335 107.82C348.592 98.6891 352.574 90.7747 350.966 85.8828C350.366 83.9649 349.284 82.233 347.824 80.8528C346.363 79.4726 344.573 78.4903 342.624 78C344.223 75.1533 345.496 72.1358 346.421 69.0045C349.121 68.8117 351.833 68.8569 354.525 69.1396L354.52 69.1351Z" fill="#C1933F"/>
<path d="M145.466 69.1352C148.156 68.856 150.872 68.8108 153.575 69.0001C154.493 72.1352 155.764 75.1532 157.363 78.0001C155.415 78.4906 153.626 79.4731 152.167 80.8533C150.708 82.2336 149.627 83.9654 149.03 85.8829C147.48 90.5856 151.102 98.0856 158.723 106.775L160.417 108.658L163.426 111.928L168.331 117.099L174.795 123.707C175.475 124.392 175.548 125.464 174.966 126.23C174.8 126.464 174.583 126.658 174.333 126.799C174.082 126.939 173.803 127.021 173.516 127.041C172.973 127.055 172.433 126.944 171.939 126.716L164.867 123.252L161.818 121.712L159.71 120.613L157.548 119.459L155.358 118.252L153.142 116.991L150.926 115.685L148.719 114.333C148.35 114.103 147.982 113.87 147.615 113.635L145.444 112.207L143.318 110.734C132.462 103.018 123.917 93.5586 126.444 83.2568C127.046 81.0079 128.088 78.9009 129.511 77.0582C130.934 75.2155 132.709 73.6738 134.732 72.5226C138.026 70.6359 141.687 69.4806 145.466 69.1353V69.1352Z" fill="#C1933F"/>
<path d="M314.466 130.856V142.694L308.917 142.207L301.403 141.649L294.881 141.234L287.272 140.829L278.7 140.459L272.507 140.252L267.628 140.126L260.845 139.995L255.565 139.941L248.313 139.924L242.93 139.955L234.3 140.09L227.737 140.252L221.52 140.46L212.908 140.829L207.696 141.099L201.84 141.446L194.137 141.973L185.525 142.694V130.856L192.322 130.275L199.912 129.734L205.867 129.365L211.232 129.072L217.088 128.798L225.025 128.491L231.827 128.298L237.151 128.185L244.534 128.095L251.948 128.074L259.038 128.124L265.867 128.241L272.39 128.407L281.534 128.732L291.083 129.182L298.182 129.601L304.151 130.006L314.466 130.856Z" fill="#C1933F"/>
<path d="M244.484 148.491L249.998 148.47L255.507 148.487L263.534 148.577L268.732 148.676L273.813 148.807L278.768 148.964L283.601 149.154L288.318 149.365L292.912 149.604L299.579 150.01L305.984 150.46L310.106 150.785L316.07 151.307L321.772 151.866L327.214 152.456L332.403 153.073L337.335 153.712L342.011 154.37L346.439 155.041L351.957 155.942L355.808 156.627L360.561 157.532L363.849 158.203L368.786 159.284L372.263 160.113L375.326 160.888L378.579 161.775L381.646 162.69L384.097 163.492L385.493 164.032C385.543 164.093 385.582 164.162 385.61 164.235L385.759 164.64L386.029 165.604L386.353 166.983L386.858 169.433L387.583 173.406L388.385 178.311L389.061 182.843L389.754 187.865L390.448 193.334L391.124 199.199L391.61 203.829L392.223 210.28L392.507 213.609L392.903 218.717L393.254 223.942L393.466 227.487L393.646 231.064L393.808 234.676L393.934 238.316L394.038 241.978L394.106 245.654L394.128 247.496L394.146 251.185C394.146 294.226 385.52 350 355.164 394.081L354.128 395.568L351.984 398.577L350.876 400.09L348.597 403.135L346.236 406.203L343.795 409.288L341.281 412.392L340.002 413.946L337.394 417.059L334.727 420.18L333.376 421.739L330.637 424.856L327.853 427.964L325.038 431.063L322.187 434.149L319.313 437.212L314.966 441.766L312.056 444.766L307.687 449.203L304.772 452.108L300.426 456.387L296.119 460.554L291.876 464.595L287.718 468.491L284.998 471.005L281.016 474.64L277.169 478.095L273.475 481.356L269.957 484.414L266.628 487.252L263.516 489.851L260.633 492.207L258.849 493.631L256.399 495.541L254.921 496.658L252.957 498.081L251.822 498.865L250.831 499.5L249.998 500L249.164 499.505L248.173 498.869L247.038 498.09L245.764 497.171L244.349 496.122L242.809 494.941L240.268 492.941L237.466 490.671L234.43 488.149L230.038 484.423L227.714 482.41L224.074 479.212L220.277 475.824L216.34 472.248L213.642 469.77L209.516 465.924L205.3 461.933L202.448 459.198L199.57 456.406L195.223 452.126L190.854 447.752L187.939 444.784L183.579 440.275L179.246 435.703L174.962 431.081L172.142 427.982L169.358 424.874L166.62 421.757L162.606 417.072L159.993 413.964L157.453 410.856C156.615 409.82 155.786 408.784 154.975 407.757L152.575 404.676L150.25 401.617C148.396 399.143 146.591 396.632 144.836 394.086C114.476 349.973 105.854 294.235 105.854 251.19L105.872 247.496L105.926 243.82L106.007 240.149L106.192 234.681L106.354 231.068L106.534 227.487L106.746 223.947L106.971 220.451L107.359 215.298L107.777 210.28L108.079 207.019L108.548 202.266L109.21 196.221L109.895 190.546L110.764 184.059L111.277 180.514L112.102 175.266L112.859 170.911L113.273 168.762L113.755 166.483L114.061 165.239L114.313 164.42C114.353 164.28 114.417 164.149 114.503 164.032L115.422 163.672L116.8 163.19L119.268 162.411L121.413 161.78L124.665 160.893L128.561 159.915L131.21 159.289L134.093 158.645L138.309 157.762L142.958 156.861L148.034 155.951L153.552 155.046L157.98 154.375L161.07 153.933L165.917 153.289L172.777 152.46L178.223 151.875L183.926 151.312L189.885 150.789L194.007 150.465L198.25 150.158L202.606 149.875L207.079 149.609L214.016 149.262L218.791 149.059L223.687 148.888L228.705 148.74L233.84 148.627L239.102 148.542L244.484 148.491Z" fill="#C1933F"/>
<path d="M257.646 164.261L249.989 164.234L242.331 164.27L237.372 164.324L232.529 164.405L225.484 164.572L220.935 164.707L214.322 164.955L207.971 165.247L203.876 165.464L197.953 165.82L194.142 166.072L188.642 166.482L183.39 166.919L178.39 167.374L172.106 168.013L166.264 168.68L160.858 169.36L155.881 170.049L151.331 170.734L147.205 171.405L143.503 172.058L139.457 172.829L135.453 173.666L132.818 174.274L130.485 174.86L128.656 175.396L128.521 175.45L128.471 175.527L128.349 175.842L128.133 176.707L127.872 178.022L127.467 180.428L126.764 185.324L126.25 189.36L125.575 195.171L125.034 200.351L124.629 204.518L124.102 210.392L123.606 216.576L123.264 221.387L122.849 227.977L122.579 233.022L122.421 236.418L122.223 241.545L122.075 246.693L122.007 250.121L121.962 253.545L121.948 256.941C121.948 294.797 129.611 345.977 156.575 384.779L157.579 386.211L159.66 389.094L160.741 390.549L162.966 393.486L165.277 396.45L167.669 399.432L170.138 402.436L171.399 403.941L173.962 406.959L176.584 409.986C177.02 410.49 177.466 410.995 177.912 411.499L180.606 414.522L183.336 417.54L187.493 422.035L190.3 425.008L194.534 429.423L197.358 432.328L201.601 436.607L205.818 440.787L209.989 444.85L214.088 448.778L218.097 452.553L223.259 457.319L226.966 460.67L230.502 463.814L234.917 467.652L238.935 471.053L241.655 473.287L243.322 474.616L245.574 476.364L246.908 477.355L248.092 478.197L249.128 478.891C249.444 479.094 249.732 479.274 249.998 479.431L250.818 478.922L251.782 478.278L252.885 477.504L254.777 476.089L256.2 474.995L258.543 473.125L262.043 470.233L265.935 466.927L270.169 463.229L272.394 461.247L275.867 458.112L280.705 453.67L284.457 450.152L288.304 446.495L292.223 442.711L296.187 438.805L301.529 433.459L305.543 429.351L306.881 427.968L309.696 425.017C321.507 412.571 332.89 399.463 341.597 387.36L343.421 384.783C370.38 345.954 378.038 294.77 378.038 256.945L378.007 251.837L377.916 246.702L377.763 241.554L377.565 236.427L377.322 231.337L376.939 224.671L376.497 218.18L376.011 211.923L375.624 207.428L374.952 200.365L374.277 193.955L373.606 188.306L372.858 182.698L372.412 179.761L372.209 178.558L371.939 177.099L371.7 176.076L371.57 175.657C371.546 175.582 371.51 175.512 371.461 175.45L370.759 175.211L369.169 174.77L366.691 174.153L363.925 173.522L359.768 172.666L355.592 171.878L350.768 171.045L347.552 170.536L344.101 170.022L339.124 169.333L333.718 168.648L327.871 167.982L323.205 167.5L316.588 166.883L311.34 166.45L305.835 166.045L298.106 165.549L292.007 165.22L287.804 165.022L281.277 164.765L274.493 164.554L267.448 164.392L262.606 164.315L257.651 164.261L257.646 164.261Z" fill="white"/>
<path d="M244.845 173.59L249.845 173.576L254.854 173.59L262.133 173.657L269.146 173.779L273.673 173.887L280.241 174.085L286.547 174.329L292.592 174.612L296.475 174.82L302.083 175.162L307.439 175.531L312.534 175.923L317.376 176.342L323.439 176.923L329.056 177.527L334.232 178.144L337.826 178.612L341.178 179.076L346.223 179.842L348.926 180.284L352.903 180.991L357.912 181.982L361.272 182.757L363.02 183.23L363.263 183.32L363.313 183.392L363.43 183.707L363.57 184.23L363.817 185.401L364.097 187L364.412 189.009L364.993 193.198L365.489 197.221L365.88 200.599L366.403 205.527L367.047 212.279L367.538 218.076L367.885 222.621L368.205 227.297L368.403 230.477L368.75 236.955L368.961 241.878L369.128 246.833L369.236 251.788L369.29 256.725V258.36C369.29 293.189 362.119 340.342 337.029 375.999C336.385 376.914 335.723 377.837 335.047 378.77L332.957 381.581L331.88 383.004L329.655 385.878L328.511 387.328L326.16 390.247C325.762 390.738 325.362 391.227 324.962 391.716L322.502 394.666L319.984 397.63L317.412 400.603L314.79 403.58L312.128 406.553L308.074 410.999L305.34 413.941L302.592 416.864L299.835 419.752L295.7 424.022L291.588 428.198L288.867 430.914L283.52 436.175L279.615 439.936L275.831 443.531L271.011 448.013L267.597 451.121L263.363 454.882L260.448 457.405L257.795 459.634L255.421 461.562L254.007 462.67L253.354 463.166L252.155 464.049L251.11 464.77C250.701 465.044 250.28 465.301 249.849 465.54L249.444 465.31L248.48 464.697C248.297 464.575 248.115 464.45 247.935 464.324L246.7 463.436L245.304 462.369L243.736 461.134L242.025 459.738L240.164 458.179L236.854 455.342V455.337L233.777 452.621L230.489 449.662L227.02 446.477L223.39 443.081L221.52 441.31L217.691 437.644L213.759 433.815L211.764 431.842L207.723 427.806L203.637 423.662L201.588 421.545L197.489 417.265L193.399 412.918C181.867 400.526 170.813 387.571 162.669 375.999C138.057 341.035 130.701 295.094 130.412 260.504L130.408 256.725L130.458 251.792L130.53 248.486L130.674 243.531L130.944 236.955L131.295 230.482L131.593 225.729L131.926 221.094L132.525 213.702L133.034 208.157L133.683 201.793L134.075 198.32L134.579 194.153L135.057 190.567L135.494 187.63L135.786 185.887L136.043 184.572L136.192 183.941L136.318 183.522C136.34 183.447 136.377 183.377 136.426 183.315L137.138 183.09L139.106 182.59L141.273 182.094L145.381 181.257L149.921 180.432L154.43 179.693L159.611 178.928L164.241 178.302L169.304 177.68L174.813 177.072L179.232 176.63L185.52 176.063L190.529 175.657L195.8 175.284L201.322 174.932L207.106 174.617L213.151 174.329L219.457 174.085L226.025 173.887L230.552 173.779L237.565 173.657L244.845 173.59Z" fill="#FF002E"/>
<path d="M361.263 243.067H138.48C138.355 246.474 138.269 249.883 138.223 253.292L138.196 259.369L138.237 262.59L138.291 264.946L138.426 268.774L138.561 271.504L138.732 274.378L138.944 277.382L139.205 280.509L139.511 283.747L139.687 285.405L140.075 288.806L140.291 290.54L140.773 294.076L141.038 295.873L141.615 299.531C145.399 322.31 153.21 349.135 169.074 371.684C170.611 373.873 172.246 376.098 173.966 378.355L176.601 381.761C177.498 382.9 178.412 384.049 179.345 385.198L182.187 388.661L185.115 392.139L188.124 395.621L191.187 399.103L194.309 402.571L195.885 404.301L199.056 407.738L202.255 411.139L205.453 414.495L210.25 419.432L213.426 422.643L216.57 425.779L219.669 428.828L222.714 431.788L227.151 436.035L231.394 440.017L234.097 442.517L237.926 445.999L240.322 448.134L242.565 450.107L245.642 452.751L247.475 454.283L249.119 455.625L249.872 456.22L251.421 454.977L254.101 452.751L257.173 450.107L259.421 448.134L263.056 444.873L266.98 441.283L269.736 438.72L272.588 436.035L277.02 431.788L280.065 428.828L283.164 425.779L286.308 422.643L289.48 419.432L292.678 416.157L295.876 412.824L299.079 409.445L303.849 404.301L306.989 400.842L308.543 399.103L311.61 395.621L314.615 392.139L317.543 388.661L320.389 385.198C323.538 381.33 326.575 377.374 329.498 373.333L330.669 371.684C344.385 352.175 352.074 329.468 356.353 308.95L357.119 305.13C357.479 303.238 357.808 301.36 358.119 299.513L358.696 295.86C358.876 294.653 359.047 293.459 359.209 292.279L359.66 288.788L360.047 285.396L360.385 282.099L360.669 278.918L360.907 275.855L361.097 272.914L361.25 270.112L361.367 267.45L361.484 263.743L361.547 259.369V258.382C361.547 255.004 361.507 251.581 361.421 248.175L361.268 243.067H361.263Z" fill="white"/>
<path d="M153.638 250.022H196.241V394.243C188.601 385.787 181.437 376.913 174.782 367.662C165.766 354.434 158.901 339.861 154.444 324.486L153.638 321.599V250.022Z" fill="#FF002E"/>
<path d="M346.065 250.022V321.59C341.651 338.023 334.503 353.596 324.921 367.657C319.216 375.586 313.137 383.238 306.705 390.589L303.462 394.243V250.022H346.065Z" fill="#FF002E"/>
<path d="M274.498 250.022V424.414L272.872 425.99L269.682 429.062L266.588 432.004L263.606 434.801L260.746 437.45L256.728 441.103L253.079 444.346L249.854 447.139L247.75 445.333L245.453 443.315L241.669 439.927L238.953 437.45L236.097 434.801L231.574 430.549L226.827 425.995L225.205 424.414V250.022H274.498Z" fill="#FF002E"/>
<path d="M257.056 191.905L249.66 191.869V208.211C249.637 209.531 249.732 210.851 249.935 212.153L250.178 213.446L250.097 213.527L242.403 191.919L235.894 192.009V224.036C235.944 224.937 235.768 225.833 235.39 226.644L235.065 227.234H242.313V211.378L242.277 209.959L241.971 206.473L242.061 206.392L249.998 227.234H256.088V195.522C256.111 194.261 256.439 193.013 257.056 191.905V191.905Z" fill="white"/>
<path d="M341.358 200.234H328.489L328.507 227.234H333.867V216.018H338.372V211H333.867V205.243H339.723L341.358 200.234Z" fill="white"/>
<path d="M266.592 192.059L259.061 227.238H265.849L267.007 220.558H273.52L274.731 227.238H282.007C281.43 226.481 280.982 225.633 280.682 224.73L280.438 223.828L273.471 192.226L270.038 192.134L266.592 192.059ZM270.119 201.562H270.205V201.568L270.935 205.932L272.579 215.154H268.043L269.425 205.932L270.119 201.562Z" fill="white"/>
<path d="M205.007 193.13L200.62 193.401L196.277 193.684L193.75 213.973H193.651L190.579 194.094C187.687 194.32 184.813 194.558 181.984 194.811L179.462 224.09C179.372 224.977 179.124 225.847 178.719 226.644L178.39 227.229H186.115L187.052 203.905H187.142V204.513L191.782 227.243H195.921L200.133 203.919H200.223L201.773 227.243H209.192C208.685 226.449 208.33 225.568 208.147 224.644L207.993 223.486L205.007 193.13Z" fill="white"/>
<path d="M149.133 200.707L142.962 227.252H148.187L149.133 221.982H154.494L155.485 227.252H161.597C161.215 226.788 160.92 226.258 160.728 225.689L154.692 200.707H149.133ZM151.692 207.522H151.755L153.701 217.816H149.988L151.115 210.729L151.692 207.522Z" fill="white"/>
<path d="M352.804 200.387L352.056 200.391C348.777 200.73 345.766 202.356 343.684 204.912C341.603 207.469 340.62 210.747 340.953 214.027L340.93 214.495C340.884 216.143 341.164 217.785 341.753 219.325C342.342 220.865 343.228 222.274 344.362 223.472C345.495 224.67 346.854 225.632 348.36 226.305C349.865 226.977 351.489 227.346 353.137 227.391C354.205 227.472 355.268 227.238 356.2 226.734L356.741 226.396L355.317 222.36C354.642 222.639 353.921 222.779 353.191 222.779C348.615 222.923 346.083 218.337 345.939 213.851C345.795 209.004 348.398 204.995 352.552 204.995C353.002 204.972 353.452 204.986 353.903 205.04L354.574 205.139L355.696 201.076C354.786 200.659 353.804 200.425 352.804 200.387L352.804 200.387Z" fill="white"/>
<path d="M221.434 192.022V192.027C215.687 192.027 209.989 196.865 209.989 209.789C209.989 222.716 215.706 227.545 221.44 227.545C227.174 227.545 232.872 222.703 232.872 209.789C232.872 197.271 227.525 192.338 221.975 192.041L221.434 192.022ZM221.434 198.324C224.407 198.324 225.457 202.383 225.822 205.887L225.93 207.167L226.002 208.865V210.599L225.967 211.598L225.894 212.742L225.773 213.986C225.368 217.378 224.277 221.239 221.434 221.239C218.461 221.239 217.408 217.018 217.044 213.527L216.934 212.266L216.877 211.122L216.854 210.167L216.863 208.869L216.899 207.77L216.979 206.536C217.281 202.91 218.272 198.324 221.434 198.324H221.434Z" fill="white"/>
<path d="M295.826 193.198C286.962 193.297 281.547 201.797 281.547 210.094C281.547 218.648 286.48 227.027 295.394 227.558L296.295 227.585C297.619 227.684 298.939 227.468 300.146 226.95L300.858 226.603L299.34 220.702C298.53 220.997 297.679 221.165 296.817 221.198C291.083 221.198 288.57 215.049 288.57 210.049C288.57 204.874 291.079 199.558 296.858 199.558C297.417 199.567 297.971 199.626 298.525 199.73L299.335 199.923L300.989 194.378C300.121 193.965 299.208 193.656 298.268 193.455L297.322 193.288L295.826 193.198Z" fill="white"/>
<path d="M169.295 199.802C168.294 199.813 167.305 200.033 166.394 200.449C165.482 200.865 164.668 201.466 164.003 202.216C163.338 202.965 162.837 203.845 162.532 204.799C162.227 205.753 162.125 206.76 162.232 207.756C162.233 209.428 162.702 211.066 163.584 212.485C164.467 213.904 165.729 215.048 167.228 215.788L168.448 216.63C169.503 217.383 170.381 218.207 170.381 219.729L170.376 219.959C170.323 220.726 169.968 221.441 169.389 221.947C168.81 222.453 168.054 222.708 167.286 222.657C166.624 222.657 165.966 222.549 165.34 222.342L164.723 222.103L163.219 226.324C164.588 227.211 166.187 227.675 167.813 227.671C168.843 227.698 169.868 227.517 170.826 227.139C171.784 226.76 172.655 226.191 173.388 225.467C174.12 224.743 174.699 223.878 175.089 222.925C175.478 221.971 175.671 220.949 175.656 219.919L175.62 219.261C175.62 215.937 173.93 214.072 172.093 212.608L170.98 211.77L169.908 210.977C168.705 210.058 167.728 209.13 167.503 207.833L167.453 207.247C167.428 206.889 167.481 206.529 167.609 206.193C167.737 205.857 167.936 205.552 168.193 205.301C168.45 205.049 168.759 204.857 169.098 204.736C169.437 204.616 169.798 204.57 170.156 204.603C170.926 204.63 171.678 204.824 172.363 205.162L172.858 205.45L174.043 201.135C172.853 200.418 171.516 199.979 170.133 199.851L169.3 199.806L169.295 199.802Z" fill="white"/>
<path d="M312.782 194.477C306.993 194.477 301.241 198.995 301.241 211.108C301.241 223.225 306.984 227.761 312.782 227.761C318.579 227.761 324.314 223.207 324.314 211.108C324.314 199.4 318.939 194.784 313.34 194.495L312.786 194.477H312.782ZM312.79 200.365C315.785 200.365 316.845 204.175 317.214 207.454L317.322 208.649L317.381 209.748L317.404 211.089L317.381 212.36L317.322 213.432L317.214 214.621C316.849 217.9 315.785 221.856 312.79 221.856C309.79 221.856 308.736 217.9 308.367 214.621L308.263 213.432L308.204 212.36L308.186 211.46L308.192 210.243L308.231 209.211L308.308 208.059L308.448 206.833C308.876 203.712 309.979 200.365 312.79 200.365H312.79Z" fill="white"/>
</g>
<defs>
<clipPath id="clip0_6_72703">
<rect width="288.292" height="500" fill="white" transform="translate(105.854)"/>
</clipPath>
</defs>
</svg>
