<svg width="500" height="500" viewBox="0 0 500 500" fill="none" xmlns="http://www.w3.org/2000/svg">
<g clip-path="url(#clip0_6_72708)">
<path d="M465.533 0H34.466L34.4219 367.558C34.4219 390.15 40.4899 407.629 52.4581 419.51C64.3309 431.298 81.7266 436.867 104.138 437.496C168.735 439.303 209.438 453.616 241.354 489.464L250 500L258.645 489.463C290.561 453.615 331.264 439.302 395.86 437.496C418.272 436.867 435.668 431.296 447.541 419.509C459.509 407.629 465.577 390.15 465.577 367.557L465.533 0Z" fill="#D49F45"/>
<path d="M395.861 426.088C328.402 428.258 282.175 443.544 250.001 480.556C217.827 443.544 171.599 428.258 104.14 426.088C65.3981 424.866 45.6074 406.89 45.6074 367.558L45.633 167.733H454.369L454.394 367.558C454.394 406.889 434.603 424.866 395.861 426.088Z" fill="#003A80"/>
<path d="M45.6494 11.1837H454.349L454.367 156.547H45.6309L45.6494 11.1837Z" fill="#DA001A"/>
<path d="M298.443 196.396V396.936H426.311V333.155H369.154V196.396H298.443Z" fill="#D49F45"/>
<path d="M360.454 205.095V341.852H417.614V388.236H307.143V205.095H360.454Z" fill="white"/>
<path d="M65.75 296.664C65.75 354.643 112.916 401.809 170.89 401.809C228.868 401.809 276.034 354.642 276.034 296.664C276.034 238.688 228.868 191.525 170.89 191.525C112.916 191.525 65.75 238.688 65.75 296.664Z" fill="#D49F45"/>
<path d="M74.9707 296.664C74.9707 243.774 117.999 200.746 170.889 200.746C223.783 200.746 266.813 243.774 266.813 296.664C266.813 349.556 223.783 392.588 170.889 392.588C117.998 392.588 74.9707 349.556 74.9707 296.664Z" fill="white"/>
<path d="M226.704 237.045C220.799 239.496 217.954 235.147 217.133 232.159C213.621 235.67 215.559 240.004 216.952 241.222C215.803 241.813 211.007 244.557 210.788 250.432C215.639 251.804 220.205 249.575 221.606 248.577C221.914 250.161 224.078 252.85 228.712 251.954C226.319 249.415 225.203 244.86 228.606 242.958L229.498 242.496C234.495 240.344 237.457 244.09 238.259 245.881C239.908 249.567 238.481 253.984 235.073 255.728L212.72 267.273C201.253 273.063 202.388 283.836 204.864 288.769L215.137 309.119C217.057 313.175 214.182 315.971 212.132 316.91C208.85 318.412 204.893 317.113 203.337 314.072L189.527 287.075C190.295 287.694 192.37 288.448 194.197 287.619C188.134 277.792 198.878 278.175 195.36 269.281C196.147 270.329 198.696 270.976 199.939 270.522C194.527 258.362 206.771 258.484 200.551 248.863C201.212 249.407 203.809 249.243 204.909 248.322C197.326 240.762 204.153 235.655 194.919 232.569C196.261 232.625 197.958 231.217 198.296 229.615C191.965 230.054 188.949 221.885 179.868 223.039C176.152 223.511 172.879 224.53 169.556 225.578C167.65 226.182 166.207 225.482 164.455 226.357C163.79 227.025 163.05 229.115 163.05 229.115C160.684 229.623 156.814 230.712 155.749 231.855C155.424 233.057 155.746 234.198 156.205 235.111C156.205 235.111 156.76 235.307 156.894 235.983C157.557 239.311 158.638 242.219 160.558 243.947L166.172 242.551C166.172 242.551 170.622 245.018 172.054 248.717C172.887 250.871 172.531 252.218 169.902 252.257C167.65 252.296 163.238 251.333 161.481 251.052C160.741 252.951 160.395 256.596 162.052 257.843C162.953 258.517 167.676 258.279 169.118 258.17C168.754 263.317 165.045 266.458 158.688 264.39C140.468 258.478 128.776 256.767 122.145 241.958C122.388 240.924 123.659 230.79 116.351 228.208C117.262 231.053 118.028 234.374 117.228 237.139C116.026 232.428 112.494 229.33 106.947 229.884C110.092 232.113 112.043 234.908 112.068 237.763C109.731 236.042 105.448 235.482 102.275 236.839C117.367 243.661 112.231 255.289 105.568 256.354C108.318 258.629 112.765 258.011 115.454 256.354L124.493 267.92C122.809 268.273 121.14 269.61 120.52 270.739C122.347 270.636 125.25 270.936 126.462 272.12C127.14 273.954 128.038 277.218 126.83 281.947C130.37 280.102 131.799 277.543 132.302 275.245L145.601 283.03C138.888 286.562 118.826 296.655 108.574 291.933C107.015 291.214 96.9253 286.882 91.3661 292.534C95.1329 292.408 98.791 293.949 99.4518 295.458C95.5667 295.886 90.8732 297.581 89.6895 301.92C91.155 300.976 96.0569 300.631 98.5852 301.064C96.3767 302.815 94.6197 305.958 94.875 310.008C94.875 310.008 102.981 302.511 109.635 304.441C112.733 305.338 111.227 310.761 110.618 312.064C115.638 311.339 116.916 306.368 116.931 305.966L132.412 305.321C133.449 305.824 133.89 308.033 132.933 309.797C135.583 309.059 136.759 307.491 137.423 304.991C140.674 305.382 142.477 307.596 142.854 310.899C145.106 308.572 144.804 304.971 143.875 303.128L160.74 299.057L166.596 305.52C166.596 305.52 136.421 324.38 126.145 323.889C127.74 327.524 135.131 327.117 138.547 325.831C137.5 327.725 138.248 330.465 138.248 330.465C138.248 330.465 140.523 330.615 142.878 327.625C142.878 327.625 147.401 336.662 146.674 338.254C144.555 342.905 129.793 343.905 129.793 343.905C127.107 341.769 119.721 339.277 115.608 342.402C118.764 342.538 121.303 344.943 121.71 346.439C119.981 346.452 113.944 347.174 112.574 352.778C115.962 351.235 120.059 351.235 121.312 351.906C119.394 353.276 117.022 356.459 117.636 360.41C121.991 355.807 128.04 353.735 132.063 354.631C134.418 355.155 134.548 358.684 133.864 361.2C137.218 360.317 139.145 356.858 139.857 355.034L156.002 350.004C156.002 350.004 156.523 351.441 156.492 353.741C158.51 353.509 160.501 351.022 160.651 349.234C160.651 349.234 163.681 353.837 168.443 353.032C165.678 348.365 161.87 336.347 161.887 333.261C161.91 329.366 173.67 327.049 175.644 326.461L181.337 334.777C181.337 334.777 175.547 337.609 174.552 341.322C179.629 339.079 183.718 339.304 185.015 339.624C186.128 340.798 187.237 342.884 187.698 345.353C188.803 344.646 190.237 342.559 190.386 340.423C203.291 344.515 203.311 346.494 200.166 359.519C194.305 358.944 184.961 358.65 182.938 364.635C186.48 363.658 190.551 364.29 192.754 365.138C190.009 366.07 185.083 368.931 186.263 374.576C186.263 374.576 191.03 369.24 196.515 370.185C193.576 371.993 189.909 375.785 193.13 380.519C196.043 374.519 202.851 373.917 205.702 374.49L209.742 365.742C211.386 362.185 215.909 362.633 216.409 367.156C220.683 361.901 215.879 356.153 214.507 355.474L218.199 347.541C219.383 347.657 222.448 348.435 224.25 346.306C222.366 345.733 220.71 344.503 219.977 343.2C221.861 343.33 226.871 344.102 229.244 340.828C221.195 339.216 202.433 327.771 201.02 320.723C204.694 323.705 210.019 324.564 214.631 322.501C217.608 321.166 219.863 318.847 221.032 315.937C224.365 309.051 233.166 314.644 234.538 301.899C231.02 306.891 223.254 303.572 221.724 309.77C218.605 296.045 238.416 305.008 238.553 284.279C233.666 292.756 216.185 289.733 217.621 300.455C210.135 278.314 243.686 292.656 241.849 263.921C235.302 276.904 209.286 273.467 211.747 288.818L210.323 285.996C208.356 281.945 208.811 276.314 214.917 273.006L237.871 261.174C244.124 257.967 246.764 250.261 243.846 243.375C242.083 239.207 235.582 232.876 226.704 237.045ZM166.091 231.352C166.091 231.352 165.545 229.572 167.779 229.132C170.276 228.642 172.655 230.136 174.688 230.835C173.411 232.383 168.492 233.309 166.091 231.352ZM166.193 244.749C156.322 249.192 148.079 248.92 140.51 244.694C142.153 250.042 156.492 257.044 166.193 244.749Z" fill="#D49F45"/>
<path d="M185.472 135.422C181.716 139.06 177.136 141.095 171.053 141.095C164.969 141.095 160.313 139.06 156.557 135.422C151.151 130.186 151.301 123.715 151.301 114.768C151.301 105.821 151.152 99.3498 156.557 94.1131C160.313 90.4753 164.969 88.4373 171.053 88.4373C177.136 88.4373 181.716 90.4761 185.472 94.1131C190.879 99.3498 190.805 105.821 190.805 114.768C190.804 123.715 190.879 130.186 185.472 135.422ZM177.737 100.222C176.235 98.545 173.905 97.4558 171.052 97.4558C168.199 97.4558 165.794 98.5442 164.292 100.222C162.262 102.405 161.738 104.804 161.738 114.768C161.738 124.731 162.262 127.131 164.292 129.313C165.794 130.985 168.199 132.076 171.052 132.076C173.905 132.076 176.235 130.985 177.737 129.313C179.764 127.13 180.363 124.731 180.363 114.768C180.363 104.805 179.765 102.405 177.737 100.222Z" fill="white"/>
<path d="M103.157 131.64H80.7789V89.4329L80.2241 88.8754H70.8973L70.3398 89.4329V140.102L70.8973 140.66H103.146L103.704 140.102V132.187L103.157 131.64Z" fill="white"/>
<path d="M143.333 88.8754H132.833L122.993 109.746L113.003 88.8754H102.222L101.857 89.2394L117.735 119.422V140.102L118.292 140.66H127.544L128.1 140.102V119.422L143.882 89.4249L143.333 88.8754Z" fill="white"/>
<path d="M236.961 88.8754L236.406 89.4329V120.585L215.228 88.8754H206.471L205.914 89.4329V140.102L206.471 140.66H215.796L216.353 140.102V108.875L237.534 140.66H246.288L246.845 140.102V89.4329L246.288 88.8754H236.961Z" fill="white"/>
<path d="M342.211 89.4329L341.654 88.8754H334.157L333.615 89.4143L314.521 140.252L314.931 140.659H325.256L328.486 131.495H347.487L350.643 140.659H360.975L361.379 140.256L342.211 89.4329ZM331.417 122.987L338.176 104.148L344.709 122.987H331.417Z" fill="white"/>
<path d="M371.494 88.8754L370.934 89.4276V140.102L371.494 140.66H380.818L381.374 140.102V89.4329L380.818 88.8754H371.494Z" fill="white"/>
<path d="M294.803 88.8754L294.244 89.4329V120.585L273.066 88.8754H264.309L263.752 89.4329V140.102L264.309 140.66H273.634L274.19 140.102V108.875L295.371 140.66H304.127L304.685 140.102V89.4329L304.127 88.8754H294.803Z" fill="white"/>
<path d="M428.468 114.404C426.212 112.366 423.135 111.057 418.253 110.403L411.945 109.531C409.767 109.242 408.038 108.44 406.986 107.496C405.862 106.476 405.41 105.094 405.41 103.783C405.41 100.223 408.112 97.2403 413.674 97.2403C417.068 97.2403 420.943 97.6687 424.241 100.486L425.009 100.444L430.85 94.8516V94.1396C426.356 90.1095 421.124 88.4373 413.973 88.4373C402.404 88.4373 395.346 94.9108 395.346 104.149C395.346 108.512 396.622 111.859 399.174 114.33C401.579 116.587 404.959 117.967 409.54 118.622L416 119.494C418.477 119.86 419.68 120.366 420.732 121.31C421.856 122.331 422.383 123.859 422.383 125.675C422.383 129.821 419.078 132.076 412.92 132.076C408.147 132.076 403.735 131.046 400.396 128.049L399.612 128.09L393.652 133.864V134.64C398.823 139.498 404.864 141.095 412.77 141.095C423.959 141.095 432.597 135.422 432.597 125.386C432.598 120.804 431.321 117.022 428.468 114.404Z" fill="white"/>
<path d="M99.9245 72.8127C96.3511 76.386 91.9916 78.3852 86.1992 78.3852C80.4094 78.3852 75.9775 76.386 72.4041 72.8127C67.2549 67.6661 67.3988 61.3039 67.3988 52.5141C67.3988 43.7217 67.254 37.3595 72.4041 32.2102C75.9775 28.6396 80.4094 26.6352 86.1992 26.6352C91.9916 26.6352 96.3511 28.6396 99.9245 32.2102C105.071 37.3595 104.999 43.7217 104.999 52.5141C105 61.3039 105.072 67.6661 99.9245 72.8127ZM92.5614 38.2164C91.1321 36.5707 88.9156 35.4973 86.1992 35.4973C83.4828 35.4973 81.1965 36.5707 79.7646 38.2164C77.8344 40.3631 77.337 42.7208 77.337 52.515C77.337 62.303 77.8344 64.6634 79.7646 66.8074C81.1965 68.4532 83.4819 69.5238 86.1992 69.5238C88.9165 69.5238 91.1321 68.4532 92.5614 66.8074C94.4934 64.6634 95.064 62.303 95.064 52.515C95.064 42.7208 94.4934 40.3631 92.5614 38.2164Z" fill="white"/>
<path d="M341.335 74.4903L337.367 70.5247C340.584 65.8056 340.514 60.1617 340.514 52.5141C340.514 43.7217 340.583 37.3595 335.437 32.2102C331.863 28.6396 327.501 26.6352 321.712 26.6352C315.922 26.6352 311.49 28.6396 307.917 32.2102C302.77 37.3595 302.914 43.7217 302.914 52.5141C302.914 61.3039 302.77 67.6661 307.917 72.8127C311.49 76.386 315.923 78.3852 321.712 78.3852C325.716 78.3852 329.147 77.4594 332.005 75.5989L336.115 79.7085H336.905L341.335 75.2765V74.4903ZM329.649 62.803L325.858 59.0159L320.57 64.235L325.003 68.5972C324.071 69.2367 322.93 69.523 321.713 69.523C318.999 69.523 316.71 68.4523 315.281 66.8065C313.348 64.6625 312.848 62.3021 312.848 52.5141C312.848 42.7208 313.348 40.3631 315.281 38.2155C316.71 36.5698 318.999 35.4965 321.713 35.4965C324.429 35.4965 326.646 36.5698 328.074 38.2155C330.005 40.3622 330.577 42.72 330.577 52.5141C330.577 57.659 330.432 60.5892 329.649 62.803Z" fill="white"/>
<path d="M144.297 69.0954H123.985V27.6237L123.428 27.0662H114.608L114.051 27.6237V77.4002L114.608 77.9576H144.297L144.855 77.4002V69.6502L144.297 69.0954Z" fill="white"/>
<path d="M178.416 27.0662H168.465L159.1 47.5786L149.593 27.0662H139.632L139.08 27.6184L154.098 57.0857V77.4002L154.653 77.9576H163.403L163.961 77.4002V57.0857L178.978 27.6184L178.416 27.0662Z" fill="white"/>
<path d="M221.602 27.0662L208.379 54.583L195.083 27.0662H185.844L185.289 27.621V77.4055L185.846 77.9576H194.665L195.225 77.4055V48.2933L205.018 67.5936H211.739L221.46 48.2933V77.4002L222.017 77.9576H230.835L231.395 77.4055V27.6237L230.84 27.0662H221.602Z" fill="white"/>
<path d="M293.751 27.0662H284.928L284.373 27.6184V77.4055L284.928 77.9576H293.751L294.309 77.4002V27.6237L293.751 27.0662Z" fill="white"/>
<path d="M377.399 27.0662L376.844 27.621V60.1617C376.844 66.023 373.34 69.5238 367.979 69.5238C362.619 69.5238 359.187 66.023 359.187 60.1617V27.6237L358.629 27.0662H349.809L349.252 27.6237V60.5177C349.252 71.3118 357.543 78.386 367.979 78.386C378.417 78.386 386.71 71.3118 386.71 60.5177V27.6237L386.152 27.0662H377.399Z" fill="white"/>
<path d="M405.73 69.0954V56.7297H425.259L425.816 56.1723V48.4223L425.259 47.8657H405.73V35.9302H428.763L429.321 35.371V27.6237L428.763 27.0662H396.354L395.797 27.6237V77.4002L396.354 77.9576H428.763L429.321 77.4002V69.6502L428.763 69.0954H405.73Z" fill="white"/>
<path d="M260.652 27.0662H241.476L240.924 27.6184V77.4002L241.479 77.9576H250.302L250.858 77.4002V60.5786H260.652C271.161 60.5786 277.45 52.4726 277.45 43.8198C277.45 35.1723 271.161 27.0662 260.652 27.0662ZM260.149 51.6449H250.858V35.9302H260.149C264.654 35.9302 267.512 39.6767 267.512 43.8198C267.512 47.9682 264.654 51.6449 260.149 51.6449Z" fill="white"/>
</g>
<defs>
<clipPath id="clip0_6_72708">
<rect width="431.155" height="500" fill="white" transform="translate(34.4219)"/>
</clipPath>
</defs>
</svg>
