<svg width="500" height="500" viewBox="0 0 500 500" fill="none" xmlns="http://www.w3.org/2000/svg">
<g clip-path="url(#clip0_6_72709)">
<path d="M250 0C112.143 0 0.00585938 112.149 0.00585938 249.994C0.00585938 387.84 112.143 500 250 500C387.846 500 499.995 387.84 499.995 249.994C499.995 112.149 387.846 0 250 0Z" fill="#004170"/>
<path d="M249.654 17.944C187.654 17.944 129.358 42.0869 85.5152 85.9299C41.6722 129.773 17.5293 188.069 17.5293 250.068C17.5293 312.068 41.6722 370.353 85.5152 414.207C129.358 458.05 187.654 482.193 249.654 482.193C311.653 482.193 369.949 458.05 413.792 414.207C457.635 370.353 481.778 312.068 481.778 250.068C481.778 188.069 457.635 129.773 413.792 85.9299C369.949 42.0869 311.653 17.944 249.654 17.944ZM249.654 27.1381C372.782 27.1381 472.584 126.951 472.584 250.068C472.584 373.186 372.782 472.999 249.654 472.999C126.536 472.999 26.7235 373.186 26.7235 250.068C26.7235 126.951 126.536 27.1381 249.654 27.1381Z" fill="white"/>
<path d="M182.81 89.4609L183.791 64.9102L199.963 83.4528C194.11 85.1615 188.388 87.1679 182.81 89.4609ZM186.249 52.2655C182.171 53.5773 178.136 54.9995 174.167 56.5539L169.879 121.651C173.737 119.292 177.706 117.098 181.774 115.081L182.391 99.9118C190.24 96.4502 198.42 93.5839 206.865 91.3681L216.864 102.844C221.262 101.896 225.727 101.124 230.247 100.573L186.249 52.2655ZM362.719 92.4738C371.318 90.4564 387.116 106.155 390.137 116.782C392.65 114.864 398.239 110.763 398.239 110.763C391.559 91.7572 364.968 72.7406 352.335 84.6467C344.838 91.7242 349.094 102.627 355.631 109.517L361.981 116.198C368.463 123.022 374.118 129.813 368.915 134.101C363.37 138.687 347.859 127.2 338.533 107.478L330.187 113.772C332.183 118.965 336.68 126.483 342.722 132.844C349.568 140.054 357.031 144.75 363.712 146.062C368.959 147.098 374.196 146.316 377.646 143.108C386.256 135.126 383.125 123.485 369.599 109.242L363.987 103.344C357.759 96.7843 360.305 93.0471 362.719 92.4738ZM110.546 109.156L126.189 91.9909C129.705 88.1325 135.714 87.8459 139.583 91.3736C143.442 94.8903 143.728 100.898 140.201 104.757L124.557 121.932L110.546 109.156ZM145.062 140.618L132.054 128.767L148.171 111.019C155.469 103.026 155.469 90.1499 147.465 82.8629C139.462 75.565 126.431 76.5682 119.144 84.5717L95.2109 110.897L136.893 148.876C139.506 146.009 142.251 143.275 145.062 140.618ZM248.892 52.8961H270.235C275.46 52.8961 279.715 57.1514 279.715 62.3768C279.715 67.6022 275.46 71.8576 270.235 71.8576H248.892V52.8961ZM248.892 99.3848V82.0108H263.433L275.978 101.843C280.95 102.747 285.834 103.883 290.618 105.261L275.581 81.2832C284.202 78.9792 291.313 71.3835 291.313 62.3768C291.313 51.5511 281.06 42.7318 270.235 42.7318H237.284V99.8699C241.109 99.5723 244.967 99.3849 248.881 99.3849L248.892 99.3848ZM312.459 113.409L334.519 60.3495C330.903 58.7289 327.232 57.2186 323.517 55.8075L301.468 108.834C305.205 110.212 308.865 111.744 312.459 113.409Z" fill="white"/>
<path d="M294.085 248.419C274.121 213.395 262.314 172.044 261.432 123.681C257.607 123.339 253.737 123.13 249.824 123.13C245.877 123.13 241.985 123.339 238.127 123.692C237.245 172.044 225.438 213.395 205.473 248.419H294.085ZM297.011 253.399H202.545C186.891 279.372 166.673 301.784 143.037 320.855C153.256 336.4 166.761 349.584 182.581 359.407C181.996 356.034 181.677 352.583 181.677 349.055C181.677 313.866 212.181 285.336 249.817 285.336C287.453 285.336 317.957 313.866 317.957 349.055C317.957 352.583 317.637 356.034 317.053 359.407C332.851 349.595 346.355 336.433 356.564 320.9C332.906 301.817 312.677 279.394 297.011 253.399Z" fill="#E30613"/>
<path d="M267.85 124.427C329.839 133.191 377.518 186.438 377.518 250.841C377.518 271.467 372.601 290.936 363.914 308.189C307.647 265.977 273.461 206.491 267.85 124.427ZM317.051 359.407C317.635 356.034 317.955 352.583 317.955 349.055C317.955 313.866 287.451 285.336 249.815 285.336C212.178 285.336 181.674 313.866 181.674 349.055C181.674 352.583 181.994 356.034 182.589 359.407C166.759 349.584 153.254 336.4 143.046 320.856C166.67 301.784 186.889 279.372 202.543 253.399H297.009C312.674 279.394 332.903 301.817 356.561 320.9C346.353 336.433 332.859 349.595 317.051 359.407ZM295.642 370.034C281.41 375.513 265.976 378.545 249.815 378.545C233.664 378.545 218.23 375.513 203.998 370.034C198.806 362.152 195.796 352.848 195.796 342.86C195.796 314.528 219.983 291.553 249.815 291.553C279.657 291.553 303.844 314.528 303.844 342.86C303.844 352.848 300.834 362.152 295.642 370.034ZM122.111 250.841C122.111 186.427 169.812 133.18 231.812 124.427C226.201 206.491 192.004 265.988 135.726 308.2C127.039 290.947 122.111 271.478 122.111 250.841ZM249.815 123.137C253.739 123.137 257.598 123.336 261.434 123.689C262.305 172.041 274.123 213.392 294.087 248.416H205.464C225.44 213.392 237.247 172.041 238.129 123.689C241.976 123.347 245.879 123.137 249.815 123.137ZM249.815 113.943C174.332 113.943 112.928 175.359 112.928 250.841C112.928 326.323 174.332 387.728 249.815 387.728C325.297 387.728 386.712 326.323 386.712 250.841C386.712 175.359 325.297 113.943 249.815 113.943Z" fill="white"/>
<path d="M270.618 333.619C264.003 333.619 257.642 338.944 253.96 348.667C253.894 348.8 253.85 348.965 253.85 349.13C253.838 349.748 254.335 350.255 254.952 350.266C255.393 350.266 255.768 350.023 255.966 349.66C255.966 349.634 255.977 349.628 255.977 349.603C255.988 349.603 255.988 349.59 255.988 349.578C258.81 343.481 264.058 340.615 267.034 340.615C268.71 340.615 270.066 341.971 270.066 343.647C270.066 345.322 268.71 346.678 267.034 346.678C266.88 346.678 266.637 346.659 266.494 346.634C266.362 346.615 266.042 346.535 265.876 346.899C265.755 347.196 265.502 348.652 266.803 350.14C267.563 351 269.129 351.716 270.617 351.716C275.622 351.716 279.668 347.66 279.668 342.666C279.668 337.661 275.622 333.615 270.617 333.615L270.618 333.619ZM245.382 348.663C241.689 338.94 235.328 333.615 228.725 333.615C223.72 333.615 219.674 337.672 219.674 342.666C219.674 347.66 223.72 351.717 228.725 351.717C230.213 351.717 231.778 351 232.539 350.14C233.84 348.652 233.586 347.197 233.454 346.91C233.3 346.535 232.98 346.613 232.848 346.635C232.704 346.66 232.462 346.679 232.307 346.679C230.632 346.679 229.276 345.323 229.276 343.647C229.276 341.982 230.632 340.626 232.307 340.626C235.273 340.626 240.531 343.482 243.343 349.589C243.343 349.602 243.353 349.602 243.353 349.614C243.364 349.627 243.375 349.64 243.375 349.658C243.563 350.022 243.949 350.276 244.379 350.265C245.007 350.252 245.503 349.747 245.492 349.129C245.492 348.964 245.448 348.81 245.382 348.666L245.382 348.663ZM258.706 329.421C258.706 324.207 251.882 307.924 249.82 307.924C249.666 307.924 249.501 308.001 249.313 308.155C246.822 310.162 240.924 324.57 240.924 329.421C240.924 333.313 248.784 343.565 248.784 349.143C248.784 349.717 249.247 350.179 249.82 350.179C250.383 350.179 250.857 349.716 250.857 349.143C250.857 349.131 250.845 349.118 250.845 349.112C250.878 343.533 258.706 333.303 258.706 329.423L258.706 329.421ZM254.357 358.084C252.869 357.169 251.733 355.714 251.325 353.972C251.138 353.311 250.543 352.815 249.815 352.815C249.098 352.815 248.492 353.31 248.305 353.972C247.897 355.714 246.761 357.169 245.273 358.084C244.997 358.249 244.975 358.371 245.086 358.58C245.99 360.377 247.522 362.604 249.396 364.114C249.661 364.323 249.76 364.335 249.815 364.335C249.881 364.335 249.969 364.322 250.234 364.114C252.119 362.604 253.64 360.377 254.544 358.58C254.655 358.371 254.633 358.249 254.357 358.084" fill="#CEAB5D"/>
<path d="M221.776 429.912L214.148 428.236L214.842 425.149L222.46 426.869L221.776 429.912ZM127.673 368.585C125.92 362.047 119.295 355.642 114.29 355.642C113.165 355.642 112.173 355.962 111.313 356.601C110.299 357.351 109.704 358.354 109.527 359.567C109.241 361.485 110.012 363.899 111.6 366.005L113.882 369.059C115.646 371.418 117.355 373.887 116.991 375.838C116.858 376.621 116.417 377.249 115.679 377.724C115.282 377.988 114.819 378.109 114.301 378.109C111.203 378.109 105.967 372.597 103.387 364.682L103.332 364.539L101.083 366.655L101.039 366.7L101.05 366.744C101.557 368.728 102.902 371.925 105.162 374.957C107.543 378.132 110.255 380.336 112.802 381.152C113.628 381.417 114.433 381.549 115.205 381.549C116.318 381.549 117.31 381.262 118.06 380.722C119.295 379.807 120.033 378.661 120.232 377.294C120.618 374.769 119.273 371.429 116.252 367.394L114.235 364.693C112.625 362.544 112.691 361.144 113.033 360.35C113.342 359.655 113.981 359.17 114.709 359.082C114.819 359.069 114.94 359.069 115.061 359.069C118.733 359.069 123.936 365.166 125.292 369.895L125.325 370.005L125.435 369.949C126.196 369.508 127.077 369.001 127.629 368.692L127.695 368.648L127.673 368.585ZM335.117 396.187L332.372 397.587L331.909 412.767L319.352 404.223L316.607 405.634L325.956 424.894L328.756 423.648L322.262 409.956L322.317 409.924L334.764 418.358L335.238 403.343L335.292 403.312L342.579 416.629L345.247 415.118L335.117 396.187ZM371.384 367.412L391.999 368.834L392.032 368.79L379.938 357.909L382 355.616L397.919 369.936L396.067 372.229L375.242 370.807L375.198 370.851L387.446 381.875L385.285 384.08L369.322 369.705L371.384 367.412ZM362.894 375.8L377.512 391.531L375.208 393.571L360.634 377.894L362.894 375.8ZM350.273 390.594L351.849 398.62L357.339 394.717L350.273 390.594ZM369.576 398.333L366.886 400.472L360.26 396.415L352.466 401.96L353.977 409.721L351.232 411.474L346.712 388.433L349.501 386.46L369.576 398.333ZM294.945 416.365L296.764 422.407L305.892 419.662C308.107 418.989 309.022 417.468 308.416 415.472C307.722 413.146 305.77 413.102 304.073 413.62L294.945 416.365ZM303.191 410.666C306.465 409.674 310.114 410.401 311.371 414.579C312.716 419.033 310.158 421.326 308.471 421.988L315.163 429.197L311.922 430.355L305.274 423.057L297.657 425.35L300.225 433.96L297.282 434.798L291.108 414.304L303.191 410.666ZM283.735 416.064L284.176 419.118L269.867 421.169L270.672 426.736L277.881 425.7L278.322 428.753L271.113 429.789L272.039 436.261L286.877 434.133L287.307 437.176L269.426 439.744L266.383 418.545L283.735 416.064ZM250.38 429.011L260.191 429.166L260.103 434.854C260.037 438.701 255.77 441.204 250.402 441.116C244.702 441.017 238.804 437.015 238.925 429.739C239.014 423.631 243.975 418.693 250.832 418.803C255.936 418.88 258.582 421.603 259.805 422.827L257.633 424.987C256.597 423.94 254.977 421.956 251.096 421.89C245.408 421.791 242.067 425.45 242.001 429.926C241.924 434.126 245.176 437.941 250.6 438.04C254.315 438.097 256.994 436.419 257.016 434.601L257.06 432.208L250.324 432.098L250.38 429.011ZM203.321 413.023L202.307 415.933L195.218 413.464L189.122 430.937L186.211 429.923L192.297 412.45L185.208 409.98L186.222 407.07L203.321 413.023ZM166.301 397.189L170.005 417.506L170.06 417.532L177.622 403.134L180.356 404.567L170.401 423.54L167.7 422.316L163.963 401.756L163.919 401.731L156.224 416.349L153.578 414.806L163.577 395.756L166.301 397.189ZM156.903 391.207L144.908 409.397L142.329 407.71L154.323 389.52L156.903 391.207ZM138.524 382.175L131.138 385.681L136.264 390.035L138.524 382.175ZM135.757 403L133.012 400.938L135.338 393.287L128.051 387.103L120.808 390.542L118.35 388.294L139.737 378.195L142.35 380.411L135.757 403Z" fill="white"/>
</g>
<defs>
<clipPath id="clip0_6_72709">
<rect width="499.989" height="500" fill="white" transform="translate(0.00585938)"/>
</clipPath>
</defs>
</svg>
