<svg width="500" height="500" viewBox="0 0 500 500" fill="none" xmlns="http://www.w3.org/2000/svg">
<path d="M422.691 161.747C417.295 139.388 412.638 120.078 411.407 109.151C408.23 80.9155 420.698 61.6629 420.829 61.4802L424.389 56.0819L384.782 6.54396L379.304 7.88534C343.006 16.8147 295.841 21.7207 246.499 21.7207L245.382 21.7164L244.266 21.7207C194.924 21.7207 147.759 16.8147 111.461 7.88534L105.983 6.54396L66.3738 56.0819L69.9342 61.4802C70.0643 61.6629 82.5324 80.9155 79.3557 109.151C78.1256 120.077 73.4678 139.388 68.0721 161.747C57.9799 203.567 45.4238 255.618 45.4238 292.416C45.4238 359.397 72.7807 392.727 153.834 424.492L162.177 427.734C193.442 439.847 227.214 450.378 238.329 476.066C241.959 483.036 242.893 484.898 245.382 493.948C247.87 484.898 248.804 483.036 252.434 476.066C263.549 450.378 297.32 439.847 328.586 427.734L336.929 424.492C417.982 392.726 445.339 359.397 445.339 292.416C445.339 255.619 432.782 203.566 422.691 161.747Z" fill="#FCBC17"/>
<path d="M429.135 230.634C424.788 208.067 419.159 184.722 414.113 163.817C408.714 141.377 404.026 122.196 402.638 110.138C402.241 106.61 402.063 103.205 402.063 99.9414C402.078 80.994 407.958 66.9595 411.238 60.5405C412.355 58.3698 413.119 57.1457 413.448 56.6414C413.453 56.6336 413.457 56.6276 413.463 56.6224L413.482 56.5914C413.484 56.5879 413.487 56.5845 413.489 56.5802L381.406 16.4534C344.134 25.6103 296.437 30.5336 246.496 30.544H246.459L245.379 30.5388V470.295C248.683 463.552 253.302 457.788 258.656 452.88C264.612 447.421 271.473 442.951 278.786 439.033C293.414 431.218 309.95 425.508 325.388 419.51L333.706 416.278C363.619 404.568 385.626 392.756 401.164 379.656C416.704 366.509 425.995 352.342 431.33 334.358C434.857 322.358 436.514 308.568 436.513 292.416C436.527 275 433.489 253.18 429.135 230.634Z" fill="#E13327"/>
<path d="M245.377 30.5379L244.264 30.5431C194.324 30.5328 146.624 25.6095 109.361 16.4543L109.354 16.4526L77.2711 56.5793C77.2892 56.6069 77.297 56.619 77.3168 56.6491C77.3453 56.6922 77.3677 56.7276 77.3927 56.7655C77.441 56.8397 77.4918 56.9224 77.5522 57.0172C77.6711 57.2086 77.8203 57.4534 77.9987 57.756C78.3539 58.3595 78.822 59.1914 79.366 60.2405C80.4548 62.3371 81.8453 65.3043 83.2246 69.0448C85.9798 76.5207 88.6944 87.1181 88.6961 99.9405C88.6961 103.204 88.5185 106.608 88.1229 110.136C86.7358 122.194 82.0461 141.376 76.6479 163.816C71.6022 184.722 65.9737 208.066 61.6263 230.633C57.2729 253.178 54.2341 274.999 54.2461 292.414C54.2444 308.565 55.9004 322.356 59.4289 334.354C62.9677 346.363 68.3185 356.622 76.0522 366.06C91.4496 384.888 117.12 400.653 157.028 416.266L165.363 419.504C176.944 423.995 189.149 428.352 200.691 433.525C212.224 438.713 223.16 444.694 232.103 452.878C237.458 457.786 242.077 463.55 245.381 470.293V30.5379H245.377Z" fill="black"/>
<path d="M105.734 297.013C103.924 295.156 101.049 294.09 98.4465 294.09C95.8025 294.09 92.4646 295.113 92.4646 298.31C92.4646 304.668 108.425 304.581 108.425 313.159C108.425 318.123 103.228 322.768 95.9913 322.768C93.162 322.768 90.331 322.348 87.6819 321.374L86.3379 315.575C89.0758 317.944 92.8793 319.425 96.5 319.425C99.1439 319.425 103.133 317.847 103.133 314.596C103.133 307.359 87.1724 308.667 87.1724 298.821C87.1724 292.975 93.1612 290.746 98.8224 290.746C101.138 290.746 103.509 291.072 105.733 291.764L105.734 297.013Z" fill="white"/>
<path d="M121.595 315.991C121.595 318.639 121.549 320.444 124.009 321.885V322.022H114.817V321.885C117.145 321.003 116.863 317.622 116.863 315.528V294.833H112.776C110.782 294.833 108.698 295.343 107.255 296.684H107.115L108.741 291.161H108.879C109.439 291.397 110.042 291.397 110.642 291.489H129.114C129.905 291.489 130.645 291.446 131.248 291.161H131.386L129.905 296.684H129.76C129.157 295.068 127.304 294.833 125.768 294.833H121.595L121.595 315.991Z" fill="white"/>
<path d="M142.292 295.435L137.698 307.128H146.842L142.292 295.435ZM136.494 310.564L134.078 317.11C133.106 319.706 132.78 321.057 135.006 321.887V322.022H126.465V321.887C129.157 320.541 129.948 317.946 130.966 315.302L138.716 295.947C139.369 294.278 140.252 292.326 138.026 291.63V291.491H145.356L155.009 315.302C156.075 317.945 156.91 320.541 159.558 321.887V322.022H150.042V321.887C152.315 320.868 151.946 320.353 150.691 317.11L148.185 310.564H136.494Z" fill="white"/>
<path d="M167.858 318.365C168.97 318.597 170.086 318.688 171.247 318.688C178.16 318.688 184.334 315.07 184.334 307.037C184.334 298.918 179.783 294.833 172.033 294.833C170.646 294.833 169.252 295.015 167.858 295.343V318.365ZM163.126 297.852C163.126 295.715 163.449 292.324 161.083 291.628V291.489H172.453C183.029 291.489 189.623 297.244 189.623 306.483C189.623 315.62 182.614 322.02 172.221 322.02H161.082V321.885C163.402 320.303 163.125 318.078 163.125 315.344L163.126 297.852Z" fill="white"/>
<path d="M198.575 318.122L204.468 318.687C207.531 318.966 210.731 317.987 213.055 315.947H213.192L211.108 322.021H191.754V321.884C194.125 321.056 193.843 317.622 193.843 315.527V298.034C193.843 295.902 194.125 292.51 191.754 291.628V291.488H206.602C207.394 291.488 208.182 291.584 208.785 291.256H208.923V296.683H208.785C207.348 295.013 205.447 294.83 203.307 294.83C201.681 294.83 200.056 294.879 198.575 295.153V303.79H204.098C204.838 303.79 205.584 303.79 206.136 303.505H206.281V308.426H206.136C205.395 307.084 203.449 307.128 202.006 307.128H198.575L198.575 318.122Z" fill="white"/>
<path d="M237.444 291.491C243.662 291.491 247.051 294.741 247.051 298.963C247.051 303.043 243.479 306.252 239.676 307.129L246.355 315.529C248.301 317.946 251.232 320.353 253.873 322.022H249.6C247.145 322.022 245.613 321.419 244.219 319.706L238.558 312.697L234.287 306.155C238.001 305.6 242.319 303.878 242.319 299.518C242.319 296.179 239.439 294.231 236.333 294.371C235.264 294.419 234.241 294.553 233.175 294.742V315.528C233.175 317.661 232.897 321.058 235.264 321.886V322.022H226.402V321.886C228.769 321.058 228.443 317.623 228.443 315.528V298.036C228.443 295.903 228.769 292.513 226.402 291.629V291.49H237.444" fill="white"/>
<path d="M259.103 318.122L265.001 318.687C268.064 318.966 271.265 317.987 273.583 315.947H273.724L271.641 322.021H252.287V321.884C254.653 321.056 254.37 317.622 254.37 315.527V298.034C254.37 295.902 254.653 292.51 252.287 291.628V291.488H267.135C267.922 291.488 268.71 291.584 269.313 291.256H269.453V296.683H269.313C267.875 295.013 265.974 294.83 263.839 294.83C262.213 294.83 260.595 294.879 259.102 295.153V303.79H264.63C265.371 303.79 266.112 303.79 266.671 303.505H266.808V308.426H266.671C265.928 307.084 263.977 307.128 262.539 307.128H259.102L259.103 318.122Z" fill="white"/>
<path d="M280.63 315.991C280.63 318.596 280.58 320.444 283.042 321.885V322.022H274.826V321.885C277.287 320.444 277.287 318.597 277.287 315.991V297.476C277.287 294.881 277.287 293.023 274.869 291.629V291.491H281.647V291.533C281.835 292.092 282.024 292.324 282.344 292.7L282.996 293.627L299.979 315.07V297.477C299.979 294.881 300.025 293.024 297.564 291.63V291.491H305.735V291.63C303.324 293.024 303.324 294.881 303.324 297.477V323.512C300.025 322.397 298.588 320.868 296.548 318.224L280.63 298.036V315.991" fill="white"/>
<path d="M312.879 315.991C312.879 318.596 312.833 320.444 315.294 321.885V322.022H307.074V321.885C309.538 320.444 309.538 318.597 309.538 315.991V297.476C309.538 294.881 309.538 293.023 307.123 291.629V291.491H313.901V291.533C314.082 292.092 314.27 292.324 314.591 292.7L315.249 293.627L332.232 315.07V297.477C332.232 294.881 332.276 293.024 329.816 291.63V291.491H337.983V291.63C335.571 293.024 335.571 294.881 335.571 297.477V323.512C332.276 322.397 330.838 320.868 328.799 318.224L312.879 298.036V315.991Z" fill="white"/>
<path d="M353.848 295.435L349.259 307.128H358.398L353.848 295.435ZM348.053 310.564L345.643 317.11C344.663 319.706 344.337 321.057 346.567 321.887V322.022H338.031V321.887C340.717 320.541 341.51 317.946 342.532 315.302L350.282 295.947C350.929 294.278 351.809 292.326 349.584 291.63V291.491H356.914L366.567 315.302C367.636 317.945 368.47 320.541 371.111 321.887V322.022H361.603V321.887C363.88 320.868 363.506 320.353 362.249 317.11L359.746 310.564H348.053Z" fill="white"/>
<path d="M374.739 298.035C374.739 295.903 375.055 292.511 372.693 291.628V291.489H381.51V291.628C379.189 292.51 379.467 295.946 379.467 298.035V315.528C379.467 317.622 379.189 321.003 381.51 321.885V322.022H372.693V321.885C375.009 321.057 374.739 317.622 374.739 315.528V298.035Z" fill="white"/>
<path d="M401.73 297.013C399.921 295.156 397.041 294.09 394.448 294.09C391.801 294.09 388.463 295.113 388.463 298.31C388.463 304.668 404.428 304.581 404.428 313.159C404.428 318.123 399.228 322.768 391.984 322.768C389.155 322.768 386.328 322.348 383.683 321.374L382.338 315.575C385.073 317.944 388.877 319.425 392.497 319.425C395.14 319.425 399.138 317.847 399.138 314.596C399.138 307.359 383.172 308.667 383.172 298.821C383.172 292.975 389.153 290.746 394.814 290.746C397.134 290.746 399.502 291.072 401.729 291.764V297.013" fill="white"/>
<path d="M137.21 352.75C137.21 353.913 137.003 355.813 138.298 356.301V356.378H133.396V356.301C134.721 355.837 134.562 353.912 134.562 352.75V342.972C134.562 341.774 134.721 339.884 133.396 339.392V339.31H141.696C142.14 339.31 142.578 339.368 142.916 339.185H142.993V342.185H142.916C142.115 341.283 141.047 341.177 139.853 341.177C138.949 341.177 138.04 341.21 137.209 341.36V346.19H140.321C140.707 346.19 141.127 346.19 141.437 346.03H141.516V348.775H141.437C141.022 348.003 139.932 348.057 139.127 348.057H137.209V352.75" fill="white"/>
<path d="M148.749 347.559C148.749 351.191 151.317 354.925 155.393 354.925C159.335 354.925 161.85 352.05 161.85 348.176C161.85 344.394 159.438 340.738 155.337 340.738C151.318 340.738 148.749 343.642 148.749 347.559ZM164.808 347.666C164.808 352.959 160.424 356.792 155.262 356.792C150.129 356.792 145.797 353.111 145.797 347.795C145.797 342.865 150.073 338.745 155.522 338.87C160.97 338.842 164.808 342.996 164.808 347.666Z" fill="white"/>
<path d="M170.795 347.559C170.795 351.191 173.359 354.925 177.435 354.925C181.377 354.925 183.892 352.05 183.892 348.176C183.892 344.394 181.48 340.738 177.384 340.738C173.359 340.738 170.795 343.642 170.795 347.559ZM186.849 347.666C186.849 352.959 182.469 356.792 177.308 356.792C172.171 356.792 167.838 353.111 167.838 347.795C167.838 342.865 172.115 338.745 177.563 338.87C183.012 338.842 186.849 342.996 186.849 347.666Z" fill="white"/>
<path d="M196.419 353.01C196.419 354.486 196.39 355.499 197.77 356.3V356.377H192.633V356.3C193.93 355.813 193.773 353.911 193.773 352.749V341.177H191.491C190.375 341.177 189.208 341.466 188.404 342.223H188.324L189.234 339.131H189.31C189.622 339.26 189.964 339.26 190.295 339.309H200.618C201.065 339.309 201.479 339.285 201.815 339.131H201.894L201.065 342.223H200.985C200.65 341.307 199.61 341.177 198.752 341.177H196.419V353.01Z" fill="white"/>
<path d="M210.516 346.189C212.202 346.189 214.612 345.615 214.612 343.487C214.612 341.697 212.952 340.766 211.396 340.921L209.657 341.103V346.187L210.516 346.189ZM211.914 354.51C214.039 354.718 216.198 353.728 216.198 351.273C216.198 348.749 213.756 347.664 211.475 347.795L209.656 347.897V354.303L211.914 354.51ZM207.013 342.942C207.013 341.775 207.192 339.884 205.872 339.391V339.31H212.018C215.44 339.31 217.442 340.766 217.442 343.078C217.442 344.81 216.325 345.798 214.849 346.44C217.179 346.936 219.072 348.495 219.072 351.032C219.072 353.028 217.697 354.741 215.958 355.576C214.146 356.459 212.097 356.378 210.15 356.378H205.871V356.301C207.166 355.814 207.012 353.912 207.012 352.726L207.013 342.942Z" fill="white"/>
<path d="M230.963 341.519L228.4 348.056H233.508L230.963 341.519ZM227.724 349.971L226.375 353.628C225.831 355.08 225.647 355.837 226.894 356.301V356.378H222.121V356.301C223.624 355.548 224.068 354.091 224.637 352.619L228.969 341.803C229.332 340.868 229.822 339.781 228.577 339.391V339.31H232.678L238.071 352.619C238.669 354.091 239.14 355.547 240.611 356.301V356.378H235.294V356.301C236.566 355.731 236.358 355.447 235.661 353.628L234.257 349.971H227.724Z" fill="white"/>
<path d="M250.934 354.51C252.697 354.616 254.229 354.018 255.529 352.933H255.608L254.253 356.378H243.6V356.301C244.919 355.837 244.764 353.912 244.764 352.75V342.972C244.764 341.774 244.919 339.884 243.6 339.392V339.31H248.549V339.393C247.23 339.885 247.408 341.805 247.408 342.972V354.279L250.934 354.51Z" fill="white"/>
<path d="M266.237 354.51C267.996 354.616 269.532 354.018 270.825 352.933H270.904L269.556 356.378H258.898V356.301C260.215 355.837 260.059 353.912 260.059 352.75V342.972C260.059 341.774 260.216 339.884 258.898 339.392V339.31H263.852V339.393C262.523 339.885 262.707 341.805 262.707 342.972V354.279L266.237 354.51Z" fill="white"/>
<path d="M303.539 342.528C302.111 341.621 300.451 341.047 298.74 341.047C295.163 341.047 292.673 343.671 292.673 347.434C292.673 351.241 295.266 354.64 299.258 354.64C301.204 354.64 303.144 353.936 304.789 353.009H304.863L303.539 356.02C302.314 356.584 300.971 356.792 299.622 356.792C293.502 356.792 289.713 353.372 289.713 347.825C289.713 342.451 293.503 338.896 298.821 338.896C300.403 338.896 302.002 339.184 303.539 339.547V342.528Z" fill="white"/>
<path d="M316.857 354.51C318.62 354.616 320.146 354.018 321.444 352.933H321.519L320.174 356.378H309.514V356.301C310.838 355.837 310.681 353.912 310.681 352.75V342.972C310.681 341.774 310.839 339.884 309.514 339.392V339.31H314.462V339.393C313.146 339.885 313.327 341.805 313.327 342.972V354.279L316.857 354.51Z" fill="white"/>
<path d="M336.56 354.665C335.42 356.17 333.295 356.792 331.477 356.792C329.768 356.792 327.951 356.252 326.779 354.983C325.407 353.478 325.46 351.736 325.46 349.874V342.942C325.46 341.775 325.639 339.884 324.314 339.391V339.31H329.25V339.392C327.952 339.885 328.109 341.776 328.109 342.943V349.875C328.109 353.32 329.562 354.925 332.233 354.925C333.687 354.925 335.164 354.328 336.019 353.111C336.589 352.335 336.561 351.688 336.561 350.753V342.942C336.561 341.775 336.724 339.884 335.421 339.391V339.31H340.351L340.375 339.392C339.055 339.885 339.208 341.776 339.208 342.972V352.75C339.208 353.913 339.054 355.813 340.375 356.301V356.378H336.561V354.665" fill="white"/>
<path d="M348.801 346.189C350.493 346.189 352.907 345.615 352.907 343.487C352.907 341.697 351.248 340.766 349.687 340.921L347.949 341.103V346.187L348.801 346.189ZM350.205 354.51C352.333 354.718 354.486 353.728 354.486 351.273C354.486 348.749 352.053 347.664 349.77 347.795L347.948 347.897V354.303L350.205 354.51ZM345.305 342.942C345.305 341.775 345.483 339.884 344.164 339.391V339.31H350.31C353.738 339.31 355.732 340.766 355.732 343.078C355.732 344.81 354.617 345.798 353.139 346.44C355.472 346.936 357.367 348.495 357.367 351.032C357.367 353.028 355.995 354.741 354.251 355.576C352.437 356.459 350.39 356.378 348.443 356.378H344.165V356.301C345.466 355.814 345.305 353.912 345.305 352.726L345.305 342.942Z" fill="white"/>
<path d="M211.966 381.414C214.054 380.684 215.911 379.185 216.99 377.303H217.057V390.545C217.057 391.886 216.967 392.966 218.239 393.791V393.854H213.304V393.791C214.761 393.078 214.691 391.978 214.691 390.545V381.48H211.965L211.966 381.414Z" fill="#FCBC17"/>
<path d="M230.489 392.876C234.242 392.099 237.672 388.67 237.672 384.723C237.672 382.326 236.333 379.702 233.63 379.702C231.611 379.702 230.202 381.269 230.202 383.247C230.202 385.38 231.611 387.068 233.779 387.068C234.643 387.068 235.514 386.769 236.264 386.32L234.667 388.27C234.057 388.505 233.422 388.622 232.766 388.622C230.014 388.622 227.836 386.576 227.836 383.741C227.836 380.315 230.626 378.034 233.936 378.034C237.626 378.034 240.043 380.923 240.043 384.469C240.043 387.17 238.615 389.775 236.52 391.444C234.377 393.128 231.989 393.977 229.307 394.328L230.489 392.876Z" fill="#FCBC17"/>
<path d="M252.717 385.948C252.717 388.312 253.492 392.397 256.521 392.397C258.846 392.397 260.167 389.537 260.167 386.222C260.167 382.869 258.755 379.913 256.381 379.859C253.42 379.861 252.717 383.666 252.717 385.948ZM250.207 386.18C250.207 381.84 252.342 378.033 256.472 378.033C260.82 378.033 262.678 382.235 262.678 386.041C262.678 389.867 260.794 394.232 256.383 394.232C252.698 394.188 250.207 390.522 250.207 386.18Z" fill="#FCBC17"/>
<path d="M272.536 381.414C274.622 380.684 276.479 379.185 277.555 377.303H277.63V390.545C277.63 391.886 277.537 392.966 278.799 393.791V393.854H273.874V393.791C275.333 393.078 275.258 391.978 275.258 390.545V381.48H272.535V381.414" fill="#FCBC17"/>
<path d="M290.675 62.0155H200.091L146.363 116.474V206.055L201.515 262.303H289.254L289.889 261.656L344.4 206.055V116.473L290.675 62.0155Z" fill="white"/>
<path d="M225.062 130.57C225.062 119.749 233.524 110.909 244.188 110.293V64.1767H200.996L148.525 117.361V205.173L202.425 260.143H244.188V150.851C233.524 150.234 225.062 141.391 225.062 130.57Z" fill="#E13327"/>
<path d="M289.772 64.1759H246.58V110.293C257.246 110.916 265.702 119.753 265.702 130.569C265.702 141.385 257.245 150.227 246.58 150.849V260.142H288.346L342.238 205.172V117.361L289.772 64.1759Z" fill="black"/>
<path d="M251.038 106.936L251.571 99.8741C251.571 99.8741 262.105 99.3388 271.39 107.014C271.39 107.014 278.88 85.0543 289.415 80.419C289.415 80.419 290.126 83.2698 290.834 83.4534C291.555 83.6267 294.049 80.7715 294.769 80.9543C295.476 81.1328 293.875 90.7716 316.183 99.1603L314.935 105.051C314.935 105.051 287.628 102.904 287.628 119.147C287.628 126.465 298.16 139.137 299.937 141.458C301.731 143.778 313.147 153.059 314.752 177.869C314.752 177.869 318.862 174.83 318.862 166.981C318.862 159.128 314.225 143.421 314.225 137.709C314.225 131.997 313.325 116.652 328.856 116.652V124.5C328.856 124.5 323.594 124.35 322.963 131.283C322.435 137.173 330.106 163.053 326.537 172.871C323.606 180.936 322.074 184.111 316.364 188.573C310.653 193.035 292.444 207.493 309.936 220.34L293.696 249.791C293.696 249.791 284.236 253.182 283.525 253.182C282.808 253.182 280.844 253.544 282.27 251.933C283.7 250.331 296.195 238.729 296.195 226.057C296.195 213.384 277.813 209.453 277.813 190.359C277.813 177.686 288.88 170.01 288.88 170.01C288.88 170.01 286.915 165.37 284.953 163.768C282.985 162.157 272.1 155.731 270.498 151.804C270.498 151.804 259.783 160.551 251.218 161.091C251.218 161.091 249.079 157.342 248.9 154.665C248.9 154.665 270.305 151.929 269.891 129.532C269.539 110.747 251.038 106.936 251.038 106.936Z" fill="white"/>
<path d="M239.72 106.936L239.188 99.8741C239.188 99.8741 228.662 99.3388 219.373 107.014C219.373 107.014 211.881 85.0543 201.353 80.419C201.353 80.419 200.637 83.2698 199.92 83.4534C199.208 83.6267 196.71 80.7715 195.998 80.9543C195.281 81.1328 196.888 90.7716 174.579 99.1603L175.829 105.051C175.829 105.051 203.138 102.904 203.138 119.147C203.138 126.465 192.604 139.137 190.821 141.458C189.034 143.778 177.613 153.059 176.006 177.869C176.006 177.869 171.901 174.83 171.901 166.981C171.901 159.128 176.539 143.421 176.539 137.709C176.539 131.997 177.434 116.652 161.908 116.652V124.5C161.908 124.5 167.164 124.35 167.796 131.283C168.33 137.173 160.659 163.053 164.226 172.871C167.159 180.936 168.687 184.111 174.4 188.573C180.112 193.035 198.316 207.493 180.829 220.34L197.067 249.791C197.067 249.791 206.526 253.182 207.241 253.182C207.952 253.182 209.92 253.544 208.493 251.933C207.064 250.331 194.566 238.729 194.566 226.057C194.566 213.384 212.953 209.453 212.953 190.359C212.953 177.686 201.887 170.01 201.887 170.01C201.887 170.01 203.85 165.37 205.816 163.768C207.777 162.157 218.663 155.731 220.269 151.804C220.269 151.804 230.978 160.551 239.543 161.091C239.543 161.091 241.687 157.342 241.865 154.665C241.865 154.665 220.461 151.929 220.875 129.532C221.225 110.747 239.72 106.936 239.72 106.936Z" fill="white"/>
<path d="M208.1 220.88L224.518 244.677L234.393 246.341C234.393 246.341 236.057 246.341 235.105 244.918C234.152 243.485 223.09 230.634 222.019 227.422C220.948 224.209 218.447 221.473 222.849 215.4C227.25 209.336 235.697 203.624 235.697 191.487C235.697 179.35 225.347 169.572 211.785 169.832C205.719 169.958 210.613 173.619 211.187 174.357C212.501 176.022 216.184 181.14 217.019 188.878C217.934 197.391 213.686 202.553 213.686 203.267C213.686 205.293 216.782 205.651 216.782 210.764C216.782 216.717 208.1 220.88 208.1 220.88Z" fill="white"/>
<path d="M282.386 220.88L265.969 244.677L256.089 246.341C256.089 246.341 254.424 246.341 255.379 244.918C256.327 243.485 267.397 230.634 268.469 227.422C269.537 224.209 272.036 221.473 267.635 215.4C263.235 209.336 254.781 203.624 254.781 191.487C254.781 179.35 265.136 169.572 278.701 169.832C284.767 169.958 279.87 173.619 279.299 174.357C277.985 176.022 274.298 181.14 273.464 188.878C272.546 197.391 276.798 202.553 276.798 203.267C276.798 205.293 273.7 205.651 273.7 210.764C273.699 216.717 282.386 220.88 282.386 220.88Z" fill="white"/>
</svg>
